<?xml version="1.0" encoding="UTF-8"?>
<svg id="Layer_1" data-name="Layer 1" xmlns="http://www.w3.org/2000/svg" xmlns:xlink="http://www.w3.org/1999/xlink" viewBox="0 0 190.28 190.28">
  <defs>
    <style>
      .cls-1 {
        fill: url(#linear-gradient-2);
      }

      .cls-2 {
        fill: #f7911c;
        opacity: .7;
      }

      .cls-3 {
        fill: url(#linear-gradient-15);
      }

      .cls-4 {
        fill: url(#linear-gradient-14);
      }

      .cls-5 {
        mask: url(#mask-2);
      }

      .cls-6 {
        fill: url(#linear-gradient-6);
      }

      .cls-7 {
        mask: url(#mask-3);
      }

      .cls-8 {
        fill: #ffc82c;
      }

      .cls-9 {
        fill: url(#linear-gradient-11);
      }

      .cls-10 {
        fill: url(#linear-gradient-10);
      }

      .cls-11 {
        fill: #fbb931;
      }

      .cls-12 {
        fill: #ffb52c;
      }

      .cls-13 {
        opacity: .53;
      }

      .cls-13, .cls-14 {
        fill: #ffbf2c;
      }

      .cls-15 {
        mask: url(#mask-4);
      }

      .cls-16 {
        fill: url(#linear-gradient-5);
      }

      .cls-17 {
        fill: #f9b333;
      }

      .cls-18 {
        fill: #a591e5;
      }

      .cls-19 {
        fill: url(#linear-gradient-7);
      }

      .cls-20 {
        fill: url(#linear-gradient-9);
      }

      .cls-21 {
        mask: url(#mask-1);
      }

      .cls-22 {
        mask: url(#mask);
      }

      .cls-23 {
        fill: url(#linear-gradient-3);
      }

      .cls-24 {
        fill: url(#linear-gradient);
      }

      .cls-25 {
        fill: url(#linear-gradient-4);
      }

      .cls-26 {
        fill: url(#linear-gradient-8);
      }

      .cls-27 {
        fill: url(#linear-gradient-12);
      }

      .cls-28 {
        fill: url(#linear-gradient-13);
      }
    </style>
    <linearGradient id="linear-gradient" x1="425.63" y1="-9.52" x2="425.63" y2="-58.33" gradientTransform="translate(-255.06 353.39) rotate(-33.5)" gradientUnits="userSpaceOnUse">
      <stop offset="0" stop-color="#000"/>
      <stop offset="1" stop-color="#fff"/>
    </linearGradient>
    <mask id="mask" x="72.74" y="78.65" width="27.87" height="41.06" maskUnits="userSpaceOnUse">
      <path class="cls-24" d="m74.59,79.46c-3.32,2.2-1.33,5.87-.51,7.54,4.76,9.77,19.64,32.7,19.64,32.7,0,0,1.44-3.65,3.11-6.12,1.67-2.47,3.78-4.54,3.78-4.54,0,0-18.36-26.42-19.4-27.83-1.32-1.81-3.71-3.68-6.62-1.76Z"/>
    </mask>
    <linearGradient id="linear-gradient-2" x1="427.18" y1="-47.52" x2="425.6" y2="-8.27" gradientTransform="translate(-255.06 353.39) rotate(-33.5)" gradientUnits="userSpaceOnUse">
      <stop offset="0" stop-color="#fde67f"/>
      <stop offset="1" stop-color="#fde266"/>
    </linearGradient>
    <linearGradient id="linear-gradient-3" x1="438.04" y1="-9.09" x2="438.04" y2="-60.32" xlink:href="#linear-gradient"/>
    <mask id="mask-1" x="76.82" y="65.03" width="32.47" height="40.41" maskUnits="userSpaceOnUse">
      <path class="cls-23" d="m79.13,65.95c3.81-2.58,6.64.92,7.58,2.14,1.71,2.19,17.07,23.4,18.43,25.32,2.11,2.98,4.06,5.36,4.14,7.02.05.99-4.46,4.36-5.85,4.9-1.39.54-2.62-.86-4.29-2.94-2.02-2.52-3.21-4.24-5.11-6.85-1.94-2.67-8.42-11.18-9.68-12.86-1.26-1.68-1.95-2.53-3.39-4.52-1.15-1.59-3.13-4.43-3.8-6.17-.65-1.7-.63-4.27,1.95-6.03Z"/>
    </mask>
    <linearGradient id="linear-gradient-4" x1="439.09" y1="-56.31" x2="437.43" y2="-15.28" xlink:href="#linear-gradient-2"/>
    <linearGradient id="linear-gradient-5" x1="450.32" y1="-12.25" x2="450.32" y2="-70.56" xlink:href="#linear-gradient"/>
    <mask id="mask-2" x="84.14" y="53.78" width="35.78" height="43.4" maskUnits="userSpaceOnUse">
      <path class="cls-16" d="m86.41,54.83c-2.3,1.69-2.5,3.65-2.11,5.57.32,1.54,1.7,3.48,3.46,6.01,1.73,2.49,5.57,7.78,7.54,10.5,2.45,3.35,4.92,6.6,8.29,10.9,3.05,3.88,6.85,8.81,7.47,9.06,2.3.94,4.4-.51,5.73-1.21,1.33-.7,3.02-1.37,3.12-2.44.04-.46-2.18-3.42-4.97-7.42-2.25-3.23-4.46-6.49-5.42-7.81-2.04-2.8-7.79-11.03-10.24-14.4-2.22-3.05-4.73-7.19-7.31-8.86-1.39-.9-3.19-1.64-5.56.1Z"/>
    </mask>
    <linearGradient id="linear-gradient-6" x1="450.32" y1="-59.75" x2="450.32" y2="-10.3" gradientTransform="translate(-255.06 353.39) rotate(-33.5)" xlink:href="#linear-gradient-2"/>
    <linearGradient id="linear-gradient-7" x1="464.01" y1="-10.49" x2="461.22" y2="-65.22" xlink:href="#linear-gradient"/>
    <mask id="mask-3" x="98.1" y="52.04" width="33.47" height="40.46" maskUnits="userSpaceOnUse">
      <path class="cls-19" d="m100.51,52.93c3.5-2.44,6.48.7,8.33,3.06.43.55,2.34,3.15,4.37,5.89,4.22,5.69,7.01,9.77,9.03,12.61,3.25,4.59,7.68,9.82,8.72,11.6,1.04,1.78.71,3.31-.7,4.48-2.63,2.17-4.26,2.03-5.45,1.84-1.2-.19-2.05-.68-3.84-2.32-1.62-1.49-3.88-4.39-6.81-8.62-1.61-2.32-3.15-4.57-4.53-6.46-1.4-1.93-3.69-5.19-6.21-8.55-2.2-2.93-3.58-5.09-4.17-6.11-.8-1.38-2.64-4.68,1.28-7.41Z"/>
    </mask>
    <linearGradient id="linear-gradient-8" x1="457.13" y1="-30.38" x2="469.44" y2="-30.38" xlink:href="#linear-gradient-2"/>
    <linearGradient id="linear-gradient-9" x1="486.67" y1="-15.94" x2="495" y2="-15.94" gradientTransform="translate(-255.06 353.39) rotate(-33.5)" gradientUnits="userSpaceOnUse">
      <stop offset="0" stop-color="#fde266"/>
      <stop offset="1" stop-color="#fde266"/>
    </linearGradient>
    <linearGradient id="linear-gradient-10" x1="457.47" y1="-49.52" x2="467.47" y2="-49.52" xlink:href="#linear-gradient-9"/>
    <linearGradient id="linear-gradient-11" x1="444.51" y1="-54.99" x2="455.22" y2="-54.99" xlink:href="#linear-gradient-9"/>
    <linearGradient id="linear-gradient-12" x1="432.5" y1="-50.7" x2="442.45" y2="-50.7" xlink:href="#linear-gradient-9"/>
    <linearGradient id="linear-gradient-13" x1="421.75" y1="-42.38" x2="430.65" y2="-42.38" xlink:href="#linear-gradient-9"/>
    <linearGradient id="linear-gradient-14" x1="468.45" y1="13.65" x2="522.38" y2="-41.41" xlink:href="#linear-gradient"/>
    <mask id="mask-4" x="134.82" y="63.43" width="16.3" height="63.85" maskUnits="userSpaceOnUse">
      <path class="cls-4" d="m147.25,64.03c-.92-.88-2.11-.67-3.38-.11-1.25.56-2.95,1.54-3.86,3.38-1.73,3.53-1.59,8.49-1.69,11.23-.09,2.26-.24,4.72.4,7.66.67,3.03,2.3,7.28,2.04,9.1-.22,1.49-1.68,2.92-3.16,5.46-2.84,4.89-3.21,9.37-2.44,14.69.76,5.32,9.21,12.46,11.56,11.79,2.34-.67,4.56-2.9,4.39-6.2-.17-3.3-1.05-7.72-1.18-9.85-.11-1.74.55-3.94-.02-8.91-.41-3.66-1.2-5.68-1.86-8.74-.48-2.24-.9-4.32-.86-9.06.02-2.09.06-3.94.05-4.56-.01-1.76-.35-4.59-.07-6.16.28-1.56.64-3.09.72-5.38.07-2.07.3-3.43-.66-4.34Z"/>
    </mask>
    <linearGradient id="linear-gradient-15" x1="455.93" y1="6.03" x2="495.25" y2="6.03" xlink:href="#linear-gradient-2"/>
  </defs>
  <g>
    <path class="cls-8" d="m147.95,115.31c1.17,4.93,1.67,5.94,1.84,8.52.18,2.78.53,4.64.45,6.32-.07,1.38-1.56,5.92-8.41,12.44-6.03,5.74-11.03,7.57-12.79,7.66-1.54.07-2.11-.39-5.76-.84-4.43-.54-9.79-1.34-14.75-3.28-5.38-2.11-9.94-6.54-12.47-8.85-3.89-3.55-12.32-13.23-15.62-16.83-3.75-4.09-14.89-16.7-17.64-20.38-2.42-3.25-2.14-6.7-.13-8.65,2.55-2.48,5.43-1.27,7.31.34,2.59,2.22,8.15,7.68,11.33,10.53,3.18,2.85,14.65,13.24,14.65,13.24,0,0,3.27-5.58,7.17-9.85,4.93-5.4,9.12-8.65,9.12-8.65,0,0-5.53-4.73-13.21-11.93-7.68-7.21-13.85-13.15-15.42-14.61-1.98-1.84-5.33-5.73-1.61-9.79,3.81-4.16,7.76-1.12,10.02.84,2.04,1.78,10.44,9.33,17.63,16.22,12.9,12.37,20.48,14.11,20.48,14.11l13.92,15.02,3.89,8.44Z"/>
    <path class="cls-8" d="m147.95,115.31c1.17,4.93,1.67,5.94,1.84,8.52.18,2.78.53,4.64.45,6.32-.07,1.38-1.56,5.92-8.41,12.44-6.03,5.74-11.03,7.57-12.79,7.66-1.54.07-2.11-.39-5.76-.84-4.43-.54-9.79-1.34-14.75-3.28-5.38-2.11-9.94-6.54-12.47-8.85-3.89-3.55-12.32-13.23-15.62-16.83-3.75-4.09-14.89-16.7-17.64-20.38-2.42-3.25-2.14-6.7-.13-8.65,2.55-2.48,5.43-1.27,7.31.34,2.59,2.22,8.15,7.68,11.33,10.53,3.18,2.85,14.65,13.24,14.65,13.24,0,0,3.27-5.58,7.17-9.85,4.93-5.4,9.12-8.65,9.12-8.65,0,0-5.53-4.73-13.21-11.93-7.68-7.21-13.85-13.15-15.42-14.61-1.98-1.84-5.33-5.73-1.61-9.79,3.81-4.16,7.76-1.12,10.02.84,2.04,1.78,10.44,9.33,17.63,16.22,12.9,12.37,20.48,14.11,20.48,14.11l13.92,15.02,3.89,8.44Z"/>
    <path class="cls-14" d="m147.95,115.31c1.17,4.93,1.56,5.94,1.72,8.52.18,2.78.65,4.65.56,6.32-.07,1.38-1.56,5.92-8.41,12.44-6.03,5.74-11.03,7.57-12.79,7.66-1.54.07-2.11-.39-5.76-.84-4.43-.54-9.79-1.34-14.75-3.28-5.38-2.11-9.94-6.54-12.47-8.85-3.89-3.55-12.32-13.23-15.62-16.83-3.75-4.09-14.89-16.7-17.64-20.38-2.42-3.25-2.14-6.7-.13-8.65,2.55-2.48,5.43-1.27,7.31.34,2.59,2.22,8.15,7.68,11.33,10.53,3.18,2.85,14.65,13.24,14.65,13.24,0,0,3.27-5.58,7.17-9.85,4.93-5.4,9.12-8.65,9.12-8.65,0,0-5.53-4.73-13.21-11.93-7.68-7.21-13.85-13.15-15.42-14.61-1.98-1.84-5.33-5.73-1.61-9.79,3.81-4.16,7.76-1.12,10.02.84,2.04,1.78,10.44,9.33,17.63,16.22,12.9,12.37,20.48,14.11,20.48,14.11l13.92,15.02,3.89,8.44Z"/>
    <path class="cls-11" d="m63.74,77.66c-3.05,3.32-.7,7.07,1.41,9.25,1.88,1.94,4.49,4.57,8.68,8.48,4.99,4.66,22.22,20.41,22.22,20.41,0,0,1.34-2.51,3.32-5.19,1.96-2.66,3.85-4.86,3.85-4.86,0,0-28.22-25.88-30.57-27.89-2.02-1.73-5.67-3.73-8.92-.2Z"/>
    <path class="cls-11" d="m68.87,65.27c-3.08,3.29-.95,7.2,1.13,9.41,1.86,1.96,4.49,4.63,8.65,8.58,4.95,4.71,24.56,22.91,24.56,22.91,0,0,1.88-2.28,4.3-4.57,2.48-2.35,5.1-4.42,5.1-4.42,0,0-32.2-29.74-34.52-31.78-2-1.75-5.94-3.61-9.21-.12Z"/>
    <g>
      <polygon class="cls-12" points="117.56 84.59 117.56 84.59 117.56 84.59 117.56 84.59"/>
      <path class="cls-17" d="m123.4,96.07c-.25,3.87-3.92,6.54-3.37,13.42.26,3.26,3.3,7.79,3.3,7.79l8.82-8.55,8.57-6.97-10.54-9.89s-4.54-1.05-12.58-7.26c.45.35,6.28,4.24,5.81,11.45Z"/>
    </g>
    <path class="cls-17" d="m141.8,141.01c-3.83,3.51-8.43,7.06-12.37,7.34-3.47.25-4.27-.3-8.19-1.13-3.38-.72-7.63-1.11-12.4-3.32-3.18-1.47-7.09-4.02-11.09-7.82-6.75-6.42-10.99-11.74-16.99-18.1-3.37-3.57-16.79-17.7-18.25-22.57-.83-2.77,1.22-4.78,1.22-4.78-.35.21-.7.47-1.04.81-2,1.95-2.29,5.4.13,8.65,2.75,3.69,13.88,16.3,17.64,20.38,3.3,3.6,11.73,13.27,15.62,16.83,2.52,2.31,7.09,6.74,12.47,8.85,4.96,1.95,10.32,2.75,14.75,3.29,3.65.44,4.23.91,5.77.84,1.76-.08,6.75-1.92,12.79-7.66,4.27-4.06,6.46-7.35,7.52-9.59,0,0-3.97,4.7-7.57,8Z"/>
    <path class="cls-17" d="m93.33,121.41c.37.1,2.97-6.39,11.06-15.18,9.28-10.09,14.83-12.64,14.83-12.97s-7.17.94-16.49,11.31c-8.65,9.63-9.77,16.74-9.4,16.84Z"/>
    <path class="cls-17" d="m83.63,59.37c-.53.32-1.06.76-1.59,1.33-3.72,4.06-.37,7.94,1.61,9.79,1.57,1.46,7.74,7.41,15.42,14.61,4.62,4.34,8.46,7.77,10.79,9.82,1.21,1.07,1.37,1.73.44,2.63l6.06-3.61s-2.36.85-4.73-.2c-1.22-.54-2.98-2.23-4.36-3.45-2.04-1.8-3.94-3.82-5.1-4.89-1.41-1.32-3.15-3.49-6.64-6.64-3.1-2.81-4.86-4.22-7.54-6.64-2.72-2.58-6.03-5.33-6.38-7.59-.5-3.24,1.82-5,2.01-5.17Z"/>
    <path class="cls-11" d="m122.85,119.19s-1.99-5.5-.84-11.31c1.34-6.74,3.76-9.47,3.94-14.72.14-4.11-2.23-9.59.03-15.87,2.68-7.44,9.41-6.49,9.41-6.49,0,0,1.49,4.17,2.41,6.89.92,2.72,2.69,6.72,3.38,9.65.78,3.35.82,8.48,1.73,12.64.97,4.38,2.67,8.33,2.67,8.33l-22.72,10.88Z"/>
    <path class="cls-17" d="m127.82,93.74c.07-4.43-1.94-6.05-1.05-12.78.73-5.53,4.5-9.43,4.5-9.43h-.28c-1.84.81-3.83,2.46-5.02,5.76-2.26,6.29.11,11.76-.03,15.87-.18,5.24-2.6,7.97-3.94,14.72-1.15,5.81.84,11.31.84,11.31,0,0-1.48-6.19-.14-10.93,1.34-4.75,5.04-10.1,5.11-14.52Z"/>
    <path class="cls-14" d="m139.12,81.27s.12,1.93.99,6.91c.86,4.98-.4,10.25,1.51,16.62,1.91,6.37,4.56,10.13,5.19,13.04.63,2.91.45,4.81,1.16,7.1.72,2.3,1.79,7.08,1.79,7.08,1.05-2.47.36-5.62-.03-8.38-.37-2.56,0-5.52-1.07-8.46-.68-1.51-3.11-6.88-3.11-6.88h.01s-1.7-3.95-2.67-8.33c-.92-4.16-.95-9.29-1.73-12.64-.42-1.8-1.25-4.01-2.05-6.07Z"/>
    <path class="cls-11" d="m114.62,114.47s-2.83,6.29-.6,10.26c2.15,3.82,12.87,6.97,12.87,6.97l-14.82-2.35-3.69-2.08-.74-2.21,2.88-3.69,4.09-6.91Z"/>
    <path class="cls-17" d="m108.13,124.21c-.5.5-.98.94-1.43,1.34-2.76,2.42-4.99,3.53-5.08,3.57-.25.12-.54.02-.67-.23-.12-.25-.02-.54.23-.67h0c.09-.04,8.82-4.42,12.7-14.59.1-.26.38-.39.64-.29.26.1.39.38.29.64-1.73,4.53-4.38,7.92-6.68,10.22Z"/>
    <path class="cls-17" d="m130.94,134.18c-.14.15-.37.19-.57.1-13.51-6.47-25.91-3.6-26.03-3.57-.27.07-.54-.1-.6-.37-.07-.27.1-.54.37-.6.13-.03,3.25-.77,8.12-.69,4.49.07,11.35.87,18.57,4.33.25.12.35.42.23.66-.02.05-.06.1-.1.14Z"/>
    <path class="cls-17" d="m112.27,119.07s-4.06,6.36-3.59,7.7c.65,1.84,4.96,1.88,6.76,2.1,1.8.23,6.05,1.27,6.05,1.27,0,0-7.22-.75-9.91-.9-2.69-.14-7.16.78-7.16.78,0,0,0-.76-.7-1.22-.57-.37-1.53.03-1.53.03,0,0,2.79-1.8,5.25-4.2,2.46-2.4,4.84-5.56,4.84-5.56Z"/>
    <path class="cls-12" d="m126.49,119.04s3.55,3.47,7.32,5.13c3.77,1.66,8.06,1.81,8.06,1.81,0,0-4.32,1.01-8.37-1.01-4.04-2.01-7.02-5.93-7.02-5.93Z"/>
  </g>
  <path class="cls-2" d="m150.23,130.32c.28-1.95-.11-4.13-.41-6.15,0-.11-.02-.23-.02-.34-.04-.68-.11-1.25-.21-1.82-.13-2.15-.07-4.5-.91-6.82-.68-1.51-3.11-6.88-3.11-6.88h.01s-1.7-3.95-2.67-8.33c-.92-4.16-.95-9.29-1.73-12.64-.04-.16-.08-.33-.13-.5,0-.03-.02-.07-.03-.1-.05-.17-.09-.34-.14-.51,0-.03-.02-.06-.03-.09-.05-.17-.1-.33-.15-.5,0-.02-.01-.04-.02-.05-.06-.18-.12-.36-.18-.55-.01-.04-.02-.07-.04-.11-.06-.18-.13-.37-.19-.55,0-.02-.01-.04-.02-.06-.06-.18-.13-.36-.19-.54,0-.03-.02-.06-.03-.08-.07-.19-.14-.38-.21-.57-.01-.03-.03-.07-.04-.11-.14-.39-.29-.78-.44-1.17-.01-.03-.02-.06-.03-.09-.06-.16-.12-.32-.18-.48h0c-.5-1.3-.98-2.54-1.33-3.58-.68-2-1.66-4.78-2.13-6.11-.32,1.71-.57,3.74-.78,6.17-.23,2.64-.13,5.04-.05,6.79.03.66.06,1.42.06,1.95-.5-.23-1.2-.73-1.76-1.26-2.3-2.39-4.64-5.2-6.97-8.38,0,0,0,0,0,.01-.01.03-.03.07-.04.1-.04.11-.08.21-.12.33-1.72,4.78-.76,9.08-.27,12.68-1.79-.95-4.1-2.35-6.87-4.4-.07-.05-.15-.11-.22-.17-.11-.08-.23-.17-.34-.25-.3-.24-.52-.4-.64-.49-2.36-1.82-5.03-4.09-7.97-6.91-7.19-6.89-15.59-14.45-17.63-16.22-2.26-1.96-6.21-5-10.02-.84,0,0-.01.01-.02.02.18.99.5,1.9.85,2.66-.44-.1-.89-.15-1.33-.15-.34,0-.68.03-1.01.09-.73,2.77,1.18,5.25,2.7,6.76-2.69-2.47-4.61-4.22-5.11-4.67-.25-.22-.53-.44-.84-.65-3.37,2.49-3.66,6.67-.76,11.21.19.3.38.6.58.9-.03,0-.06,0-.09,0-1.15,0-2.29.36-3.38,1.06-.09.06-.17.12-.26.18,1.44,1.43,3.18,3.13,5.32,5.17.17.16.36.34.57.54-2.84-2.58-5.09-4.63-6.12-5.54-2.74,2.13-3.72,6.41-1.92,10.24,2.01,4.28,9.85,19.29,12.72,24.05.63,1.05,1.5,2.54,2.51,4.26,3.02,5.15,7.15,12.2,9.51,15.44.15.2.3.42.47.65,2.11,2.92,6.51,7.11,11.22,10.16,4.29,2.78,9.14,4.63,13.41,6.08.78.11,1.54.2,2.27.29,3.65.44,4.23.91,5.77.84,1.76-.08,6.75-1.92,12.79-7.66,4.27-4.06,6.46-7.35,7.52-9.59,0,0-.03.03-.07.09.19-.39.35-.76.47-1.08,0,0,0,0,0,0,.16-.37.28-.76.36-1.17.05-.21.08-.39.1-.54Z"/>
  <g>
    <path class="cls-8" d="m154.57,119.83c.17,5.06-.95,5.86-1.3,8.42-.38,2.76-.4,4.66-.82,6.28-.34,1.33-2.71,5.49-10.72,10.51-7.06,4.42-12.32,5.22-14.06,4.95-1.52-.23-1.99-.81-5.48-1.97-4.23-1.41-9.32-3.27-13.8-6.16-4.85-3.14-8.44-8.39-10.45-11.16-3.1-4.26-9.43-15.42-11.95-19.6-2.86-4.76-11.26-19.33-13.22-23.49-1.73-3.67-.76-6.99,1.59-8.5,2.99-1.92,5.57-.17,7.09,1.78,2.1,2.7,6.45,9.15,9.01,12.58,2.55,3.43,11.71,15.89,11.71,15.89,0,0,4.32-4.81,8.99-8.23,5.9-4.31,10.66-6.66,10.66-6.66,0,0-4.48-5.74-10.56-14.33-6.08-8.59-10.95-15.65-12.19-17.39-1.57-2.2-4.08-6.68.37-9.91,4.57-3.31,7.83.45,9.65,2.82,1.65,2.15,8.37,11.23,14.04,19.41,10.18,14.69,17.25,17.91,17.25,17.91l12.92,18.23,1.26,8.6Z"/>
    <path class="cls-8" d="m78.14,65.85c-3.65,2.64-2.1,6.78-.46,9.35,1.45,2.28,3.49,5.37,6.82,10.04,3.96,5.56,17.71,24.43,17.71,24.43,0,0,1.81-2.19,4.29-4.43,2.45-2.22,4.75-3.99,4.75-3.99,0,0-22.5-30.98-24.39-33.42-1.63-2.1-4.82-4.78-8.7-1.97Z"/>
    <path class="cls-8" d="m85.65,54.73c-3.68,2.61-2.37,6.87-.76,9.44,1.43,2.29,3.48,5.43,6.76,10.13,3.91,5.6,19.5,27.34,19.5,27.34,0,0,2.3-1.86,5.13-3.62,2.9-1.8,5.87-3.32,5.87-3.32,0,0-25.62-35.56-27.49-38.02-1.61-2.12-5.1-4.73-9-1.96Z"/>
    <g class="cls-22">
      <path class="cls-1" d="m74.59,79.46c-3.32,2.2-1.33,5.87-.51,7.54,4.76,9.77,19.64,32.7,19.64,32.7,0,0,1.44-3.65,3.11-6.12,1.67-2.47,3.78-4.54,3.78-4.54,0,0-18.36-26.42-19.4-27.83-1.32-1.81-3.71-3.68-6.62-1.76Z"/>
    </g>
    <g class="cls-21">
      <path class="cls-25" d="m79.13,65.95c3.81-2.58,6.64.92,7.58,2.14,1.71,2.19,17.07,23.4,18.43,25.32,2.11,2.98,4.06,5.36,4.14,7.02.05.99-4.46,4.36-5.85,4.9-1.39.54-2.62-.86-4.29-2.94-2.02-2.52-3.21-4.24-5.11-6.85-1.94-2.67-8.42-11.18-9.68-12.86-1.26-1.68-1.95-2.53-3.39-4.52-1.15-1.59-3.13-4.43-3.8-6.17-.65-1.7-.63-4.27,1.95-6.03Z"/>
    </g>
    <g class="cls-5">
      <path class="cls-6" d="m86.41,54.83c-2.3,1.69-2.5,3.65-2.11,5.57.32,1.54,1.7,3.48,3.46,6.01,1.73,2.49,5.57,7.78,7.54,10.5,2.45,3.35,4.92,6.6,8.29,10.9,3.05,3.88,6.85,8.81,7.47,9.06,2.3.94,4.4-.51,5.73-1.21,1.33-.7,3.02-1.37,3.12-2.44.04-.46-2.18-3.42-4.97-7.42-2.25-3.23-4.46-6.49-5.42-7.81-2.04-2.8-7.79-11.03-10.24-14.4-2.22-3.05-4.73-7.19-7.31-8.86-1.39-.9-3.19-1.64-5.56.1Z"/>
    </g>
    <g class="cls-7">
      <path class="cls-26" d="m100.51,52.93c3.5-2.44,6.48.7,8.33,3.06.43.55,2.34,3.15,4.37,5.89,4.22,5.69,7.01,9.77,9.03,12.61,3.25,4.59,7.68,9.82,8.72,11.6,1.04,1.78.71,3.31-.7,4.48-2.63,2.17-4.26,2.03-5.45,1.84-1.2-.19-2.05-.68-3.84-2.32-1.62-1.49-3.88-4.39-6.81-8.62-1.61-2.32-3.15-4.57-4.53-6.46-1.4-1.93-3.69-5.19-6.21-8.55-2.2-2.93-3.58-5.09-4.17-6.11-.8-1.38-2.64-4.68,1.28-7.41Z"/>
    </g>
    <path class="cls-17" d="m83.9,59.41c-.21-4.01,4.08-5.73,4.16-5.78-.78.16-1.58.5-2.41,1.09-3.68,2.61-2.37,6.87-.76,9.44,1.43,2.29,3.48,5.43,6.76,10.13,3.12,4.47,11.4,15.5,15.53,21.28,1.55,2.17,2.67,3.99,3.04,4.59.6.97,1.48.94,2.03.49.55-.45.79-.87-.08-2.03-.65-.88-1.71-1.93-4.18-4.94-2.36-2.87-3.34-4.1-5.18-6.46-1.7-2.17-2.4-3.1-4.12-5.46-1.73-2.35-2.8-3.78-5.29-7.22-2.17-3-5.17-7.1-5.98-8.35-1.75-2.68-3.37-4.27-3.51-6.8Z"/>
    <path class="cls-17" d="m76.64,69.19c.25-3.06,3.57-4.38,3.57-4.38-.66.18-1.35.51-2.07,1.03-3.65,2.64-2.1,6.78-.46,9.35,1.45,2.28,3.49,5.37,6.82,10.04,2.64,3.7,8.96,12.53,13.33,18.54,1.01,1.39,2.17,3.33,2.56,3.87.77,1.08,2.47-.04,1.69-1.06-.8-1.03-1.53-1.89-3.47-4.47-1.94-2.58-2.82-3.57-5.18-6.97-2.4-3.45-5.96-8.05-8.81-11.85-1.39-1.85-3.18-4.03-5.27-7.2-1.43-2.16-2.92-4.15-2.7-6.91Z"/>
    <path class="cls-17" d="m101.28,51.89c-.58.21-1.19.53-1.82.99-4.46,3.23-1.95,7.71-.38,9.91,1.24,1.74,6.11,8.8,12.2,17.39,3.66,5.17,6.45,9.43,8.33,11.91.97,1.28,1.58,1.55,2.35,1.04.51-.33.98-.8-.45-2.35-.9-.98-1.86-1.58-3.46-3.68-1.65-2.16-3.3-4.38-4.21-5.65-1.12-1.57-2.68-3.9-5.47-7.68-2.48-3.37-3.75-5.18-5.9-8.08-2.15-3.07-4.93-6.5-4.86-8.79.1-3.45,3.46-4.88,3.67-5.02Z"/>
    <path class="cls-8" d="m132.11,86.23s2.6,2.52,3.88,1.62c.76-.53-.16-4.74.3-9.98.73-8.28,1.87-11.28,3.91-12.97,3.99-3.31,7.06-1.26,7.38-.86.4.51.98,2.34.06,7.55-.65,3.7.82,7.85,1.34,10.48.74,3.7.71,6.7,1.3,9.83,1.01,5.3,1.6,6.45,2.42,11.3.82,4.85.84,9.61.84,9.61l-7.5-10.32-5.56-7.12-8.37-9.16Z"/>
    <path class="cls-20" d="m148.06,65.6c-.36-.2-1.34-.64-2.99-.71-1.35-.06-3.35.91-3.71,3.45-.4,2.79,1.25,4.09,2.13,4.33,1.84.52,3.4.51,4,.47.02-.52.06-1.04.15-1.54.52-2.97.56-4.84.42-6Z"/>
    <path class="cls-17" d="m140.2,64.9c-2.04,1.69-3.18,4.69-3.91,12.97-.46,5.24.46,9.45-.3,9.98-1.29.89-3.88-1.62-3.88-1.62,0,0,3.36,3.78,4.54,4.97,1.19,1.19,3.26,3.74,3.69,3.29.43-.45-.96-4.31-1.71-7.48-.66-2.8-.69-5.64-.54-8.94.15-3.45.24-9.17,2.28-11.7,2.35-2.9,5.55-3.17,5.55-3.17h0c-1.34-.33-3.37-.24-5.71,1.71Z"/>
    <path class="cls-13" d="m147.49,73.14s-.44,2.23-.15,4.34c.2,1.46-.07,6.96.12,10.75.17,3.22,1.3,7.05,1.64,8.59.72,3.28,1.03,5.05,1.24,7.02.27,2.53-.36,6.55-.07,8.78.44,3.37.96,5.17,1.21,8.15.32,3.71-1.31,6.29-1.11,8.11.12,1.15,1.24,2.1,1.53,3.47.4,1.88-.01,3.44-.01,3.45.31-.55.49-.99.57-1.28.41-1.62.44-3.52.82-6.28.35-2.56,1.47-3.36,1.3-8.42l-1.02-7s-.01-4.76-.84-9.61c-.83-4.85-1.41-6-2.42-11.3-.59-3.13-.57-6.12-1.3-9.83-.45-2.28-1.6-5.67-1.49-8.94Z"/>
    <path class="cls-10" d="m102.05,63.18c.64.15,7.16-4.43,7.24-5.39.07-.94-1.2-3.06-2.98-4.68-.78-.71-3.03-2.26-6.05-.09-2.87,2.06-1.99,4.99-1.46,6,.74,1.42,2.62,4.01,3.26,4.15Z"/>
    <path class="cls-9" d="m88.48,65.97c.68.15,7.66-4.56,7.74-5.58.08-1-1.61-3.94-3.24-5.19-.88-.68-2.88-2.53-6.29-.19-3.11,2.13-2.27,5.06-1.67,6.57.63,1.57,2.77,4.23,3.45,4.39Z"/>
    <path class="cls-27" d="m80.59,75.79c.62.14,7.05-4.2,7.13-5.14.08-.92-1.32-3.48-2.86-4.74-.79-.65-2.8-2.2-5.94-.05-2.86,1.97-2.02,4.65-1.46,6.05.58,1.44,2.52,3.73,3.14,3.87Z"/>
    <path class="cls-28" d="m75.64,88.29c.55.14,6.39-3.82,6.48-4.65.09-.81-.75-2.67-2.3-4.07-.67-.61-2.51-1.95-5.11-.16-2.53,1.75-2.11,4.08-1.5,5.5.6,1.41,1.88,3.24,2.42,3.38Z"/>
    <g class="cls-15">
      <path class="cls-3" d="m147.25,64.03c-.92-.88-2.11-.67-3.38-.11-1.25.56-2.95,1.54-3.86,3.38-1.73,3.53-1.59,8.49-1.69,11.23-.09,2.26-.24,4.72.4,7.66.67,3.03,2.3,7.28,2.04,9.1-.22,1.49-1.68,2.92-3.16,5.46-2.84,4.89-3.21,9.37-2.44,14.69.76,5.32,9.21,12.46,11.56,11.79,2.34-.67,4.56-2.9,4.39-6.2-.17-3.3-1.05-7.72-1.18-9.85-.11-1.74.55-3.94-.02-8.91-.41-3.66-1.2-5.68-1.86-8.74-.48-2.24-.9-4.32-.86-9.06.02-2.09.06-3.94.05-4.56-.01-1.76-.35-4.59-.07-6.16.28-1.56.64-3.09.72-5.38.07-2.07.3-3.43-.66-4.34Z"/>
    </g>
  </g>
  <g>
    <path class="cls-18" d="m108.74,40.84c1.94.65,3.73,1.46,5.27,2.33,1.54.87,2.85,1.8,3.87,2.66,1.02.87,1.76,1.67,2.19,2.31.44.64.57,1.12.39,1.36-.19.25-.68.24-1.4.05-.72-.19-1.69-.56-2.84-1.04-1.15-.47-2.5-1.05-4-1.64-1.5-.6-3.15-1.22-4.9-1.8-1.75-.59-3.44-1.08-5-1.51-1.55-.42-2.97-.78-4.18-1.09-1.21-.32-2.2-.6-2.89-.88-.69-.28-1.09-.58-1.09-.89,0-.31.4-.6,1.13-.85.73-.25,1.81-.45,3.14-.53,1.34-.08,2.93-.03,4.69.2,1.76.23,3.67.66,5.61,1.31Z"/>
    <path class="cls-18" d="m53.05,104.9c-.92-1.83-1.6-3.67-2.08-5.37-.48-1.71-.74-3.28-.85-4.62-.11-1.33-.06-2.43.08-3.19.15-.76.39-1.2.69-1.24.31-.04.65.31,1.03.95.38.65.8,1.59,1.28,2.74.48,1.15,1.03,2.51,1.67,3.99.64,1.48,1.36,3.09,2.19,4.74.82,1.65,1.67,3.2,2.47,4.6.8,1.4,1.56,2.65,2.18,3.73.63,1.08,1.13,1.98,1.42,2.67.29.69.36,1.17.14,1.39-.22.22-.71.15-1.4-.19-.69-.34-1.59-.96-2.59-1.85-1-.89-2.1-2.05-3.18-3.46-1.08-1.41-2.13-3.06-3.04-4.89Z"/>
    <path class="cls-18" d="m108.1,34.84c1.58.48,2.92,1.16,3.81,1.81.89.65,1.34,1.26,1.17,1.64-.17.38-.9.45-1.96.32-1.05-.13-2.42-.47-3.9-.92-1.48-.46-2.8-.95-3.75-1.44-.94-.48-1.51-.96-1.44-1.36.07-.4.78-.66,1.89-.69,1.1-.04,2.6.16,4.17.65Z"/>
    <path class="cls-18" d="m47.76,107.19c-.77-1.46-1.24-2.89-1.41-3.98-.17-1.09-.05-1.84.33-1.98.39-.15.96.32,1.61,1.16.65.84,1.38,2.04,2.11,3.41.72,1.37,1.31,2.65,1.63,3.66.33,1.01.39,1.75.05,1.98-.34.23-1.02-.09-1.83-.84-.81-.75-1.72-1.95-2.49-3.41Z"/>
  </g>
</svg>