<?xml version="1.0" encoding="UTF-8"?>
<svg id="Layer_1" data-name="Layer 1" xmlns="http://www.w3.org/2000/svg" viewBox="0 0 190.28 190.28">
  <defs>
    <style>
      .cls-1 {
        fill: #2873ff;
      }

      .cls-2 {
        fill: #de9b36;
      }

      .cls-3 {
        fill: #ebbb67;
      }

      .cls-4 {
        fill: #ead168;
      }

      .cls-5 {
        fill: #fe3e6e;
      }
    </style>
  </defs>
  <g>
    <ellipse class="cls-2" cx="66.3" cy="63.43" rx="8.68" ry="26.98" transform="translate(-14.34 107.22) rotate(-72.24)"/>
    <path class="cls-3" d="m68.95,55.17c13.64,4.37,23.71,11.37,23.16,15.96,2.66-12.9-2.32-20.98-7.75-25.78-4.96-4.38-11.31-6.81-17.92-7.11-21.02-.98-25.84,16.97-25.84,16.97,1.46-4.56,14.15-4.58,28.34-.03Z"/>
  </g>
  <g>
    <ellipse class="cls-2" cx="122.68" cy="63.43" rx="26.98" ry="8.68" transform="translate(-13.5 40.45) rotate(-17.76)"/>
    <path class="cls-3" d="m120.03,55.17c-13.64,4.37-23.71,11.37-23.16,15.96-2.66-12.9,2.32-20.98,7.75-25.78,4.96-4.38,11.31-6.81,17.92-7.11,21.02-.98,25.84,16.97,25.84,16.97-1.46-4.56-14.15-4.58-28.34-.03Z"/>
  </g>
  <path class="cls-1" d="m49.77,129.7c.11-.54.13-1.1.08-1.65-2.6-27.2,15.92-47.73,16.93-49.94,1.01-2.23-3.25-2.64-3.25-2.64,0,0-20.7,17.25-19.28,54.6,0,0,1.37,1.43,5.52-.37h0Z"/>
  <path class="cls-5" d="m124.26,143.49c0-.55.07-1.11.22-1.64,10.89-36.69-10.25-60.42-10.83-62.78-.59-2.38,3.68-2,3.68-2,0,0,22.91,13.48,12.28,67.8,0,0-1.61,1.16-5.36-1.38h0Z"/>
  <rect class="cls-5" x="56.56" y="109.29" width="8.12" height="6.36" rx="2.03" ry="2.03" transform="translate(-66.89 120.48) rotate(-65.28)"/>
  <rect class="cls-5" x="47.02" y="73.36" width="7.37" height="7.37" rx="1.6" ry="1.6" transform="translate(-41.48 74.01) rotate(-54.76)"/>
  <rect class="cls-4" x="45.63" y="137.67" width="7.37" height="7.37" rx="1.98" ry="1.98" transform="translate(114.4 6.53) rotate(45)"/>
  <rect class="cls-1" x="84.48" y="134.84" width="6.13" height="6.13" rx="1.63" ry="1.63" transform="translate(-71.87 102.29) rotate(-45)"/>
  <rect class="cls-4" x="114.62" y="106.39" width="6.13" height="6.13" rx="1.68" ry="1.68" transform="translate(-40.17 79.25) rotate(-32.09)"/>
  <rect class="cls-4" x="143.74" y="110.61" width="6.13" height="6.13" rx="1.86" ry="1.86" transform="translate(-37.96 95.36) rotate(-32.09)"/>
  <rect class="cls-5" x="137.18" y="135.88" width="6.13" height="6.13" rx="1.62" ry="1.62" transform="translate(-52.39 95.74) rotate(-32.09)"/>
  <rect class="cls-1" x="116.77" y="141" width="4.98" height="4.98" rx="1.71" ry="1.71" transform="translate(-58.01 85.29) rotate(-32.09)"/>
  <rect class="cls-5" x="104.88" y="87.39" width="4.98" height="4.98" rx="1.72" ry="1.72" transform="translate(-31.34 70.78) rotate(-32.09)"/>
  <rect class="cls-1" x="124.45" y="71.13" width="4.98" height="4.98" rx="1.31" ry="1.31" transform="translate(-9.31 128.1) rotate(-51.91)"/>
  <rect class="cls-4" x="134.01" y="87.39" width="4.98" height="4.98" rx="1.16" ry="1.16" transform="translate(-15.66 149.52) rotate(-54.76)"/>
  <path class="cls-5" d="m74.76,71.33s-4.6-.54-1.76,1.35c2.84,1.89,12.18,4.47,6.77,13.67-4.62,7.86-10.8,7.92-9.22,14.35.58,2.39,1.98,4.49,3.89,6.04,1.21.98,2.74,2.07,4.25,2.72,3.25,1.39,4.6,6.12-1.08,6.53s-19.08,3.4-17.73,14.62c1.35,11.22,16.1,13.79,16.1,13.79,0,0,3.92-.35-.27-5.45-4.19-5.1-13.94-6.86-9.34-15.25,0,0,3.79-4.6,9.34-3.11,3.89,1.04,9.24-2.7,10.09-8.19.57-3.69-1.31-7.31-4.58-9.1-2.83-1.56-6.28-4.14-1.99-5.84,0,0,21.52-17.32-3.25-25.58l-1.22-.54Z"/>
  <path class="cls-1" d="m97.23,93.02s2.77-1.07,1.31.56c-1.46,1.63-6.84,4.73-2,9.57,4.13,4.13,7.97,3.18,8.03,7.42.02,1.57-.51,3.1-1.44,4.37-.59.8-1.37,1.73-2.2,2.37-1.79,1.38-1.87,4.54,1.72,3.88,3.59-.66,12.38-.96,13.35,6.22.96,7.18-7.77,11.14-7.77,11.14,0,0-2.49.41-.71-3.43,1.78-3.84,7.54-6.49,3.34-10.96,0,0-3.09-2.25-6.29-.43-2.24,1.27-6.16-.19-7.57-3.46-.95-2.19-.36-4.74,1.38-6.38,1.51-1.42,3.23-3.58.29-3.94,0,0-16.13-7.29-2.09-16.39l.67-.53Z"/>
</svg>