<?xml version="1.0" encoding="UTF-8"?>
<svg id="Layer_1" data-name="Layer 1" xmlns="http://www.w3.org/2000/svg" viewBox="0 0 190.28 190.28">
  <defs>
    <style>
      .cls-1 {
        fill: #fed428;
      }

      .cls-2 {
        fill: #005fca;
      }

      .cls-3 {
        fill: #4284f3;
      }

      .cls-4 {
        fill: #f9a400;
      }

      .cls-5 {
        fill: #fdc946;
      }
    </style>
  </defs>
  <rect class="cls-4" x="94.41" y="26.77" width="2.09" height="90.82"/>
  <g>
    <path class="cls-4" d="m87.58,19.79h0c3.87,0,7.01,3.14,7.01,7.01v12.71l-17.74,20.06,3.72-32.76c0-3.87,3.14-7.01,7.01-7.01Z"/>
    <path class="cls-5" d="m87.58,29.65h0c3.87,0,7.01,3.14,7.01,7.01v12.71l-17.93,11.32,3.91-24.03c0-3.87,3.14-7.01,7.01-7.01Z"/>
    <path class="cls-3" d="m53.41,117.59l-19.96,13.27c-1.77,1.18-2.84,3.16-2.84,5.29v27.99c0,3.51,2.84,6.35,6.35,6.35h19.19l8.24-3.48v-16.24l-10.98-33.18Z"/>
    <path class="cls-2" d="m49.96,140.81c1.62,15.4,6.6,27.02,14.44,26.19,7.84-.83,8.03-14.17,6.4-29.57-1.62-15.4-4.74-22.8-12.58-21.97s-9.89,9.95-8.26,25.35Z"/>
    <path class="cls-1" d="m94.59,49.37s.99-8.17-7.32-8.17-9.44,11.97-10.14,16.62c-.7,4.65-6.2,36.33-7.89,41.97-1.42,4.73-5.75,13.71-12.06,18.18-2.75,1.95-4.4,5.08-4.64,8.44-.47,6.4-.11,15.82,5.34,19.85,6.71,4.96,23.45-3.56,31.9-13.03,3.15-3.53,4.81-8.15,4.81-12.89V49.37Z"/>
  </g>
  <g>
    <path class="cls-4" d="m102.7,19.79h0c-3.87,0-7.01,3.14-7.01,7.01v12.71l17.74,20.06-3.72-32.76c0-3.87-3.14-7.01-7.01-7.01Z"/>
    <path class="cls-5" d="m102.7,29.65h0c-3.87,0-7.01,3.14-7.01,7.01v12.71l17.93,11.32-3.91-24.03c0-3.87-3.14-7.01-7.01-7.01Z"/>
    <path class="cls-3" d="m136.86,117.59l19.96,13.27c1.77,1.18,2.84,3.16,2.84,5.29v27.99c0,3.51-2.84,6.35-6.35,6.35h-19.19l-8.24-3.48v-16.24l10.98-33.18Z"/>
    <path class="cls-2" d="m140.32,140.81c-1.62,15.4-6.6,27.02-14.44,26.19-7.84-.83-8.03-14.17-6.4-29.57,1.62-15.4,4.74-22.8,12.58-21.97s9.89,9.95,8.26,25.35Z"/>
    <path class="cls-1" d="m95.69,49.37s-.99-8.17,7.32-8.17,9.44,11.97,10.14,16.62c.7,4.65,6.2,36.33,7.89,41.97,1.42,4.73,5.75,13.71,12.06,18.18,2.75,1.95,4.4,5.08,4.64,8.44.47,6.4.11,15.82-5.34,19.85-6.71,4.96-23.45-3.56-31.9-13.03-3.15-3.53-4.81-8.15-4.81-12.89V49.37Z"/>
  </g>
</svg>