<?xml version="1.0" encoding="UTF-8"?>
<svg xmlns="http://www.w3.org/2000/svg" xmlns:xlink="http://www.w3.org/1999/xlink" viewBox="0 0 190.28 190.28">
  <defs>
    <style>
      .cls-1 {
        fill: url(#linear-gradient-2);
      }

      .cls-2, .cls-3 {
        fill: #ffe9a9;
      }

      .cls-4 {
        fill: url(#linear-gradient-17);
      }

      .cls-5 {
        mask: url(#mask-10);
      }

      .cls-6 {
        fill: url(#linear-gradient-15);
      }

      .cls-7 {
        fill: url(#linear-gradient-18);
      }

      .cls-8 {
        fill: url(#linear-gradient-14);
      }

      .cls-9 {
        mask: url(#mask-2);
      }

      .cls-10 {
        fill: url(#linear-gradient-6);
      }

      .cls-11 {
        isolation: isolate;
      }

      .cls-12 {
        mask: url(#mask-3);
      }

      .cls-13 {
        fill: #ffc82c;
      }

      .cls-14 {
        fill: url(#linear-gradient-11);
      }

      .cls-15 {
        mask: url(#mask-9);
      }

      .cls-16 {
        fill: url(#linear-gradient-10);
      }

      .cls-17 {
        mask: url(#mask-5);
      }

      .cls-18 {
        fill: url(#linear-gradient-16);
      }

      .cls-19 {
        fill: #ffb52c;
      }

      .cls-20 {
        mask: url(#mask-8);
      }

      .cls-21 {
        mask: url(#mask-4);
      }

      .cls-22 {
        fill: url(#linear-gradient-5);
      }

      .cls-3 {
        mix-blend-mode: screen;
        opacity: .68;
      }

      .cls-23 {
        fill: #f9b333;
      }

      .cls-24 {
        mask: url(#mask-6);
      }

      .cls-25 {
        fill: url(#linear-gradient-7);
      }

      .cls-26 {
        fill: url(#linear-gradient-9);
      }

      .cls-27 {
        mask: url(#mask-1);
      }

      .cls-28 {
        mask: url(#mask);
      }

      .cls-29 {
        fill: url(#linear-gradient-3);
      }

      .cls-30 {
        fill: url(#linear-gradient);
      }

      .cls-31 {
        mask: url(#mask-7);
      }

      .cls-32 {
        fill: url(#linear-gradient-4);
      }

      .cls-33 {
        fill: #ffbf2c;
      }

      .cls-34 {
        fill: url(#linear-gradient-8);
      }

      .cls-35 {
        fill: url(#linear-gradient-12);
      }

      .cls-36 {
        fill: url(#linear-gradient-13);
      }
    </style>
    <linearGradient id="linear-gradient" x1="98.49" y1="100.71" x2="67.82" y2="100.71" gradientUnits="userSpaceOnUse">
      <stop offset="0" stop-color="#000"/>
      <stop offset="1" stop-color="#fff"/>
    </linearGradient>
    <mask id="mask" x="78.33" y="93.99" width="12.18" height="13.45" maskUnits="userSpaceOnUse">
      <path class="cls-30" d="m78.34,95.59c-.14.34,1.04,2.1,1.15,5.75.11,4-.47,5.71-.4,5.94.08.23,3.23.43,6.96-.94,3.98-1.46,4.65-4.29,4.17-7.23-.4-2.47-1.56-5.17-5.12-5.12-3.27.04-6.61,1.26-6.75,1.6Z"/>
    </mask>
    <linearGradient id="linear-gradient-2" x1="79.59" y1="100.71" x2="87.15" y2="100.71" gradientUnits="userSpaceOnUse">
      <stop offset="0" stop-color="#fde67f"/>
      <stop offset="1" stop-color="#fde266"/>
    </linearGradient>
    <linearGradient id="linear-gradient-3" x1="116" y1="29.06" x2="124.5" y2="112.04" gradientUnits="userSpaceOnUse">
      <stop offset="0" stop-color="#fff"/>
      <stop offset="1" stop-color="#000"/>
    </linearGradient>
    <mask id="mask-1" x="100.87" y="31.6" width="44.75" height="90.57" maskUnits="userSpaceOnUse">
      <path class="cls-29" d="m114.59,31.6c-1.54-.04-5.82,1.61-8.89,8.16-3.47,7.42-.76,19.08-1,27.66-.47,16.91-5.3,21-3.39,30.16,1.16,5.52,6.62,9.18,8.17,13.75,1.83,5.42,1.33,10.83,1.33,10.83l34.77-14.97s.44-5.39-2.33-12.55c-1.68-4.33-5.11-6.83-7.28-9.22-1.49-1.64-3.16-3.42-5.11-5.22-4.39-4.06-7.91-8.09-10.5-19.33-2.29-9.94-1.11-13.16-1.97-20.94-.66-5.99-1.54-8.27-3.81-8.33Z"/>
    </mask>
    <linearGradient id="linear-gradient-4" x1="122.19" y1="46.39" x2="122.19" y2="91.13" xlink:href="#linear-gradient-2"/>
    <linearGradient id="linear-gradient-5" x1="126.24" y1="157.51" x2="80.51" y2="85.21" xlink:href="#linear-gradient"/>
    <mask id="mask-2" x="94.18" y="128.2" width="41.34" height="22.66" maskUnits="userSpaceOnUse">
      <path class="cls-22" d="m94.18,147.08s2.6-.53,5.25-3.31c4.19-4.39,4.78-11.36,10.5-13.91,3.36-1.5,7.62-1.76,12.14-1.64,5.22.14,12.25,1.44,13.16,3.25,1.26,2.49-1.74,7.37-5.94,11.44-2.4,2.32-5.09,4.43-7.86,5.55-8.03,3.25-15.67,2.25-21.03,2.19-4.12-.04-6.22-3.58-6.22-3.58Z"/>
    </mask>
    <linearGradient id="linear-gradient-6" x1="94.18" y1="139.53" x2="135.52" y2="139.53" xlink:href="#linear-gradient-2"/>
    <linearGradient id="linear-gradient-7" x1="99.65" y1="115.05" x2="60.21" y2="115.05" xlink:href="#linear-gradient"/>
    <mask id="mask-3" x="78.62" y="108.93" width="11.32" height="12.25" maskUnits="userSpaceOnUse">
      <path class="cls-25" d="m78.71,110.23c-.36.19.54,2.22.67,5.61.14,3.58-.31,5.17-.06,5.3.25.14,4.47-.08,6.97-1.58,2.51-1.5,3.42-3.11,3.61-5.83.21-2.95-.44-4.64-.78-4.78-.33-.14-1.44.53-5.28.94-3.97.43-4.78.14-5.14.33Z"/>
    </mask>
    <linearGradient id="linear-gradient-8" x1="83.24" y1="115.05" x2="89.94" y2="115.05" xlink:href="#linear-gradient-2"/>
    <linearGradient id="linear-gradient-9" x1="73.15" y1="128.69" x2="92.54" y2="128.69" xlink:href="#linear-gradient-3"/>
    <mask id="mask-4" x="78.7" y="122.5" width="10.09" height="12.39" maskUnits="userSpaceOnUse">
      <path class="cls-26" d="m78.73,124.25c.21-.15,2.49-.17,4.73-.62,2.48-.5,3.96-1.17,4.29-1.12.33.04,1.56,2.61.79,6.27-.98,4.65-9.17,6.27-9.39,6.1-.23-.17.62-2.12.42-5.66-.17-2.89-1.04-4.81-.83-4.96Z"/>
    </mask>
    <linearGradient id="linear-gradient-10" x1="83.32" y1="128.69" x2="88.8" y2="128.69" xlink:href="#linear-gradient-2"/>
    <linearGradient id="linear-gradient-11" x1="67.17" y1="140.76" x2="96.54" y2="140.76" xlink:href="#linear-gradient-3"/>
    <mask id="mask-5" x="78.84" y="135.4" width="9.51" height="10.73" maskUnits="userSpaceOnUse">
      <path class="cls-14" d="m78.86,137.92c-.15.19.54,1.3.85,3.89.35,2.93.01,4.26.15,4.32.14.05,2.78-.51,5.15-2.01,2.16-1.36,3.21-2.61,3.3-4.17.2-3.14-.64-4.47-.83-4.54-.19-.07-1.42.62-4.15,1.47-2.65.82-4.32.85-4.47,1.04Z"/>
    </mask>
    <linearGradient id="linear-gradient-12" x1="83.46" y1="140.76" x2="88.35" y2="140.76" xlink:href="#linear-gradient-2"/>
    <linearGradient id="linear-gradient-13" x1="-16.01" y1="103.19" x2="85.76" y2="99.82" xlink:href="#linear-gradient-3"/>
    <mask id="mask-6" x="55.18" y="93.44" width="27.2" height="13.88" maskUnits="userSpaceOnUse">
      <path class="cls-36" d="m56.98,93.51c2.12-.36,7.86.82,12.32,1.19,4.46.38,12.11.69,12.43.97.32.28.8,2.03.6,5.78-.21,3.75-.54,5.53-.83,5.75-.29.22-5.43.18-13.22-.56-7.96-.75-9.86-1.42-11.83-3.11-1.91-1.64-1.58-9.67.54-10.03Z"/>
    </mask>
    <linearGradient id="linear-gradient-14" x1="7.03" y1="115.14" x2="83.08" y2="115.14" xlink:href="#linear-gradient-3"/>
    <mask id="mask-7" x="55.72" y="108.65" width="26.61" height="12.98" maskUnits="userSpaceOnUse">
      <path class="cls-8" d="m81.77,110.55c-.3-.28-4.37-.08-11.16-.54-6.83-.46-11.57-1.86-13-1.17-1.43.69-1.82,3.39-1.88,4.92-.06,1.53.11,4.86,3.17,6.33,2.19,1.06,6.5,1.39,11.5,1.5,5,.11,11.04.01,11.21-.37.17-.39.78-3.31.72-5.9-.06-2.6-.25-4.49-.56-4.76Z"/>
    </mask>
    <linearGradient id="linear-gradient-15" x1="10.72" y1="129.9" x2="84.27" y2="129.9" xlink:href="#linear-gradient-3"/>
    <mask id="mask-8" x="57.71" y="124.08" width="24.68" height="11.64" maskUnits="userSpaceOnUse">
      <path class="cls-6" d="m59.49,124.11c.78-.2,4.72.51,11,.72,6.28.21,10.65-.28,11.44-.31.79-.03.49,9.83-.39,10.5-.52.4-5.17.86-12.19.64-7.78-.25-9.29-1.37-10-2.08-.71-.71-1.8-2.25-1.62-5.33.18-3.08.99-3.94,1.76-4.14Z"/>
    </mask>
    <linearGradient id="linear-gradient-16" x1="34.86" y1="142.45" x2="79.6" y2="142.45" xlink:href="#linear-gradient-3"/>
    <mask id="mask-9" x="61.74" y="137.87" width="21.31" height="9.15" maskUnits="userSpaceOnUse">
      <path class="cls-18" d="m62.83,137.89c.5-.14,4.42.75,9.14.75s9.58-.36,10.47-.42c.89-.06.67,7.55.28,8.08-.39.53-4.22.89-11.41.64-5.01-.17-7.14-.94-7.75-1.47-.61-.53-1.83-1.39-1.81-4.64.02-2.15.58-2.8,1.08-2.94Z"/>
    </mask>
    <linearGradient id="linear-gradient-17" x1="144.85" y1="71.41" x2="118.39" y2="110.83" xlink:href="#linear-gradient-3"/>
    <mask id="mask-10" x="100.38" y="82.86" width="45.48" height="37.33" maskUnits="userSpaceOnUse">
      <path class="cls-4" d="m102.31,86.87c-1.67,1.89-2.83,7.39-1,12.3,1.74,4.68,5.58,8.15,7.33,12.47,1.78,4.39,1.69,6.61,1.61,8.11-.08,1.5,9.54-1.4,17.97-1.42,8.43-.01,15.25,1.94,16.41,1.3,1.17-.64,3-17.8-2.83-27.13-6.42-10.28-14.42-9.83-22.79-9.54-9.2.32-15.43,2.45-16.71,3.9Z"/>
    </mask>
    <linearGradient id="linear-gradient-18" x1="111.77" y1="113.56" x2="80.14" y2="144.14" xlink:href="#linear-gradient-2"/>
  </defs>
  <g class="cls-11">
    <g id="Layer_1" data-name="Layer 1">
      <g>
        <path class="cls-13" d="m88.93,117.67c1.64-1.92,3.44-10.08-.89-10.69-.03,0-.06,0-.1-.01.76-.36.4-.82.99-1.43,2.89-3,1.67-10.16-1.72-11.33-4.87-1.68-4.27,1.47-4.27,1.47l-28.38-2.67s-1.61,2.53-1.33,7.36c.16,2.72,1.21,4.22,2.41,5.06-.46.88-1.91,4.02-2,8.98-.09,4.82,1.7,6.42,3.45,7.06-.45,1.05-1.44,3.91-1.29,8.15.21,5.77,3.07,6.36,4.95,6.59,0,0,0,0,0,0-.34,1.28-.65,3.11-.56,5.42.22,5.92,3.63,5.58,5.08,5.85,5.25.96,13.56.76,18.62-.54,3.4-.88,1.82-1.88,3.79-4.46,1.23-1.61,2.52-8.18-.98-8.48-.29-.03,1.41-.04.43-.05,1.71-.79-.25-1.84.91-3.37,1.41-1.85,2.74-9.39-1.28-9.73-.21-.02.58-.03.05-.04,1.65-.73.9-1.72,2.11-3.13Zm-27.49,18.62c.07.01.13.02.19.03-.06-.01-.12-.02-.19-.03Zm-.42-.05c.06,0,.13.02.19.02-.06,0-.12-.02-.19-.02Zm.21.02c.07,0,.13.02.19.03-.06,0-.13-.02-.19-.03Zm22.48-.75s0,0,0,0c0,0,0,0,0,0Z"/>
        <path class="cls-13" d="m124.92,66.26c-3.39-8.05-3.41-13.77-3.83-17.39-.28-2.39-1.37-5.1-1.83-8.89-.72-5.94-1.28-7.44-1.56-8.06-.28-.61-6.58-3.61-12.5,3.61-7.05,8.61-3.44,20.11-3.22,25.39.53,12.52-.99,19.38-6.33,21.66-5.06,2.17-25.34,2.4-31.21,3.94-7.17,1.89-9.94,6.55-9.94,6.55,0,0,12.33,14.39,12.61,25.16.28,10.78-4.67,28.5-4.67,28.5,0,0,5.01,5.35,17.11,5.83,9.83.39,10.27-.56,15.04-.22,6.17.43,10.78,1.52,14.55,1.28,5.22-.33,10.99-1.3,16.78-4.28,7.33-3.78,7.13-7.28,10.68-10.94,3-3.1,4.49-3.49,5.7-4.83,1.39-1.53,3.84-7.25,4.08-17,.28-11.55-2.63-19.86-3.16-21.39-1.34-3.83-4.45-5.5-7.17-8.55-3.19-3.59-7.87-12.63-11.13-20.39Z"/>
        <path class="cls-13" d="m124.92,66.26c-3.39-8.05-3.41-13.77-3.83-17.39-.28-2.39-1.37-5.1-1.83-8.89-.72-5.94-1.28-7.44-1.56-8.06-.28-.61-6.58-3.61-12.5,3.61-7.05,8.61-3.44,20.11-3.22,25.39.53,12.52-.99,19.38-6.33,21.66-5.06,2.17-25.34,2.4-31.21,3.94-7.17,1.89-9.94,6.55-9.94,6.55,0,0,12.33,14.39,12.61,25.16.28,10.78-4.67,28.5-4.67,28.5,0,0,5.01,5.35,17.11,5.83,9.83.39,10.27-.56,15.04-.22,6.17.43,10.78,1.52,14.55,1.28,5.22-.33,10.99-1.3,16.78-4.28,7.33-3.78,7.13-7.28,10.68-10.94,3-3.1,4.49-3.49,5.7-4.83,1.39-1.53,3.84-7.25,4.08-17,.28-11.55-2.63-19.86-3.16-21.39-1.34-3.83-4.45-5.5-7.17-8.55-3.19-3.59-7.87-12.63-11.13-20.39Z"/>
        <path class="cls-33" d="m90.55,91.19s3.31,1.9,5,2c1.71.11,2.87-2.71,2.87-2.71l1.57,13.27,5.42,9.17,2.88,7.14s-2.08,1.39-1.01,4.36c.92,2.54,4.46,2.29,4.46,2.29l-9.08,4.79-4.75,10.92-3.47,2.77s1.18-1.37.31-2.02c-.8-.6-2.17.9-2.17.9l-.99-7.9-.75-6.58.5-7.08-3.5-12.83.14-13.58,2.59-4.9Z"/>
        <path class="cls-19" d="m63.94,93.76s7.67-.5,11-.61c3.33-.11,5.5-.17,7.44-.72,1.94-.56-.12-2.22,4.32-2.33,4.39-.11,7.85,2.81,8.61,6.83,1.17,6.22-1.83,9-1.89,10-.07,1.33,1.69,3.11,1.56,7.17-.17,5.22-2.17,5.55-2.28,6.72-.11,1.17,1.84,1.89,1.78,6.11-.06,3.67-2.22,4.55-2.44,5.78-.22,1.22,2.27,1.53,2.17,7.16-.11,6-6.72,7.44-6.61,9.17.11,1.72,4.39,1.72,4.39,1.72l-4.99,1.22-14.78-1s-5.78-26.05-5.78-26.72-3.17-25.66-3.17-25.66l.67-4.83Z"/>
        <path class="cls-33" d="m94.04,145.48s1.55-.79,3.57-5.31c1.72-3.85,2.44-8.62,7.15-11.47,4.71-2.85,11.32-1.88,11.32-1.88,0,0-6.1,1.15-8.87,3.46-3.75,3.12-5.77,10.12-8.1,12.67-2.33,2.54-5.07,2.54-5.07,2.54Z"/>
        <path class="cls-13" d="m86.7,133.99c-.29-.03,1.41-.04.43-.05-1.6.74-2.23,1.27-4.12,1.76-5.81,1.5-15.35,1.72-21.38.62-.25-.05-.55-.08-.88-.12-.34,1.28-.65,3.11-.56,5.42.22,5.92,3.63,5.58,5.08,5.85,5.25.96,13.56.76,18.62-.54,3.4-.88,1.82-1.88,3.79-4.46,1.23-1.61,2.52-8.18-.98-8.48Z"/>
        <path class="cls-23" d="m94.32,146.75c-.29,0-.56-.19-.64-.49-.1-.35.11-.72.46-.82,4.03-1.13,6.23-5.43,8-8.89.11-.21.21-.41.31-.61.07-.14.14-.28.22-.43,1.49-2.95,4.25-8.43,14.24-8.71.36,0,.67.28.68.65.01.37-.28.67-.65.68-9.19.25-11.63,5.09-13.09,7.97-.08.16-.15.3-.22.44-.1.2-.2.4-.31.6-1.89,3.69-4.24,8.28-8.82,9.56-.06.02-.12.02-.18.02Z"/>
        <path class="cls-23" d="m143.22,95.2c-.05-.14-.11-.28-.16-.42-.02-.04-.03-.08-.05-.12-.04-.1-.09-.2-.13-.3-.02-.04-.03-.08-.05-.11-.06-.13-.12-.26-.19-.39,0,0,0-.01-.01-.02-.06-.12-.13-.24-.19-.35-.02-.04-.04-.07-.06-.11-.05-.09-.11-.18-.17-.27-.02-.03-.04-.06-.06-.09-.08-.12-.15-.23-.23-.34,0-.01-.02-.02-.02-.03-.07-.1-.15-.2-.22-.3-.02-.03-.05-.06-.07-.09-.07-.08-.13-.17-.2-.25-.02-.03-.04-.05-.06-.08-.09-.11-.17-.21-.26-.31-.01-.01-.03-.03-.04-.04-.08-.09-.16-.18-.24-.26-.03-.03-.05-.06-.08-.09-.07-.08-.15-.16-.22-.23-.02-.02-.04-.04-.06-.07-.1-.1-.19-.2-.29-.29-.02-.02-.03-.03-.05-.05-.08-.08-.17-.16-.25-.24-.03-.03-.06-.05-.09-.08-.08-.08-.16-.16-.24-.23-.02-.02-.04-.04-.06-.06-.1-.1-.21-.19-.31-.29-.02-.02-.04-.04-.06-.05-.09-.09-.19-.17-.28-.26,0,0,0,0-.01-.01.04.04,3.72,3.54,5.16,13.65.72,5.09.44,13.05-.67,18.66-1.11,5.61-2.91,8.4-6.22,11-3.11,2.44-3.96,7-6.69,9.55-3.44,3.22-6.49,6.44-13.67,8-8.66,1.89-18.55.22-25.55.55-5.77.27-7.12.71-12.21.39-.96-.06-1.9-.16-2.81-.28-.54-.09-1.12-.25-1.12-.48.02-.68,2.58-.81,2.58-.81l-6.96-.66-.05.78c-3.79-1.06-6.7-2.4-8.12-3.04-.02.07-.03.1-.03.1,0,0,5.01,5.35,17.11,5.83,9.83.39,10.27-.56,15.04-.22,6.17.43,10.78,1.52,14.55,1.28,5.22-.33,10.99-1.3,16.78-4.28,7.33-3.78,7.13-7.28,10.68-10.94,3-3.1,4.49-3.49,5.7-4.83,1.39-1.53,3.84-7.25,4.08-17,.28-11.55-2.63-19.86-3.16-21.39Z"/>
        <path class="cls-13" d="m87.21,94.2c-4.87-1.68-4.27,1.47-4.27,1.47l-1.38-.13c.43.91,1.23,2.96,1.34,6,.11,2.98-.44,5.31-.83,6.58.23,0,.43,0,.58,0,2.33,0,3.39.4,6.28-2.6,2.89-3,1.67-10.16-1.72-11.33Z"/>
        <path class="cls-33" d="m99.4,88.13s-3.25,6.2-2.11,12.51c1.04,5.79,2.88,8.23,5.82,11.32,4.4,4.62,5.2,8.36,5.2,8.36,0,0,1.93-3.86-1.49-9.99-3.24-5.81-6.26-7.87-6.96-12.08-.69-4.21-.46-10.12-.46-10.12Z"/>
        <path class="cls-13" d="m57.29,121.01s-1.69,3.16-1.49,8.6c.25,6.79,4.16,6.41,5.83,6.71,6.03,1.1,15.57.88,21.38-.62,3.91-1.01,2.78-2.16,5.04-5.12,1.41-1.85,2.74-9.39-1.28-9.73-2.64-.22-29.47.17-29.47.17Z"/>
        <path class="cls-13" d="m55.77,105.17s-2.03,3.33-2.14,9.23c-.14,7.38,4.13,7.2,5.92,7.63,6.47,1.56,16.83,1.89,23.22.61,4.3-.86,3.53-1.9,6.16-4.97,1.64-1.92,3.44-10.08-.89-10.69-2.85-.4-32.26-1.81-32.26-1.81Z"/>
        <path class="cls-13" d="m54.55,93s-1.61,2.53-1.33,7.36c.28,4.83,3.37,5.79,5.17,6.11,6.61,1.17,21.54,1.65,24.26,1.65,2.33,0,3.39.4,6.28-2.6,2.89-3,1.67-10.16-1.72-11.33-4.87-1.68-4.27,1.47-4.27,1.47l-28.38-2.67Z"/>
        <path class="cls-23" d="m83.07,138.04c-.16.04.05,1.17.16,2.99.06.91.08,1.99.03,3.18-.03.6-.08,1.22-.15,1.87-.04.32-.08.65-.13.98-.05.33-.11.67-.18.98l1.13.28c.09-.38.14-.72.2-1.08.05-.35.09-.69.12-1.04.06-.68.09-1.34.09-1.96,0-1.25-.12-2.38-.28-3.3-.17-.93-.38-1.67-.56-2.16-.19-.5-.34-.75-.42-.73Z"/>
        <path class="cls-23" d="m82.06,106.74c-.04.19-.09.38-.14.56-.05.18-.1.38-.15.54l1.37.46c.08-.24.13-.43.18-.64.05-.21.1-.41.14-.62.09-.41.16-.81.22-1.21.12-.79.19-1.56.22-2.29.06-1.47-.03-2.79-.18-3.88-.31-2.19-.83-3.46-1.01-3.42-.21.04-.05,1.38,0,3.5.02,1.06,0,2.32-.13,3.71l-.51,3.28Z"/>
        <path class="cls-23" d="m82.72,110.57c-.19.04,0,1.36.02,3.49.01,1.06-.01,2.33-.12,3.72-.05.7-.13,1.43-.23,2.19-.1.75-.22,1.55-.38,2.31l1.28.28c.18-.85.28-1.65.37-2.44.08-.79.13-1.55.16-2.27.05-1.45-.02-2.76-.16-3.85-.27-2.19-.78-3.47-.94-3.43Z"/>
        <path class="cls-23" d="m82.82,124.33c-.19.04-.02,1.36.01,3.48.01,1.06-.02,2.31-.16,3.69-.07.69-.16,1.41-.29,2.16-.06.37-.13.75-.21,1.13-.08.37-.17.77-.27,1.12l1.3.39c.12-.44.21-.83.29-1.24.08-.4.15-.8.2-1.19.11-.78.18-1.55.22-2.27.07-1.45,0-2.76-.13-3.85-.14-1.09-.34-1.96-.52-2.54-.19-.59-.35-.89-.44-.87Z"/>
        <path class="cls-23" d="m105.2,35.54c-7.05,8.61-3.44,20.11-3.22,25.39.53,12.52-.99,19.38-6.33,21.66-5.06,2.17-23.63,1.88-31.21,3.94-6.72,1.83-8.75,4.14-9.94,6.56-.4.81-1.53,2.96-1.28,7.27.16,2.73,1.21,4.22,2.42,5.06t0,0c-.46.88-1.91,4.02-2,8.98-.09,4.82,1.7,6.42,3.45,7.06-.45,1.05-1.44,3.91-1.29,8.15.21,5.77,3.07,6.36,4.95,6.59,0,0,0,0,0,0-.34,1.28-.65,3.11-.56,5.42.12,3.18,1.16,4.55,2.32,5.19,0,0,0,0,0,0,.27.26,1.41,1.33,3.59,2.48,2.02.29,4.39.45,6.91.45h0c4.24,0,8.49-.15,11.43-.91,3.44-.89,1.88-1.67,4.96-5.08,1.46-1.62,2.21-6.33.54-8.75-.62-.91-1.55-1.06-1.54-1.58,0-.52,1.04-.84,1.87-2.42,1.17-2.21,1.5-5-.41-8.73-.38-.75-1.12-1.41-1.18-1.89-.05-.48.79-.29,1.71-1.21,2.71-2.71,2.25-7.87.87-10.35-.42-.75-1.12-1.24-1.14-2.13s3.6-2.81,2.44-8.77c-.54-2.78-2.21-4.75-4.67-5.58-1.12-.38-.35-.56-1.53-.54-2.54.04-2.77,1.57-4.27,1.75-3.5.42-11.87.2-13.41.13-1.54-.07-5.65-.16-5.64.13.01.29,18.76,1.66,19.72,1.5.96-.17.3-2.37,4.44-1.1,2.48.77,3.77,4.84,3.21,8.12-.47,1.16.35,2.88-3.77,4.38-3.17,1.16-2.99.98-9.93.72-9.11-.33-14.05-1.29-16.11-1.67-3.67-.67-5.41-2.67-5.58-5-.83-11,7.17-14.08,24.75-14.58,14.25-.4,18.43.61,22.38-6.83,4.94-9.33-1.75-30.58,3-39.75,4.2-8.1,9.17-8.79,9.17-8.79-2.43-.13-5.83.72-9.12,4.73Zm-16.9,105.33c-.29.69-.02,2.05-2.1,3.37-1.77,1.12-1.65,2.52-6.83,2.88-5.56.38-10.94-.13-12.92-.4-2.96-.4-4.42-2.07-4.7-3.84-.38-2.41-.23-4.14.57-5.08.46-.54,1.79.03,3.67.21,1.79.17,4.07.64,13.51.08,7.56-.44,7.03-2.51,8.05-2.95,1.02,1.45,1.12,3.98.75,5.74Zm.32-11.58c.05-.17.1-.36.14-.55-.04.19-.09.37-.14.55Zm.14-.55c-.45,1.24.28,2.52-2.39,4.13-2.06,1.24-2.61,2.64-8.55,3.05-6.38.44-12.56-.15-14.83-.46-3.4-.46-5.08-2.38-5.39-4.41-.43-2.77-.18-4.82.76-6.67.52-1.02,2.65-.62,3.93-.54,1.49.1,6.06.87,15.83.5,9.3-.35,8.6-1.68,9.77-2.19,1.17,1.67,1.29,4.57.86,6.58Zm-32.03-19.86c.62-1.07,2.91-.51,4.3-.34,1.61.19,6.51,1.31,17.14,1.5,10.11.18,9.82-1.03,11.12-1.51,1.17,1.88,1.12,5.03.54,7.19-.37,1.34.11,2.65-2.83,4.26-2.29,1.25-3.46,1.92-9.93,2-6.95.09-13.53-.33-15.97-.81-3.66-.71-5.36-2.89-5.58-5.11-.3-3.03.1-5.24,1.23-7.18Z"/>
        <g class="cls-28">
          <path class="cls-1" d="m82.96,95.59c-.14.34,1.04,2.1,1.15,5.75.11,4-.47,5.71-.4,5.94s-.34.43,3.39-.94c3.98-1.46,3.59-4.29,3.11-7.23-.4-2.47-.51-5.17-4.07-5.12-3.27.04-3.05,1.26-3.19,1.6Z"/>
        </g>
        <g class="cls-27">
          <path class="cls-32" d="m114.59,31.6c-1.54-.04-5.82,1.61-8.89,8.16-3.47,7.42-.76,19.08-1,27.66-.47,16.91-5.3,21-3.39,30.16,1.16,5.52,6.62,9.18,8.17,13.75,1.83,5.42,1.33,10.83,1.33,10.83l32.68-14.97s.44-5.39-2.33-12.55c-1.68-4.33-3.96-5.95-6.12-8.34-1.49-1.64-2.23-4.3-4.17-6.1-4.39-4.06-7.91-8.09-10.5-19.33-2.29-9.94-1.11-13.16-1.97-20.94-.66-5.99-1.54-8.27-3.81-8.33Z"/>
        </g>
        <g class="cls-9">
          <path class="cls-10" d="m94.18,147.08s2.6-.53,5.25-3.31c4.19-4.39,4.78-11.36,10.5-13.91,3.36-1.5,7.62-1.76,12.14-1.64,5.22.14,12.25,1.44,13.16,3.25,1.26,2.49-1.74,7.37-5.94,11.44-2.4,2.32-5.09,4.43-7.86,5.55-8.03,3.25-15.67,2.25-21.03,2.19-4.12-.04-6.22-3.58-6.22-3.58Z"/>
        </g>
        <g class="cls-12">
          <path class="cls-34" d="m83.32,110.23c-.36.19.54,2.22.67,5.61.14,3.58-.31,5.17-.06,5.3.25.14.91-.08,3.41-1.58,2.5-1.5,2.36-3.11,2.55-5.83.21-2.95-.44-4.64-.78-4.78-.33-.14,2.01.53-1.82.94-3.97.43-3.61.14-3.97.33Z"/>
        </g>
        <g class="cls-21">
          <path class="cls-16" d="m83.35,124.25c.21-.15,1.32-.17,3.56-.62,2.48-.5.51-1.17.84-1.12.33.04,1.56,2.61.79,6.27-.98,4.65-4.55,6.27-4.78,6.1-.23-.17.62-2.12.42-5.66-.17-2.89-1.04-4.81-.83-4.96Z"/>
        </g>
        <g class="cls-17">
          <path class="cls-35" d="m83.48,137.92c-.15.19.54,1.3.85,3.89.35,2.93.01,4.26.15,4.32.14.05-.79-.51,1.59-2.01,2.16-1.36,2.15-2.61,2.25-4.17.2-3.14-.64-4.47-.83-4.54-.19-.07,2.04.62-.7,1.47-2.65.82-3.15.85-3.31,1.04Z"/>
        </g>
        <path class="cls-33" d="m136.05,86.65c-3.19-3.59-7.87-12.63-11.13-20.39-3.39-8.05-3.41-13.77-3.83-17.39-.28-2.39-1.37-5.1-1.83-8.89-.72-5.94-1.28-7.44-1.56-8.06-.03-.07-.15-.17-.33-.29.02.58.11,3.55.39,5.62.31,2.31.99,4.77,1.28,7,.33,2.61.22,6.5.67,10.44.44,3.94,2.06,9.38,4.34,15.21,2.28,5.83,5.71,10.31,9.28,14.55,3.44,4.08,5.24,4.65,5.24,4.66-.83-.76-1.69-1.56-2.51-2.48Z"/>
        <path class="cls-3" d="m120.37,45.45c-.4-1.57-.85-3.35-1.11-5.46-.69-5.66-1.22-7.29-1.51-7.96,0,0-.99.29-1.37,2.01-.38,1.68-.19,5.36.65,7.31.97,2.24,3.35,4.1,3.35,4.1h0Z"/>
        <g class="cls-24">
          <path class="cls-2" d="m56.98,93.51c2.12-.36,7.86.82,12.32,1.19,4.46.38,12.11.69,12.43.97.32.28.8,2.03.6,5.78-.21,3.75-.54,5.53-.83,5.75-.29.22-5.43.18-13.22-.56-7.96-.75-9.86-1.42-11.83-3.11-1.91-1.64-1.58-9.67.54-10.03Z"/>
        </g>
        <g class="cls-31">
          <path class="cls-2" d="m81.77,110.55c-.3-.28-4.37-.08-11.16-.54-6.83-.46-11.57-1.86-13-1.17-1.43.69-1.82,3.39-1.88,4.92-.06,1.53.11,4.86,3.17,6.33,2.19,1.06,6.5,1.39,11.5,1.5,5,.11,11.04.01,11.21-.37.17-.39.78-3.31.72-5.9-.06-2.6-.25-4.49-.56-4.76Z"/>
        </g>
        <g class="cls-20">
          <path class="cls-2" d="m59.49,124.11c.78-.2,4.72.51,11,.72,6.28.21,10.65-.28,11.44-.31.79-.03.49,9.83-.39,10.5-.52.4-5.17.86-12.19.64-7.78-.25-9.29-1.37-10-2.08-.71-.71-1.8-2.25-1.62-5.33.18-3.08.99-3.94,1.76-4.14Z"/>
        </g>
        <g class="cls-15">
          <path class="cls-2" d="m62.83,137.89c.5-.14,4.42.75,9.14.75s9.58-.36,10.47-.42c.89-.06.67,7.55.28,8.08-.39.53-4.22.89-11.41.64-5.01-.17-7.14-.94-7.75-1.47-.61-.53-1.83-1.39-1.81-4.64.02-2.15.58-2.8,1.08-2.94Z"/>
        </g>
        <g class="cls-5">
          <path class="cls-7" d="m102.31,86.87c-1.67,1.89-2.83,7.39-1,12.3,1.74,4.68,5.58,8.15,7.33,12.47,1.78,4.39,1.69,6.61,1.61,8.11-.08,1.5,9.54-1.4,17.97-1.42,8.43-.01,13.16,1.94,14.32,1.3,1.17-.64,3-17.8-2.83-27.13-6.42-10.28-12.32-9.83-20.7-9.54-9.2.32-15.43,2.45-16.71,3.9Z"/>
        </g>
        <path class="cls-23" d="m108.94,120.88s-.03,0-.05,0c-.37-.03-.64-.35-.61-.72.5-6.44-2.34-10.48-5.09-14.4-1.69-2.4-3.28-4.68-3.96-7.34-1.36-5.35.38-11.17.45-11.41.11-.35.48-.55.83-.44.35.11.55.48.44.83-.02.06-1.7,5.72-.44,10.7.62,2.43,2.14,4.6,3.76,6.91,2.75,3.91,5.86,8.35,5.33,15.27-.03.35-.32.61-.66.61Z"/>
      </g>
    </g>
  </g>
</svg>