<?xml version="1.0" standalone="no"?>
<!DOCTYPE svg PUBLIC "-//W3C//DTD SVG 20010904//EN"
 "http://www.w3.org/TR/2001/REC-SVG-20010904/DTD/svg10.dtd">
<svg version="1.0" xmlns="http://www.w3.org/2000/svg"
 width="260.000000pt" height="260.000000pt" viewBox="0 0 260.000000 260.000000"
 preserveAspectRatio="xMidYMid meet">
<metadata>
Created by potrace 1.14, written by Peter Selinger 2001-2017
</metadata>
<g transform="translate(0.000000,260.000000) scale(0.100000,-0.100000)"
fill="#000000" stroke="none">
<path d="M1497 2100 c-18 -14 -29 -36 -36 -73 -18 -91 -35 -519 -35 -887 -1
-336 0 -357 19 -395 26 -53 63 -59 104 -18 37 37 48 104 57 331 4 94 10 172
14 172 4 0 79 -78 167 -172 353 -381 428 -430 518 -338 34 35 38 43 29 67 -6
18 -26 35 -59 51 -36 18 -118 92 -295 268 l-245 244 205 205 c113 114 233 229
268 258 76 62 115 111 117 148 2 26 -1 28 -48 34 -45 7 -53 4 -102 -30 -30
-20 -165 -149 -299 -286 -135 -137 -249 -249 -252 -249 -4 0 -3 62 0 138 7
139 -5 373 -25 469 -7 34 -18 58 -32 68 -28 20 -39 19 -70 -5z"/>
<path d="M803 2080 c-154 -55 -247 -116 -364 -236 -86 -90 -120 -139 -160
-236 -92 -224 -97 -459 -12 -636 37 -77 150 -190 230 -231 109 -55 244 -74
375 -52 97 16 259 142 298 232 23 54 41 210 24 208 -5 0 -37 -36 -71 -79 -74
-93 -162 -159 -253 -190 -125 -43 -300 -11 -383 68 -75 71 -117 187 -117 321
1 246 60 395 217 549 141 137 380 220 468 162 38 -25 57 -25 80 0 29 32 10 69
-55 108 -50 30 -61 32 -140 32 -57 -1 -102 -7 -137 -20z"/>
</g>
</svg>
