<svg width="80" height="80" viewBox="0 0 80 80" fill="none" xmlns="http://www.w3.org/2000/svg">
<circle cx="40" cy="40" r="40" fill="white"/>
<g clip-path="url(#clip0_160_1240)">
<path d="M33.378 25.3239H26.6695C26.4394 25.3239 26.2521 25.1367 26.2521 24.9065C26.2521 24.6764 26.4394 24.4891 26.6695 24.4891H33.378C33.6081 24.4891 33.7954 24.6764 33.7954 24.9065C33.7954 25.1367 33.6081 25.3239 33.378 25.3239Z" fill="#E6E7E8"/>
<path d="M38.6133 26.7366H26.6695C26.4394 26.7366 26.2521 26.5494 26.2521 26.3192C26.2521 26.0891 26.4394 25.9019 26.6695 25.9019H38.6133C38.8435 25.9019 39.0307 26.0891 39.0307 26.3192C39.0307 26.5494 38.8435 26.7366 38.6133 26.7366Z" fill="#E6E7E8"/>
<path d="M38.6133 28.1366H26.6695C26.4394 28.1366 26.2521 27.9494 26.2521 27.7192C26.2521 27.4891 26.4394 27.3019 26.6695 27.3019H38.6133C38.8435 27.3019 39.0307 27.4891 39.0307 27.7192C39.0307 27.9494 38.8435 28.1366 38.6133 28.1366Z" fill="#E6E7E8"/>
<path d="M39.8785 35.4019V35.2019C37.57 35.2019 35.554 33.3161 35.018 30.6893L35.8879 30.9131C35.4671 30.5145 35.0421 29.8472 34.7785 29.3019C34.6228 29.8873 34.3319 30.623 33.9943 31.0941L34.8173 30.7042C35.3646 33.4371 37.4672 35.4019 39.8785 35.4019Z" fill="#3F3D56"/>
<path d="M39.0053 27.748C39.0053 27.9685 38.8258 28.148 38.6053 28.148H33.4052C33.1847 28.148 33.0052 27.9685 33.0052 27.748C33.0052 27.5274 33.1847 27.348 33.4052 27.348H38.6053C38.8258 27.348 39.0053 27.5274 39.0053 27.748Z" fill="#00BFA6"/>
<path d="M15.5904 50.0297C15.5112 49.7541 15.3757 49.519 15.2143 49.3513L14.6279 46.6783L13.3498 46.9914L14.0822 49.6692C14.034 49.8957 14.0437 50.1662 14.1228 50.4418C14.3037 51.0715 14.7788 51.4898 15.1841 51.376C15.5893 51.2622 15.7712 50.6595 15.5904 50.0297Z" fill="#FFB6B6"/>
<path d="M15.4136 32.4956C15.4136 32.4956 14.0331 32.448 13.2331 33.348C12.3165 34.4676 11.69 38.8547 12.1603 39.1501L13.4346 48.1987L15.2517 47.949L14.7853 37.0921L15.4136 32.4956Z" fill="#00BFA6"/>
<path d="M24.7331 47.748L24.4023 58.7917H19.6523L19.4603 54.5347L18.6163 58.7917H13.5253L14.1603 51.4737L14.8163 49.9347L15.2603 48.8917L24.7331 47.748Z" fill="#2F2E41"/>
<path d="M20.9603 30.6917L17.6603 30.4917L16.5603 31.8917C15.6103 32.0951 14.7522 32.3578 14.1603 32.7917C14.3019 36.9843 13.9908 42.4359 15.2603 43.4917L14.1331 51.448C14.1331 51.448 14.5877 51.0585 15.347 51.196C15.6094 51.2435 15.9261 51.8345 16.2484 51.8703C18.7254 52.1455 22.7422 51.8625 24.7331 47.748L23.9603 41.7917L24.1603 33.0917C23.5351 32.5975 22.7577 32.2763 21.8603 32.0917L20.9603 30.6917Z" fill="#00BFA6"/>
<path d="M27.3133 28.2578C27.3492 28.6045 27.3037 28.9306 27.199 29.192L27.7487 32.4732L26.1797 32.6891L25.791 29.3374C25.6351 29.1029 25.524 28.793 25.4882 28.4463C25.4064 27.6543 25.7486 26.9701 26.2526 26.918C26.7567 26.866 27.2316 27.4658 27.3133 28.2578Z" fill="#FFB6B6"/>
<path d="M22.0971 33.3424C21.9328 33.5848 21.9786 33.8572 21.9393 34.1846C21.7728 35.5742 24.4358 39.6806 26.2784 40.1534C26.5201 40.2154 26.6579 40.4762 26.9019 40.5287C27.6249 40.6841 28.298 40.1102 28.259 39.3718L27.7585 29.901L25.6558 30.6182L25.7903 35.5353C25.7769 34.5166 24.8416 33.4794 24.1331 33.048C24.1331 33.048 22.698 32.4558 22.0971 33.3424Z" fill="#00BFA6"/>
<path d="M19.6528 30.2329C21.2581 30.2329 22.5595 28.9315 22.5595 27.3262C22.5595 25.7208 21.2581 24.4194 19.6528 24.4194C18.0474 24.4194 16.746 25.7208 16.746 27.3262C16.746 28.9315 18.0474 30.2329 19.6528 30.2329Z" fill="#FFB6B6"/>
<path d="M22.3603 25.1917C22.3353 25.1977 22.743 24.8004 22.7603 24.7917C23.1603 24.5917 22.7493 26.5467 22.4603 26.4917C21.7493 26.3567 21.4423 26.0887 21.1663 26.7577C21.0893 26.9437 21.0413 27.1537 20.8913 27.2867C20.6853 27.4677 20.3433 27.4527 20.1753 27.6687C20.0403 27.8427 20.0793 28.0987 20.1793 28.2947C20.2793 28.4917 20.4313 28.6587 20.5223 28.8597C20.6243 29.0857 20.1893 29.8047 20.0233 30.2087V30.2097L20.0223 30.2121C19.9782 30.3181 19.8734 30.0128 19.7627 29.9823C19.6303 29.9459 19.4352 30.2585 19.2243 30.2017C19.2233 30.2017 19.2223 30.2007 19.2213 30.2007C19.0203 30.1447 18.7963 30.0847 18.5743 30.0247H18.5733C17.9483 29.8547 17.7903 30.0987 17.7603 30.0917L17.3723 29.6857C17.2392 29.5888 17.2542 29.2758 17.1603 29.1917C17.0835 29.123 16.8921 29.2818 16.8357 29.2158C16.5591 28.8918 16.4954 28.5676 16.3323 27.9277C16.1833 27.3427 15.8743 25.5917 16.5093 25.5127C17.1083 25.4377 16.6703 24.6037 17.2733 24.6347C17.2373 24.4827 17.3043 24.3197 17.4133 24.2077C17.5213 24.0947 17.6653 24.0247 17.8103 23.9647C18.5253 23.6727 18.4063 23.4217 19.1603 23.5917C19.2353 23.4867 20.1971 23.213 20.3331 23.248C20.3431 23.25 20.1233 23.6767 20.6603 23.5917C20.6403 23.7147 20.9331 23.448 20.9603 23.8917C21.5331 23.548 21.8413 24.3707 21.8603 24.4917C21.8853 24.6427 21.6573 24.5657 21.8093 24.5887C21.8993 24.6027 22.0533 24.7857 22.0383 24.8767C22.1033 24.7887 22.1683 24.7017 22.2343 24.6137C22.2463 24.6147 22.2573 24.6167 22.2693 24.6187C22.5733 24.6767 22.2248 25.6705 22.2373 25.3607C22.2603 24.7917 22.6633 25.1247 22.3603 25.1917Z" fill="#2F2E41"/>
<path d="M59.437 24.5958C59.3296 25.4785 59.2122 26.36 59.085 27.2401C59.0333 27.5976 58.9786 27.9596 58.8348 28.2909C58.7367 28.517 58.5992 28.7235 58.4624 28.9287C58.3009 29.1711 58.1366 29.4166 57.9172 29.6082C57.6977 29.7998 57.4127 29.9343 57.1222 29.9118C57.8928 29.3931 58.4108 28.5157 58.4926 27.5903C58.5311 27.1553 58.4783 26.7181 58.4682 26.2815C58.4581 25.845 58.4946 25.3932 58.696 25.0058C58.8974 24.6183 59.2953 24.3082 59.7318 24.3192L59.437 24.5958Z" fill="#2F2E41"/>
<path d="M51.6268 43.4231C50.9997 43.9316 50.229 44.0204 49.9054 43.6214C49.5818 43.2224 49.8277 42.4866 50.4548 41.978C50.7293 41.7554 51.0313 41.6133 51.3112 41.5572L53.9953 39.4356L54.9641 40.7163L52.2153 42.6719C52.1027 42.9343 51.9013 43.2004 51.6268 43.4231Z" fill="#A0616A"/>
<path d="M52.1338 40.5428L56.1331 36.748L56.5331 36.448C56.5331 36.448 58.8289 34.2113 59.4233 34.1601C59.6751 34.1385 59.9269 34.2012 60.139 34.339C60.4817 34.5613 60.6592 34.927 60.6592 35.2957C60.6592 35.6037 60.5351 35.9133 60.2811 36.1412L56.6198 39.4282L55.0622 40.8263L53.1251 42.5657L52.9281 42.1646L52.2622 40.8054L52.1338 40.5428Z" fill="#00BFA6"/>
<path d="M60.6853 37.9746L56.681 39.2011C57.3514 39.3899 57.6321 43.475 57.0082 43.6019C57.0082 43.6019 63.6446 44.074 63.2825 43.6019C62.8411 43.0265 63.4331 39.2028 63.7154 39.2011L60.6853 37.9746Z" fill="#A0616A"/>
<path d="M66.0137 58.792L65.6637 54.568C65.6637 53.0571 65.5657 51.692 65.4087 50.475C64.7797 45.59 63.2027 43.0861 63.2027 43.0861H57.3027C57.2947 43.0951 57.2867 43.1021 57.2787 43.1111L57.2777 43.1121C55.8857 44.5751 55.1617 48.2541 54.8397 50.4751C54.6867 51.5321 54.6247 52.2591 54.6247 52.2591L54.0477 57.3871L54.4647 58.7921H57.8977L57.8437 58.491L60.0527 50.475L60.0797 50.377L60.1037 50.475L62.1517 58.7921L66.0137 58.792Z" fill="#2F2E41"/>
<path d="M57.4235 35.5379L58.6703 33.0212L59.7208 31.1928L60.5703 30.3271H62.8952L63.1116 31.1928L64.4102 31.9142L64.8695 35.5215L63.2331 43.348C61.2851 41.7608 57.2703 41.3212 57.2703 41.3212L56.6197 39.4281L56.1898 37.1476L56.1378 36.8749L57.4235 35.5379Z" fill="#00BFA6"/>
<path d="M57.274 40.0905C56.4669 40.0676 55.8245 39.6327 55.8391 39.1192C55.8536 38.6056 56.5197 38.2078 57.3267 38.2307C57.68 38.2408 58.0017 38.3297 58.2506 38.4697L61.6691 38.6096L61.5692 40.2124L58.2099 39.9044C57.9535 40.03 57.6272 40.1006 57.274 40.0905Z" fill="#A0616A"/>
<path d="M61.6456 34.6198L64.8702 37.8212L59.2534 38.3964L57.9481 40.2324L65.777 40.492C66.4833 40.7436 67.2357 40.2554 67.2939 39.5078C67.3135 39.2554 65.7051 32.8506 64.7314 32.256C63.5903 31.5591 61.6456 34.6198 61.6456 34.6198Z" fill="#00BFA6"/>
<path d="M63.8856 27.1858C63.909 25.7316 62.7492 24.5338 61.2951 24.5104C59.8409 24.4869 58.6431 25.6467 58.6197 27.1009C58.5962 28.555 59.756 29.7528 61.2102 29.7763C62.6643 29.7997 63.8621 28.6399 63.8856 27.1858Z" fill="#A0616A"/>
<path d="M67.0331 35.348C66.9671 35.598 66.4531 35.727 66.3331 36.048C65.9511 36.266 66.1581 34.485 66.0041 34.368C65.8851 34.279 65.8531 34.494 65.8261 34.309C65.7241 33.615 65.0571 33.77 64.5631 33.658C64.5071 33.549 64.4641 33.443 64.4361 33.34C64.3861 33.154 64.1581 33.089 64.0231 33.226C63.9621 33.172 63.9181 32.981 63.8751 32.79C63.8441 32.651 63.8131 32.512 63.7771 32.424L63.4331 31.648L63.5441 32.226C63.3191 32.145 63.0921 32.229 62.9611 31.951C62.7931 31.594 62.7261 31.176 62.8481 30.801C62.9591 30.461 63.1461 29.78 63.3571 29.216C63.1181 29.389 62.8311 29.515 62.4981 29.578C62.6161 29.354 62.7361 29.126 62.7861 28.877C62.8351 28.628 62.8051 28.351 62.6471 28.153C62.5171 27.99 62.3251 28.031 62.1631 27.9C62.0371 27.798 61.9281 27.537 61.8521 27.394C62.1761 28.471 62.4211 29.615 62.0091 30.643C61.7241 31.355 61.1241 31.934 60.4041 32.197C60.7871 31.923 61.1611 31.631 61.4481 31.259C61.7551 30.86 61.9551 30.356 61.8941 29.856C61.7981 29.071 60.3421 26.588 60.1631 26.1C60.2611 26.577 60.2231 26.949 59.9651 27.154C59.8981 26.462 59.1441 26.525 58.7331 26.248C58.7331 26.248 58.4151 24.451 59.1611 24.44C59.5211 24.435 59.8981 23.589 60.2251 23.438C60.7471 23.197 61.0671 23.361 61.6461 23.379C62.2241 23.396 62.7791 23.645 63.1321 24.102C63.3171 24.341 63.3851 24.151 63.6631 24.3C63.9271 24.441 64.1051 24.31 64.4041 24.319C65.0031 24.335 65.5841 24.655 65.9201 25.15C66.2561 25.646 66.4631 25.6 66.3301 26.367C66.3281 26.376 66.3281 26.394 66.3301 26.421C66.4031 27.629 66.2161 28.84 65.7371 29.952C65.5891 30.294 66.313 30.647 66.312 31.074C66.311 31.57 65.5121 32.022 65.5861 32.234C65.7981 33.255 66.9891 33.028 66.7081 34.737C66.6851 34.876 67.0771 35.181 67.0331 35.348Z" fill="#2F2E41"/>
<path d="M59.7378 32.2211C59.7598 32.2141 59.7818 32.2061 59.8038 32.1971C59.7758 32.2171 59.7488 32.2361 59.7208 32.2561L59.7378 32.2211Z" fill="#2F2E41"/>
<path d="M63.447 23.796C63.1606 23.8386 62.8696 23.3633 63.0322 22.7043C63.3867 23.2462 63.5678 23.8563 63.5963 24.5265L63.4053 24.5857L63.447 23.796Z" fill="#00BFA6"/>
<path d="M64.9105 23.1808C64.7151 23.8735 63.7224 24.3371 63.547 24.096L63.527 24.5091L63.4042 24.3512C63.7603 23.8218 64.2456 23.4156 64.9105 23.1808Z" fill="#00BFA6"/>
<path d="M43.1121 41.8594C43.1121 41.6292 43.2993 41.442 43.5295 41.442H50.238C50.4681 41.442 50.6554 41.6292 50.6554 41.8594C50.6554 42.0895 50.4681 42.2768 50.238 42.2768H43.5295C43.2993 42.2768 43.1121 42.0895 43.1121 41.8594Z" fill="#E6E7E8"/>
<path d="M43.1121 44.6594C43.1121 44.4292 43.2993 44.242 43.5295 44.242H50.238C50.4681 44.242 50.6554 44.4292 50.6554 44.6594C50.6554 44.8895 50.4681 45.0768 50.238 45.0768H43.5295C43.2993 45.0768 43.1121 44.8895 43.1121 44.6594Z" fill="#E6E7E8"/>
<path d="M38.2941 43.6895C38.064 43.6895 37.8768 43.5022 37.8768 43.2721C37.8768 43.042 38.064 42.8547 38.2941 42.8547H50.238C50.4681 42.8547 50.6554 43.042 50.6554 43.2721C50.6554 43.5022 50.4681 43.6895 50.238 43.6895H38.2941Z" fill="#E6E7E8"/>
<path d="M37.4062 39.6947L36.5832 39.3048C36.9207 39.7759 37.2116 40.5116 37.3673 41.0971C37.631 40.5518 38.056 39.8845 38.4767 39.4859L37.6069 39.7097C38.1429 37.0829 40.1588 35.1971 42.4673 35.1971V34.9971C40.056 34.9971 37.9534 36.9619 37.4062 39.6947Z" fill="#3F3D56"/>
<path d="M41.1941 43.6971H35.9941C35.7735 43.6971 35.5941 43.5177 35.5941 43.2971C35.5941 43.0765 35.7735 42.8971 35.9941 42.8971H41.1941C41.4147 42.8971 41.5941 43.0765 41.5941 43.2971C41.5941 43.5177 41.4147 43.6971 41.1941 43.6971Z" fill="#00BFA6"/>
<path d="M42.7128 35.5165C42.8514 34.663 42.2717 33.8587 41.4181 33.7202C40.5646 33.5817 39.7603 34.1614 39.6218 35.0149C39.4833 35.8685 40.063 36.6727 40.9165 36.8113C41.7701 36.9498 42.5743 36.3701 42.7128 35.5165Z" fill="#3F3D56"/>
<path d="M32.6673 23.9315C33.2007 23.9315 33.6331 23.4991 33.6331 22.9657C33.6331 22.4324 33.2007 22 32.6673 22C32.134 22 31.7016 22.4324 31.7016 22.9657C31.7016 23.4991 32.134 23.9315 32.6673 23.9315Z" fill="#E6E7E8"/>
<path d="M43.9673 40.6315C44.5007 40.6315 44.9331 40.1991 44.9331 39.6657C44.9331 39.1324 44.5007 38.7 43.9673 38.7C43.434 38.7 43.0016 39.1324 43.0016 39.6657C43.0016 40.1991 43.434 40.6315 43.9673 40.6315Z" fill="#E6E7E8"/>
</g>
<defs>
<clipPath id="clip0_160_1240">
<rect width="55.2941" height="36.792" fill="white" transform="translate(12 22)"/>
</clipPath>
</defs>
</svg>
