<svg width="80" height="80" viewBox="0 0 80 80" fill="none" xmlns="http://www.w3.org/2000/svg">
<circle cx="40" cy="40" r="40" fill="white"/>
<g clip-path="url(#clip0_160_1064)">
<path d="M69.1592 44.2442L68.9587 45.8546L68.4612 49.8545H58.4653C58.5434 48.958 58.6501 47.6676 58.7641 46.2746C58.7753 46.1355 58.7871 45.9955 58.7984 45.8546C59.0842 42.353 59.397 38.3904 59.397 38.3904L60.7112 38.6374L63.2608 39.1157L64.2997 39.3104L67.0819 39.833C68.469 40.093 69.4232 42.1191 69.1592 44.2442Z" fill="#F2F2F2"/>
<path d="M61.5983 31.9106L62.8275 34.0805L60.4649 35.7695L59.4571 33.1023L61.5983 31.9106Z" fill="#FFB6B6"/>
<path d="M60.0334 33.9634C61.7152 33.9634 63.0786 32.5881 63.0786 30.8916C63.0786 29.195 61.7152 27.8197 60.0334 27.8197C58.3516 27.8197 56.9882 29.195 56.9882 30.8916C56.9882 32.5881 58.3516 33.9634 60.0334 33.9634Z" fill="#FFB6B6"/>
<path d="M59.8147 31.5783C59.5729 31.2071 59.6678 31.0129 59.4654 30.8765C59.4654 30.8765 59.3839 30.8216 58.8009 30.7903C58.6704 29.8426 58.5075 29.7277 58.5075 29.7277C58.3197 29.5952 58.041 29.6383 57.8676 29.7193C57.5009 29.8906 57.5434 30.2607 57.2965 30.3315C56.9554 30.4294 56.3349 29.8778 56.2738 29.2464C56.2239 28.7314 56.5528 28.2311 56.6833 28.2576C56.8127 28.2838 57.1224 27.885 57.2896 27.8911C57.4038 27.8953 57.8705 27.6907 57.996 27.7067C58.1331 27.7242 58.5851 27.9621 58.6039 27.9078C58.7348 27.53 58.6963 27.4252 58.8074 27.3171C59.0042 27.1256 59.3261 27.259 59.8312 27.3306C60.8703 27.4779 61.0517 27.1322 61.5842 27.3665C61.8533 27.4849 62.0784 27.804 62.5176 28.4375C63.1318 29.3235 63.439 29.7665 63.4409 30.2831C63.4429 30.81 63.19 30.7766 63.0789 31.5566C62.9552 32.4249 63.218 32.822 62.9309 33.1041C62.7091 33.3221 62.2581 33.3739 62.0211 33.1825C61.6155 32.8549 62.1464 32.0644 61.6974 31.4868C61.4219 31.1323 60.8677 30.9746 60.6138 31.1498C60.3268 31.348 60.4849 31.9296 60.2831 31.9847C60.1102 32.0319 59.8569 31.643 59.8147 31.5783Z" fill="#2F2E41"/>
<path d="M66.9084 43.6771C66.8235 45.1421 66.4861 45.6046 66.3679 47.3348C66.3421 47.7147 66.3266 48.1556 66.3266 48.6814C66.3266 48.8155 66.3273 48.9451 66.3273 49.0717C66.3273 49.3413 66.3222 49.5961 66.2911 49.8545C66.2676 50.0608 66.227 50.2686 66.1598 50.4876H59.6011C59.6004 50.4861 59.6004 50.4846 59.5996 50.4831C59.5612 50.3148 59.5368 50.1539 59.5184 49.9998C59.5125 49.9506 59.5073 49.9022 59.5029 49.8545C59.497 49.7986 59.4918 49.7435 59.4867 49.6892C59.4667 49.4724 59.4468 49.2676 59.3995 49.0717C59.336 48.8013 59.2208 48.5466 58.9845 48.3008C58.8878 48.2003 58.7911 48.1221 58.6966 48.0536C58.6782 48.0409 58.6604 48.0282 58.642 48.0156C58.3806 47.8346 58.1333 47.7042 57.9191 47.3348C57.9155 47.3296 57.9125 47.3237 57.9095 47.3185C57.8726 47.2536 57.7767 47.0838 57.7072 46.8574C57.6341 46.622 57.5898 46.3263 57.6696 46.024C57.8594 45.3075 58.5622 45.236 59.1367 44.512C59.1987 44.4338 59.26 44.3474 59.3183 44.2513C59.5782 43.8253 59.6483 43.4499 59.731 43.0038C59.7443 42.9315 59.7561 42.86 59.7657 42.7908C59.7731 42.7386 59.7798 42.6872 59.785 42.6366C59.8307 42.2113 59.8085 41.8448 59.7547 41.5171C59.579 40.4439 59.0606 39.7795 59.4268 38.8164C59.542 38.5141 59.7052 38.2869 59.8698 38.0925C60.2183 37.6806 60.5764 37.4132 60.5144 36.8815C60.4516 36.3452 60.0485 36.2714 60.0035 35.803C59.9806 35.5661 60.0574 35.3166 60.2013 35.0716V35.0708C60.6621 34.2821 61.8124 33.5559 62.5433 33.579C62.6785 33.5827 62.7981 33.6132 62.8977 33.6721C63.2588 33.8866 63.1082 34.3551 63.6612 35.012C64.0724 35.4998 64.5376 35.695 64.7141 35.7873C65.4133 36.1553 65.9818 37.2405 66.3679 38.628C66.3709 38.6385 66.3738 38.6489 66.3768 38.6601C66.6153 39.5293 66.7837 40.5161 66.8671 41.5171C66.9025 41.9409 66.9232 42.367 66.9276 42.7885C66.9313 43.1252 66.9239 43.4172 66.9084 43.6771Z" fill="#00BFA6"/>
<path d="M61.997 48.6963L61.8633 49.0717L61.7792 49.3071L61.5842 49.8545L61.3583 50.4876H59.906L60.1497 49.8545L60.2626 49.5596L60.4502 49.0717L60.7647 48.2524L61.997 48.6963Z" fill="#FFB6B6"/>
<path d="M66.3909 38.4999C66.3872 38.5483 66.382 38.6019 66.3768 38.6601C66.3193 39.2514 66.1833 40.3098 65.9848 41.5171C65.8799 42.1539 65.7574 42.8325 65.6193 43.5065C65.3225 44.9611 64.9533 46.3934 64.5361 47.3348C64.4616 47.5047 64.3848 47.6581 64.3065 47.7936C64.2467 47.8972 64.1839 47.9992 64.1182 48.0997C63.9056 48.4297 63.6671 48.7425 63.4198 49.0345C63.4102 49.0471 63.3991 49.0591 63.388 49.0717C63.3482 49.1194 63.3068 49.1663 63.2655 49.2132C63.0631 49.4434 62.8564 49.6579 62.6563 49.8545C62.4127 50.0943 62.1779 50.3066 61.9675 50.4876H59.6092L59.5996 50.4831L59.26 50.3312C59.26 50.3312 59.3567 50.2165 59.5184 49.9998C59.5516 49.9558 59.587 49.9074 59.6255 49.8545C59.6727 49.7897 59.7237 49.7182 59.7782 49.6407C59.892 49.4784 60.0212 49.2877 60.16 49.0717C60.4288 48.6539 60.7351 48.14 61.0445 47.5449C61.08 47.4756 61.1161 47.4056 61.1523 47.3348C61.153 47.3326 61.1546 47.3303 61.1553 47.3281C61.2166 47.2075 61.2771 47.0831 61.3376 46.9564C61.8508 45.8795 61.9977 44.9857 62.0398 44.696C62.0989 44.2863 62.1808 43.7136 62.1587 43.0834C62.1439 42.6679 62.0841 42.2284 61.9416 41.792V41.7912C61.9121 41.6996 61.8788 41.608 61.8412 41.5171C61.774 41.354 61.6943 41.1931 61.5997 41.0345C61.1826 40.3359 60.8437 40.3068 60.5742 39.5456C60.4945 39.32 60.3135 38.8105 60.3689 38.2727V38.272C60.3756 38.2057 60.3867 38.1387 60.4014 38.0716V38.0709C60.4051 38.0523 60.4103 38.0329 60.4155 38.0143C60.4575 37.8497 60.527 37.6866 60.6325 37.5317C60.8385 37.2308 61.1198 37.052 61.3716 36.9455L61.3724 36.9448C61.6632 36.8226 61.9143 36.7966 61.9631 36.7921C63.0417 36.6953 63.8783 37.6099 64.3353 38.1096C64.5118 38.3025 64.6735 38.4642 64.8212 38.596C65.9707 39.6313 66.286 38.9699 66.3679 38.628C66.3805 38.5751 66.3872 38.5297 66.3909 38.4999Z" fill="#00BFA6"/>
<path d="M66.3945 38.4612C66.3945 38.4649 66.3938 38.4776 66.3909 38.4985C66.3923 38.4873 66.3931 38.4761 66.3938 38.4656C66.3938 38.4634 66.3938 38.4619 66.3945 38.4612Z" fill="#00BFA6"/>
<path d="M60.5306 54.1774H20.952C20.5842 54.1774 20.2845 54.479 20.2845 54.85C20.2845 55.2216 20.5842 55.5232 20.952 55.5232H60.5306C60.8983 55.5232 61.1974 55.2216 61.1974 54.85C61.1974 54.479 60.8983 54.1774 60.5306 54.1774Z" fill="#E6E6E6"/>
<path d="M51.7474 57.6541H29.7345C29.3668 57.6541 29.0678 57.9558 29.0678 58.3267C29.0678 58.6976 29.3668 59 29.7345 59H51.7474C52.1151 59 52.4148 58.6976 52.4148 58.3267C52.4148 57.9558 52.1151 57.6541 51.7474 57.6541Z" fill="#E6E6E6"/>
<path d="M25.3561 32.0534L27.8505 30.9945L28.9204 33.2069L26.2991 34.2862L25.3561 32.0534Z" fill="#FFB6B6"/>
<path opacity="0.1" d="M25.3561 32.0534L27.8505 30.9945L28.9204 33.2069L26.2991 34.2862L25.3561 32.0534Z" fill="black"/>
<path d="M25.7107 31.2103L28.1714 34.0703C28.1714 34.0703 26.4596 39.5206 24.7478 40.0063C23.036 40.4919 19.8798 42.8663 19.8798 42.8663L15.9212 40.2761L17.847 37.4161C17.847 37.4161 22.501 30.9945 23.7314 30.9945C24.9618 30.9945 25.7107 31.2103 25.7107 31.2103Z" fill="#00BFA6"/>
<path d="M22.386 49.8545H16.6578L16.2957 49.3662L14.8171 47.3722L14.4769 46.9135C14.4769 46.9135 13.193 44.5392 13.4605 42.3807C13.728 40.2221 16.5097 39.7365 16.5097 39.7365H16.6241L20.0296 42.7552L19.8263 45.5645L20.9048 47.3722L22.386 49.8545Z" fill="#2F2E41"/>
<path d="M17.831 49.8545H16.2957V47.5611L17.831 49.8545Z" fill="#2F2E41"/>
<path d="M50.9451 46.3728L50.7541 47.3722L50.2802 49.8545H40.7587C40.833 49.2982 40.9347 48.4974 41.0433 47.6329C41.054 47.5465 41.0652 47.4597 41.0759 47.3722C41.3482 45.1991 41.6462 42.74 41.6462 42.74L42.8979 42.8933L45.3266 43.1901L46.3162 43.311L48.9663 43.6353C50.2876 43.7966 51.1965 45.054 50.9451 46.3728Z" fill="#F2F2F2"/>
<path d="M64.4198 49.8545H59.2554C59.3341 49.7612 59.3785 49.7072 59.3785 49.7072L60.9266 49.4493L64.1165 48.9183C64.1165 48.9183 64.262 49.2976 64.4198 49.8545Z" fill="#2F2E41"/>
<path d="M42.514 33.1327L44.7599 36.3367L40.8424 36.4548L40.4219 33.4437L42.514 33.1327Z" fill="#A0616A"/>
<path opacity="0.1" d="M42.514 33.1327L44.7599 36.3367L40.8424 36.4548L40.4219 33.4437L42.514 33.1327Z" fill="black"/>
<path d="M31.4383 39.7712C31.1501 38.9326 30.4876 38.4029 29.9586 38.588C29.4296 38.7731 29.2344 39.6028 29.5228 40.4416C29.6335 40.7783 29.8224 41.0834 30.0739 41.3313L31.3394 44.8689L32.9724 44.2344L31.5515 40.8144C31.5969 40.4625 31.5581 40.1048 31.4383 39.7712Z" fill="#A0616A"/>
<path d="M46.6408 38.1386L46.6377 41.4039L46.3365 42.61L45.7171 45.0907L45.2661 47.3722L44.9302 49.0721L44.8103 49.6792C44.7199 49.7401 44.6301 49.7984 44.5402 49.8545H36.7156C36.271 49.5853 36.0223 49.3759 36.0223 49.3759C36.0223 49.3759 36.1453 49.2593 36.286 49.0721C36.5235 48.7559 36.8108 48.2378 36.6348 47.743C36.5979 47.6394 36.5883 47.5131 36.5995 47.3722C36.6712 46.443 37.6373 44.8716 37.6373 44.8716L37.4372 42.5393L37.3495 41.5173L37.968 36.5337L39.9842 35.3514L40.3323 35.3174L43.7683 35.1302L45.1884 35.2127L45.2531 35.2306L46.6408 38.1386Z" fill="#CCCCCC"/>
<path d="M46.7934 49.8545H45.0816L45.0061 49.0721L45.0045 49.0564L45.4892 49.023L46.7501 48.9361L46.772 49.4045L46.7891 49.7639L46.7934 49.8545Z" fill="#FFB6B6"/>
<path d="M47.2148 38.9281L47.9339 43.1842L47.347 47.3722L47.2556 48.0241L47.094 49.1751L47.0443 49.5291L47.0459 49.5675L47.0582 49.8545H45.0254L44.9505 49.0721L44.9441 49.0019L44.7911 47.3992L44.7884 47.3722L44.4637 43.9736L45.1003 41.5172L45.1474 41.3365V41.3359L45.4243 37.1301L45.2098 35.2187L45.2077 35.2009C45.212 35.2036 45.2157 35.2063 45.22 35.209C45.2312 35.216 45.2425 35.223 45.2532 35.2306C46.5028 36.0303 47.2474 37.4333 47.2148 38.9281Z" fill="#CCCCCC"/>
<path d="M38.6963 37.3493L37.9146 36.5337C37.9146 36.5337 36.2412 37.2947 36.1578 37.7169C36.0744 38.1391 33.1198 44.3401 33.1198 44.3401L31.8343 40.8769L30.1611 42.0038C30.1611 42.0038 31.5037 47.3807 32.7593 47.6331C34.0149 47.8855 38.2231 41.269 38.2231 41.269L38.6963 37.3493Z" fill="#CCCCCC"/>
<path d="M70.4369 47.3348H9.56234C8.7007 47.3348 8 48.0424 8 48.9116C8 49.7808 8.7007 50.4876 9.56234 50.4876H70.4369C71.2986 50.4876 72 49.7808 72 48.9116C72 48.0424 71.2986 47.3348 70.4369 47.3348Z" fill="#E6E6E6"/>
<path d="M46.2845 42.5302L46.1662 48.1016C46.1547 48.6409 45.718 49.0721 45.1833 49.0721H35.0235C34.5014 49.0721 34.0704 48.6604 34.0419 48.1345L33.7399 42.5631C33.7092 41.995 34.1576 41.5172 34.7216 41.5172H45.3016C45.8528 41.5172 46.2963 41.9743 46.2845 42.5302Z" fill="#3F3D56"/>
<path d="M29.8833 33.3983C31.2257 33.3983 32.314 32.3005 32.314 30.9462C32.314 29.592 31.2257 28.4942 29.8833 28.4942C28.5408 28.4942 27.4525 29.592 27.4525 30.9462C27.4525 32.3005 28.5408 33.3983 29.8833 33.3983Z" fill="#FFB6B6"/>
<path d="M25.8177 37.3621L26.0852 40.2761L27.904 47.669L26.3326 48.2246L23.6779 40.1682L23.3112 36.9304L25.8177 37.3621Z" fill="#FFB6B6"/>
<path d="M25.0942 42.5302L24.9758 48.1016C24.9644 48.6409 24.5277 49.0721 23.9929 49.0721H13.8332C13.3111 49.0721 12.88 48.6604 12.8515 48.1345L12.5496 42.5631C12.5188 41.995 12.9672 41.5172 13.5313 41.5172H24.1113C24.6625 41.5172 25.106 41.9743 25.0942 42.5302Z" fill="#3F3D56"/>
<path d="M28.1936 49.1097C29.2538 49.1097 30.1133 48.7262 30.1133 48.2532C30.1133 47.7801 29.2538 47.3967 28.1936 47.3967C27.1334 47.3967 26.2739 47.7801 26.2739 48.2532C26.2739 48.7262 27.1334 49.1097 28.1936 49.1097Z" fill="#FFB6B6"/>
<path d="M22.0463 37.8076L23.143 31.9118C23.143 31.9118 26.1922 31.4801 26.2991 32.5054C26.4061 33.5307 26.2227 38.5415 26.2227 38.5415L22.0463 37.8076Z" fill="#00BFA6"/>
<path d="M28.902 31.3318C28.902 31.3318 30.4057 30.7904 31.04 30.4991C31.6742 30.2079 32.9343 32.2395 32.9624 31.1665C32.9904 30.0936 32.555 29.6436 32.555 29.6436C32.555 29.6436 32.4462 27.2963 30.102 27.5898C30.102 27.5898 30.6176 26.4154 28.925 26.2338C27.2324 26.0523 24.5991 30.1754 24.8349 30.7916C25.0708 31.4078 25.3535 31.9172 24.6844 32.5761C24.0153 33.2349 22.7625 36.9533 23.7157 37.9538C24.6689 38.9544 24.7315 39.3886 24.0784 40.0111C23.4253 40.6336 21.8815 41.9871 23.5507 42.2221C25.2198 42.457 23.398 42.2815 24.6423 41.1774C25.8867 40.0732 27.7026 40.1183 27.0246 38.3468C26.3466 36.5752 27.5245 34.0366 27.3771 33.6515C27.2297 33.2664 27.7073 30.8209 27.7073 30.8209C27.7073 30.8209 28.8189 30.6561 28.902 31.3318Z" fill="#2F2E41"/>
<path d="M41.3132 34.2924C42.7746 34.2924 43.9593 33.0974 43.9593 31.6232C43.9593 30.149 42.7746 28.954 41.3132 28.954C39.8518 28.954 38.6672 30.149 38.6672 31.6232C38.6672 33.0974 39.8518 34.2924 41.3132 34.2924Z" fill="#A0616A"/>
<path d="M41.5244 28.0346C41.4478 28.0797 41.3453 28.0115 41.3207 27.9256C41.2962 27.8396 41.3248 27.7484 41.3531 27.6636L41.4959 27.2371C41.5971 26.9346 41.7046 26.6215 41.9239 26.3912C42.2549 26.0436 42.7809 25.9552 43.2544 26.0193C43.8625 26.1015 44.4625 26.4337 44.7452 26.983C45.028 27.5322 44.9076 28.2987 44.3967 28.6413C45.1248 29.4832 45.3787 30.4215 45.3386 31.538C45.2985 32.6546 44.0923 33.6821 43.3057 34.4687C43.1301 34.3613 42.9704 33.8579 43.067 33.675C43.1636 33.4921 43.0252 33.2803 43.1448 33.1118C43.2644 32.9434 43.3645 33.2116 43.2436 33.0441C43.1672 32.9384 43.4651 32.6953 43.3517 32.632C42.803 32.3261 42.6205 31.6361 42.2759 31.1078C41.8602 30.4705 41.1487 30.039 40.3959 29.9674C39.9811 29.9279 39.5431 29.9994 39.2031 30.2422C38.8632 30.4851 38.6431 30.9192 38.7219 31.3318C38.5178 31.1227 38.4161 30.8162 38.4545 30.5253C38.4928 30.2344 38.6702 29.9653 38.9215 29.8173C38.7687 29.3077 38.8996 28.7216 39.2541 28.3273C39.6086 27.933 41.0468 28.0001 41.5644 28.1039L41.5244 28.0346Z" fill="#2F2E41"/>
<path d="M41.6048 29.9828C42.2903 30.0575 42.7853 30.6565 43.2033 31.2097C43.4442 31.5286 43.6965 31.8807 43.6905 32.2816C43.6843 32.6868 43.4157 33.0345 43.2874 33.4185C43.0775 34.0463 43.282 34.7933 43.7815 35.2234C43.288 35.3179 42.7544 34.9446 42.6692 34.4451C42.57 33.8637 43.0069 33.3026 42.9552 32.715C42.9096 32.1973 42.5051 31.7988 42.1613 31.4117C41.8175 31.0246 41.4946 30.511 41.6528 30.0163L41.6048 29.9828Z" fill="#2F2E41"/>
<path d="M51.8535 47.6722C51.1744 48.0618 50.8233 48.7311 51.0692 49.1669C51.315 49.6028 52.0647 49.6402 52.7439 49.2504C53.0174 49.0984 53.2507 48.8826 53.4246 48.621L56.281 46.9336L55.4674 45.5983L52.7379 47.4036C52.426 47.4206 52.1228 47.5127 51.8535 47.6722Z" fill="#FFB6B6"/>
<path d="M61.5248 35.2982C61.4394 35.2641 60.6904 34.978 60.0067 35.3558C59.2212 35.7897 59.0999 36.7803 59.0573 37.1277C58.959 37.9304 59.2486 38.1102 59.3097 38.9228C59.4241 40.4429 59.7257 38.7087 59.2441 39.4026C59.0774 39.6428 57.3748 43.3649 56.4358 44.0939C54.6097 45.5118 53.45 46.5104 53.45 46.5104L54.7739 47.9611C54.7739 47.9611 56.8659 47.3988 58.7149 46.1877C60.6115 44.9453 61.5599 44.3242 62.2936 43.109C62.3568 43.0044 63.8685 40.4146 63.0566 37.5509C62.8714 36.8977 62.5321 35.7009 61.5248 35.2982Z" fill="#00BFA6"/>
<path d="M68.3609 42.5302L68.2425 48.1016C68.2311 48.6409 67.7944 49.0721 67.2596 49.0721H57.0999C56.5778 49.0721 56.1467 48.6604 56.1182 48.1345L55.8163 42.5631C55.7855 41.995 56.2339 41.5172 56.798 41.5172H67.378C67.9292 41.5172 68.3727 41.9743 68.3609 42.5302Z" fill="#3F3D56"/>
</g>
<defs>
<clipPath id="clip0_160_1064">
<rect width="64" height="33" fill="white" transform="translate(8 26)"/>
</clipPath>
</defs>
</svg>
