<svg width="80" height="80" viewBox="0 0 80 80" fill="none" xmlns="http://www.w3.org/2000/svg">
<circle cx="40" cy="40" r="40" fill="white"/>
<g clip-path="url(#clip0_160_1149)">
<path d="M38.9939 26.4177C39.5729 25.8315 40.3461 25.6536 40.721 26.0202C41.0958 26.3869 40.9304 27.1591 40.3512 27.7455C40.123 27.9828 39.8411 28.1624 39.5289 28.2691L37.0445 30.722L35.9125 29.5374L38.4818 27.2451C38.5837 26.9326 38.7593 26.6489 38.9939 26.4177Z" fill="#FFB6B6"/>
<path d="M31.0485 24.393L33.6533 30.1427L37.8129 27.9025L39.3015 28.6886C39.3015 28.6886 35.9012 34.3449 33.573 33.701C31.2448 33.0571 27.1105 27.2187 27.8554 25.4168C28.6003 23.6149 31.0485 24.393 31.0485 24.393Z" fill="#E6E6E6"/>
<path d="M43.1233 27.6386C42.5186 27.0788 42.3188 26.3145 42.6769 25.9317C43.035 25.5488 43.8154 25.6924 44.4203 26.2525C44.665 26.4729 44.853 26.7484 44.9688 27.056L47.5008 29.4602L46.3416 30.6184L43.9685 28.1254C43.6517 28.0326 43.3619 27.8657 43.1233 27.6386Z" fill="#A0616A"/>
<path d="M55.8777 28.0092L50.9904 33.1864C50.9904 33.1864 49.8928 34.2669 48.0872 32.7087C46.2815 31.1505 44.2739 28.5941 44.2739 28.5941L45.4002 27.3745L47.3951 29.1454C47.3951 29.1454 48.5795 29.6196 48.6619 29.9264C48.7442 30.2332 48.514 30.3601 48.884 30.2618C49.2541 30.1635 49.2613 29.9442 49.2845 30.2768C49.3077 30.6095 49.0817 30.9982 49.5092 30.6217C49.9367 30.2451 50.0642 30.4742 50.0642 30.4742L53.1879 26.3572C53.1879 26.3572 55.2063 24.769 55.7866 26.1926C56.3669 27.6162 55.8777 28.0092 55.8777 28.0092Z" fill="#00BFA6"/>
<path d="M29.9063 62.7128L31.8057 62.7126L32.7092 55.4231L29.9059 55.4233L29.9063 62.7128Z" fill="#FFB6B6"/>
<path d="M36.4137 62.6699C36.4729 62.769 36.5041 63.0889 36.5041 63.2041C36.5041 63.5584 36.2155 63.8456 35.8594 63.8456H29.9774C29.7345 63.8456 29.5376 63.6496 29.5376 63.408V63.1643C29.5376 63.1643 29.2466 62.432 29.8457 61.5293C29.8457 61.5293 30.5903 62.2361 31.7028 61.1291L32.0309 60.5377L34.4058 62.2659L35.7222 62.4271C36.0102 62.4624 36.2656 62.4217 36.4137 62.6699Z" fill="#2F2E41"/>
<path d="M51.7971 29.0738H56.5041V22.1535H51.7971V29.0738Z" fill="#2F2E41"/>
<path d="M55.4475 26.9637L55.2827 24.9817H53.0909L52.605 27.0816L55.4475 26.9637Z" fill="#A0616A"/>
<path opacity="0.1" d="M55.4475 26.9637L55.2827 24.9817H53.0909L52.605 27.0816L55.4475 26.9637Z" fill="black"/>
<path d="M31.3436 24.762L31.382 22.213L29.8022 21.2332L28.0844 23.3239L31.3436 24.762Z" fill="#FFB6B6"/>
<path opacity="0.1" d="M31.3436 24.762L31.4458 22.2765L29.8022 21.2332L30.3606 24.309L31.3436 24.762Z" fill="black"/>
<path d="M53.8416 25.6123C55.1648 25.6123 56.2375 24.545 56.2375 23.2285C56.2375 21.9119 55.1648 20.8447 53.8416 20.8447C52.5185 20.8447 51.4458 21.9119 51.4458 23.2285C51.4458 24.545 52.5185 25.6123 53.8416 25.6123Z" fill="#A0616A"/>
<path d="M53.2373 20.7206C53.2373 20.7206 53.2373 19.7419 54.1506 19.9516C55.0639 20.1613 55.3449 20.5108 55.3449 20.5108C55.3449 20.5108 55.6962 21.0701 56.2582 21.14C56.8202 21.2099 57.312 22.8176 57.2417 23.1671C57.1715 23.5166 56.8202 24.4254 57.312 24.8448C57.8038 25.2642 58.5063 25.8933 58.2956 26.5224C58.0848 27.1515 57.4525 28.7593 57.4525 28.7593C57.4525 28.7593 59.216 29.0158 59.0719 30.1108C59.0719 30.1108 58.2253 29.4583 57.1012 29.4583C55.9772 29.4583 56.1177 27.4292 56.1177 27.4292C56.1177 27.4292 56.0474 26.1729 55.8367 25.8234C55.6259 25.4739 55.9069 23.5166 54.8531 22.4681C53.7993 21.4196 53.2373 20.7206 53.2373 20.7206Z" fill="#2F2E41"/>
<path d="M53.5183 20.5108C53.5183 20.5108 52.1835 20.7905 51.6917 22.1186C51.1999 23.4467 51.4483 23.6939 51.4483 23.6939C51.4483 23.6939 51.3396 24.4936 50.7429 24.774C50.1461 25.0545 50.6379 26.2428 50.6379 26.2428C50.6379 26.2428 50.4974 27.4311 48.6006 27.8506C46.7037 28.27 50.9792 31.4862 50.9792 31.4862C50.9792 31.4862 50.6718 29.9683 52.6389 29.8984C54.606 29.8284 52.2537 26.2428 52.2537 26.2428L52.043 23.936C52.043 23.936 52.4645 21.2798 53.7291 20.9303C54.9936 20.5807 53.5183 20.5108 53.5183 20.5108Z" fill="#2F2E41"/>
<path d="M31.3485 23.0062C32.9002 23.0062 34.158 21.7546 34.158 20.2107C34.158 18.6668 32.9002 17.4152 31.3485 17.4152C29.7968 17.4152 28.5389 18.6668 28.5389 20.2107C28.5389 21.7546 29.7968 23.0062 31.3485 23.0062Z" fill="#FFB6B6"/>
<path d="M35.1801 41.6169L32.5629 59.3377H29.2793L29.7159 49.2222L29.9457 43.9035L29.2793 41.3718C29.2793 41.3718 28.9754 40.809 28.7194 40.1268C28.4309 39.357 28.203 38.4342 28.5413 37.9965C28.6658 37.8352 28.9895 37.7158 29.4293 37.6269C29.698 37.5723 30.0108 37.5297 30.3485 37.4967C32.2903 37.3055 35.0525 37.4249 35.0525 37.4249L35.1227 39.7305L35.1616 41.018L35.1801 41.6169Z" fill="#2F2E41"/>
<path d="M19.0921 59.8894L20.7653 60.7837L25.0286 54.7878L22.5591 53.4679L19.0921 59.8894Z" fill="#FFB6B6"/>
<path d="M24.8449 62.9161C24.8499 63.0312 24.7252 63.3277 24.6704 63.4292C24.5019 63.7413 24.1111 63.8583 23.7974 63.6907L18.6159 60.9207C18.4019 60.8064 18.3216 60.5411 18.4366 60.3282L18.5525 60.1135C18.5525 60.1135 18.6445 59.3314 19.6016 58.8183C19.6016 58.8183 19.9213 59.7916 21.428 59.3403L21.9983 58.9739L23.2683 61.6147L24.3513 62.3766C24.5882 62.5433 24.8325 62.6276 24.8449 62.9161Z" fill="#2F2E41"/>
<path d="M35.1616 41.018L33.7726 43.7891L29.7159 49.2222L23.0375 58.1671L20.1451 56.6211L28.0734 43.3388L28.6913 40.7944C28.6913 40.7944 28.6913 40.5194 28.7194 40.1269C28.7743 39.3501 28.939 38.1122 29.4293 37.6269C29.4957 37.5608 29.5678 37.5088 29.6463 37.4738C29.7938 37.4078 30.0389 37.4236 30.3485 37.4967C31.6418 37.8041 34.0554 39.1246 35.1227 39.7305L35.1616 41.018Z" fill="#2F2E41"/>
<path d="M55.2691 62.9351L53.636 62.9349L52.8591 56.6674L55.2694 56.6675L55.2691 62.9351Z" fill="#A0616A"/>
<path d="M49.6739 62.8982C49.6231 62.9835 49.5962 63.2585 49.5962 63.3576C49.5962 63.6621 49.8444 63.9091 50.1505 63.9091H55.208C55.4168 63.9091 55.5861 63.7406 55.5861 63.5328V63.3233C55.5861 63.3233 55.8363 62.6937 55.3212 61.9175C55.3212 61.9175 54.681 62.5253 53.7244 61.5734L53.4423 61.0649L51.4003 62.5509L50.2685 62.6895C50.0209 62.7198 49.8013 62.6848 49.6739 62.8982Z" fill="#2F2E41"/>
<path d="M61.7024 61.0202L60.1928 61.6399L57.0719 56.1411L59.3 55.2264L61.7024 61.0202Z" fill="#A0616A"/>
<path d="M56.5162 63.1097C56.5019 63.2078 56.5825 63.4722 56.6205 63.5638C56.7373 63.8453 57.0613 63.9794 57.3443 63.8632L62.0194 61.9437C62.2124 61.8645 62.3043 61.6445 62.2247 61.4524L62.1443 61.2588C62.1443 61.2588 62.1342 60.5817 61.3605 60.0598C61.3605 60.0598 61.0017 60.8645 59.7526 60.3478L59.2968 59.9848L57.9789 62.1334L56.9858 62.6911C56.7685 62.8131 56.5521 62.8641 56.5162 63.1097Z" fill="#2F2E41"/>
<path d="M56.0184 41.4353L55.3519 43.967L55.5294 48.0752L55.8237 54.8986L55.832 55.0911L55.8652 55.8583L56.0184 59.4012H52.7347L51.2729 49.5036L50.1175 41.6804L50.2388 37.6968L50.2451 37.4884C50.2451 37.4884 56.1179 37.2344 56.7563 38.0601C57.3946 38.8858 56.0184 41.4353 56.0184 41.4353Z" fill="#2F2E41"/>
<path d="M60.587 56.8542L60.0304 57.1407L57.9717 58.2008L57.6704 58.3557L55.8652 55.8583L51.2729 49.5036L50.1175 41.6804L50.2388 37.6968C50.7584 37.5323 51.1739 37.4649 51.3846 37.5627C52.3332 38.0042 52.2879 40.8979 52.2879 40.8979L52.8656 43.4512L55.5294 48.0752L60.587 56.8542Z" fill="#2F2E41"/>
<path d="M48.7141 57.6355C48.6719 57.5068 48.3516 57.5635 48.3209 57.4484C48.2902 57.3337 48.5976 57.2376 48.8332 56.9145C48.8758 56.8562 49.1436 56.489 49.0409 56.3346C48.8462 56.0418 47.4914 56.7709 47.1662 56.3618C47.0948 56.272 47.0655 56.1178 46.8529 55.8309C46.7683 55.7168 46.714 55.6617 46.6492 55.6633C46.5572 55.6657 46.5243 55.7802 46.3797 55.9876C46.1629 56.2987 46.0846 56.2596 45.9418 56.5145C45.8357 56.7037 45.8232 56.8246 45.7467 56.8317C45.6385 56.8418 45.5938 56.6062 45.4615 56.5971C45.3266 56.5878 45.1916 56.8206 45.1247 57.0024C44.9991 57.3437 45.0768 57.6046 45.0941 57.8645C45.1128 58.147 45.0688 58.5606 44.7603 59.0914L41.8504 63.7044C42.4754 62.764 44.2493 60.1996 44.964 59.259C45.1703 58.9875 45.392 58.7148 45.7333 58.6635C46.0619 58.6141 46.4616 58.7759 47.0196 58.7664C47.0848 58.7653 47.2662 58.76 47.3103 58.6643C47.3467 58.5853 47.2562 58.5165 47.2891 58.4422C47.3333 58.3425 47.5321 58.3853 47.803 58.319C47.9941 58.2724 48.1239 58.1952 48.2355 58.1289C48.2691 58.1089 48.7704 57.8067 48.7141 57.6355Z" fill="#F2F2F2"/>
<path d="M41.0926 58.7125C41.017 58.696 40.9525 58.8688 40.8869 58.8506C40.8215 58.8324 40.8627 58.6546 40.7713 58.4463C40.7548 58.4087 40.651 58.172 40.5452 58.1776C40.3446 58.1882 40.3133 59.0602 40.0177 59.1009C39.9528 59.1099 39.8683 59.0797 39.6654 59.1008C39.5847 59.1092 39.5419 59.1198 39.524 59.1519C39.4986 59.1975 39.5456 59.2466 39.6062 59.3771C39.6971 59.5727 39.6552 59.5997 39.7397 59.743C39.8025 59.8493 39.8585 59.8904 39.8399 59.9298C39.8137 59.9855 39.6846 59.9394 39.6419 60.0013C39.5984 60.0645 39.6743 60.1976 39.7447 60.2828C39.8768 60.4426 40.0279 60.4799 40.1611 60.5464C40.3058 60.6188 40.4971 60.7596 40.67 61.0634L42.1058 63.8155C41.8223 63.2389 41.0692 61.6328 40.8114 61.0123C40.737 60.8332 40.6665 60.6463 40.7396 60.4648C40.8101 60.2901 41.0052 60.1415 41.1616 59.8663C41.1798 59.8342 41.2295 59.7441 41.1951 59.6949C41.1666 59.6543 41.1065 59.6787 41.0794 59.6412C41.0429 59.5908 41.1214 59.5061 41.1669 59.3547C41.199 59.2479 41.1984 59.1623 41.1979 59.0886C41.1977 59.0664 41.1933 58.7344 41.0926 58.7125Z" fill="#F2F2F2"/>
<path d="M42.5251 59.384L42.5702 58.9694L42.5979 58.9433C42.726 58.8229 42.8061 58.6953 42.8362 58.564C42.8409 58.5431 42.8446 58.522 42.8484 58.5005C42.8634 58.4152 42.882 58.3093 42.9644 58.1992C43.0105 58.1379 43.1324 57.9992 43.2582 58.0477C43.2922 58.0603 43.3151 58.0822 43.331 58.1054C43.335 58.1014 43.3391 58.0974 43.3435 58.093C43.3978 58.0405 43.4358 58.0213 43.4724 58.0027C43.5005 57.9885 43.5296 57.9738 43.5787 57.9347C43.6003 57.9175 43.6176 57.9021 43.6321 57.8891C43.6762 57.8499 43.7327 57.804 43.81 57.8222C43.892 57.8445 43.9201 57.9223 43.9387 57.9738C43.972 58.0656 43.9823 58.1288 43.9891 58.1707C43.9915 58.186 43.9943 58.2032 43.9965 58.2088C44.0144 58.2538 44.2396 58.2655 44.3244 58.2703C44.5148 58.2806 44.6796 58.2895 44.7193 58.4193C44.7477 58.5121 44.6884 58.6134 44.538 58.7282C44.4912 58.764 44.4443 58.7886 44.4035 58.807C44.4286 58.8307 44.4486 58.8628 44.4498 58.9065C44.4526 59.01 44.3459 59.0895 44.1326 59.1431C44.0797 59.1565 44.0084 59.1743 43.9151 59.1698C43.8712 59.1677 43.8327 59.161 43.7999 59.1547C43.795 59.1733 43.786 59.1926 43.7699 59.211C43.7224 59.265 43.6458 59.2788 43.5417 59.2483C43.4269 59.2165 43.3361 59.1732 43.2561 59.1351C43.1861 59.1019 43.1258 59.0736 43.0752 59.0658C42.9811 59.0528 42.8933 59.1106 42.7883 59.1875L42.5251 59.384Z" fill="#F2F2F2"/>
<path d="M43.2762 57.0224L42.8617 57.0842L42.8294 57.0641C42.6798 56.9714 42.5354 56.9267 42.4002 56.9311C42.3787 56.9317 42.3572 56.9335 42.3353 56.9353C42.2486 56.9425 42.1409 56.9515 42.013 56.9002C41.9417 56.8713 41.776 56.7891 41.7912 56.6558C41.7949 56.6199 41.8103 56.5923 41.8289 56.5711C41.8239 56.5683 41.819 56.5654 41.8137 56.5623C41.7488 56.5233 41.7205 56.4916 41.6932 56.4611C41.6722 56.4376 41.6505 56.4134 41.6 56.376C41.5779 56.3596 41.5585 56.3469 41.5422 56.3362C41.4929 56.3036 41.4339 56.261 41.432 56.1819C41.4329 56.0974 41.5014 56.0506 41.5467 56.0196C41.6276 55.9642 41.6864 55.9384 41.7254 55.9212C41.7397 55.915 41.7557 55.9079 41.7606 55.9044C41.7998 55.8757 41.754 55.656 41.7372 55.5732C41.6989 55.3873 41.6657 55.2264 41.7818 55.1553C41.8649 55.1044 41.9783 55.1358 42.1282 55.2514C42.1748 55.2875 42.2106 55.3263 42.2389 55.3609C42.2555 55.3307 42.2816 55.3034 42.3239 55.2911C42.4238 55.2622 42.5281 55.3447 42.6343 55.5364C42.6608 55.584 42.6962 55.648 42.7155 55.7389C42.7245 55.7818 42.7278 55.8205 42.73 55.8537C42.7493 55.8536 42.7704 55.8574 42.7923 55.8683C42.8569 55.9002 42.8897 55.9705 42.8865 56.0784C42.8847 56.197 42.8656 56.2953 42.8489 56.3821C42.8344 56.4578 42.8221 56.523 42.8274 56.5737C42.8386 56.6676 42.9171 56.7374 43.0185 56.819L43.2762 57.0224Z" fill="#F2F2F2"/>
<path d="M43.3321 55.7839L43.3772 55.3693L43.4049 55.3432C43.533 55.2228 43.6131 55.0952 43.6432 54.9639C43.6479 54.943 43.6516 54.9219 43.6554 54.9004C43.6704 54.8151 43.689 54.7092 43.7714 54.5991C43.8175 54.5378 43.9394 54.3992 44.0652 54.4476C44.0992 54.4602 44.1221 54.4821 44.138 54.5053C44.142 54.5013 44.1461 54.4973 44.1505 54.4929C44.2048 54.4404 44.2428 54.4212 44.2794 54.4026C44.3075 54.3884 44.3366 54.3737 44.3857 54.3346C44.4073 54.3174 44.4246 54.302 44.4391 54.289C44.4832 54.2498 44.5397 54.2039 44.617 54.2221C44.699 54.2444 44.7271 54.3222 44.7457 54.3737C44.779 54.4655 44.7893 54.5287 44.7961 54.5706C44.7985 54.5859 44.8013 54.6031 44.8035 54.6087C44.8214 54.6537 45.0466 54.6654 45.1314 54.6702C45.3218 54.6805 45.4866 54.6894 45.5263 54.8192C45.5547 54.912 45.4954 55.0133 45.345 55.1281C45.2982 55.1639 45.2513 55.1885 45.2105 55.2069C45.2356 55.2306 45.2556 55.2627 45.2568 55.3064C45.2596 55.4099 45.1529 55.4894 44.9396 55.543C44.8866 55.5564 44.8154 55.5742 44.7221 55.5697C44.6782 55.5676 44.6397 55.5609 44.6069 55.5546C44.602 55.5732 44.593 55.5925 44.5769 55.6109C44.5294 55.665 44.4528 55.6787 44.3487 55.6482C44.2339 55.6164 44.1431 55.5731 44.0631 55.535C43.9931 55.5018 43.9328 55.4735 43.8822 55.4658C43.7881 55.4527 43.7003 55.5105 43.5953 55.5874L43.3321 55.7839Z" fill="#F2F2F2"/>
<path d="M41.988 63.728L41.9147 63.6559L41.8128 63.6452C41.8133 63.6357 41.8127 63.6134 41.8119 63.5786C41.808 63.3879 41.7958 62.8074 41.8771 61.9155C41.9338 61.2929 42.0286 60.6609 42.1588 60.0367C42.2893 59.4116 42.4246 58.9465 42.5334 58.5726C42.6154 58.2907 42.6982 58.0233 42.7791 57.7628C42.9949 57.0668 43.1986 56.4093 43.3248 55.6594C43.353 55.492 43.4117 55.1436 43.2916 54.7323C43.222 54.4938 43.1027 54.2692 42.937 54.0652L43.0974 53.9363C43.2802 54.1618 43.4121 54.4105 43.4894 54.6753C43.6225 55.1313 43.5586 55.511 43.5279 55.6935C43.3995 56.4566 43.1938 57.1204 42.9759 57.823C42.8954 58.0826 42.8129 58.3489 42.7312 58.6297C42.6234 59 42.4893 59.4611 42.3605 60.0782C42.2318 60.6949 42.1382 61.3191 42.0821 61.9339C42.0019 62.8146 42.014 63.3864 42.0179 63.5743C42.02 63.6746 42.0204 63.6956 41.988 63.728Z" fill="#F2F2F2"/>
<path d="M42.4971 54.3011C42.4889 54.2993 42.4806 54.2972 42.4723 54.2948C42.3031 54.2476 42.1675 54.1105 42.069 53.8873C42.0228 53.7823 42.0119 53.6718 41.9902 53.4515C41.9868 53.4176 41.9718 53.2457 41.9903 53.0179C42.0023 52.869 42.0184 52.8093 42.0591 52.7623C42.1043 52.71 42.1652 52.6801 42.2296 52.665C42.2313 52.6453 42.2378 52.6261 42.2507 52.6078C42.3036 52.532 42.3922 52.5631 42.4403 52.5794C42.4646 52.588 42.4948 52.599 42.5287 52.6047C42.5821 52.6139 42.614 52.6046 42.6622 52.5907C42.7084 52.5773 42.7658 52.5607 42.8451 52.5622C43.0016 52.5643 43.1175 52.6343 43.1557 52.6573C43.357 52.7777 43.4265 52.9696 43.5069 53.1919C43.5228 53.2364 43.5759 53.3975 43.5882 53.6048C43.5971 53.7544 43.5774 53.8157 43.5548 53.8594C43.5087 53.9495 43.438 53.9912 43.2627 54.079C43.0795 54.171 42.9875 54.217 42.9122 54.2407C42.7368 54.2955 42.6267 54.3299 42.4971 54.3011Z" fill="#F2F2F2"/>
<path d="M66 63.9255C66 63.9666 65.9665 64 65.9251 64H14V63.8509H65.9251C65.9665 63.8509 66 63.8843 66 63.9255Z" fill="#E6E6E6"/>
<path d="M28.4456 22.7846L31.6373 24.309C31.6373 24.309 35.0206 34.2809 35.0206 34.789C35.0206 35.2971 35.9781 35.6147 35.4036 36.1864C34.8291 36.758 36.4729 37.2421 35.5871 37.6987C34.7014 38.1553 29.1759 40.6529 28.5615 40.4277C26.8669 39.8065 28.6333 37.5239 28.6333 37.5239C28.6333 37.5239 27.3604 36.5039 27.5519 35.9958C27.7434 35.4877 26.4029 25.7699 26.4029 25.7699L28.4456 22.7846Z" fill="#E6E6E6"/>
<path d="M31.1769 20.8803L31.5383 21.5994C31.5383 21.5994 31.8996 20.305 32.4778 20.0173C33.056 19.7297 33.1283 19.2982 33.1283 19.2982C33.1283 19.2982 33.851 20.2331 34.3569 20.0173C34.8629 19.8016 35.0797 19.6578 34.5015 18.7948C33.9233 17.9319 34.0678 18.3634 34.0678 18.3634C34.0678 18.3634 33.5619 17.6442 33.6342 17.86C33.7065 18.0757 33.2006 17.2847 33.2006 17.5004C33.2006 17.7162 32.8392 17.069 32.8392 17.2847C32.8392 17.5004 31.3215 16.7813 31.5383 17.069C31.7551 17.3566 30.2374 16.4937 29.5146 17.6442C28.7919 18.7948 27.7897 18.5821 28.1463 19.2997C28.5028 20.0173 28.3582 21.9589 28.3582 21.9589H29.355C29.355 21.9589 30.3819 20.0173 31.1769 20.8803Z" fill="#2F2E41"/>
<path d="M52.4474 26.9767L52.5059 26.9602L55.3838 26.151L57.6819 29.2632L56.1499 35.7418L56.7244 38.3459C56.7244 38.3459 52.0644 37.1391 50.2132 38.1553C50.2132 38.1553 50.0856 37.5762 50.2132 37.2941C50.3409 37.0121 50.5324 35.8383 50.3409 35.3137C50.1494 34.789 50.7239 32.3119 50.7239 32.3119C50.7239 32.3119 50.5324 30.6605 51.3623 29.8348C52.1921 29.0091 52.4474 26.9767 52.4474 26.9767Z" fill="#00BFA6"/>
<path d="M49.8337 38.675L39.7209 33.6744C39.6706 33.6495 39.6266 33.6153 39.5902 33.5726L38.0123 31.7222C37.9077 31.5995 37.885 31.4264 37.9546 31.2811L40.9134 25.1046C40.9652 24.9963 41.0617 24.9164 41.1781 24.8853C41.2946 24.8542 41.4183 24.8753 41.5177 24.9431L48.6496 29.8107C48.796 29.9106 48.8615 30.0918 48.8124 30.2616L47.3644 35.2753C47.3248 35.4124 47.3753 35.5621 47.49 35.6477L50.3545 37.7853C50.5087 37.9004 50.562 38.1103 50.4812 38.2845L50.3906 38.4799C50.3436 38.5812 50.2594 38.6574 50.1536 38.6945C50.1088 38.7103 50.0625 38.7181 50.0165 38.7181C49.9538 38.718 49.8916 38.7036 49.8337 38.675Z" fill="#00BFA6"/>
<path d="M49.753 37.4579L46.9379 35.1276C46.9136 35.1072 46.8945 35.0825 46.881 35.0552C46.8555 35.0037 46.8504 34.9421 46.8696 34.8856L48.4737 30.2153C48.5152 30.0946 48.4705 29.96 48.3646 29.8876L41.6811 25.3348C41.6128 25.2878 41.5272 25.2732 41.4468 25.2941C41.3657 25.3151 41.2987 25.3697 41.2617 25.444L38.444 31.1369C38.4012 31.2226 38.4044 31.3211 38.4517 31.403C38.4574 31.4145 38.4644 31.4253 38.4727 31.4354L39.8899 33.2964C39.9173 33.332 39.9531 33.3612 39.9933 33.3809L49.4447 37.9343C49.4842 37.9534 49.527 37.9629 49.5698 37.9629C49.6438 37.9629 49.7179 37.9343 49.7728 37.879C49.7791 37.8721 49.7855 37.8657 49.7919 37.8581C49.8366 37.8041 49.8596 37.7349 49.8564 37.6644C49.8526 37.5843 49.8149 37.5094 49.753 37.4579Z" fill="#F2F2F2"/>
<path d="M39.5528 30.7876C39.5761 30.7876 39.5986 30.7748 39.6098 30.7526L41.9008 26.2239C41.9167 26.1925 41.904 26.1543 41.8725 26.1386C41.841 26.1227 41.8027 26.1354 41.7868 26.1667L39.4958 30.6955C39.4799 30.7268 39.4926 30.765 39.5241 30.7808C39.5333 30.7854 39.5431 30.7876 39.5528 30.7876Z" fill="#00BFA6"/>
<path d="M40.7656 31.5498C40.789 31.5498 40.8115 31.537 40.8227 31.5148L43.1137 26.986C43.1296 26.9547 43.1169 26.9165 43.0854 26.9008C43.0538 26.8849 43.0155 26.8976 42.9997 26.9289L40.7087 31.4577C40.6928 31.489 40.7055 31.5272 40.737 31.543C40.7462 31.5476 40.756 31.5498 40.7656 31.5498Z" fill="#00BFA6"/>
<path d="M41.787 32.1849C41.8104 32.1849 41.8328 32.1721 41.8441 32.15L44.1351 27.6212C44.1509 27.5898 44.1382 27.5517 44.1068 27.5359C44.0752 27.5201 44.0369 27.5328 44.021 27.5641L41.73 32.0928C41.7142 32.1242 41.7269 32.1624 41.7583 32.1781C41.7676 32.1827 41.7773 32.1849 41.787 32.1849Z" fill="#00BFA6"/>
<path d="M38.1711 31.5714C38.9632 31.3386 39.7261 31.5565 39.8749 32.0581C40.0238 32.5597 39.5023 33.155 38.7099 33.3878C38.3946 33.4851 38.0605 33.5059 37.7355 33.4484L34.3667 34.3929L33.955 32.8105L37.3197 32.0474C37.5613 31.8234 37.8532 31.6602 38.1711 31.5714Z" fill="#FFB6B6"/>
<path d="M32.2126 25.9634L31.6846 32.2484L36.4141 32.299L37.332 33.7053C37.332 33.7053 31.5996 37.0079 29.8783 35.3204C28.157 33.6329 27.3911 26.5316 28.9215 25.3161C30.4519 24.1006 32.2126 25.9634 32.2126 25.9634Z" fill="#E6E6E6"/>
<path d="M47.7058 37.3113C46.8822 37.2496 46.2465 36.7767 46.2861 36.2552C46.3257 35.7336 47.0254 35.361 47.8493 35.4229C48.1787 35.4431 48.4986 35.5415 48.7819 35.7099L52.2684 36.0153L52.0895 37.6402L48.6715 37.1666C48.3658 37.2909 48.0347 37.3405 47.7058 37.3113Z" fill="#A0616A"/>
<path d="M57.902 29.6784L57.3324 36.7587C57.3324 36.7587 57.1529 38.2845 54.7647 38.1888C52.3764 38.0932 49.2042 37.3431 49.2042 37.3431L49.3188 35.6907L51.9883 35.835C51.9883 35.835 53.2111 35.4697 53.4679 35.6583C53.7248 35.8468 53.6245 36.089 53.8519 35.7823C54.0793 35.4757 53.9474 35.2998 54.1742 35.5453C54.401 35.7907 54.4683 36.2348 54.5661 35.6751C54.6638 35.1154 54.9071 35.2151 54.9071 35.2151L54.7643 30.0586C54.7643 30.0586 55.3447 27.5642 56.6912 28.3159C58.0377 29.0676 57.902 29.6784 57.902 29.6784Z" fill="#00BFA6"/>
</g>
<defs>
<clipPath id="clip0_160_1149">
<rect width="52" height="47" fill="white" transform="translate(14 17)"/>
</clipPath>
</defs>
</svg>
