<svg width="80" height="80" viewBox="0 0 80 80" fill="none" xmlns="http://www.w3.org/2000/svg">
<circle cx="40" cy="40" r="40" fill="white"/>
<g clip-path="url(#clip0_160_1709)">
<path d="M46.4287 62.3365L44.9151 64.9481H47.9422L46.4287 62.3365L44.9151 64.9481H47.9422L46.4287 62.3365Z" fill="#D5D5D5"/>
<path d="M42.5588 27.1218V34.2858C42.5585 34.48 42.4809 34.6663 42.343 34.8036C42.2051 34.941 42.0182 35.0183 41.8231 35.0187H36.3072L36.3579 34.954C39.2599 33.0239 41.3163 30.4488 42.4939 27.2039L42.5588 27.1218Z" fill="#D5D5D5"/>
<path d="M48.1483 19.9867H16.8883C16.3877 19.9873 15.9077 20.1857 15.5537 20.5384C15.1997 20.891 15.0006 21.3692 15 21.8679V40.5734C15.0006 41.0721 15.1997 41.5502 15.5537 41.9029C15.9077 42.2555 16.3877 42.4539 16.8883 42.4545H48.1483C48.649 42.4539 49.1289 42.2555 49.4829 41.9029C49.8369 41.5502 50.036 41.0721 50.0366 40.5734V21.8679C50.036 21.3692 49.8369 20.891 49.4829 20.5384C49.1289 20.1857 48.649 19.9873 48.1483 19.9867ZM49.8702 40.5734C49.8702 40.7986 49.8257 41.0217 49.7392 41.2299C49.6527 41.438 49.5259 41.6271 49.366 41.7864C49.2061 41.9457 49.0162 42.072 48.8073 42.1582C48.5984 42.2444 48.3745 42.2888 48.1483 42.2887H16.8883C16.6622 42.2888 16.4383 42.2444 16.2293 42.1582C16.0204 42.072 15.8306 41.9457 15.6707 41.7864C15.5108 41.6271 15.3839 41.438 15.2974 41.2299C15.2109 41.0217 15.1664 40.7986 15.1664 40.5734V33.0595C15.1664 32.6218 15.1878 32.1893 15.2305 31.762C15.5518 28.5789 17.049 25.6282 19.4313 23.4829C21.8136 21.3376 24.9111 20.1506 28.1225 20.1525H48.1483C48.605 20.1526 49.0429 20.3333 49.3658 20.655C49.6887 20.9767 49.8702 21.413 49.8702 21.8679V40.5734Z" fill="#989898"/>
<path d="M38.165 28.7094H21.9058C21.7726 28.7094 21.6449 28.7621 21.5507 28.8559C21.4565 28.9498 21.4036 29.077 21.4036 29.2097C21.4036 29.3424 21.4565 29.4697 21.5507 29.5635C21.6449 29.6574 21.7726 29.7101 21.9058 29.7101H38.165C38.2982 29.7101 38.4259 29.6574 38.5201 29.5635C38.6143 29.4697 38.6672 29.3424 38.6672 29.2097C38.6672 29.077 38.6143 28.9498 38.5201 28.8559C38.4259 28.7621 38.2982 28.7094 38.165 28.7094Z" fill="#989898"/>
<path d="M26.9466 25.903H21.9058C21.7725 25.903 21.6446 25.9557 21.5504 26.0496C21.4561 26.1436 21.4031 26.2709 21.4031 26.4037C21.4031 26.5365 21.4561 26.6639 21.5504 26.7578C21.6446 26.8517 21.7725 26.9045 21.9058 26.9045H26.9466C27.0799 26.9045 27.2078 26.8517 27.302 26.7578C27.3963 26.6639 27.4492 26.5365 27.4492 26.4037C27.4492 26.2709 27.3963 26.1436 27.302 26.0496C27.2078 25.9557 27.0799 25.903 26.9466 25.903Z" fill="#989898"/>
<path d="M21.9058 28.7094H24.3983C24.0837 29.0684 23.7421 29.4029 23.3764 29.7101H21.9058C21.7726 29.7101 21.6449 29.6574 21.5507 29.5635C21.4565 29.4697 21.4036 29.3424 21.4036 29.2097C21.4036 29.077 21.4565 28.9498 21.5507 28.8559C21.6449 28.7621 21.7726 28.7094 21.9058 28.7094Z" fill="#00BFA6"/>
<path d="M21.9058 25.903H26.1127C25.9784 26.2457 25.8236 26.5802 25.6491 26.9045H21.9058C21.7725 26.9045 21.6446 26.8517 21.5504 26.7578C21.4561 26.6639 21.4031 26.5365 21.4031 26.4037C21.4031 26.2709 21.4561 26.1436 21.5504 26.0496C21.6446 25.9557 21.7725 25.903 21.9058 25.903Z" fill="#00BFA6"/>
<path d="M26.5163 20.2512C23.6052 20.6143 20.9038 21.9505 18.8537 24.0414C16.8037 26.1323 15.5264 28.8541 15.2305 31.762C15.1531 31.7471 15.0766 31.7297 15 31.7114V21.8679C15.0006 21.3692 15.1997 20.891 15.5537 20.5384C15.9077 20.1857 16.3877 19.9873 16.8883 19.9867H26.4497C26.4739 20.0738 26.4955 20.1625 26.5163 20.2512Z" fill="#00BFA6"/>
<path d="M26.4222 21.7111C27.2903 21.7111 27.9941 21.01 27.9941 20.1452C27.9941 19.2804 27.2903 18.5793 26.4222 18.5793C25.5541 18.5793 24.8504 19.2804 24.8504 20.1452C24.8504 21.01 25.5541 21.7111 26.4222 21.7111Z" fill="white"/>
<path d="M26.4222 21.794C26.0949 21.794 25.7749 21.6973 25.5027 21.5161C25.2305 21.335 25.0184 21.0774 24.8931 20.7762C24.7679 20.4749 24.7351 20.1434 24.799 19.8235C24.8628 19.5037 25.0204 19.2099 25.2519 18.9793C25.4834 18.7487 25.7783 18.5917 26.0993 18.5281C26.4204 18.4645 26.7532 18.4971 27.0556 18.6219C27.358 18.7467 27.6165 18.958 27.7983 19.2292C27.9802 19.5003 28.0773 19.8191 28.0773 20.1452C28.0768 20.5823 27.9022 21.0014 27.592 21.3105C27.2817 21.6196 26.861 21.7935 26.4222 21.794ZM26.4222 18.6622C26.1278 18.6622 25.84 18.7492 25.5952 18.9122C25.3504 19.0751 25.1596 19.3067 25.0469 19.5777C24.9342 19.8487 24.9048 20.1468 24.9622 20.4345C25.0196 20.7222 25.1614 20.9864 25.3696 21.1938C25.5778 21.4012 25.843 21.5425 26.1318 21.5997C26.4206 21.6569 26.7199 21.6275 26.9919 21.5153C27.2639 21.4031 27.4964 21.213 27.66 20.9691C27.8235 20.7252 27.9108 20.4385 27.9108 20.1452C27.9104 19.752 27.7534 19.3751 27.4743 19.0971C27.1953 18.819 26.8169 18.6627 26.4222 18.6622Z" fill="#3F3D56"/>
<path d="M26.2078 20.9602C26.1806 20.9602 26.1539 20.9539 26.1296 20.9418C26.1053 20.9297 26.0842 20.9121 26.0679 20.8905L25.6391 20.3209C25.6253 20.3026 25.6153 20.2818 25.6096 20.2596C25.6039 20.2374 25.6026 20.2144 25.6059 20.1917C25.6091 20.1691 25.6168 20.1473 25.6285 20.1276C25.6402 20.1079 25.6557 20.0907 25.6741 20.077C25.6924 20.0633 25.7133 20.0533 25.7356 20.0476C25.7578 20.042 25.781 20.0407 25.8037 20.0439C25.8264 20.0472 25.8483 20.0548 25.8681 20.0665C25.8878 20.0782 25.9051 20.0936 25.9188 20.1119L26.1994 20.4845L26.92 19.4078C26.9457 19.3694 26.9857 19.3428 27.0311 19.3338C27.0766 19.3247 27.1237 19.3341 27.1623 19.3597C27.2008 19.3853 27.2276 19.4251 27.2367 19.4703C27.2458 19.5156 27.2366 19.5626 27.2109 19.601L26.3533 20.8826C26.3378 20.9058 26.3169 20.9249 26.2924 20.9384C26.268 20.9519 26.2406 20.9593 26.2126 20.9601L26.2078 20.9602Z" fill="#00BFA6"/>
<path d="M38.8224 32.7377C39.6905 32.7377 40.3942 32.0366 40.3942 31.1718C40.3942 30.307 39.6905 29.6059 38.8224 29.6059C37.9543 29.6059 37.2505 30.307 37.2505 31.1718C37.2505 32.0366 37.9543 32.7377 38.8224 32.7377Z" fill="white"/>
<path d="M38.8224 32.8206C38.495 32.8206 38.175 32.7239 37.9029 32.5428C37.6307 32.3616 37.4186 32.1041 37.2933 31.8028C37.168 31.5015 37.1352 31.17 37.1991 30.8502C37.263 30.5303 37.4206 30.2366 37.6521 30.006C37.8835 29.7754 38.1784 29.6183 38.4995 29.5547C38.8205 29.4911 39.1533 29.5238 39.4557 29.6486C39.7581 29.7733 40.0166 29.9847 40.1985 30.2558C40.3804 30.527 40.4774 30.8457 40.4774 31.1718C40.4769 31.609 40.3024 32.0281 39.9921 32.3372C39.6818 32.6463 39.2612 32.8201 38.8224 32.8206ZM38.8224 29.6889C38.5279 29.6889 38.2401 29.7758 37.9953 29.9388C37.7505 30.1017 37.5597 30.3333 37.4471 30.6043C37.3344 30.8753 37.3049 31.1735 37.3623 31.4612C37.4198 31.7488 37.5616 32.0131 37.7698 32.2205C37.9779 32.4279 38.2432 32.5691 38.5319 32.6263C38.8207 32.6835 39.12 32.6542 39.392 32.5419C39.664 32.4297 39.8965 32.2396 40.0601 31.9957C40.2237 31.7519 40.311 31.4651 40.311 31.1718C40.3105 30.7787 40.1536 30.4017 39.8745 30.1237C39.5954 29.8457 39.217 29.6893 38.8224 29.6889Z" fill="#989898"/>
<path d="M38.6079 31.9868C38.5808 31.9868 38.554 31.9805 38.5297 31.9684C38.5055 31.9563 38.4843 31.9388 38.4681 31.9171L38.0392 31.3475C38.0255 31.3292 38.0154 31.3084 38.0097 31.2862C38.004 31.2641 38.0028 31.241 38.006 31.2184C38.0126 31.1726 38.0371 31.1314 38.0742 31.1037C38.1113 31.0759 38.1579 31.064 38.2038 31.0706C38.2498 31.0771 38.2912 31.1015 38.319 31.1385L38.5995 31.5111L39.3201 30.4344C39.3459 30.396 39.3858 30.3694 39.4313 30.3604C39.4767 30.3514 39.5239 30.3607 39.5624 30.3863C39.601 30.4119 39.6278 30.4517 39.6369 30.4969C39.646 30.5422 39.6367 30.5892 39.6111 30.6276L38.7534 31.9092C38.7379 31.9324 38.717 31.9515 38.6926 31.965C38.6681 31.9785 38.6407 31.986 38.6128 31.9867L38.6079 31.9868Z" fill="#989898"/>
<path d="M34.5884 14.7742C33.8944 14.2689 33.0565 13.9977 32.1969 14C31.5464 14.0076 30.9076 14.174 30.3367 14.4846C29.7657 14.7952 29.2799 15.2406 28.9218 15.7816C28.8609 15.8744 28.9942 15.9872 29.0557 15.8935C29.492 15.2319 30.1228 14.7207 30.8619 14.4299C31.4563 14.2018 32.0987 14.126 32.7302 14.2094C33.3617 14.2929 33.962 14.533 34.4761 14.9076C34.5664 14.9738 34.6792 14.8408 34.5884 14.7742Z" fill="#989898"/>
<path d="M27.9405 15.1753L27.5507 16.6182C27.5483 16.6313 27.5491 16.6449 27.5528 16.6577C27.5566 16.6706 27.5632 16.6824 27.5722 16.6923C27.5813 16.7022 27.5925 16.7099 27.605 16.7148C27.6175 16.7197 27.6309 16.7217 27.6443 16.7206L29.2756 16.4603C29.386 16.4427 29.3715 16.2692 29.2603 16.2869L27.629 16.5472L27.7226 16.6496L28.1124 15.2067C28.1417 15.0984 27.9695 15.0678 27.9405 15.1753Z" fill="#989898"/>
<path d="M28.8288 34.4736C29.5228 34.9789 30.3607 35.2502 31.2203 35.2478C31.8708 35.2402 32.5096 35.0738 33.0805 34.7632C33.6515 34.4526 34.1373 34.0073 34.4954 33.4662C34.5563 33.3734 34.423 33.2606 34.3615 33.3543C33.9252 34.016 33.2943 34.5271 32.5553 34.8179C31.9609 35.046 31.3185 35.1219 30.687 35.0384C30.0555 34.9549 29.4552 34.7149 28.9411 34.3402C28.8508 34.274 28.738 34.407 28.8288 34.4736Z" fill="#989898"/>
<path d="M35.4767 34.0725L35.8665 32.6296C35.8689 32.6165 35.8681 32.6029 35.8644 32.5901C35.8607 32.5772 35.854 32.5654 35.845 32.5555C35.8359 32.5456 35.8247 32.5379 35.8122 32.533C35.7998 32.5281 35.7863 32.5262 35.7729 32.5272L34.1416 32.7875C34.0312 32.8051 34.0457 32.9786 34.1569 32.9609L35.7882 32.7007L35.6946 32.5982L35.3048 34.0411C35.2755 34.1494 35.4477 34.18 35.4767 34.0725Z" fill="#989898"/>
<path d="M49.3193 18.1807H43.0858C42.8854 18.1807 42.6932 18.1014 42.5515 17.9603C42.4098 17.8191 42.3302 17.6277 42.3302 17.4281C42.3302 17.2284 42.4098 17.037 42.5515 16.8958C42.6932 16.7547 42.8854 16.6754 43.0858 16.6754H49.3193C49.5197 16.6754 49.7119 16.7547 49.8535 16.8958C49.9952 17.037 50.0748 17.2284 50.0748 17.4281C50.0748 17.6277 49.9952 17.8191 49.8535 17.9603C49.7119 18.1014 49.5197 18.1807 49.3193 18.1807Z" fill="#D5D5D5"/>
<path d="M49.176 17.428L49.4735 17.1317C49.482 17.1233 49.4887 17.1134 49.4933 17.1025C49.4978 17.0915 49.5002 17.0798 49.5002 17.068C49.5003 17.0561 49.4979 17.0444 49.4934 17.0334C49.4889 17.0225 49.4822 17.0125 49.4738 17.0041C49.4654 16.9958 49.4554 16.9891 49.4444 16.9846C49.4334 16.9801 49.4216 16.9777 49.4097 16.9778C49.3978 16.9778 49.386 16.9802 49.3751 16.9847C49.3641 16.9893 49.3541 16.996 49.3458 17.0044L49.0483 17.3008L48.7508 17.0044C48.7424 16.996 48.7324 16.9893 48.7215 16.9847C48.7105 16.9802 48.6987 16.9778 48.6868 16.9778C48.6749 16.9777 48.6631 16.9801 48.6521 16.9846C48.6411 16.9891 48.6312 16.9958 48.6227 17.0041C48.6143 17.0125 48.6077 17.0225 48.6031 17.0334C48.5986 17.0444 48.5963 17.0561 48.5963 17.068C48.5963 17.0798 48.5987 17.0915 48.6033 17.1025C48.6079 17.1134 48.6146 17.1233 48.623 17.1317L48.9205 17.428L48.6251 17.7223C48.6167 17.7306 48.61 17.7406 48.6054 17.7515C48.6008 17.7624 48.5984 17.7742 48.5984 17.786C48.5984 17.7979 48.6007 17.8096 48.6052 17.8206C48.6098 17.8315 48.6164 17.8415 48.6249 17.8499C48.6333 17.8582 48.6433 17.8649 48.6543 17.8694C48.6653 17.8739 48.677 17.8762 48.6889 17.8762C48.7008 17.8762 48.7126 17.8738 48.7236 17.8692C48.7346 17.8647 48.7445 17.858 48.7529 17.8496L49.0483 17.5553L49.3436 17.8496C49.3606 17.8663 49.3835 17.8757 49.4074 17.8756C49.4313 17.8756 49.4542 17.8661 49.4711 17.8493C49.488 17.8325 49.4975 17.8096 49.4976 17.7858C49.4976 17.7621 49.4882 17.7392 49.4714 17.7223L49.176 17.428Z" fill="white"/>
<path d="M39.4175 40.9659C39.4065 40.9659 39.3955 40.9637 39.3853 40.9595C39.375 40.9552 39.3658 40.9489 39.358 40.941L38.8832 40.4574C38.868 40.4419 38.8594 40.4211 38.8594 40.3994C38.8594 40.3778 38.868 40.3569 38.8832 40.3415L39.358 39.8579C39.3657 39.85 39.3748 39.8437 39.3849 39.8393C39.3949 39.8349 39.4058 39.8326 39.4168 39.8324C39.4278 39.8322 39.4387 39.8342 39.4489 39.8383C39.4591 39.8423 39.4684 39.8484 39.4763 39.856C39.4842 39.8637 39.4904 39.8728 39.4947 39.8829C39.499 39.893 39.5013 39.9038 39.5013 39.9148C39.5014 39.9257 39.4993 39.9366 39.4951 39.9467C39.4909 39.9569 39.4848 39.9661 39.477 39.9738L39.0591 40.3994L39.477 40.8251C39.4885 40.8367 39.4962 40.8515 39.4993 40.8675C39.5024 40.8836 39.5006 40.9001 39.4942 40.9152C39.4879 40.9302 39.4772 40.9431 39.4636 40.9521C39.4499 40.9611 39.4339 40.9659 39.4175 40.9659Z" fill="#3F3D56"/>
<path d="M40.2155 40.9659C40.1991 40.9659 40.1831 40.9611 40.1695 40.9521C40.1558 40.943 40.1452 40.9302 40.1388 40.9152C40.1325 40.9001 40.1307 40.8835 40.1338 40.8675C40.1368 40.8515 40.1446 40.8367 40.156 40.825L40.5739 40.3994L40.156 39.9738C40.1408 39.9581 40.1325 39.937 40.1329 39.9151C40.1332 39.8933 40.1422 39.8724 40.1579 39.8572C40.1736 39.8419 40.1947 39.8334 40.2166 39.8335C40.2385 39.8337 40.2595 39.8424 40.275 39.8579L40.7498 40.3414C40.7651 40.3569 40.7736 40.3777 40.7736 40.3994C40.7736 40.4211 40.7651 40.4419 40.7498 40.4574L40.275 40.941C40.2673 40.9489 40.258 40.9552 40.2478 40.9595C40.2376 40.9637 40.2266 40.9659 40.2155 40.9659Z" fill="#3F3D56"/>
<path d="M41.8154 32.2461C41.8598 32.1246 41.9305 32.0143 42.0223 31.9229C42.1142 31.8315 42.2251 31.7613 42.3471 31.7172C42.4692 31.6731 42.5994 31.6563 42.7287 31.6678C42.858 31.6793 42.9832 31.7189 43.0955 31.7838L50.946 29.7343L51.0749 31.3455L43.3932 33.0523C43.2712 33.233 43.0869 33.3628 42.8753 33.4172C42.6636 33.4716 42.4393 33.4467 42.2448 33.3474C42.0503 33.248 41.8992 33.081 41.8201 32.878C41.7409 32.6751 41.7392 32.4502 41.8154 32.2461Z" fill="#A0616A"/>
<path d="M53.6512 29.4089C53.4644 29.1409 53.2034 28.9328 52.9 28.81C52.5966 28.6871 52.2639 28.6548 51.9424 28.7169L49.0556 29.2748C49.0556 29.2748 50.0494 32.589 51.3079 32.5158C51.8383 32.4849 52.5096 32.1745 53.1087 31.8257C53.3107 31.709 53.4863 31.5519 53.6243 31.3643C53.7624 31.1767 53.86 30.9626 53.9109 30.7356C53.9619 30.5086 53.9651 30.2735 53.9204 30.0452C53.8757 29.8168 53.784 29.6002 53.6512 29.4089Z" fill="#3F3D56"/>
<path d="M50.7598 63.2613L49.9949 63.2549L49.6562 60.2471L50.7852 60.2566L50.7598 63.2613Z" fill="#A0616A"/>
<path d="M51.1052 64.8029L50.9629 62.9102L50.7632 62.8969L49.9484 62.8414L49.6863 62.824L49.6813 63.3687L48.4596 64.1944C48.406 64.2307 48.3639 64.2813 48.3381 64.3404C48.3123 64.3996 48.3039 64.4648 48.3138 64.5286C48.3237 64.5923 48.3516 64.6519 48.3942 64.7005C48.4368 64.7491 48.4924 64.7846 48.5544 64.8029C48.5852 64.8123 48.6172 64.8171 48.6493 64.817L50.1698 64.8295L50.1831 64.8029L50.4361 64.2922L50.5285 64.8029L50.5335 64.8328L51.1077 64.8378L51.1052 64.8029Z" fill="#2F2E41"/>
<path d="M58.8133 62.7045L58.0821 62.9284L56.8479 60.1628L57.927 59.8324L58.8133 62.7045Z" fill="#A0616A"/>
<path d="M58.9007 62.3091L58.7059 62.3563L57.9128 62.5479H57.912L57.6573 62.6101L57.818 63.1315L56.9033 64.2856C56.8639 64.336 56.8395 64.3964 56.8327 64.4599C56.826 64.5234 56.8373 64.5875 56.8652 64.645C56.8932 64.7025 56.9368 64.751 56.9911 64.7851C57.0453 64.8191 57.108 64.8374 57.1722 64.8378C57.206 64.8377 57.2396 64.8327 57.272 64.8228L57.3369 64.8029L58.7259 64.3776L58.8166 63.7848L59.0738 64.2707L59.6222 64.1024L58.9007 62.3091Z" fill="#2F2E41"/>
<path d="M49.2212 37.9703L47.7614 42.1964L47.7132 42.5345C47.3454 42.8824 47.8075 42.9971 47.6342 43.0888C47.461 43.1805 47.3445 43.4377 47.5779 43.4837C47.8114 43.5296 48.5641 60.0131 49.557 60.6531C50.5499 61.2931 51.1542 61.7561 50.9718 60.8189C50.8983 60.4414 51.0022 58.4169 51.1526 56.134C51.1696 55.8753 51.4387 55.6015 51.2053 55.3499C50.9718 55.0984 51.234 54.9328 51.2487 54.7241C51.4581 51.743 51.6999 48.7999 51.6999 48.7999C51.6999 48.7999 53.2474 54.0941 53.6492 53.6842C54.051 53.2744 53.892 54.2835 54.0148 54.585C54.1174 54.837 53.6796 55.3319 54.323 55.3395C54.9665 55.3471 56.4776 60.4931 56.6309 60.4873C56.9346 60.4758 57.7884 60.5084 58.2954 60.4044C58.5457 60.3531 57.4344 56.457 56.5064 53.0926C56.4324 52.8243 56.0296 52.8181 56.2887 52.3001C56.5477 51.7821 55.2588 48.4304 55.3694 48.2754C55.663 47.864 55.7748 47.6852 55.4853 47.6582C55.1958 47.6313 55.1102 47.7895 55.0946 47.3904C55.079 46.9912 55.029 46.0071 55.029 46.0071C55.029 46.0071 54.8193 42.1147 53.3507 39.9642L53.2255 38.6864L49.2212 37.9703Z" fill="#2F2E41"/>
<path d="M49.2877 38.0607C48.0226 38.2437 45.9538 39.3612 47.3922 36.9L48.9046 33.1421C47.7964 32.2849 48.7275 30.7009 49.6562 29.1179L51.8127 26.9696H53.686L54.1814 28.8467C54.7938 30.1603 54.8719 31.6591 54.3994 33.0289C54.0912 33.9213 54.8488 35.8578 54.6971 36.0024C54.3643 36.3197 53.7817 35.9332 54.3643 36.541C54.9468 37.1487 55.0635 37.3432 54.8387 37.5776C54.6139 37.812 54.1146 38.5582 54.1146 38.5582L53.3507 39.9642L49.2877 38.0607Z" fill="#3F3D56"/>
<path d="M53.1985 26.5287C54.2975 26.1029 54.8419 24.8703 54.4145 23.7755C53.9872 22.6808 52.7499 22.1384 51.6509 22.5641C50.552 22.9899 50.0075 24.2225 50.4349 25.3173C50.8623 26.4121 52.0996 26.9544 53.1985 26.5287Z" fill="#A0616A"/>
<path d="M55.2973 27.3098C55.5876 27.7237 55.7818 28.1968 55.8658 28.6948C55.6318 28.8439 55.3595 28.9222 55.0818 28.9202C55.0723 28.884 55.0629 28.8478 55.0521 28.8115C54.9717 28.5309 54.8519 28.263 54.6965 28.0157C54.7178 28.2824 54.6815 28.5506 54.5901 28.8021C54.4433 28.7357 54.286 28.6953 54.1253 28.6827C53.9944 28.6827 53.8653 28.713 53.7481 28.7713C53.6121 28.3217 53.4868 27.9083 53.3979 27.6118C53.3952 28.3552 52.3013 29.0034 51.1077 28.9095C51.0646 28.8826 51.4971 27.6601 51.4553 27.6319C51.3597 27.5688 51.2667 27.5004 51.1738 27.4333C51.5644 26.832 51.9888 26.1879 51.916 26.0913C51.9214 26.2107 51.493 26.7851 51.0269 27.3272C50.7683 27.138 52.238 24.0594 51.5119 23.8098C51.4998 23.9185 51.3395 23.9185 51.1441 23.8957C51.0926 23.7164 51.016 23.5451 50.9165 23.3871C50.9294 23.5463 50.9102 23.7065 50.8599 23.8581C50.667 23.8582 50.4747 23.8784 50.286 23.9185C50.2424 23.8501 50.1942 23.7847 50.1419 23.7226C50.147 23.7982 50.1448 23.8742 50.1351 23.9494C49.9425 23.991 49.7835 24.0393 49.7606 24.0782C49.6098 24.0232 49.8671 23.7749 49.7728 23.6461C49.533 23.324 49.8886 22.8543 50.1136 22.5215C50.5756 21.8397 51.59 21.6035 52.308 22.0129C52.3404 21.9015 52.5061 21.8277 52.7189 21.778C52.8091 21.7582 52.9014 21.7496 52.9937 21.7525C53.9098 21.7686 55.1815 22.5215 55.2313 23.4327C55.2353 23.524 55.2421 23.6233 55.2488 23.7293C55.3135 24.7492 55.234 25.69 55.9332 26.4362C56.1864 26.7059 56.1891 27.9835 56.0921 28.6411C55.8402 28.3767 55.661 27.3487 55.2973 27.3098Z" fill="#2F2E41"/>
<path d="M60.4844 63.563C60.5231 63.5647 60.5614 63.5546 60.5941 63.534C60.6269 63.5134 60.6524 63.4832 60.6673 63.4476C60.6823 63.412 60.6859 63.3727 60.6776 63.335C60.6694 63.2973 60.6497 63.2631 60.6213 63.2369L60.6084 63.1856C60.6101 63.1815 60.6118 63.1774 60.6135 63.1733C60.6525 63.0816 60.7178 63.0034 60.8012 62.9486C60.8846 62.8937 60.9825 62.8647 61.0824 62.8651C61.1824 62.8654 61.28 62.8952 61.363 62.9507C61.446 63.0061 61.5108 63.0848 61.549 63.1768C61.7021 63.5439 61.8969 63.9117 61.9448 64.2998C61.966 64.4714 61.9571 64.6454 61.9185 64.8139C62.2779 64.0329 62.4645 63.1841 62.4657 62.325C62.4658 62.1094 62.4538 61.894 62.4297 61.6797C62.4098 61.5041 62.3822 61.3297 62.3469 61.1565C62.1543 60.2171 61.7407 59.3366 61.1402 58.5873C60.8495 58.4293 60.6144 58.1863 60.4667 57.8912C60.4131 57.785 60.3753 57.6718 60.3543 57.5549C60.3871 57.5591 60.4779 57.0617 60.4532 57.0312C60.4989 56.9621 60.5807 56.9277 60.6306 56.8603C60.8788 56.5251 61.2207 56.5836 61.3993 57.0392C61.7806 57.2309 61.7843 57.5489 61.5503 57.8547C61.4014 58.0493 61.381 58.3126 61.2504 58.5209C61.2638 58.538 61.2778 58.5546 61.2912 58.5718C61.5369 58.8864 61.751 59.2243 61.9304 59.5806C61.8868 59.1815 61.9389 58.7777 62.0824 58.4025C62.2279 58.0529 62.5006 57.7584 62.7408 57.4562C62.8043 57.375 62.8905 57.3143 62.9886 57.282C63.0867 57.2496 63.1922 57.2469 63.2919 57.2743C63.3915 57.3016 63.4807 57.3578 63.5483 57.4357C63.6159 57.5135 63.6588 57.6096 63.6715 57.7118C63.672 57.7162 63.6725 57.7207 63.673 57.7252C63.6373 57.7452 63.6024 57.7665 63.5682 57.789C63.5253 57.8175 63.4921 57.8584 63.4728 57.9061C63.4536 57.9538 63.4493 58.0062 63.4604 58.0564C63.4716 58.1066 63.4977 58.1523 63.5354 58.1874C63.573 58.2226 63.6205 58.2456 63.6715 58.2534L63.6767 58.2542C63.664 58.3823 63.6416 58.5092 63.6095 58.6339C63.9176 59.8207 63.2525 60.253 62.3028 60.2725C62.2819 60.2832 62.2614 60.2939 62.2405 60.304C62.4208 60.8131 62.5339 61.3434 62.577 61.8816C62.6013 62.1991 62.5999 62.518 62.5727 62.8353L62.5743 62.824C62.6431 62.4712 62.832 62.1529 63.1091 61.9228C63.5207 61.586 64.1022 61.462 64.5462 61.1912C64.5934 61.161 64.6483 61.1449 64.7044 61.1448C64.7604 61.1447 64.8154 61.1605 64.8627 61.1905C64.9101 61.2204 64.9478 61.2632 64.9715 61.3138C64.9952 61.3645 65.0039 61.4208 64.9966 61.4762L64.9947 61.488C64.9285 61.5149 64.8641 61.5458 64.8018 61.5806C64.7661 61.6007 64.7312 61.622 64.697 61.6445C64.6541 61.673 64.6208 61.7139 64.6016 61.7616C64.5824 61.8093 64.5781 61.8617 64.5892 61.9119C64.6004 61.9621 64.6265 62.0078 64.6642 62.0429C64.7018 62.0781 64.7493 62.1011 64.8003 62.1089L64.8055 62.1097C64.8093 62.1102 64.8125 62.1108 64.8163 62.1113C64.7032 62.3803 64.5444 62.6279 64.347 62.8433C64.1544 63.8794 63.327 63.9777 62.442 63.676H62.4415C62.3444 64.0964 62.2037 64.5055 62.0217 64.8969H60.522C60.5166 64.8803 60.5118 64.8632 60.507 64.8466C60.6458 64.8553 60.7851 64.847 60.9219 64.8219C60.8107 64.6859 60.6994 64.5488 60.5881 64.4128C60.5856 64.4103 60.5833 64.4076 60.5811 64.4048C60.5247 64.3352 60.4677 64.2661 60.4113 64.1965L60.4113 64.1964C60.4082 63.983 60.4329 63.7701 60.4844 63.563Z" fill="#D5D5D5"/>
<path d="M43.7108 64.9013C43.7108 64.9143 43.7133 64.9272 43.7183 64.9391C43.7233 64.9511 43.7306 64.962 43.7398 64.9712C43.749 64.9804 43.7599 64.9876 43.7719 64.9926C43.784 64.9975 43.7969 65 43.8099 65H64.8893C64.9156 65 64.9408 64.9896 64.9593 64.9711C64.9779 64.9526 64.9883 64.9275 64.9883 64.9013C64.9883 64.8752 64.9779 64.8501 64.9593 64.8316C64.9408 64.8131 64.9156 64.8027 64.8893 64.8027H43.8099C43.7969 64.8026 43.784 64.8052 43.7719 64.8101C43.7599 64.8151 43.749 64.8223 43.7398 64.8315C43.7306 64.8407 43.7233 64.8516 43.7183 64.8635C43.7133 64.8755 43.7108 64.8884 43.7108 64.9013Z" fill="#CCCCCC"/>
<path d="M53.7596 43.6145L49.3946 47.6495L43.7044 45.901L42.3793 40.1177L46.7444 36.0828L52.4345 37.8312L53.7596 43.6145Z" fill="#D5D5D5"/>
<path d="M46.5026 40.62C46.4386 40.5074 46.4002 40.3823 46.39 40.2534C46.3799 40.1244 46.3982 39.9948 46.4437 39.8737C46.4892 39.7526 46.5609 39.6429 46.6536 39.5524C46.7463 39.4618 46.8578 39.3926 46.9802 39.3496L50.5093 32.0692L51.8234 33.0171L48.1422 39.9472C48.2011 40.1569 48.1806 40.3808 48.0848 40.5765C47.989 40.7723 47.8245 40.9262 47.6224 41.0091C47.4203 41.092 47.1946 41.0982 46.9883 41.0265C46.7819 40.9548 46.6091 40.8101 46.5026 40.62Z" fill="#A0616A"/>
<path d="M52.0162 29.8076C51.6903 29.7753 51.362 29.8381 51.0713 29.9883C50.7806 30.1386 50.54 30.3698 50.3788 30.6538L48.9316 33.2039C48.9316 33.2039 52.1078 34.6013 52.8685 33.5999C53.1891 33.1778 53.3876 32.4676 53.51 31.7871C53.5519 31.5583 53.5459 31.3233 53.4922 31.0969C53.4385 30.8705 53.3383 30.6576 53.198 30.4717C53.0577 30.2857 52.8803 30.1307 52.6769 30.0165C52.4735 29.9022 52.2485 29.8311 52.0162 29.8076Z" fill="#3F3D56"/>
<path d="M42.9749 28.8628V36.0268C42.9746 36.2211 42.897 36.4073 42.7591 36.5447C42.6212 36.682 42.4343 36.7594 42.2393 36.7597H36.7233L36.774 36.695C39.676 34.765 41.7324 32.1899 42.91 28.9449L42.9749 28.8628Z" fill="#00BFA6"/>
<path d="M19.7143 34.1067L18.2007 36.7183H21.2278L19.7143 34.1067L18.2007 36.7183H21.2278L19.7143 34.1067Z" fill="#D5D5D5"/>
<path d="M31.1695 46.4101C33.9423 46.4101 36.1901 44.1708 36.1901 41.4085C36.1901 38.6462 33.9423 36.407 31.1695 36.407C28.3967 36.407 26.1489 38.6462 26.1489 41.4085C26.1489 44.1708 28.3967 46.4101 31.1695 46.4101Z" fill="#D5D5D5"/>
</g>
<defs>
<clipPath id="clip0_160_1709">
<rect width="50" height="51" fill="white" transform="translate(15 14)"/>
</clipPath>
</defs>
</svg>
