<svg width="80" height="80" viewBox="0 0 80 80" fill="none" xmlns="http://www.w3.org/2000/svg">
<circle cx="40" cy="40" r="40" fill="white"/>
<g clip-path="url(#clip0_160_1285)">
<path d="M64.2815 39.315H14.8172C14.1542 39.315 13.6148 38.7749 13.6148 38.111V21.2039C13.6148 20.5401 14.1542 20 14.8172 20H64.2815C64.9445 20 65.4839 20.5401 65.4839 21.2039V38.111C65.4839 38.7749 64.9445 39.315 64.2815 39.315ZM14.8172 20.1435C14.2332 20.1435 13.7581 20.6192 13.7581 21.2039V38.111C13.7581 38.6957 14.2332 39.1715 14.8172 39.1715H64.2815C64.8654 39.1715 65.3405 38.6957 65.3405 38.111V21.2039C65.3405 20.6192 64.8654 20.1435 64.2815 20.1435H14.8172Z" fill="#3F3D56"/>
<path d="M69 59.5127H8V59.6335H69V59.5127Z" fill="#E6E6E6"/>
<path d="M69 53.3406H8V53.4614H69V53.3406Z" fill="#E6E6E6"/>
<path d="M35.7994 39.9368C35.8432 40.4879 36.1628 40.9121 36.5131 40.8841C36.8634 40.8562 37.1118 40.3867 37.0679 39.8353C37.0534 39.6149 36.9863 39.401 36.8724 39.2118L36.6573 36.8788L35.5661 37.0032L35.8939 39.2899C35.8113 39.4949 35.7789 39.7167 35.7994 39.9368Z" fill="#FFB6B6"/>
<path d="M34.4958 29.0524C34.4958 29.0524 35.5159 28.5117 36.0332 29.3197C36.5504 30.1277 36.9074 38.8664 36.9074 38.8664L35.4737 39.0197L35.202 32.8618L34.4958 29.0524Z" fill="#E6E6E6"/>
<path d="M32.3785 52.8847L33.209 52.8846L33.6041 49.6769L32.3783 49.677L32.3785 52.8847Z" fill="#FFB6B6"/>
<path d="M35.2241 52.8658C35.2499 52.9094 35.2636 53.0502 35.2636 53.1009C35.2636 53.2568 35.1374 53.3831 34.9817 53.3831H32.4096C32.3034 53.3831 32.2173 53.2969 32.2173 53.1906V53.0834C32.2173 53.0834 32.09 52.7611 32.352 52.3639C32.352 52.3639 32.6776 52.6749 33.1641 52.1878L33.3076 51.9276L34.3461 52.688L34.9217 52.759C35.0476 52.7745 35.1593 52.7566 35.2241 52.8658Z" fill="#2F2E41"/>
<path d="M37.1848 52.747L37.9895 52.5411L37.5794 49.3353L36.3918 49.6392L37.1848 52.747Z" fill="#FFB6B6"/>
<path d="M39.9372 52.0235C39.973 52.0594 40.0211 52.1924 40.0336 52.2415C40.0721 52.3925 39.9811 52.5462 39.8302 52.5848L37.3381 53.2222C37.2352 53.2486 37.1305 53.1864 37.1042 53.0833L37.0777 52.9795C37.0777 52.9795 36.8748 52.6988 37.0304 52.249C37.0304 52.249 37.4227 52.4696 37.7737 51.8771L37.8484 51.5894L39.0426 52.0689L39.6178 51.995C39.7437 51.9788 39.8474 51.9337 39.9372 52.0235Z" fill="#2F2E41"/>
<path d="M31.6914 28.3628L31.652 28.0767L32.1201 26.9321L33.4061 26.7891L33.6837 28.4277L31.6914 28.3628Z" fill="#FFB6B6"/>
<path opacity="0.1" d="M31.6914 28.3628L31.652 28.0767L32.1201 26.9321L33.4061 26.7891L33.6837 28.4277L31.6914 28.3628Z" fill="black"/>
<path d="M30.1911 36.4463L29.6195 38.0201L30.0482 38.8785L32.1915 51.3256H33.6165L33.3346 40.3092L36.6211 51.3256H38.0314L36.8973 43.886L36.0495 37.0186L35.5353 36.7005L33.0488 35.3018L30.1911 36.4463Z" fill="#2F2E41"/>
<path d="M33.8347 37.5194L32.9774 37.6624L31.8343 34.9441H34.4063L33.8347 37.5194Z" fill="#E6E6E6"/>
<path d="M35.5494 36.804L33.8347 37.5194L33.2632 36.2317L32.9774 37.6624L29.9767 36.6953L30.4054 34.9441L29.9767 29.2213L31.4899 28.2112L31.6914 28.0767L33.5489 28.2198L33.7118 28.3085L34.8349 28.9351L35.1207 33.6565L35.5494 36.804Z" fill="#2F2E41"/>
<path d="M33.7118 28.3085L32.906 31.725L31.4899 28.2112L31.6914 28.0767L33.549 28.2198L33.7118 28.3085Z" fill="#E6E6E6"/>
<path d="M32.3344 28.0767L32.0486 28.5695L32.3344 28.7338L32.1915 31.7339L32.7631 32.5119L33.3346 31.362L32.9059 28.7338L33.0488 28.0767H32.3344Z" fill="#2F2E41"/>
<path d="M32.7631 27.7906C33.5127 27.7906 34.1205 27.182 34.1205 26.4314C34.1205 25.6807 33.5127 25.0722 32.7631 25.0722C32.0134 25.0722 31.4056 25.6807 31.4056 26.4314C31.4056 27.182 32.0134 27.7906 32.7631 27.7906Z" fill="#FFB6B6"/>
<path d="M31.8956 26.5506L32.1889 26.6788L32.3169 25.9098C32.3169 25.9098 32.8289 25.6535 33.2129 25.7816C33.5969 25.9098 34.2369 25.7816 34.2369 25.7816C34.2369 25.7816 34.2369 24.4999 33.3409 24.4999C32.4449 24.4999 31.5488 24.6281 31.5488 25.0126C31.5488 25.3971 31.1648 25.7816 31.1648 25.7816C31.1648 25.7816 30.6528 26.5506 31.1648 27.0633C31.6768 27.576 31.9328 27.576 31.9328 27.576L31.8956 26.5506Z" fill="#2F2E41"/>
<path d="M29.2616 39.8966C29.2467 40.4493 29.5195 40.905 29.8708 40.9144C30.2221 40.9238 30.5189 40.4835 30.5337 39.9305C30.5426 39.7097 30.4986 39.49 30.4054 39.2898L30.4389 36.9471L29.3406 36.9547L29.4242 39.2634C29.3203 39.4584 29.2645 39.6755 29.2616 39.8966Z" fill="#FFB6B6"/>
<path d="M30.6204 28.9324C30.6204 28.9324 29.6916 28.6463 29.263 29.5047C28.8343 30.3631 29.4059 39.0904 29.4059 39.0904H30.8477L30.465 32.9384L30.6204 28.9324Z" fill="#E6E6E6"/>
<path d="M66.2492 45.1914L62.7857 44.1297C62.7091 44.1063 62.6287 44.0977 62.5488 44.1045L44.9949 45.6003C44.7446 45.6217 44.6817 45.9597 44.9075 46.0698L45.4698 46.3441H45.4548V59.4743H45.9846V46.5953L47.7469 47.4549C47.8817 47.5206 48.0322 47.5475 48.1814 47.5324L48.3689 47.5134V59.4743H48.8987V47.4598L62.4759 46.0867V59.4743H63.0057V46.0331L65.2575 45.8053V59.4743H65.7874V45.7518L66.1982 45.7102C66.4866 45.681 66.5264 45.2763 66.2492 45.1914Z" fill="#3F3D56"/>
<path d="M50.0909 45.5484C50.422 45.5484 55.323 44.9515 55.323 44.9515L56.0516 45.9462L50.9519 46.9409L50.0909 45.5484Z" fill="white"/>
<path d="M55.4698 58.9644L54.6183 58.9628L54.2189 55.6736L55.4756 55.6759L55.4698 58.9644Z" fill="#A0616A"/>
<path d="M52.5525 58.94C52.526 58.9847 52.5117 59.1289 52.5116 59.1809C52.5114 59.3407 52.6405 59.4705 52.8001 59.4708L55.4371 59.4753C55.546 59.4755 55.6344 59.3873 55.6346 59.2783L55.6348 59.1683C55.6348 59.1683 55.7658 58.8382 55.4979 58.4305C55.4979 58.4305 55.1636 58.7488 54.6656 58.2485L54.519 57.9815L53.453 58.7593L52.8627 58.831C52.7336 58.8467 52.6191 58.8281 52.5525 58.94Z" fill="#2F2E41"/>
<path d="M60.0398 57.4348L59.368 57.9422L57.0938 55.5891L58.0853 54.8403L60.0398 57.4348Z" fill="#A0616A"/>
<path d="M57.7268 59.158C57.7324 59.2091 57.8072 59.3313 57.8381 59.3723C57.933 59.4984 58.1121 59.5235 58.2381 59.4284L60.3185 57.857C60.4044 57.7921 60.4215 57.6698 60.3567 57.5837L60.2913 57.497C60.2913 57.497 60.1979 57.1586 59.7439 56.9974C59.7439 56.9974 59.6701 57.4479 58.9798 57.3511L58.7051 57.2283L58.3286 58.4778L57.9062 58.8869C57.8138 58.9764 57.7126 59.0301 57.7268 59.158Z" fill="#2F2E41"/>
<path d="M58.2603 40.4354C58.2603 41.2216 57.6237 41.8589 56.8385 41.8589C56.0533 41.8589 55.4167 41.2216 55.4167 40.4354C55.4167 39.6492 56.0533 39.0118 56.8385 39.0118C57.6237 39.0118 58.2603 39.6492 58.2603 40.4354Z" fill="#A0616A"/>
<path d="M58.1263 48.6433C58.1263 48.6433 52.8916 48.3466 52.5953 48.94C52.299 49.5334 54.1971 57.6838 54.1971 57.6838L55.8906 57.3284L55.0645 51.6102C55.0645 51.6102 59.4328 52.7685 60.0254 51.384C60.618 49.9995 60.4474 49.4839 60.4474 49.4839L58.1263 48.6433Z" fill="#2F2E41"/>
<path d="M59.4675 47.6473C59.4675 47.6473 54.3409 48.7477 54.2119 49.3984C54.0829 50.0492 58.0668 57.4065 58.0668 57.4065L59.606 56.6152L57.2986 51.3194C57.2986 51.3194 61.8173 51.2795 62.023 49.7873C62.2287 48.2952 61.928 47.8432 61.928 47.8432L59.4675 47.6473Z" fill="#2F2E41"/>
<path d="M60.0523 42.0669H57.5893L55.904 44.8359C55.904 44.8359 55.5089 46.6253 55.904 46.8185C56.2991 47.0116 56.2991 49.0883 56.2991 49.0883L60.4474 49.4839C60.4474 49.4839 61.04 43.2536 60.8425 42.6602C60.6449 42.0669 60.0523 42.0669 60.0523 42.0669Z" fill="#00BFA6"/>
<path d="M56.1509 43.8964L55.904 46.8184L53.1267 45.6382L52.4638 45.3044C52.334 45.1349 52.1655 44.999 51.9725 44.9081C51.4924 44.6738 50.9828 44.7318 50.834 45.0376C50.6851 45.3434 50.9535 45.7811 51.4334 46.0152C51.6239 46.1115 51.8347 46.1606 52.0481 46.1585L53.9876 47.2615L53.9899 47.2571L53.9984 47.2725L57.0399 48.5444L57.7397 44.7085L56.1509 43.8964Z" fill="#A0616A"/>
<path d="M55.8546 40.6329C55.8546 40.6329 54.3731 40.8307 54.9657 39.5451C54.9657 39.5451 54.8754 38.8481 55.3156 38.801C55.7559 38.7539 56.3485 37.9627 56.3485 37.9627C56.3485 37.9627 57.7071 37.2705 58.4106 37.9627C59.114 38.655 61.1882 42.7097 61.1882 42.7097L59.8054 44.1931C59.8054 44.1931 58.9741 42.005 58.007 42.2584C57.0399 42.5119 56.151 43.2676 56.151 43.2676C56.151 43.2676 55.1695 42.7758 55.6108 42.3472C56.0522 41.9185 55.8546 40.6329 55.8546 40.6329Z" fill="#2F2E41"/>
<path d="M57.83 42.8086C57.83 42.8086 57.1387 41.9185 56.6448 42.6108C56.151 43.303 55.7559 44.1931 55.7559 44.1931L57.7313 44.8853L57.83 42.8086Z" fill="#00BFA6"/>
<path d="M65.3302 59.2774L63.0352 51.9735L63.0355 51.9735H63.0408L63.0316 51.9616L63.0314 51.9613L62.8679 51.4411L62.868 51.441C63.117 51.2262 63.2865 50.9191 63.3203 50.5657L62.2712 44.7884C62.3434 44.0298 61.7626 43.3666 61.0016 43.3394L58.6346 43.3335C57.9617 43.3096 57.3788 43.7963 57.2808 44.4634L57.2285 44.8176L56.5033 49.7573C56.4768 49.935 56.4874 50.1101 56.5291 50.2739L56.0072 50.3422L55.8489 50.3634L55.2231 50.445L55.2211 50.4456L55.1429 50.4556H55.0581V52.5776H55.0634V59.3602C55.0634 59.404 55.0992 59.4398 55.1429 59.4398C55.1873 59.4398 55.2231 59.404 55.2231 59.3602V52.5776H56.1516L57.0781 59.3523C57.0841 59.3921 57.1179 59.4212 57.1576 59.4212C57.1609 59.4212 57.1649 59.4212 57.1682 59.4206C57.2119 59.4146 57.2424 59.3742 57.2364 59.3304L56.3132 52.5776H60.7685C61.2109 52.5776 61.6208 52.4371 61.9546 52.1964L63.721 59.3398C63.7302 59.376 63.7627 59.4 63.7983 59.4C63.8048 59.4 63.8114 59.3992 63.818 59.3976C63.8607 59.3867 63.8865 59.3432 63.8756 59.3005L62.0921 52.0879C62.1158 52.0681 62.1395 52.047 62.162 52.0252L62.8711 51.9835L65.1781 59.3254C65.1888 59.3595 65.2202 59.3813 65.2541 59.3813C65.2621 59.3813 65.2701 59.3801 65.2781 59.3776C65.3201 59.3644 65.3435 59.3195 65.3302 59.2774ZM62.7163 51.5544C62.7223 51.5511 62.7276 51.5471 62.7329 51.5438L62.7499 51.598L62.7163 51.5544Z" fill="#E6E6E6"/>
<path d="M20.2974 46.8971L21.842 45.9136L22.4699 46.2928L20.2974 48.7924V46.8971Z" fill="#FFB6B6"/>
<path d="M18.1852 43.0903C18.1852 43.0903 17.1593 43.332 17.6421 44.7218C18.1248 46.1115 19.6939 49.0119 20.1767 48.8307C20.6595 48.6494 20.7198 46.8366 20.7198 46.8366C20.7198 46.8366 20.6595 46.8971 20.4181 46.6554C20.1767 46.4137 20.1767 46.524 20.1767 46.2574C20.1767 45.9907 19.9792 45.793 19.9792 45.793L19.7542 45.326C19.7542 45.326 19.7542 43.1507 18.849 43.0299C17.9438 42.909 18.1852 43.0903 18.1852 43.0903Z" fill="#E6E6E6"/>
<path d="M22.9783 46.2278C23.379 45.8267 23.5032 45.3006 23.2557 45.0528C23.0083 44.8051 22.4829 44.9294 22.0822 45.3306C21.6816 45.7317 21.5574 46.2578 21.8048 46.5056C22.0523 46.7533 22.5777 46.629 22.9783 46.2278Z" fill="#FFB6B6"/>
<path d="M14.1892 51.0966L15.2432 52.8433L21.3852 52.4794L19.7497 50.3688L14.1892 51.0966Z" fill="#E6E6E6"/>
<path d="M16.0245 59.266C15.9887 59.266 15.9575 59.2396 15.9525 59.2031L14.1172 45.7819C14.1117 45.7421 14.1396 45.7053 14.1793 45.6999C14.2191 45.6941 14.2558 45.7223 14.2612 45.7621L16.0966 59.1834C16.102 59.2232 16.0742 59.2599 16.0344 59.2653C16.0311 59.2658 16.0277 59.266 16.0245 59.266Z" fill="#E6E6E6"/>
<path d="M14.1892 59.2831C14.1491 59.2831 14.1165 59.2505 14.1165 59.2103V45.7746C14.1165 45.7344 14.1491 45.7018 14.1892 45.7018C14.2293 45.7018 14.2619 45.7344 14.2619 45.7746V59.2103C14.2619 59.2505 14.2293 59.2831 14.1892 59.2831Z" fill="#E6E6E6"/>
<path d="M23.4022 59.2297C23.3713 59.2297 23.3426 59.2098 23.3329 59.1787L18.9899 45.3572C18.9778 45.3189 18.9991 45.278 19.0374 45.2659C19.0757 45.2539 19.1165 45.2752 19.1285 45.3135L23.4715 59.135C23.4836 59.1733 23.4623 59.2142 23.424 59.2263C23.4167 59.2286 23.4094 59.2297 23.4022 59.2297Z" fill="#E6E6E6"/>
<path d="M22.0756 59.2467C22.0432 59.2467 22.0136 59.2248 22.0052 59.1919L18.9887 46.9934C18.9789 46.9545 19.0024 46.9148 19.0413 46.9049C19.0803 46.8951 19.1197 46.9186 19.1296 46.9575L22.1461 59.156C22.156 59.1949 22.1325 59.2345 22.0936 59.2445C22.0876 59.246 22.0815 59.2467 22.0756 59.2467Z" fill="#E6E6E6"/>
<path d="M14.1892 45.9886L19.2227 45.9111L20.1495 51.2058H14.2619L14.1892 45.9886Z" fill="#E6E6E6"/>
<path d="M21.9245 53.7741L20.6559 56.0103L22.1288 56.3349L22.7429 54.7445L21.9245 53.7741Z" fill="#FFB6B6"/>
<path d="M21.1116 55.5881C21.1116 55.5881 21.0623 55.2234 20.7725 55.3391C20.4827 55.4549 19.6464 55.8849 19.6464 55.8849C19.6464 55.8849 21.8278 59.4339 22.2418 59.2686C22.6557 59.1033 22.1602 58.1001 22.1602 58.1001L22.2695 56.3268L21.1116 55.5881Z" fill="#2F2E41"/>
<path d="M16.3144 49.4349C16.3144 49.4349 15.8618 51.5196 17.2498 52.2447C18.6378 52.9698 23.3751 51.1872 23.3751 51.1872L21.2026 54.4466L22.7113 55.0544C22.7113 55.0544 26.1511 50.5226 25.9097 49.7975C25.6684 49.0724 24.039 49.0119 24.039 49.0119L20.3577 49.1932L19.3921 48.8911L16.3144 49.4349Z" fill="#2F2E41"/>
<path d="M20.0478 54.7665L18.0536 56.3872L19.3075 57.2263L20.4574 55.9686L20.0478 54.7665Z" fill="#FFB6B6"/>
<path d="M18.6314 56.16C18.6314 56.16 18.718 55.8024 18.406 55.8046C18.094 55.8068 17.1587 55.9027 17.1587 55.9027C17.1587 55.9027 17.9008 60.0031 18.3465 60C18.7921 59.9968 18.6951 58.8818 18.6951 58.8818L19.4415 57.27L18.6314 56.16Z" fill="#2F2E41"/>
<path d="M16.3992 48.6808C16.3992 48.6808 15.22 50.4577 16.2494 51.6388C17.2787 52.8199 22.3391 52.8856 22.3391 52.8856L19.131 55.1299L20.3154 56.2458C20.3154 56.2458 25.1664 53.2779 25.205 52.5145C25.2437 51.7512 23.748 51.1013 23.748 51.1013L20.2532 49.9289L19.4636 49.2957L16.3992 48.6808Z" fill="#2F2E41"/>
<path d="M19.4285 44.5653C19.4285 44.5653 18.2819 44.1423 17.7387 44.1423C17.6868 44.1423 17.6355 44.1483 17.5842 44.1592C17.2366 44.2329 16.9168 44.532 16.7635 44.6952C16.7038 44.7592 16.6694 44.8021 16.6694 44.8021C16.6694 44.8021 16.673 44.7604 16.6802 44.6873C16.7158 44.303 16.8474 43.042 17.0833 42.2347C17.1678 41.9465 17.265 41.7162 17.3766 41.6045C17.6367 41.3434 17.7568 41.0304 17.8124 40.7972C17.8594 40.5972 17.8594 40.4564 17.8594 40.4564L17.4195 40.2666L17.338 39.7337C17.3235 39.7965 17.2565 39.9192 17.0315 40.1543C17.0121 40.1742 16.991 40.1911 16.9687 40.2056C16.644 40.4098 15.982 40.0546 15.6253 39.831C15.7738 39.3143 16.0429 38.8418 16.5318 38.7645C17.6784 38.5832 17.6784 37.9185 18.4026 38.6436C18.4623 38.7035 18.5227 38.7609 18.583 38.8164C18.8147 39.26 18.8992 39.8545 18.9294 40.2679C18.9511 40.5573 18.9457 40.7585 18.9457 40.7585C18.9457 40.7585 19.2474 42.5712 19.7302 42.9338C20.213 43.2963 19.4285 44.5653 19.4285 44.5653Z" fill="#2F2E41"/>
<path d="M17.1956 41.6649L16.3802 42.8625L18.2215 43.3568V41.6649H17.1956Z" fill="#FFB6B6"/>
<path opacity="0.1" d="M17.1956 41.6649L16.3802 42.8625L18.2215 43.3568V41.6649H17.1956Z" fill="black"/>
<path d="M18.336 42.8184L16.5859 42.0933C16.5859 42.0933 14.2324 43.1205 14.4134 45.1145C14.5945 47.1085 16.2842 50.5528 16.2842 50.5528L19.6637 49.1026L19.3016 45.2354L18.336 42.8184Z" fill="#E6E6E6"/>
<path d="M17.5857 42.1995C18.4384 42.1995 19.1297 41.5074 19.1297 40.6536C19.1297 39.7998 18.4384 39.1076 17.5857 39.1076C16.7329 39.1076 16.0417 39.7998 16.0417 40.6536C16.0417 41.5074 16.7329 42.1995 17.5857 42.1995Z" fill="#FFB6B6"/>
<path d="M19.6699 40.0938C19.3682 40.396 19.1268 40.6981 19.1268 40.6981L19.0061 40.2147C19.0061 40.2147 18.9783 40.2352 18.9294 40.2679C18.7381 40.3984 18.2246 40.7265 17.8124 40.7972C17.6289 40.8286 17.466 40.8087 17.3598 40.6981C17.1347 40.463 17.0677 40.3404 17.0532 40.2775L16.9717 40.8105L16.5318 41.0002C16.5318 41.0002 16.5318 41.6637 17.0146 42.1483C17.0381 42.1718 17.061 42.2008 17.0834 42.2347C17.3139 42.5827 17.4793 43.4347 17.5843 44.1592C17.6772 44.8033 17.7219 45.346 17.7219 45.346C17.7219 45.346 17.265 44.7731 16.7635 44.6952C16.7358 44.6909 16.708 44.6879 16.6802 44.6873C16.6712 44.6861 16.6615 44.6861 16.6525 44.6861C16.1094 44.6861 14.9627 45.1091 14.9627 45.1091C14.9627 45.1091 14.1782 43.8402 14.661 43.4776C15.1438 43.1151 15.4455 41.3023 15.4455 41.3023C15.4455 41.3023 15.4256 40.5265 15.6254 39.831C15.7738 39.3143 16.043 38.8418 16.5318 38.7645C17.6784 38.5832 17.6784 37.9185 18.4026 38.6436C18.4623 38.7035 18.5227 38.7609 18.583 38.8164C19.2577 39.4376 19.9469 39.8165 19.6699 40.0938Z" fill="#2F2E41"/>
<path d="M12.898 48.2051H12.3246V59.5445H12.898V48.2051Z" fill="#3F3D56"/>
<path d="M26.8034 48.2051H26.23V59.5445H26.8034V48.2051Z" fill="#3F3D56"/>
<path d="M23.1479 43.3966H19.349V47.2003H23.1479V43.3966Z" fill="#00BFA6"/>
<path d="M17.1593 47.4409L18.7039 46.4574L19.3318 46.8366L17.1593 49.3362V47.4409Z" fill="#FFB6B6"/>
<path d="M15.0471 43.6341C15.0471 43.6341 14.0212 43.8758 14.5039 45.2656C14.9867 46.6554 16.5558 49.5558 17.0386 49.3745C17.5213 49.1932 17.5817 47.3805 17.5817 47.3805C17.5817 47.3805 17.5213 47.4409 17.28 47.1992C17.0386 46.9575 17.0386 47.0679 17.0386 46.8012C17.0386 46.5345 16.8411 46.3368 16.8411 46.3368L16.6161 45.8698C16.6161 45.8698 16.6161 43.6945 15.7109 43.5737C14.8057 43.4528 15.0471 43.6341 15.0471 43.6341Z" fill="#E6E6E6"/>
<path d="M19.8402 46.7717C20.2409 46.3705 20.365 45.8444 20.1176 45.5967C19.8701 45.3489 19.3447 45.4732 18.9441 45.8744C18.5434 46.2755 18.4193 46.8016 18.6667 47.0494C18.9142 47.2971 19.4396 47.1728 19.8402 46.7717Z" fill="#FFB6B6"/>
<path d="M27.9503 47.7744H10.6043V49.0663H27.9503V47.7744Z" fill="#3F3D56"/>
<path d="M45.5736 37.4398H43.0119C42.8088 37.4398 42.6442 37.6046 42.6442 37.8079V38.8658C42.6442 39.0691 42.8088 39.234 43.0119 39.234H45.5736C45.7767 39.234 45.9413 39.0691 45.9413 38.8658V37.8079C45.9413 37.6046 45.7767 37.4398 45.5736 37.4398Z" fill="#3F3D56"/>
<path d="M50.9495 38.4977H48.3877C48.1846 38.4977 48.02 38.6625 48.02 38.8658V38.8658C48.02 39.0692 48.1846 39.234 48.3877 39.234H50.9495C51.1525 39.234 51.3172 39.0692 51.3172 38.8658V38.8658C51.3172 38.6625 51.1525 38.4977 50.9495 38.4977Z" fill="#00BFA6"/>
</g>
<defs>
<clipPath id="clip0_160_1285">
<rect width="61" height="40" fill="white" transform="translate(8 20)"/>
</clipPath>
</defs>
</svg>
