<svg width="80" height="80" viewBox="0 0 80 80" fill="none" xmlns="http://www.w3.org/2000/svg">
<circle cx="40" cy="40" r="40" fill="white"/>
<g clip-path="url(#clip0_160_1754)">
<path d="M46.9863 13H30.177C27.5626 13 25.4433 15.0973 25.4433 17.6844V55.6952C25.4433 58.2823 27.5626 60.3795 30.177 60.3795H46.9863C49.6006 60.3795 51.72 58.2823 51.72 55.6952V17.6844C51.72 15.0973 49.6006 13 46.9863 13Z" fill="#3F3D56"/>
<path d="M51.2767 17.6847V55.6952C51.2754 56.8209 50.8229 57.9001 50.0186 58.696C49.2142 59.492 48.1237 59.9397 46.9862 59.941H30.1772C29.0397 59.9397 27.9491 59.492 27.1448 58.696C26.3404 57.9001 25.888 56.8209 25.8867 55.6952V17.6847C25.888 16.559 26.3404 15.4799 27.1448 14.6839C27.9491 13.8879 29.0397 13.4402 30.1772 13.4389H32.3752V14.1903C32.3752 14.5304 32.5118 14.8566 32.7549 15.0972C32.9979 15.3377 33.3276 15.4728 33.6713 15.4729C36.517 16.3235 39.8574 16.1907 43.492 15.4729C43.8358 15.4728 44.1654 15.3377 44.4085 15.0972C44.6515 14.8566 44.7881 14.5304 44.7881 14.1903V13.4389H46.9862C48.1237 13.4402 49.2142 13.8879 50.0186 14.6839C50.8229 15.4799 51.2754 16.559 51.2767 17.6847Z" fill="white"/>
<path d="M25.3224 22.6115C25.2369 22.6114 25.155 22.5778 25.0945 22.518C25.0341 22.4581 25.0001 22.377 25 22.2925V21.6543C25 21.5697 25.034 21.4886 25.0944 21.4287C25.1549 21.3689 25.2369 21.3353 25.3224 21.3353C25.4079 21.3353 25.4899 21.3689 25.5504 21.4287C25.6109 21.4886 25.6448 21.5697 25.6448 21.6543V22.2925C25.6447 22.377 25.6107 22.4581 25.5503 22.518C25.4898 22.5778 25.4079 22.6114 25.3224 22.6115Z" fill="#3F3D56"/>
<path d="M25.3224 25.8835C25.2369 25.8834 25.155 25.8498 25.0945 25.79C25.0341 25.7302 25.0001 25.6491 25 25.5645V23.808C25 23.7233 25.034 23.6422 25.0944 23.5824C25.1549 23.5225 25.2369 23.4889 25.3224 23.4889C25.4079 23.4889 25.4899 23.5225 25.5504 23.5824C25.6109 23.6422 25.6448 23.7233 25.6448 23.808V25.5645C25.6447 25.6491 25.6107 25.7302 25.5503 25.79C25.4898 25.8498 25.4079 25.8834 25.3224 25.8835Z" fill="#3F3D56"/>
<path d="M25.3224 28.514C25.2369 28.5139 25.155 28.4803 25.0945 28.4205C25.0341 28.3606 25.0001 28.2795 25 28.195V26.4384C25 26.3538 25.034 26.2727 25.0944 26.2128C25.1549 26.153 25.2369 26.1194 25.3224 26.1194C25.4079 26.1194 25.4899 26.153 25.5504 26.2128C25.6109 26.2727 25.6448 26.3538 25.6448 26.4384V28.195C25.6447 28.2795 25.6107 28.3606 25.5503 28.4205C25.4898 28.4803 25.4079 28.5139 25.3224 28.514Z" fill="#3F3D56"/>
<path d="M51.7604 22.1546C51.675 22.1546 51.5931 22.188 51.5326 22.2477C51.4722 22.3074 51.4381 22.3884 51.438 22.4729V26.7594C51.438 26.844 51.472 26.9251 51.5324 26.985C51.5929 27.0448 51.6749 27.0784 51.7604 27.0784C51.8459 27.0784 51.9279 27.0448 51.9884 26.985C52.0488 26.9251 52.0828 26.844 52.0828 26.7594V22.4729C52.0825 22.3884 52.0484 22.3075 51.988 22.2479C51.9276 22.1882 51.8458 22.1547 51.7604 22.1546Z" fill="#3F3D56"/>
<path d="M31.4149 15.319H29.2386C29.1317 15.319 29.0292 15.277 28.9536 15.2022C28.878 15.1274 28.8356 15.0259 28.8356 14.9202C28.8356 14.8144 28.878 14.7129 28.9536 14.6381C29.0292 14.5634 29.1317 14.5213 29.2386 14.5213H31.4149C31.5218 14.5213 31.6243 14.5634 31.6999 14.6381C31.7754 14.7129 31.8179 14.8144 31.8179 14.9202C31.8179 15.0259 31.7754 15.1274 31.6999 15.2022C31.6243 15.277 31.5218 15.319 31.4149 15.319Z" fill="#E6E6E6"/>
<path d="M44.0594 55.2529C43.4529 55.2905 43.1177 54.5449 43.5766 54.1103C43.5934 54.0442 43.6054 53.9968 43.6222 53.9307C43.6162 53.9163 43.6102 53.9019 43.6041 53.8876C42.9907 52.4403 41.7489 53.2528 40.304 53.8997C39.1123 54.4333 37.9111 55.1284 38.9078 57.8349C39.1172 58.4035 38.8661 59.047 39.0007 59.6362C37.733 56.8997 37.0747 53.9253 37.0705 50.9149C37.0702 50.1595 37.1126 49.4046 37.1975 48.6539C37.2677 48.0384 37.365 47.4274 37.4895 46.8207C38.0125 44.2957 38.9933 41.8853 40.3846 39.7063C40.2075 39.7087 40.0301 39.7106 39.8524 39.712C39.5327 40.2286 39.2348 40.7575 38.9586 41.2986C39.0218 40.7732 39.0322 40.2428 38.9896 39.7154C36.835 39.7146 34.682 39.6464 32.7785 39.5108C32.8507 45.284 35.0042 46.4878 37.645 43.7228C37.7189 43.7603 37.791 43.7978 37.865 43.8335C37.2289 45.6174 36.8299 47.4756 36.678 49.3613C36.592 50.4738 36.5971 51.5914 36.6932 52.7031C36.6913 52.6899 36.6894 52.6768 36.6875 52.6637C36.4447 51.4275 35.7784 50.3121 34.8008 49.5058C33.349 48.3255 31.2977 47.8909 29.7314 46.9422C28.9774 46.4855 28.0113 47.0757 28.1429 47.9407C28.145 47.9545 28.1471 47.9683 28.1493 47.9822C28.3828 48.0763 28.6101 48.1847 28.83 48.3067C28.9558 48.377 29.079 48.4516 29.1995 48.5304C29.8863 48.9799 29.6489 50.0335 28.8351 50.1578L28.8167 50.1606C28.8034 50.1625 28.792 50.1644 28.7788 50.1662C29.1777 51.1089 29.7377 51.9765 30.4341 52.7312C30.6283 58.6607 33.7809 57.8961 37.1539 55.649H37.1558C37.4983 57.1219 37.9946 58.5556 38.6367 59.9271H43.9268C43.9458 59.8689 43.9629 59.8088 43.9799 59.7507C43.4903 59.7811 42.9987 59.7522 42.5161 59.6644C42.9086 59.1878 43.3011 58.7074 43.6936 58.2308C43.7024 58.2219 43.7106 58.2125 43.7183 58.2027C43.9174 57.9588 44.1183 57.7167 44.3174 57.4728L44.3175 57.4725C44.3281 56.7248 44.2414 55.9788 44.0596 55.253L44.0594 55.2529Z" fill="#00BFA6"/>
<path d="M38.4224 37.1706C37.9092 35.9454 36.9472 34.9135 36.1001 33.8544C35.0826 32.5822 32.9961 33.1374 32.8169 34.7501C32.8151 34.7657 32.8134 34.7813 32.8118 34.797C32.9376 34.8672 33.0608 34.9417 33.1813 35.0206C33.8681 35.4701 33.6307 36.5237 32.8169 36.648L32.7985 36.6508C32.8433 37.0995 32.9226 37.5443 33.0355 37.9811C32.9004 38.4817 32.8143 38.9939 32.7784 39.5108C34.682 39.6464 36.835 39.7146 38.9896 39.7153C38.9197 38.7776 38.709 37.8542 38.4224 37.1706Z" fill="#E6E6E6"/>
<path d="M43.9609 35.6179C44.1498 35.2461 44.2832 34.8492 44.3572 34.4396C44.2415 34.4546 43.9211 32.7114 44.0083 32.6045C43.8471 32.3624 43.5586 32.2421 43.3826 32.0059C42.5071 30.8313 41.3008 31.0364 40.6711 32.6326C39.3259 33.3045 39.3129 34.4187 40.1383 35.4903C40.6635 36.1721 40.7356 37.0946 41.1964 37.8245C41.149 37.8846 41.0997 37.9427 41.0523 38.0028C40.5619 38.6265 40.1075 39.277 39.6912 39.9513C39.8689 39.9499 40.0462 39.948 40.2233 39.9456C40.6412 39.2914 41.0958 38.661 41.5851 38.0572C42.6104 37.5036 43.4396 36.6522 43.9609 35.6179Z" fill="#E6E6E6"/>
<path opacity="0.1" d="M51.2233 17.6674V37.9704C51.2233 40.3115 25.8333 40.3115 25.8333 37.9704V17.6674C25.8346 16.5418 26.2871 15.4626 27.0914 14.6666C27.8958 13.8707 28.9863 13.4229 30.1238 13.4216H32.3219V14.173C32.3219 14.5132 32.4585 14.8394 32.7015 15.0799C32.9446 15.3204 33.2742 15.4556 33.618 15.4556C36.3428 16.3025 39.7067 16.163 43.4387 15.4556C43.7824 15.4556 44.1121 15.3204 44.3551 15.0799C44.5982 14.8394 44.7348 14.5132 44.7348 14.173V13.4216H46.9328C48.0703 13.4229 49.1609 13.8707 49.9652 14.6666C50.7696 15.4626 51.222 16.5418 51.2233 17.6674Z" fill="black"/>
<path d="M40.9426 19.8614H40.2172C39.9394 19.8617 39.673 19.9711 39.4766 20.1655C39.2801 20.3599 39.1697 20.6234 39.1693 20.8983V21.696H37.8797C37.6019 21.6963 37.3355 21.8056 37.1391 22C36.9427 22.1944 36.8322 22.458 36.8318 22.7329V24.3282C36.8322 24.6031 36.9427 24.8667 37.1391 25.0611C37.3355 25.2555 37.6019 25.3648 37.8797 25.3651H39.4918C39.7696 25.3648 40.0359 25.2555 40.2324 25.0611C40.4288 24.8667 40.5393 24.6031 40.5396 24.3282V22.7329C40.5393 22.458 40.4288 22.1944 40.2324 22C40.0359 21.8056 39.7696 21.6963 39.4918 21.696H39.3305V20.8983C39.3308 20.6657 39.4243 20.4427 39.5905 20.2782C39.7568 20.1137 39.9821 20.0212 40.2172 20.0209H40.9426C41.1777 20.0212 41.403 20.1137 41.5693 20.2782C41.7355 20.4427 41.829 20.6657 41.8293 20.8983V21.7757H41.9905V20.8983C41.9901 20.6234 41.8797 20.3599 41.6832 20.1655C41.4868 19.9711 41.2204 19.8617 40.9426 19.8614ZM40.3784 22.7329V24.3282C40.3781 24.5608 40.2846 24.7838 40.1184 24.9483C39.9522 25.1128 39.7268 25.2053 39.4918 25.2056H37.8797C37.6446 25.2053 37.4193 25.1128 37.253 24.9483C37.0868 24.7838 36.9933 24.5608 36.9931 24.3282V22.7329C36.9933 22.5003 37.0868 22.2773 37.253 22.1128C37.4193 21.9483 37.6446 21.8558 37.8797 21.8555C38.643 22.295 39.0635 22.0677 39.4918 21.8555C39.7268 21.8558 39.9522 21.9483 40.1184 22.1128C40.2846 22.2773 40.3781 22.5003 40.3784 22.7329Z" fill="white"/>
<path d="M38.6858 24.2484C38.8292 24.2484 38.9695 24.2063 39.0888 24.1274C39.2081 24.0485 39.3011 23.9364 39.356 23.8053C39.4109 23.6741 39.4252 23.5297 39.3972 23.3905C39.3693 23.2512 39.3002 23.1233 39.1987 23.0229C39.0973 22.9225 38.968 22.8542 38.8273 22.8265C38.6866 22.7988 38.5407 22.813 38.4081 22.8673C38.2756 22.9216 38.1623 23.0137 38.0826 23.1317C38.0029 23.2498 37.9603 23.3886 37.9603 23.5305C37.9606 23.7209 38.0371 23.9033 38.173 24.0379C38.309 24.1725 38.4934 24.2482 38.6858 24.2484ZM38.6858 23.371C38.9969 23.371 39.25 23.2227 39.25 23.5305C39.25 23.6786 39.1905 23.8206 39.0847 23.9253C38.9789 24.0301 38.8354 24.0889 38.6858 24.0889C38.5361 24.0889 38.3926 24.0301 38.2868 23.9253C38.181 23.8206 38.1215 23.6786 38.1215 23.5305C38.1215 23.2227 38.3746 23.371 38.6858 23.371Z" fill="white"/>
<path d="M38.6857 23.7698C38.8193 23.7698 38.9275 23.6627 38.9275 23.5305C38.9275 23.3984 38.8193 23.2913 38.6857 23.2913C38.5522 23.2913 38.4439 23.3984 38.4439 23.5305C38.4439 23.6627 38.5522 23.7698 38.6857 23.7698Z" fill="white"/>
<path d="M52.0828 24.4877H51.5016V24.6472H52.0828V24.4877Z" fill="white"/>
<path opacity="0.1" d="M25.8698 37.5731V37.9719C25.8698 40.313 51.2598 40.313 51.2598 37.9719V37.5731C51.2598 39.9142 25.8698 39.9142 25.8698 37.5731Z" fill="black"/>
<path d="M48.2959 43.2797C48.4536 43.2479 48.5925 43.1564 48.6831 43.0248C48.7737 42.8932 48.8088 42.7318 48.781 42.5749C48.7749 42.5431 48.7661 42.5119 48.7547 42.4815L50.4061 41.111L49.9982 40.037L47.941 42.1566C47.8175 42.213 47.7163 42.3083 47.6532 42.4276C47.5901 42.5469 47.5687 42.6835 47.5924 42.8161C47.621 42.9682 47.7096 43.1029 47.8385 43.1904C47.9675 43.2779 48.1263 43.3112 48.28 43.2828C48.2853 43.2818 48.2906 43.2808 48.2959 43.2797Z" fill="#A0616A"/>
<path d="M49.0735 35.1925L48.4186 35.7093C48.4186 35.7093 47.6359 37.1174 48.1969 37.4094C48.7579 37.7014 50.502 38.6727 50.502 38.6727C50.502 38.6727 49.7812 39.3828 49.6962 39.7276C49.6112 40.0725 49.7994 40.3789 49.5006 40.3068C49.2019 40.2347 49.1934 40.4695 49.1206 40.7652C49.0477 41.0608 48.5619 41.333 48.5619 41.333L49.4904 42.011C49.4904 42.011 49.9202 42.1612 49.9555 41.8043C49.9907 41.4474 49.8928 41.4977 50.1915 41.5698C50.4902 41.6419 50.742 41.1794 50.9011 40.748C51.0602 40.3166 52.6835 38.3086 52.6835 38.3086L50.9851 36.4383C50.4666 35.8674 49.8083 35.4383 49.0735 35.1925Z" fill="#00BFA6"/>
<path d="M48.9243 64.5012L48.2481 64.4955L47.9488 61.8545L48.9467 61.8628L48.9243 64.5012Z" fill="#A0616A"/>
<path d="M46.7584 65.5651C46.7578 65.6445 46.789 65.7208 46.8452 65.7774C46.9014 65.8339 46.978 65.8661 47.0581 65.8669L48.4025 65.878L48.6378 65.4059L48.7243 65.8804L49.2315 65.885L49.1034 64.1927L48.927 64.181L48.2071 64.1319L47.9749 64.1165L47.9708 64.5954L46.8909 65.3202C46.8504 65.3474 46.8172 65.3839 46.7942 65.4265C46.7711 65.4692 46.7588 65.5168 46.7584 65.5651Z" fill="#2F2E41"/>
<path d="M42.7165 64.5012L42.0404 64.4955L41.741 61.8545L42.739 61.8628L42.7165 64.5012Z" fill="#A0616A"/>
<path d="M40.5507 65.5651C40.5501 65.6445 40.5813 65.7208 40.6375 65.7774C40.6937 65.8339 40.7703 65.8661 40.8504 65.8669L42.1948 65.878L42.4301 65.4059L42.5166 65.8804L43.0238 65.885L42.8957 64.1927L42.7193 64.181L41.9994 64.1319L41.7672 64.1165L41.7631 64.5954L40.6832 65.3202C40.6427 65.3474 40.6095 65.3839 40.5865 65.4265C40.5634 65.4692 40.5511 65.5168 40.5507 65.5651Z" fill="#2F2E41"/>
<path d="M44.4659 42.1366C44.4659 42.1366 43.1675 42.7695 43.506 43.1505C43.8445 43.5315 43.5663 43.7469 43.1444 44.1047C42.7225 44.4626 41.8732 48.6544 41.8732 48.6544L40.7734 55.1479C40.7734 55.1479 41.0652 60.8179 41.2611 61.0198C41.4569 61.2217 41.7582 60.9235 41.4569 61.2217C41.1555 61.5199 40.9145 61.2814 41.1555 61.5199C41.3966 61.7585 41.4569 62.4146 41.4569 62.4146L43.0186 62.2843C43.0186 62.2843 44.0352 57.9261 43.3487 55.9954L46.0419 48.9328L46.8561 55.7475C46.8561 55.7475 47.303 61.2814 47.6043 61.4603C47.9056 61.6392 48.1228 61.6513 47.8635 61.8838C47.6043 62.1163 47.6043 61.7585 47.6043 62.1163V62.7099L49.0622 62.9079C49.0622 62.9079 49.7393 57.6028 49.4252 55.1479L50.3767 46.9079L49.6355 43.1946L48.87 42.1962L44.4659 42.1366Z" fill="#2F2E41"/>
<path d="M38.2007 40.1282C38.3307 40.2221 38.4926 40.2622 38.6519 40.2398C38.8112 40.2174 38.9555 40.1344 39.0539 40.0084C39.0735 39.9825 39.0909 39.955 39.1059 39.9262L41.2419 40.2109L41.7693 39.1892L38.8005 39.1122C38.6752 39.0598 38.5359 39.05 38.4043 39.0842C38.2727 39.1184 38.1562 39.1948 38.0731 39.3014C38.0264 39.3625 37.9923 39.4321 37.9728 39.5063C37.9533 39.5804 37.9487 39.6577 37.9593 39.7336C37.97 39.8095 37.9956 39.8825 38.0348 39.9486C38.074 40.0147 38.1259 40.0725 38.1877 40.1187C38.192 40.122 38.1963 40.1251 38.2007 40.1282Z" fill="#A0616A"/>
<path d="M44.7648 35.2497L43.9377 35.1187C43.9377 35.1187 42.9449 35.6551 43.1047 36.2621C43.2644 36.8692 43.1276 38.6387 43.1276 38.6387C43.1276 38.6387 42.1118 38.5898 41.7969 38.7599C41.482 38.93 41.3799 39.274 41.2326 39.007C41.0853 38.7399 41.2406 38.5982 40.9707 38.744C40.7009 38.8898 39.8338 39.0116 39.8338 39.0116L39.4853 40.186C39.4853 40.186 39.9695 40.845 40.2598 40.6303C40.5501 40.4157 40.6073 40.096 40.7546 40.363C40.902 40.6301 40.9431 41.1279 41.3724 40.9537C41.8018 40.7795 44.8689 39.989 44.8689 39.989L45.2396 36.322L44.7648 35.2497Z" fill="#00BFA6"/>
<path d="M43.9575 43.042C43.9575 43.042 43.3736 42.1197 43.4847 41.9844C43.5959 41.8492 43.7352 42.083 43.4847 41.8468C43.2343 41.6106 44.6387 40.0345 44.731 39.8023C44.8232 39.5702 43.3252 35.5164 43.3252 35.5164L44.601 34.756L45.6794 33.2548L47.6078 33.5601L48.2864 34.9212L49.2448 35.2558L49.3254 35.3355V37.8082C49.3254 37.8082 49.7519 39.9188 48.8135 40.6454C48.8135 40.6454 49.2612 41.6106 49.1407 41.7895C49.0201 41.9685 51.1874 44.3195 49.4866 44.5881C47.6235 44.8823 43.6495 42.9377 43.9575 43.042Z" fill="#00BFA6"/>
<path d="M34.3922 65.9051C34.3921 65.9176 34.3946 65.9299 34.3994 65.9415C34.4042 65.953 34.4112 65.9635 34.4202 65.9723C34.4291 65.9811 34.4397 65.9881 34.4513 65.9929C34.463 65.9976 34.4755 66 34.4881 66H54.9041C54.9295 66 54.9539 65.99 54.9719 65.9722C54.9899 65.9544 55 65.9303 55 65.9051C55 65.8799 54.9899 65.8558 54.9719 65.838C54.9539 65.8202 54.9295 65.8102 54.9041 65.8102H34.4881C34.4755 65.8101 34.463 65.8126 34.4513 65.8173C34.4397 65.8221 34.4291 65.8291 34.4202 65.8379C34.4112 65.8467 34.4042 65.8572 34.3994 65.8687C34.3946 65.8803 34.3921 65.8926 34.3922 65.9051Z" fill="#CCCCCC"/>
<path d="M46.9277 33.6306C48.0122 33.6306 48.8914 32.7605 48.8914 31.6873C48.8914 30.614 48.0122 29.744 46.9277 29.744C45.8431 29.744 44.9639 30.614 44.9639 31.6873C44.9639 32.7605 45.8431 33.6306 46.9277 33.6306Z" fill="#A0616A"/>
<path d="M48.4451 30.2506C48.4249 30.0757 48.3038 29.8595 48.2195 29.7045C48.1353 29.5495 47.9726 29.4229 47.795 29.4337C47.7225 29.442 47.653 29.4676 47.5926 29.5082C47.5322 29.5488 47.4827 29.6033 47.4481 29.667C47.3804 29.7952 47.3434 29.9372 47.3402 30.0819C47.3217 30.4046 47.3761 30.7274 47.4996 31.0268C47.6232 31.3261 47.8126 31.5943 48.0542 31.812C48.1918 31.9341 48.3575 32.0428 48.5423 32.047C48.6262 32.045 48.7089 32.0264 48.7855 31.9923C48.8621 31.9582 48.931 31.9093 48.9882 31.8485C49.2874 31.552 49.3326 31.0646 49.1728 30.6766C49.013 30.2885 48.9417 30.1376 48.5765 29.9256" fill="#2F2E41"/>
<path d="M45.6865 33.0455C45.7193 33.2184 45.4172 34.0407 45.5137 34.1888C45.5137 34.1888 46.5135 34.5325 46.8958 34.5572C47.3628 34.5871 47.7384 34.3975 48.1752 34.1121C48.1831 33.9573 48.2284 33.8067 48.3072 33.6728C48.3006 33.7765 48.3219 33.8801 48.3689 33.973C50.0048 33.5709 49.6044 32.1181 48.6163 31.4375L47.9595 29.9426C48.1565 30.0076 47.5617 29.0033 46.9344 29.7306C46.1495 28.9396 44.629 30.0783 44.4385 31.0956C44.6218 30.866 44.7173 30.893 44.7643 31.0514C44.8183 30.9182 44.9039 30.7998 45.0139 30.7062C44.9592 30.8132 44.9313 30.9315 44.9324 31.0514C46.1705 31.1274 45.9401 31.954 44.9253 33.1922C45.3006 32.961 45.0473 33.9572 45.2477 34.1953C45.2575 34.0289 45.651 33.2074 45.6865 33.0455Z" fill="#2F2E41"/>
<path d="M47.4732 31.4535C47.489 31.4535 47.5043 31.4478 47.5162 31.4375C47.5282 31.4272 47.536 31.413 47.5381 31.3975C47.5403 31.3819 47.5368 31.3662 47.5281 31.353C47.5195 31.3399 47.5063 31.3303 47.4911 31.326C47.477 31.246 47.4755 31.1643 47.4866 31.0839C47.508 30.7249 47.5437 30.1239 46.9542 29.7183C46.9399 29.7085 46.9222 29.7048 46.9051 29.7078C46.888 29.7109 46.8729 29.7205 46.863 29.7347C46.853 29.7488 46.8492 29.7662 46.8522 29.7832C46.8553 29.8001 46.865 29.8151 46.8792 29.825C47.4082 30.1891 47.3765 30.723 47.3555 31.0762C47.3435 31.2782 47.3348 31.4241 47.4586 31.4519C47.4634 31.453 47.4683 31.4535 47.4732 31.4535Z" fill="#00BFA6"/>
<path d="M47.4426 30.0329C47.8435 29.8683 48.2705 29.7746 48.7041 29.7563C49.0481 29.7418 49.4584 29.8177 49.5983 30.129C49.6831 30.3179 49.6379 30.5393 49.5603 30.7312C49.4827 30.923 49.1201 31.3104 49.3289 31.3062C49.8533 31.2956 50.0772 31.7597 49.8112 32.4808C49.6569 32.8991 50.6143 32.883 51.0606 32.9389C50.7253 33.0621 50.3848 33.1864 50.0283 33.2159C49.6719 33.2454 49.2912 33.1688 49.0251 32.9323C48.7371 32.6763 48.6264 32.2788 48.5774 31.8989C48.5285 31.5189 48.5259 31.1276 48.3958 30.7668C48.2656 30.4061 47.9666 30.0701 47.5809 30.0381" fill="#2F2E41"/>
</g>
<defs>
<clipPath id="clip0_160_1754">
<rect width="30" height="53" fill="white" transform="translate(25 13)"/>
</clipPath>
</defs>
</svg>
