<svg width="20" height="20" viewBox="0 0 27 27" fill="none" xmlns="http://www.w3.org/2000/svg">
<path d="M6.61474 13.5497C6.61474 17.2085 9.60012 20.1745 13.2829 20.1745C16.9656 20.1745 19.951 17.2085 19.951 13.5497C19.951 9.89085 16.9656 6.9248 13.2829 6.9248C9.60012 6.9248 6.61474 9.89085 6.61474 13.5497Z" stroke="#F4C090" stroke-width="3" stroke-linecap="round" stroke-linejoin="round"/>
<path d="M3.02425 23.7421L6.0916 20.6947M20.4743 20.6947L23.5417 23.7421M3.02425 3.35793L6.0916 6.40536M23.4596 13.55L25.1326 13.55M1.79924 13.55L3.10632 13.55M13.2829 1.77734L13.2829 3.35793M13.2829 25.2226L13.2829 23.6606M20.4743 6.40536L23.5417 3.35793" stroke="#F4C090" stroke-width="3" stroke-linecap="round" stroke-linejoin="round"/>
</svg>
