<svg width="1531" height="343" viewBox="0 0 1531 343" fill="none" xmlns="http://www.w3.org/2000/svg">
<g clip-path="url(#clip0_61_134)">
<path d="M367.45 263.975C347.066 237.089 326.803 210.377 306.144 183.144C305.14 184.311 304.306 185.356 303.394 186.329C284.469 206.506 265.598 226.733 246.585 246.826C231.382 262.894 214.302 276.413 193.287 284.148C152.618 299.118 113.377 295.812 76.536 272.994C43.8947 252.777 23.9112 223.096 16.9597 185.298C4.1405 115.595 49.0167 48.4989 118.219 33.5754C149.318 26.8687 179.093 31.2281 207.38 45.8577C209.816 47.1174 210.701 48.5854 210.677 51.3757C210.534 68.4012 210.606 85.4285 210.606 102.455C210.606 103.636 210.606 104.817 210.606 106.787C209.503 105.795 208.873 105.296 208.321 104.721C185.444 80.9253 157.621 72.0164 125.709 79.807C94.1063 87.5222 73.5846 108.172 64.38 139.419C54.5133 172.914 67.9716 210.513 96.648 230.547C121.348 247.804 148.162 250.866 176.441 241.284C188.548 237.181 198.453 229.32 207.257 220.279C221.556 205.595 235.583 190.644 249.616 175.704C284.225 138.858 318.772 101.955 353.344 65.0742C362.668 55.1283 371.96 45.1532 381.363 35.2831C382.268 34.333 383.854 33.5187 385.128 33.5116C405.024 33.401 424.92 33.4336 444.816 33.4362C445.178 33.4363 445.539 33.4743 446.662 33.5375C410.415 72.2021 374.604 110.402 338.548 148.864C374.188 195.865 409.736 242.744 445.618 290.064C444.401 290.131 443.763 290.197 443.124 290.197C425.416 290.205 407.708 290.172 390.001 290.255C387.961 290.264 386.761 289.551 385.577 287.959C379.641 279.973 373.585 272.077 367.45 263.975Z" fill="#11B685"/>
<path d="M224.731 154.647C224.731 115.316 224.73 76.2838 224.73 37.2514C224.73 33.4122 224.732 33.4097 228.638 33.4094C242.565 33.4083 256.494 33.493 270.42 33.3394C273.264 33.308 273.868 34.2178 273.861 36.882C273.776 66.7534 273.833 96.6253 273.739 126.497C273.734 128.012 273.093 129.877 272.09 130.98C264.527 139.292 256.796 147.451 249.125 155.664C241.59 163.73 234.066 171.805 226.527 179.867C226.204 180.213 225.785 180.47 224.731 181.309C224.731 172.099 224.731 163.522 224.731 154.647Z" fill="#4167f0"/>
<path d="M271.194 290.232C256.801 290.231 242.692 290.261 228.583 290.178C227.311 290.17 224.996 289.513 224.956 289.014C224.779 286.819 223.849 284.401 226.465 282.556C231.406 279.07 236.467 275.627 240.842 271.493C250.433 262.429 259.633 252.949 268.98 243.627C270.35 242.262 271.655 240.831 273.496 238.9C273.652 240.502 273.802 241.332 273.802 242.161C273.819 257.178 273.809 272.195 273.829 287.212C273.831 288.885 273.973 290.557 271.194 290.232Z" fill="#4167f0"/>
</g>
<path d="M508.4 293V144.6H533.4V293H508.4ZM632.013 293V271.4L630.613 266.8V229C630.613 221.667 628.413 216 624.013 212C619.613 207.867 612.946 205.8 604.013 205.8C598.013 205.8 592.079 206.733 586.213 208.6C580.479 210.467 575.613 213.067 571.613 216.4L561.813 198.2C567.546 193.8 574.346 190.533 582.213 188.4C590.213 186.133 598.479 185 607.013 185C622.479 185 634.413 188.733 642.813 196.2C651.346 203.533 655.613 214.933 655.613 230.4V293H632.013ZM598.413 294.4C590.413 294.4 583.413 293.067 577.413 290.4C571.413 287.6 566.746 283.8 563.413 279C560.213 274.067 558.613 268.533 558.613 262.4C558.613 256.4 560.013 251 562.813 246.2C565.746 241.4 570.479 237.6 577.013 234.8C583.546 232 592.213 230.6 603.013 230.6H634.013V247.2H604.813C596.279 247.2 590.546 248.6 587.613 251.4C584.679 254.067 583.213 257.4 583.213 261.4C583.213 265.933 585.013 269.533 588.613 272.2C592.213 274.867 597.213 276.2 603.613 276.2C609.746 276.2 615.213 274.8 620.013 272C624.946 269.2 628.479 265.067 630.613 259.6L634.813 274.6C632.413 280.867 628.079 285.733 621.813 289.2C615.679 292.667 607.879 294.4 598.413 294.4ZM720.697 294.4C711.764 294.4 703.164 293.267 694.897 291C686.764 288.6 680.297 285.733 675.497 282.4L685.097 263.4C689.897 266.467 695.63 269 702.297 271C708.964 273 715.63 274 722.297 274C730.164 274 735.83 272.933 739.297 270.8C742.897 268.667 744.697 265.8 744.697 262.2C744.697 259.267 743.497 257.067 741.097 255.6C738.697 254 735.564 252.8 731.697 252C727.83 251.2 723.497 250.467 718.697 249.8C714.03 249.133 709.297 248.267 704.497 247.2C699.83 246 695.564 244.333 691.697 242.2C687.83 239.933 684.697 236.933 682.297 233.2C679.897 229.467 678.697 224.533 678.697 218.4C678.697 211.6 680.63 205.733 684.497 200.8C688.364 195.733 693.764 191.867 700.697 189.2C707.764 186.4 716.097 185 725.697 185C732.897 185 740.164 185.8 747.497 187.4C754.83 189 760.897 191.267 765.697 194.2L756.097 213.2C751.03 210.133 745.897 208.067 740.697 207C735.63 205.8 730.564 205.2 725.497 205.2C717.897 205.2 712.23 206.333 708.497 208.6C704.897 210.867 703.097 213.733 703.097 217.2C703.097 220.4 704.297 222.8 706.697 224.4C709.097 226 712.23 227.267 716.097 228.2C719.964 229.133 724.23 229.933 728.897 230.6C733.697 231.133 738.43 232 743.097 233.2C747.764 234.4 752.03 236.067 755.897 238.2C759.897 240.2 763.097 243.067 765.497 246.8C767.897 250.533 769.097 255.4 769.097 261.4C769.097 268.067 767.097 273.867 763.097 278.8C759.23 283.733 753.697 287.6 746.497 290.4C739.297 293.067 730.697 294.4 720.697 294.4ZM823.627 294.4C814.693 294.4 806.093 293.267 797.827 291C789.693 288.6 783.227 285.733 778.427 282.4L788.027 263.4C792.827 266.467 798.56 269 805.227 271C811.893 273 818.56 274 825.227 274C833.093 274 838.76 272.933 842.227 270.8C845.827 268.667 847.627 265.8 847.627 262.2C847.627 259.267 846.427 257.067 844.027 255.6C841.627 254 838.493 252.8 834.627 252C830.76 251.2 826.427 250.467 821.627 249.8C816.96 249.133 812.227 248.267 807.427 247.2C802.76 246 798.493 244.333 794.627 242.2C790.76 239.933 787.627 236.933 785.227 233.2C782.827 229.467 781.627 224.533 781.627 218.4C781.627 211.6 783.56 205.733 787.427 200.8C791.293 195.733 796.693 191.867 803.627 189.2C810.693 186.4 819.027 185 828.627 185C835.827 185 843.093 185.8 850.427 187.4C857.76 189 863.827 191.267 868.627 194.2L859.027 213.2C853.96 210.133 848.827 208.067 843.627 207C838.56 205.8 833.493 205.2 828.427 205.2C820.827 205.2 815.16 206.333 811.427 208.6C807.827 210.867 806.027 213.733 806.027 217.2C806.027 220.4 807.227 222.8 809.627 224.4C812.027 226 815.16 227.267 819.027 228.2C822.893 229.133 827.16 229.933 831.827 230.6C836.627 231.133 841.36 232 846.027 233.2C850.693 234.4 854.96 236.067 858.827 238.2C862.827 240.2 866.027 243.067 868.427 246.8C870.827 250.533 872.027 255.4 872.027 261.4C872.027 268.067 870.027 273.867 866.027 278.8C862.16 283.733 856.627 287.6 849.427 290.4C842.227 293.067 833.627 294.4 823.627 294.4ZM893.556 293V186.2H917.356V215.6L914.556 207C917.756 199.8 922.756 194.333 929.556 190.6C936.49 186.867 945.09 185 955.356 185V208.8C954.29 208.533 953.29 208.4 952.356 208.4C951.423 208.267 950.49 208.2 949.556 208.2C940.09 208.2 932.556 211 926.956 216.6C921.356 222.067 918.556 230.267 918.556 241.2V293H893.556ZM1023.59 294.4C1012.65 294.4 1002.92 292.067 994.388 287.4C985.854 282.6 979.121 276.067 974.188 267.8C969.254 259.533 966.788 250.133 966.788 239.6C966.788 228.933 969.254 219.533 974.188 211.4C979.121 203.133 985.854 196.667 994.388 192C1002.92 187.333 1012.65 185 1023.59 185C1034.65 185 1044.45 187.333 1052.99 192C1061.65 196.667 1068.39 203.067 1073.19 211.2C1078.12 219.333 1080.59 228.8 1080.59 239.6C1080.59 250.133 1078.12 259.533 1073.19 267.8C1068.39 276.067 1061.65 282.6 1052.99 287.4C1044.45 292.067 1034.65 294.4 1023.59 294.4ZM1023.59 273C1029.72 273 1035.19 271.667 1039.99 269C1044.79 266.333 1048.52 262.467 1051.19 257.4C1053.99 252.333 1055.39 246.4 1055.39 239.6C1055.39 232.667 1053.99 226.733 1051.19 221.8C1048.52 216.733 1044.79 212.867 1039.99 210.2C1035.19 207.533 1029.79 206.2 1023.79 206.2C1017.65 206.2 1012.19 207.533 1007.39 210.2C1002.72 212.867 998.988 216.733 996.188 221.8C993.388 226.733 991.988 232.667 991.988 239.6C991.988 246.4 993.388 252.333 996.188 257.4C998.988 262.467 1002.72 266.333 1007.39 269C1012.19 271.667 1017.59 273 1023.59 273ZM1152.49 294.4C1141.56 294.4 1131.83 292.067 1123.29 287.4C1114.76 282.6 1108.03 276.067 1103.09 267.8C1098.16 259.533 1095.69 250.133 1095.69 239.6C1095.69 228.933 1098.16 219.533 1103.09 211.4C1108.03 203.133 1114.76 196.667 1123.29 192C1131.83 187.333 1141.56 185 1152.49 185C1163.56 185 1173.36 187.333 1181.89 192C1190.56 196.667 1197.29 203.067 1202.09 211.2C1207.03 219.333 1209.49 228.8 1209.49 239.6C1209.49 250.133 1207.03 259.533 1202.09 267.8C1197.29 276.067 1190.56 282.6 1181.89 287.4C1173.36 292.067 1163.56 294.4 1152.49 294.4ZM1152.49 273C1158.63 273 1164.09 271.667 1168.89 269C1173.69 266.333 1177.43 262.467 1180.09 257.4C1182.89 252.333 1184.29 246.4 1184.29 239.6C1184.29 232.667 1182.89 226.733 1180.09 221.8C1177.43 216.733 1173.69 212.867 1168.89 210.2C1164.09 207.533 1158.69 206.2 1152.69 206.2C1146.56 206.2 1141.09 207.533 1136.29 210.2C1131.63 212.867 1127.89 216.733 1125.09 221.8C1122.29 226.733 1120.89 232.667 1120.89 239.6C1120.89 246.4 1122.29 252.333 1125.09 257.4C1127.89 262.467 1131.63 266.333 1136.29 269C1141.09 271.667 1146.49 273 1152.49 273ZM1368.2 185C1376.73 185 1384.27 186.667 1390.8 190C1397.47 193.333 1402.67 198.467 1406.4 205.4C1410.13 212.2 1412 221 1412 231.8V293H1387V235C1387 225.533 1384.93 218.467 1380.8 213.8C1376.67 209.133 1370.73 206.8 1363 206.8C1357.53 206.8 1352.67 208 1348.4 210.4C1344.27 212.8 1341 216.333 1338.6 221C1336.33 225.667 1335.2 231.6 1335.2 238.8V293H1310.2V235C1310.2 225.533 1308.13 218.467 1304 213.8C1299.87 209.133 1293.93 206.8 1286.2 206.8C1280.73 206.8 1275.87 208 1271.6 210.4C1267.47 212.8 1264.2 216.333 1261.8 221C1259.53 225.667 1258.4 231.6 1258.4 238.8V293H1233.4V186.2H1257.2V214.6L1253 206.2C1256.6 199.267 1261.8 194 1268.6 190.4C1275.53 186.8 1283.4 185 1292.2 185C1302.2 185 1310.87 187.467 1318.2 192.4C1325.67 197.333 1330.6 204.8 1333 214.8L1323.2 211.4C1326.67 203.4 1332.4 197 1340.4 192.2C1348.4 187.4 1357.67 185 1368.2 185ZM1476.95 294.4C1468.01 294.4 1459.41 293.267 1451.15 291C1443.01 288.6 1436.55 285.733 1431.75 282.4L1441.35 263.4C1446.15 266.467 1451.88 269 1458.55 271C1465.21 273 1471.88 274 1478.55 274C1486.41 274 1492.08 272.933 1495.55 270.8C1499.15 268.667 1500.95 265.8 1500.95 262.2C1500.95 259.267 1499.75 257.067 1497.35 255.6C1494.95 254 1491.81 252.8 1487.95 252C1484.08 251.2 1479.75 250.467 1474.95 249.8C1470.28 249.133 1465.55 248.267 1460.75 247.2C1456.08 246 1451.81 244.333 1447.95 242.2C1444.08 239.933 1440.95 236.933 1438.55 233.2C1436.15 229.467 1434.95 224.533 1434.95 218.4C1434.95 211.6 1436.88 205.733 1440.75 200.8C1444.61 195.733 1450.01 191.867 1456.95 189.2C1464.01 186.4 1472.35 185 1481.95 185C1489.15 185 1496.41 185.8 1503.75 187.4C1511.08 189 1517.15 191.267 1521.95 194.2L1512.35 213.2C1507.28 210.133 1502.15 208.067 1496.95 207C1491.88 205.8 1486.81 205.2 1481.75 205.2C1474.15 205.2 1468.48 206.333 1464.75 208.6C1461.15 210.867 1459.35 213.733 1459.35 217.2C1459.35 220.4 1460.55 222.8 1462.95 224.4C1465.35 226 1468.48 227.267 1472.35 228.2C1476.21 229.133 1480.48 229.933 1485.15 230.6C1489.95 231.133 1494.68 232 1499.35 233.2C1504.01 234.4 1508.28 236.067 1512.15 238.2C1516.15 240.2 1519.35 243.067 1521.75 246.8C1524.15 250.533 1525.35 255.4 1525.35 261.4C1525.35 268.067 1523.35 273.867 1519.35 278.8C1515.48 283.733 1509.95 287.6 1502.75 290.4C1495.55 293.067 1486.95 294.4 1476.95 294.4Z" fill="white"/>
<defs>
<clipPath id="clip0_61_134">
<rect width="466" height="315" fill="white"/>
</clipPath>
</defs>
</svg>
