<svg width="80" height="80" viewBox="0 0 80 80" fill="none" xmlns="http://www.w3.org/2000/svg">
<circle cx="40" cy="40" r="40" fill="white"/>
<g clip-path="url(#clip0_160_2310)">
<path d="M50.8964 65.8245C50.8399 65.8835 50.7812 65.9417 50.7217 66H43.9407C43.8849 65.9432 43.8299 65.8849 43.7749 65.8245C43.7727 65.8223 43.7704 65.8193 43.7682 65.8171C43.0315 65.0074 42.5677 63.8304 42.2785 62.5892C42.2599 62.514 42.2436 62.438 42.2272 62.3614C42.1514 62.0125 42.0897 61.66 42.0392 61.3105C42.0303 61.25 42.0213 61.1895 42.0139 61.129C41.9455 60.6268 41.8994 60.1327 41.8697 59.6689C41.866 59.6091 41.8622 59.5509 41.8585 59.4926C41.8041 58.5691 41.8036 57.6433 41.857 56.7198C41.857 56.7198 41.866 56.7198 41.8831 56.7205C41.9329 56.7227 42.0525 56.7279 42.2287 56.7382C42.7141 56.7677 43.63 56.8414 44.7071 57.0155C44.7658 57.0251 44.8253 57.0354 44.8848 57.0457C45.7959 57.1951 46.6946 57.411 47.5735 57.6917C47.6286 57.7102 47.6828 57.7286 47.7378 57.747L47.7386 57.7507L48.4128 61.1069L48.6923 58.1195C48.9146 58.219 49.1309 58.3252 49.3383 58.4388C49.3963 58.4705 49.4528 58.5022 49.5086 58.5347C49.9827 58.8012 50.4131 59.1379 50.7849 59.5332C52.9964 61.9646 52.5229 64.1379 50.8964 65.8245Z" fill="#F2F2F2"/>
<path d="M48.0626 61.5687L48.1802 61.6979C49.539 63.2067 50.35 64.6071 50.5998 65.8808C50.6038 65.8993 50.6065 65.9177 50.6105 65.9362L50.5235 65.9526L50.4398 65.9672C50.1848 64.5785 49.2354 63.1431 48.0506 61.8268C48.0128 61.784 47.9745 61.7406 47.9348 61.6983C47.4283 61.1455 46.8837 60.6152 46.333 60.1193C46.2907 60.0806 46.2472 60.0417 46.2037 60.0029C45.4735 59.3522 44.7388 58.7634 44.0836 58.2671C44.0374 58.2318 43.9906 58.1971 43.9444 58.163C42.8319 57.3275 41.9688 56.7737 41.7764 56.6523C41.7532 56.6371 41.7401 56.6291 41.7371 56.6272L41.7826 56.555L41.7827 56.5538L41.8289 56.4811C41.8318 56.4831 41.876 56.5097 41.9557 56.5614C42.2552 56.7529 43.0601 57.2799 44.0614 58.0293C44.1064 58.0633 44.1532 58.098 44.1993 58.1333C44.7314 58.5354 45.3134 58.9963 45.9012 59.5007C46.049 59.6272 46.1932 59.7535 46.3337 59.8796C46.3778 59.9178 46.4213 59.9566 46.4636 59.9954C47.059 60.5313 47.592 61.0558 48.0626 61.5687Z" fill="white"/>
<path d="M44.7711 56.8724C44.751 56.9204 44.7294 56.9683 44.7071 57.0155C44.5373 57.38 44.3201 57.7209 44.0611 58.0295C44.0232 58.0738 43.9846 58.1187 43.9444 58.163C43.8359 58.2817 43.7204 58.3965 43.598 58.5074C43.0971 58.9572 42.5036 59.2934 41.8585 59.4926C41.8377 59.4993 41.8176 59.5059 41.7968 59.5118C41.8005 59.5701 41.8043 59.6276 41.808 59.6873C41.8288 59.6814 41.8489 59.6755 41.8697 59.6689C42.5541 59.4642 43.1841 59.111 43.714 58.635C43.8435 58.5188 43.9669 58.396 44.0834 58.267C44.1235 58.2235 44.1622 58.1785 44.1994 58.1335C44.4764 57.8033 44.7069 57.4374 44.8848 57.0457C44.9056 56.9985 44.9264 56.9513 44.9465 56.9034C44.887 56.8931 44.8283 56.8828 44.7711 56.8724Z" fill="white"/>
<path d="M47.604 57.5612C47.5951 57.6047 47.5847 57.6482 47.5735 57.6918C47.372 58.5208 46.9428 59.2781 46.3336 59.8798C46.2912 59.9218 46.2481 59.9631 46.2035 60.003C46.1909 60.0155 46.1767 60.0288 46.1634 60.0406C45.6092 60.5369 44.9435 60.8946 44.2217 61.084C43.4999 61.2733 42.7429 61.2888 42.0139 61.1291C41.9968 61.1261 41.979 61.1217 41.9619 61.118C41.9708 61.1785 41.979 61.2397 41.9886 61.3002C42.0057 61.3038 42.0221 61.3075 42.0392 61.3105C42.7867 61.4639 43.5602 61.4404 44.2969 61.242C45.0335 61.0435 45.7127 60.6756 46.2793 60.1682C46.2972 60.1519 46.3158 60.1364 46.3329 60.1195C46.3775 60.0782 46.4206 60.0369 46.4637 59.9956C47.0871 59.3767 47.528 58.6004 47.7386 57.7507C47.7497 57.7065 47.7601 57.6622 47.7698 57.618C47.7148 57.5988 47.6598 57.5797 47.604 57.5612Z" fill="white"/>
<path d="M49.3383 58.3141C49.339 58.3554 49.339 58.3975 49.3383 58.4388C49.3259 59.6042 48.8703 60.7221 48.0627 61.5686C48.021 61.6128 47.9779 61.6556 47.9348 61.6984C47.888 61.7434 47.8412 61.7883 47.7928 61.8311C47.045 62.4997 46.1004 62.9122 45.0983 63.0077C44.0962 63.1032 43.0897 62.8766 42.2272 62.3613C42.2124 62.3537 42.1981 62.3453 42.1841 62.3363C42.202 62.4144 42.2198 62.4911 42.2391 62.5678C42.2525 62.5752 42.2651 62.5826 42.2785 62.5892C43.1659 63.0801 44.1859 63.2833 45.1955 63.1704C46.2051 63.0574 47.1539 62.634 47.9088 61.9594C47.9571 61.9159 48.0054 61.8724 48.0508 61.8267C48.0954 61.7846 48.1377 61.7419 48.1801 61.6976C48.9991 60.8407 49.4719 59.715 49.5085 58.5346C49.51 58.4948 49.5108 58.455 49.5108 58.4152C49.4543 58.3805 49.3963 58.3473 49.3383 58.3141Z" fill="white"/>
<path d="M34.31 26.2108H21.2426C21.1339 26.2107 21.0296 26.1678 20.9527 26.0915C20.8758 26.0152 20.8326 25.9118 20.8325 25.8039V15.9606C20.8326 15.8527 20.8758 15.7493 20.9527 15.673C21.0296 15.5967 21.1339 15.5538 21.2426 15.5536H37.2821C37.3909 15.5538 37.4951 15.5967 37.572 15.673C37.6489 15.7493 37.6922 15.8527 37.6923 15.9606V22.8553C37.6913 23.7449 37.3346 24.5978 36.7005 25.2269C36.0664 25.8559 35.2067 26.2098 34.31 26.2108Z" fill="white"/>
<path d="M34.31 26.2476H21.2426C21.124 26.2475 21.0103 26.2007 20.9265 26.1175C20.8426 26.0343 20.7954 25.9215 20.7953 25.8039V15.9606C20.7954 15.8429 20.8426 15.7301 20.9265 15.6469C21.0103 15.5637 21.124 15.5169 21.2426 15.5168H37.2821C37.4007 15.5169 37.5145 15.5637 37.5983 15.6469C37.6822 15.7301 37.7293 15.8429 37.7295 15.9606V22.8553C37.7284 23.7547 37.3678 24.617 36.7268 25.2529C36.0857 25.8889 35.2166 26.2466 34.31 26.2476ZM21.2426 15.6643C21.1634 15.6644 21.0875 15.6956 21.0315 15.7512C20.9755 15.8067 20.944 15.882 20.944 15.9606V25.8039C20.9441 25.8824 20.9755 25.9577 21.0315 26.0133C21.0875 26.0688 21.1634 26.1001 21.2426 26.1002H34.31C35.1771 26.0992 36.0085 25.757 36.6217 25.1487C37.2349 24.5404 37.5798 23.7156 37.5808 22.8553V15.9606C37.5807 15.882 37.5492 15.8067 37.4932 15.7512C37.4372 15.6956 37.3613 15.6644 37.2821 15.6643H21.2426Z" fill="#CCCCCC"/>
<path d="M34.1115 18.8779H24.4132C24.3242 18.8779 24.2388 18.8428 24.1758 18.7804C24.1129 18.7179 24.0775 18.6332 24.0775 18.5449C24.0775 18.4565 24.1129 18.3718 24.1758 18.3094C24.2388 18.2469 24.3242 18.2118 24.4132 18.2118H34.1115C34.2005 18.212 34.2857 18.2471 34.3486 18.3095C34.4114 18.372 34.4467 18.4566 34.4467 18.5449C34.4467 18.6331 34.4114 18.7177 34.3486 18.7802C34.2857 18.8426 34.2005 18.8778 34.1115 18.8779Z" fill="#CCCCCC"/>
<path d="M34.1115 21.1722H24.4132C24.3242 21.1722 24.2388 21.1371 24.1758 21.0747C24.1129 21.0122 24.0775 20.9275 24.0775 20.8392C24.0775 20.7508 24.1129 20.6661 24.1758 20.6037C24.2388 20.5412 24.3242 20.5061 24.4132 20.5061H34.1115C34.2006 20.5061 34.286 20.5412 34.3489 20.6037C34.4119 20.6661 34.4472 20.7508 34.4472 20.8392C34.4472 20.9275 34.4119 21.0122 34.3489 21.0747C34.286 21.1371 34.2006 21.1722 34.1115 21.1722Z" fill="#CCCCCC"/>
<path d="M34.1115 23.5321H24.4132C24.3242 23.5321 24.2388 23.497 24.1758 23.4345C24.1129 23.3721 24.0775 23.2874 24.0775 23.199C24.0775 23.1107 24.1129 23.026 24.1758 22.9635C24.2388 22.9011 24.3242 22.866 24.4132 22.866H34.1115C34.2006 22.866 34.286 22.9011 34.3489 22.9635C34.4119 23.026 34.4472 23.1107 34.4472 23.199C34.4472 23.2874 34.4119 23.3721 34.3489 23.4345C34.286 23.497 34.2006 23.5321 34.1115 23.5321Z" fill="#CCCCCC"/>
<path d="M37.1617 17.9777C38.2689 17.9777 39.1665 17.0872 39.1665 15.9888C39.1665 14.8904 38.2689 14 37.1617 14C36.0545 14 35.157 14.8904 35.157 15.9888C35.157 17.0872 36.0545 17.9777 37.1617 17.9777Z" fill="#00BFA6"/>
<path d="M36.8882 17.0239C36.8536 17.0239 36.8195 17.0159 36.7885 17.0006C36.7575 16.9852 36.7306 16.9629 36.7098 16.9354L36.1629 16.212C36.1453 16.1887 36.1326 16.1623 36.1253 16.1341C36.118 16.106 36.1164 16.0767 36.1206 16.0479C36.1247 16.0192 36.1345 15.9915 36.1494 15.9665C36.1644 15.9415 36.1841 15.9197 36.2075 15.9022C36.231 15.8848 36.2576 15.8721 36.286 15.8649C36.3143 15.8577 36.3439 15.8561 36.3729 15.8602C36.4018 15.8643 36.4297 15.8741 36.4549 15.8889C36.4801 15.9037 36.5021 15.9233 36.5197 15.9465L36.8775 16.4198L37.7965 15.0522C37.8294 15.0034 37.8804 14.9695 37.9384 14.958C37.9964 14.9465 38.0566 14.9583 38.1058 14.9909C38.155 15.0234 38.1892 15.074 38.2008 15.1316C38.2124 15.1891 38.2005 15.2488 38.1677 15.2977L37.0738 16.9254C37.054 16.9548 37.0274 16.9791 36.9962 16.9963C36.965 17.0134 36.9301 17.0229 36.8944 17.0239C36.8924 17.0239 36.8903 17.0239 36.8882 17.0239Z" fill="white"/>
<path d="M29.4869 34.7601H16.4195C15.5228 34.7591 14.663 34.4053 14.0289 33.7762C13.3949 33.1472 13.0382 32.2943 13.0372 31.4047V24.5099C13.0373 24.402 13.0806 24.2986 13.1575 24.2223C13.2344 24.146 13.3386 24.1031 13.4474 24.103H29.4869C29.5956 24.1031 29.6999 24.146 29.7768 24.2223C29.8537 24.2986 29.8969 24.402 29.8971 24.5099V34.3532C29.8969 34.4611 29.8537 34.5645 29.7768 34.6408C29.6999 34.7171 29.5956 34.76 29.4869 34.7601Z" fill="white"/>
<path d="M29.4869 34.797H16.4195C15.5129 34.796 14.6437 34.4382 14.0027 33.8023C13.3616 33.1663 13.001 32.3041 13 31.4047V24.5099C13.0001 24.3922 13.0473 24.2794 13.1312 24.1962C13.215 24.113 13.3288 24.0662 13.4474 24.0661H29.4869C29.6055 24.0662 29.7192 24.113 29.803 24.1962C29.8869 24.2794 29.9341 24.3922 29.9342 24.5099V34.3532C29.9341 34.4709 29.8869 34.5837 29.803 34.6669C29.7192 34.7501 29.6055 34.7969 29.4869 34.797ZM13.4474 24.2136C13.3682 24.2137 13.2923 24.2449 13.2363 24.3005C13.1803 24.356 13.1488 24.4313 13.1487 24.5099V31.4047C13.1497 32.265 13.4946 33.0897 14.1078 33.698C14.7209 34.3064 15.5523 34.6485 16.4195 34.6495H29.4869C29.566 34.6494 29.642 34.6182 29.698 34.5626C29.754 34.5071 29.7855 34.4317 29.7855 34.3532V24.5099C29.7854 24.4313 29.7539 24.356 29.698 24.3005C29.642 24.2449 29.566 24.2137 29.4869 24.2136H13.4474Z" fill="#CCCCCC"/>
<path d="M26.3163 27.4272H16.618C16.5289 27.4272 16.4435 27.3921 16.3806 27.3297C16.3176 27.2672 16.2822 27.1825 16.2822 27.0942C16.2822 27.0059 16.3176 26.9211 16.3806 26.8587C16.4435 26.7962 16.5289 26.7611 16.618 26.7611H26.3163C26.4053 26.7611 26.4907 26.7962 26.5536 26.8587C26.6166 26.9211 26.652 27.0059 26.652 27.0942C26.652 27.1825 26.6166 27.2672 26.5536 27.3297C26.4907 27.3921 26.4053 27.4272 26.3163 27.4272Z" fill="#CCCCCC"/>
<path d="M26.3163 29.7215H16.618C16.5289 29.7215 16.4435 29.6864 16.3806 29.624C16.3176 29.5615 16.2822 29.4768 16.2822 29.3885C16.2822 29.3002 16.3176 29.2154 16.3806 29.153C16.4435 29.0905 16.5289 29.0554 16.618 29.0554H26.3163C26.4053 29.0554 26.4907 29.0905 26.5537 29.153C26.6166 29.2154 26.652 29.3002 26.652 29.3885C26.652 29.4768 26.6166 29.5615 26.5537 29.624C26.4907 29.6864 26.4053 29.7215 26.3163 29.7215Z" fill="#CCCCCC"/>
<path d="M26.3163 32.0814H16.618C16.5289 32.0814 16.4435 32.0463 16.3806 31.9839C16.3176 31.9214 16.2822 31.8367 16.2822 31.7484C16.2822 31.66 16.3176 31.5753 16.3806 31.5129C16.4435 31.4504 16.5289 31.4153 16.618 31.4153H26.3163C26.4053 31.4153 26.4907 31.4504 26.5537 31.5129C26.6166 31.5753 26.652 31.66 26.652 31.7484C26.652 31.8367 26.6166 31.9214 26.5537 31.9839C26.4907 32.0463 26.4053 32.0814 26.3163 32.0814Z" fill="#CCCCCC"/>
<path d="M29.505 26.606C30.6122 26.606 31.5098 25.7155 31.5098 24.6171C31.5098 23.5187 30.6122 22.6283 29.505 22.6283C28.3978 22.6283 27.5003 23.5187 27.5003 24.6171C27.5003 25.7155 28.3978 26.606 29.505 26.606Z" fill="#00BFA6"/>
<path d="M29.2315 25.6522C29.1969 25.6522 29.1628 25.6442 29.1318 25.6289C29.1008 25.6135 29.0739 25.5912 29.0531 25.5637L28.5062 24.8403C28.4886 24.817 28.4759 24.7906 28.4686 24.7624C28.4613 24.7343 28.4597 24.705 28.4639 24.6763C28.468 24.6475 28.4778 24.6198 28.4927 24.5948C28.5076 24.5698 28.5274 24.548 28.5508 24.5306C28.5742 24.5131 28.6009 24.5004 28.6293 24.4932C28.6576 24.486 28.6872 24.4844 28.7161 24.4885C28.7451 24.4927 28.773 24.5024 28.7982 24.5172C28.8234 24.532 28.8454 24.5516 28.863 24.5748L29.2208 25.0481L30.1398 23.6805C30.1726 23.6317 30.2237 23.5978 30.2817 23.5863C30.3396 23.5748 30.3999 23.5866 30.4491 23.6192C30.4983 23.6517 30.5325 23.7023 30.5441 23.7599C30.5557 23.8174 30.5437 23.8771 30.5109 23.926L29.4171 25.5537C29.3973 25.5832 29.3707 25.6075 29.3395 25.6246C29.3083 25.6417 29.2734 25.6512 29.2377 25.6522C29.2357 25.6522 29.2336 25.6522 29.2315 25.6522Z" fill="white"/>
<path d="M45.7684 43.9351H27.4843C26.5875 43.9341 25.7278 43.5803 25.0937 42.9512C24.4596 42.3222 24.1029 41.4693 24.1019 40.5797V30.4385C24.1021 30.2995 24.1578 30.1661 24.257 30.0678C24.3561 29.9695 24.4905 29.9142 24.6307 29.914H45.7684C45.9086 29.9142 46.043 29.9695 46.1421 30.0678C46.2412 30.1662 46.297 30.2995 46.2971 30.4385V43.4105C46.297 43.5496 46.2412 43.6829 46.1421 43.7813C46.043 43.8796 45.9086 43.9349 45.7684 43.9351Z" fill="white"/>
<path d="M45.7684 43.972H27.4843C26.5777 43.971 25.7085 43.6132 25.0674 42.9773C24.4264 42.3413 24.0658 41.4791 24.0648 40.5797V30.4386C24.0649 30.2897 24.1246 30.147 24.2307 30.0418C24.3368 29.9365 24.4806 29.8773 24.6307 29.8771H45.7684C45.9185 29.8773 46.0623 29.9365 46.1684 30.0418C46.2745 30.147 46.3341 30.2897 46.3343 30.4386V43.4106C46.3342 43.5594 46.2745 43.7021 46.1684 43.8074C46.0623 43.9126 45.9185 43.9718 45.7684 43.972ZM24.6307 30.0246C24.5201 30.0248 24.414 30.0684 24.3358 30.146C24.2576 30.2236 24.2136 30.3288 24.2134 30.4386V40.5797C24.2144 41.44 24.5593 42.2647 25.1725 42.873C25.7857 43.4814 26.6171 43.8235 27.4843 43.8245H45.7684C45.8791 43.8244 45.9851 43.7807 46.0633 43.7031C46.1415 43.6255 46.1855 43.5203 46.1856 43.4106V30.4386C46.1855 30.3288 46.1415 30.2236 46.0633 30.146C45.9851 30.0684 45.8791 30.0248 45.7684 30.0246H24.6307Z" fill="#CCCCCC"/>
<path d="M41.59 34.2832H28.8091C28.7509 34.2832 28.6933 34.2719 28.6396 34.2499C28.5858 34.2279 28.537 34.1956 28.4959 34.1548C28.4547 34.114 28.4221 34.0656 28.3998 34.0123C28.3775 33.9591 28.3661 33.9019 28.3661 33.8443C28.3661 33.7866 28.3775 33.7294 28.3998 33.6762C28.4221 33.6229 28.4547 33.5745 28.4959 33.5337C28.537 33.4929 28.5858 33.4606 28.6396 33.4386C28.6933 33.4166 28.7509 33.4053 28.8091 33.4054H41.59C41.6482 33.4053 41.7058 33.4166 41.7595 33.4386C41.8133 33.4606 41.8621 33.4929 41.9032 33.5337C41.9444 33.5745 41.977 33.6229 41.9993 33.6762C42.0216 33.7294 42.033 33.7866 42.033 33.8443C42.033 33.9019 42.0216 33.9591 41.9993 34.0123C41.977 34.0656 41.9444 34.114 41.9032 34.1548C41.8621 34.1956 41.8133 34.2279 41.7595 34.2499C41.7058 34.2719 41.6482 34.2832 41.59 34.2832Z" fill="#CCCCCC"/>
<path d="M41.59 37.3067H28.8091C28.7509 37.3068 28.6933 37.2955 28.6396 37.2735C28.5858 37.2514 28.537 37.2191 28.4959 37.1784C28.4547 37.1376 28.4221 37.0892 28.3998 37.0359C28.3775 36.9826 28.3661 36.9255 28.3661 36.8678C28.3661 36.8101 28.3775 36.753 28.3998 36.6997C28.4221 36.6464 28.4547 36.598 28.4959 36.5573C28.537 36.5165 28.5858 36.4842 28.6396 36.4622C28.6933 36.4401 28.7509 36.4288 28.8091 36.4289H41.59C41.7074 36.4289 41.8199 36.4752 41.9029 36.5575C41.9859 36.6398 42.0325 36.7514 42.0325 36.8678C42.0325 36.9842 41.9859 37.0959 41.9029 37.1782C41.8199 37.2605 41.7074 37.3067 41.59 37.3067Z" fill="#CCCCCC"/>
<path d="M41.59 40.4167H28.8091C28.6917 40.4167 28.5792 40.3705 28.4962 40.2881C28.4132 40.2058 28.3666 40.0942 28.3666 39.9778C28.3666 39.8614 28.4132 39.7498 28.4962 39.6674C28.5792 39.5851 28.6917 39.5389 28.8091 39.5389H41.59C41.6482 39.5388 41.7058 39.5501 41.7595 39.5721C41.8133 39.5942 41.8621 39.6265 41.9032 39.6672C41.9444 39.708 41.977 39.7564 41.9993 39.8097C42.0216 39.863 42.033 39.9201 42.033 39.9778C42.033 40.0355 42.0216 40.0926 41.9993 40.1459C41.977 40.1992 41.9444 40.2476 41.9032 40.2884C41.8621 40.3291 41.8133 40.3614 41.7595 40.3835C41.7058 40.4055 41.6482 40.4168 41.59 40.4167Z" fill="#CCCCCC"/>
<path d="M45.8348 33.2255C47.2364 33.2255 48.3726 32.0983 48.3726 30.7079C48.3726 29.3175 47.2364 28.1903 45.8348 28.1903C44.4333 28.1903 43.2971 29.3175 43.2971 30.7079C43.2971 32.0983 44.4333 33.2255 45.8348 33.2255Z" fill="#00BFA6"/>
<path d="M45.4886 32.0182C45.4448 32.0182 45.4016 32.0081 45.3624 31.9886C45.3232 31.9692 45.2891 31.9409 45.2628 31.9062L44.5705 30.9903C44.5483 30.9609 44.5321 30.9274 44.5229 30.8918C44.5137 30.8562 44.5116 30.8191 44.5169 30.7827C44.5221 30.7463 44.5345 30.7113 44.5534 30.6796C44.5723 30.648 44.5973 30.6204 44.627 30.5983C44.6566 30.5762 44.6904 30.5602 44.7263 30.551C44.7622 30.5419 44.7996 30.5399 44.8363 30.5451C44.873 30.5503 44.9083 30.5626 44.9402 30.5814C44.9721 30.6001 44.9999 30.6249 45.0222 30.6543L45.4751 31.2534L46.6385 29.5223C46.68 29.4606 46.7446 29.4178 46.818 29.4032C46.8913 29.3887 46.9675 29.4037 47.0297 29.4449C47.092 29.486 47.1352 29.55 47.1499 29.6228C47.1647 29.6956 47.1497 29.7711 47.1082 29.8329L45.7236 31.8935C45.6985 31.9307 45.6648 31.9615 45.6253 31.9832C45.5858 32.0049 45.5416 32.0168 45.4965 32.0181C45.4939 32.0181 45.4913 32.0182 45.4886 32.0182Z" fill="white"/>
<path d="M52.4093 63.9901L51.3769 64.3326L49.5536 60.5448L51.0775 60.0392L52.4093 63.9901Z" fill="#FFB6B6"/>
<path d="M53.0074 64.8956L49.6782 65.7789L49.6641 65.7371C49.5484 65.3937 49.5743 65.2474 49.7372 64.9234C49.8169 64.7638 49.9277 64.6215 50.0632 64.5047C50.1986 64.3879 50.3561 64.2989 50.5265 64.2429L50.5266 64.2429L50.9804 63.5834L52.2693 63.6647L52.5599 63.5683L53.0074 64.8956Z" fill="#2F2E41"/>
<path d="M54.9603 64.9532H53.8716L53.3536 60.7872L54.9605 60.7873L54.9603 64.9532Z" fill="#FFB6B6"/>
<path d="M55.2379 65.7789L51.7275 65.7788V65.7347C51.7275 65.3726 51.8696 65.2535 52.1277 64.9975C52.2543 64.8712 52.4049 64.7711 52.5707 64.703C52.7365 64.6348 52.9143 64.6 53.0938 64.6005H53.0939L53.7352 64.1179L54.9315 64.6005L55.238 64.6005L55.2379 65.7789Z" fill="#2F2E41"/>
<path d="M46.6745 31.5749C46.697 31.6881 46.7441 31.795 46.8127 31.8881C46.8813 31.9812 46.9696 32.0583 47.0714 32.1139C47.1733 32.1695 47.2862 32.2022 47.4021 32.2099C47.5181 32.2175 47.6344 32.1998 47.7427 32.158L48.9996 33.4598L49.9833 32.895L48.1823 31.0814C48.0996 30.9055 47.9546 30.7658 47.7749 30.6888C47.5952 30.6119 47.3934 30.6029 47.2075 30.6638C47.0216 30.7246 46.8647 30.851 46.7665 31.0189C46.6683 31.1868 46.6356 31.3847 46.6745 31.5749Z" fill="#FFB6B6"/>
<path d="M54.8086 38.1203L55.3752 37.5388L52.0986 34.5282L48.8008 31.607L47.8874 32.8874L51.3433 36.0875L54.8086 38.1203Z" fill="#E4E4E4"/>
<path d="M52.7953 57.8771C52.7953 57.1462 52.8099 56.6249 52.8216 56.206C52.8559 54.9801 52.8651 54.6506 52.3922 52.5394L52.2708 51.9973L51.5546 54.1288C51.3258 54.8088 51.2089 55.5208 51.2084 56.2376L52.3127 62.8108H50.0556L48.4026 55.7046L48.4018 53.5309C48.2562 53.3814 48.1748 53.1816 48.1748 52.9737C48.1748 52.7657 48.2562 52.5659 48.4018 52.4164L48.951 49.1599L49.5069 44.771H55.5956C55.5956 44.771 56.6702 46.9806 55.6023 49.1723L55.6022 57.8798L55.0505 63.9004H53.3472L52.7953 57.8771Z" fill="#2F2E41"/>
<path d="M55.2234 45.3022L49.5282 44.8314L49.4986 44.829L49.9531 36.7129C49.9798 36.2026 50.1603 35.7121 50.4712 35.3047C50.7821 34.8973 51.2091 34.5918 51.697 34.4278V33.8599C51.6971 33.7193 51.7535 33.5845 51.8537 33.4851C51.9539 33.3857 52.0897 33.3298 52.2314 33.3297H53.0636C53.1629 33.3293 53.2603 33.3566 53.3448 33.4084C53.4293 33.4602 53.4975 33.5345 53.5416 33.6228L53.9485 34.4301L55.4872 35.6513C56.2471 36.2544 55.6355 42.3014 55.6026 42.6205L55.9747 44.4664C55.9952 44.568 55.9927 44.6727 55.9675 44.7732C55.9423 44.8737 55.8949 44.9674 55.8288 45.0476C55.7628 45.1277 55.6796 45.1924 55.5853 45.2368C55.4911 45.2813 55.3881 45.3045 55.2837 45.3048C55.2637 45.3047 55.2436 45.3039 55.2234 45.3022Z" fill="#E4E4E4"/>
<path d="M49.1922 47.4452C49.2823 47.3722 49.3551 47.2806 49.4056 47.1767C49.456 47.0728 49.4829 46.9593 49.4844 46.8439C49.4858 46.7286 49.4617 46.6144 49.4139 46.5093C49.366 46.4042 49.2955 46.3108 49.2073 46.2357L49.7723 44.5225L48.8066 43.9279L48.0429 46.3584C47.9255 46.5138 47.8697 46.7065 47.8859 46.8999C47.9021 47.0934 47.9893 47.2743 48.131 47.4082C48.2727 47.5422 48.4589 47.6199 48.6545 47.6267C48.8501 47.6336 49.0414 47.569 49.1922 47.4452Z" fill="#FFB6B6"/>
<path d="M51.1783 35.7985L50.3943 35.5392L49.2618 40.5516L48.2188 45.5364L49.7875 45.7654L51.0041 40.4652L51.1783 35.7985Z" fill="#E4E4E4"/>
<path d="M52.0345 32.8109C53.0676 32.8109 53.905 31.9801 53.905 30.9553C53.905 29.9304 53.0676 29.0997 52.0345 29.0997C51.0015 29.0997 50.164 29.9304 50.164 30.9553C50.164 31.9801 51.0015 32.8109 52.0345 32.8109Z" fill="#FFB6B6"/>
<path d="M49.5178 30.0465C49.535 29.8707 49.5858 29.6997 49.6675 29.5426C49.7549 29.7313 50.0277 29.764 50.2144 29.6701C50.4011 29.5762 50.5261 29.3979 50.6595 29.238C51.0116 28.8158 51.4957 28.4734 52.0443 28.411C52.593 28.3487 53.1978 28.6234 53.4051 29.1312C53.4981 29.0031 53.6966 28.9888 53.837 29.0633C53.9726 29.1481 54.0785 29.2725 54.14 29.4194C54.2781 29.7005 54.3561 30.0068 54.3692 30.3192C54.3823 30.6316 54.3302 30.9433 54.2161 31.2348C53.985 31.8148 53.4145 32.5962 52.8259 32.8151C52.4685 32.948 52.1076 32.7779 51.7275 32.8151C51.7474 32.4036 51.8278 31.8959 51.8477 31.4844C51.8586 31.259 51.8602 31.0069 51.7051 30.842C51.6575 30.7971 51.6005 30.7632 51.5383 30.7427C51.476 30.7221 51.4099 30.7153 51.3447 30.7229C51.2796 30.7304 51.2169 30.7521 51.161 30.7863C51.1052 30.8206 51.0577 30.8666 51.0218 30.9211C51.0026 30.7931 50.959 30.67 50.8935 30.5582C50.8598 30.5027 50.8112 30.4577 50.7532 30.4282C50.6951 30.3987 50.6299 30.3859 50.5649 30.3912C50.4062 30.417 50.3082 30.5786 50.1625 30.6463C50.0798 30.6792 49.989 30.6862 49.9021 30.6665C49.8153 30.6467 49.7366 30.6011 49.6766 30.5357C49.6183 30.469 49.5742 30.3913 49.5469 30.3072C49.5196 30.2231 49.5097 30.1345 49.5178 30.0465Z" fill="#2F2E41"/>
<path opacity="0.1" d="M52.2766 40.4427L50.0799 44.8012H51.7275L52.2766 40.4427Z" fill="black"/>
<path d="M67 65.9123C67 65.9238 66.9978 65.9352 66.9933 65.9459C66.9889 65.9565 66.9824 65.9662 66.9742 65.9744C66.9659 65.9825 66.9562 65.989 66.9454 65.9934C66.9347 65.9978 66.9232 66 66.9115 66H24.964C24.9405 66 24.918 65.9908 24.9014 65.9743C24.8848 65.9579 24.8755 65.9355 24.8755 65.9123C24.8755 65.889 24.8848 65.8667 24.9014 65.8502C24.918 65.8337 24.9405 65.8245 24.964 65.8245H66.9115C66.9232 65.8245 66.9347 65.8267 66.9454 65.8311C66.9562 65.8355 66.9659 65.842 66.9742 65.8501C66.9824 65.8583 66.9889 65.868 66.9933 65.8786C66.9978 65.8893 67 65.9007 67 65.9123Z" fill="#CACACA"/>
</g>
<defs>
<clipPath id="clip0_160_2310">
<rect width="54" height="52" fill="white" transform="translate(13 14)"/>
</clipPath>
</defs>
</svg>
