<svg width="80" height="80" viewBox="0 0 80 80" fill="none" xmlns="http://www.w3.org/2000/svg">
<circle cx="40" cy="40" r="40" fill="white"/>
<g clip-path="url(#clip0_160_2134)">
<path d="M41.6191 21.1418C41.9319 21.1418 42.1855 20.8862 42.1855 20.5709C42.1855 20.2556 41.9319 20 41.6191 20C41.3063 20 41.0527 20.2556 41.0527 20.5709C41.0527 20.8862 41.3063 21.1418 41.6191 21.1418Z" fill="#F2F2F2"/>
<path d="M41.6191 23.417C41.9319 23.417 42.1855 23.1614 42.1855 22.8461C42.1855 22.5308 41.9319 22.2752 41.6191 22.2752C41.3063 22.2752 41.0527 22.5308 41.0527 22.8461C41.0527 23.1614 41.3063 23.417 41.6191 23.417Z" fill="#F2F2F2"/>
<path d="M43.9838 21.1418C44.2966 21.1418 44.5502 20.8862 44.5502 20.5709C44.5502 20.2556 44.2966 20 43.9838 20C43.671 20 43.4174 20.2556 43.4174 20.5709C43.4174 20.8862 43.671 21.1418 43.9838 21.1418Z" fill="#F2F2F2"/>
<path d="M43.9838 23.417C44.2966 23.417 44.5502 23.1614 44.5502 22.8461C44.5502 22.5308 44.2966 22.2752 43.9838 22.2752C43.671 22.2752 43.4174 22.5308 43.4174 22.8461C43.4174 23.1614 43.671 23.417 43.9838 23.417Z" fill="#F2F2F2"/>
<path d="M46.3486 21.1418C46.6614 21.1418 46.915 20.8862 46.915 20.5709C46.915 20.2556 46.6614 20 46.3486 20C46.0358 20 45.7822 20.2556 45.7822 20.5709C45.7822 20.8862 46.0358 21.1418 46.3486 21.1418Z" fill="#F2F2F2"/>
<path d="M46.3486 23.417C46.6614 23.417 46.915 23.1614 46.915 22.8461C46.915 22.5308 46.6614 22.2752 46.3486 22.2752C46.0358 22.2752 45.7822 22.5308 45.7822 22.8461C45.7822 23.1614 46.0358 23.417 46.3486 23.417Z" fill="#F2F2F2"/>
<path d="M46.3486 25.6922C46.6614 25.6922 46.915 25.4366 46.915 25.1213C46.915 24.806 46.6614 24.5505 46.3486 24.5505C46.0358 24.5505 45.7822 24.806 45.7822 25.1213C45.7822 25.4366 46.0358 25.6922 46.3486 25.6922Z" fill="#F2F2F2"/>
<path d="M46.3486 27.9674C46.6614 27.9674 46.915 27.7119 46.915 27.3966C46.915 27.0813 46.6614 26.8257 46.3486 26.8257C46.0358 26.8257 45.7822 27.0813 45.7822 27.3966C45.7822 27.7119 46.0358 27.9674 46.3486 27.9674Z" fill="#F2F2F2"/>
<path d="M48.7133 21.1418C49.0261 21.1418 49.2797 20.8862 49.2797 20.5709C49.2797 20.2556 49.0261 20 48.7133 20C48.4005 20 48.1469 20.2556 48.1469 20.5709C48.1469 20.8862 48.4005 21.1418 48.7133 21.1418Z" fill="#F2F2F2"/>
<path d="M48.7133 23.417C49.0261 23.417 49.2797 23.1614 49.2797 22.8461C49.2797 22.5308 49.0261 22.2752 48.7133 22.2752C48.4005 22.2752 48.1469 22.5308 48.1469 22.8461C48.1469 23.1614 48.4005 23.417 48.7133 23.417Z" fill="#F2F2F2"/>
<path d="M48.7133 25.6922C49.0261 25.6922 49.2797 25.4366 49.2797 25.1213C49.2797 24.806 49.0261 24.5505 48.7133 24.5505C48.4005 24.5505 48.1469 24.806 48.1469 25.1213C48.1469 25.4366 48.4005 25.6922 48.7133 25.6922Z" fill="#F2F2F2"/>
<path d="M48.7133 27.9674C49.0261 27.9674 49.2797 27.7119 49.2797 27.3966C49.2797 27.0813 49.0261 26.8257 48.7133 26.8257C48.4005 26.8257 48.1469 27.0813 48.1469 27.3966C48.1469 27.7119 48.4005 27.9674 48.7133 27.9674Z" fill="#F2F2F2"/>
<path d="M51.078 21.1418C51.3908 21.1418 51.6444 20.8862 51.6444 20.5709C51.6444 20.2556 51.3908 20 51.078 20C50.7652 20 50.5116 20.2556 50.5116 20.5709C50.5116 20.8862 50.7652 21.1418 51.078 21.1418Z" fill="#F2F2F2"/>
<path d="M51.078 23.417C51.3908 23.417 51.6444 23.1614 51.6444 22.8461C51.6444 22.5308 51.3908 22.2752 51.078 22.2752C50.7652 22.2752 50.5116 22.5308 50.5116 22.8461C50.5116 23.1614 50.7652 23.417 51.078 23.417Z" fill="#F2F2F2"/>
<path d="M53.4428 21.1418C53.7556 21.1418 54.0091 20.8862 54.0091 20.5709C54.0091 20.2556 53.7556 20 53.4428 20C53.1299 20 52.8764 20.2556 52.8764 20.5709C52.8764 20.8862 53.1299 21.1418 53.4428 21.1418Z" fill="#F2F2F2"/>
<path d="M53.4428 23.417C53.7556 23.417 54.0091 23.1614 54.0091 22.8461C54.0091 22.5308 53.7556 22.2752 53.4428 22.2752C53.1299 22.2752 52.8764 22.5308 52.8764 22.8461C52.8764 23.1614 53.1299 23.417 53.4428 23.417Z" fill="#F2F2F2"/>
<path d="M70.7336 50.1257H66.5287C66.5287 50.2476 62.1952 50.3464 62.1952 50.3464C62.1271 50.3981 62.0652 50.4573 62.0104 50.523C61.8458 50.7209 61.7558 50.971 61.7564 51.2292V51.4058C61.7565 51.6984 61.8718 51.979 62.0771 52.1859C62.2824 52.3929 62.5608 52.5092 62.8511 52.5093H70.7336C71.0238 52.509 71.3022 52.3927 71.5074 52.1858C71.7127 51.9789 71.8281 51.6984 71.8284 51.4058V51.2292C71.828 50.9367 71.7125 50.6563 71.5073 50.4494C71.302 50.2425 71.0238 50.1262 70.7336 50.1257Z" fill="#3F3D56"/>
<path d="M67.405 52.4654H66.2664V59.8808H67.405V52.4654Z" fill="#3F3D56"/>
<path d="M70.6456 59.8405C70.6456 59.9645 68.9202 59.8885 66.7919 59.8885C64.6636 59.8885 62.9383 59.9645 62.9383 59.8405C62.9383 59.7165 64.6636 58.7332 66.7919 58.7332C68.9202 58.7332 70.6456 59.7165 70.6456 59.8405Z" fill="#3F3D56"/>
<path d="M61.0982 58.8652L60.0245 58.8651L59.5136 54.6906L61.0984 54.6907L61.0982 58.8652Z" fill="#FFB8B8"/>
<path d="M59.2575 58.5559H61.3283V59.8701H57.9537C57.9537 59.5215 58.091 59.1873 58.3355 58.9408C58.5801 58.6943 58.9117 58.5559 59.2575 58.5559Z" fill="#2F2E41"/>
<path d="M59.4221 58.2611L58.3976 57.937L59.1501 53.7999L60.6622 54.2781L59.4221 58.2611Z" fill="#FFB8B8"/>
<path d="M57.7577 57.4105L59.7335 58.0355L59.3431 59.2894L56.1233 58.271C56.1746 58.1063 56.2575 57.9534 56.3674 57.8211C56.4773 57.6887 56.6119 57.5795 56.7637 57.4996C56.9155 57.4197 57.0814 57.3707 57.2519 57.3554C57.4225 57.3401 57.5943 57.3589 57.7577 57.4105Z" fill="#2F2E41"/>
<path d="M67.8579 49.4021C67.8331 49.1918 67.7885 48.9842 67.7248 48.7824L67.5242 48.5281L67.0022 47.8678L66.9795 47.8687C66.9409 47.8705 66.7806 47.8793 66.5328 47.8987H66.5301C66.3769 47.9111 66.1894 47.927 65.9766 47.9473C65.9206 47.9535 65.8619 47.9588 65.8015 47.9649V48.8866H66.8963C66.9495 48.8866 67.0008 48.9062 67.0408 48.9416C67.0807 48.977 67.1066 49.0258 67.1135 49.079C67.1143 49.0887 67.1152 49.0975 67.1152 49.1073C67.1152 49.1658 67.0921 49.2219 67.0511 49.2633C67.01 49.3047 66.9543 49.3279 66.8963 49.328H60.5377C60.4567 49.3822 60.3789 49.4411 60.3048 49.5045C60.0808 49.6793 59.9193 49.9229 59.845 50.1984C59.4736 51.8439 58.7966 54.9124 58.5969 55.8138C58.5824 55.8817 58.5857 55.9522 58.6064 56.0185C58.6272 56.0847 58.6646 56.1444 58.7152 56.1916C58.7524 56.2266 58.7962 56.2539 58.8439 56.2719L59.6339 56.5703C59.6664 56.5824 59.7002 56.5904 59.7346 56.5942C59.739 56.5942 59.7425 56.595 59.7469 56.595C59.755 56.5958 59.7632 56.5961 59.7714 56.5959C59.8513 56.5956 59.9292 56.571 59.995 56.5253C60.0608 56.4796 60.1114 56.415 60.1401 56.3399L60.7637 54.6909L61.7245 52.1485L62.1046 51.143C62.5451 51.2471 66.2411 52.0717 67.4787 50.7431C67.6008 50.6122 67.6971 50.4591 67.7625 50.292C67.8666 50.0078 67.8994 49.7021 67.8579 49.4021Z" fill="#2F2E41"/>
<path d="M68.9299 49.6422C68.9107 49.5637 68.8888 49.4824 68.8634 49.4003L68.1408 48.4858L68.1181 48.4867C68.0725 48.4893 67.8562 48.5008 67.5242 48.5282C67.1476 48.5599 66.6212 48.6111 66.03 48.6915C66.0126 48.6932 65.9942 48.6959 65.9766 48.6985C65.9188 48.7065 65.8601 48.7144 65.8015 48.7232V48.8866H66.8963C66.9495 48.8866 67.0008 48.9062 67.0408 48.9416C67.0807 48.977 67.1066 49.0258 67.1135 49.079C67.1143 49.0887 67.1152 49.0975 67.1152 49.1073C67.1152 49.1658 67.0921 49.2219 67.0511 49.2633C67.01 49.3047 66.9543 49.3279 66.8963 49.328H63.0268C62.8578 49.3836 62.6949 49.4418 62.539 49.5045C61.721 49.8311 61.1088 50.2593 60.9835 50.8163C60.9415 51.0035 60.8951 51.2092 60.846 51.4281C60.6639 52.242 60.4423 53.2387 60.2417 54.1444V54.1453C60.2005 54.3325 60.1594 54.5143 60.12 54.6909C59.9527 55.4501 59.8108 56.0936 59.7355 56.4317C59.7337 56.4414 59.732 56.4503 59.7302 56.46V56.4617C59.7215 56.5301 59.7299 56.5996 59.7548 56.6639L59.7556 56.6648V56.6656C59.7797 56.7272 59.8189 56.7815 59.8695 56.8237C59.9033 56.8518 59.9415 56.8742 59.9825 56.8899L60.7725 57.1883C60.8165 57.2048 60.863 57.2135 60.91 57.2139C60.9758 57.214 61.0406 57.1973 61.0983 57.1653C61.1811 57.1201 61.2451 57.0465 61.2787 56.9578L62.9795 52.4592L63.2432 51.7609C63.6837 51.8651 67.3797 52.6887 68.6172 51.361C68.8617 51.0943 69.0012 50.7468 69.0096 50.3838C69.0183 50.134 68.9914 49.8843 68.9299 49.6422Z" fill="#2F2E41"/>
<path d="M68.8327 41.8543C68.8187 41.8375 68.8038 41.8208 68.788 41.8049C68.5548 41.5577 68.2667 41.3697 67.9475 41.2563C67.6282 41.1429 67.2869 41.1073 66.9514 41.1525C66.6588 41.1912 66.3689 41.2487 66.0835 41.3246C65.7149 41.4202 65.3774 41.6109 65.1043 41.8781C64.8916 42.086 64.7241 42.3362 64.6124 42.6127C64.5006 42.8893 64.4472 43.1863 64.4553 43.4848C64.4588 43.6057 64.4597 43.7293 64.458 43.8547C64.458 43.913 64.4571 43.9721 64.4562 44.0312H65.3198C65.3572 44.0311 65.3946 44.0356 65.431 44.0445C65.5364 44.0699 65.6302 44.1303 65.6974 44.2159C65.7646 44.3016 65.8013 44.4076 65.8015 44.5168V48.6235C65.8601 48.6403 65.9188 48.657 65.9766 48.6747C65.995 48.6809 66.0126 48.6862 66.03 48.6915C66.0502 48.6976 66.0703 48.7038 66.0896 48.71C66.2674 48.7656 66.4411 48.8245 66.6107 48.8866H66.8963C66.9495 48.8866 67.0008 48.9062 67.0408 48.9416C67.0807 48.977 67.1066 49.0258 67.1135 49.079C67.173 49.1028 67.2308 49.1267 67.2877 49.1505C67.49 49.2353 67.6818 49.32 67.8579 49.4021C68.0953 49.5116 68.3063 49.6157 68.4833 49.7067C68.5389 49.7352 68.6004 49.7503 68.6628 49.7508C68.7448 49.7505 68.8245 49.7239 68.8905 49.6749C68.9042 49.6647 68.9173 49.6538 68.9299 49.6422C68.9768 49.5979 69.0122 49.5428 69.0331 49.4815C69.054 49.4203 69.0598 49.3549 69.0499 49.2909C68.9595 48.5974 68.9331 47.897 68.9711 47.1987C68.9956 46.6116 69.0481 46.0096 69.1165 45.4278C69.1533 45.1127 69.1944 44.8037 69.2373 44.5062C69.2785 44.2219 69.3223 43.9491 69.3652 43.6914C69.4215 43.3645 69.4028 43.029 69.3105 42.7105C69.2182 42.3921 69.0547 42.0992 68.8327 41.8543Z" fill="#00BFA6"/>
<path d="M65.2427 41.9267C65.1978 41.9072 65.1515 41.891 65.1043 41.8781C64.8709 41.8148 64.6227 41.8382 64.405 41.944C64.1873 42.0498 64.0146 42.2311 63.9184 42.4546L63.3167 43.8547L63.2414 44.0313H65.3198C65.3572 44.0311 65.3946 44.0356 65.431 44.0445L65.501 43.8812L65.7673 43.2615C65.8731 43.0143 65.8772 42.735 65.7789 42.4847C65.6805 42.2345 65.4877 42.0338 65.2427 41.9267Z" fill="#00BFA6"/>
<path d="M67.1113 40.4632C68.2994 40.4632 69.2625 39.4924 69.2625 38.295C69.2625 37.0975 68.2994 36.1267 67.1113 36.1267C65.9233 36.1267 64.9602 37.0975 64.9602 38.295C64.9602 39.4924 65.9233 40.4632 67.1113 40.4632Z" fill="#FFB8B8"/>
<path d="M69.2373 44.5062L68.0094 44.5397L67.9201 45.4093L67.8999 45.6106L65.9766 46.481L65.8015 46.5604V48.1079L65.9766 48.0576L66.5301 47.8987H66.5328L68.9711 47.1987L68.9991 47.1907C69.1961 47.1334 69.3695 47.0135 69.4935 46.8489C69.6176 46.6843 69.6856 46.4837 69.6875 46.2771L69.6936 45.2504L69.6989 44.4938L69.2373 44.5062Z" fill="#FFB8B8"/>
<path d="M69.6367 42.7865C69.6286 42.6534 69.5946 42.5233 69.5366 42.4034C69.4785 42.2836 69.3977 42.1765 69.2986 42.0882C69.0984 41.9098 68.8362 41.8188 68.5695 41.8353C68.3029 41.8518 68.0536 41.9744 67.8766 42.1762C67.6997 42.3779 67.6094 42.6422 67.6258 42.911L67.7598 45.1144C67.7634 45.1724 67.7797 45.2289 67.8074 45.2799C67.8351 45.3308 67.8735 45.375 67.9201 45.4093C67.9941 45.4649 68.0854 45.4921 68.1776 45.4861L69.1165 45.4278L69.4011 45.4102C69.453 45.4076 69.5038 45.3945 69.5504 45.3715C69.5971 45.3486 69.6387 45.3164 69.6726 45.2769C69.6802 45.2685 69.6872 45.2596 69.6936 45.2504C69.7493 45.1753 69.7766 45.0826 69.7707 44.9891L69.6367 42.7865Z" fill="#00BFA6"/>
<path d="M66.0896 48.71H65.9766V48.6985C65.9188 48.7065 65.8601 48.7144 65.8015 48.7232V48.8866H66.6107C66.4408 48.8248 66.2671 48.7659 66.0896 48.71ZM66.0896 48.71H65.9766V48.6985C65.9188 48.7065 65.8601 48.7144 65.8015 48.7232V48.8866H66.6107C66.4408 48.8248 66.2671 48.7659 66.0896 48.71ZM66.8963 48.71H65.9766V44.5168C65.9763 44.3732 65.9298 44.2336 65.844 44.119C65.7583 44.0044 65.6379 43.9209 65.501 43.8812C65.4423 43.8633 65.3812 43.8544 65.3198 43.8547H57.5249C57.3508 43.8549 57.1838 43.9247 57.0607 44.0488C56.9375 44.173 56.8683 44.3412 56.868 44.5168V48.8424C56.8681 49.018 56.9373 49.1864 57.0605 49.3105C57.1837 49.4347 57.3507 49.5044 57.5249 49.5045H66.8963C66.9933 49.5043 67.0868 49.4681 67.159 49.4028C67.2313 49.3375 67.2771 49.2477 67.2877 49.1505C67.2895 49.1362 67.2904 49.1217 67.2904 49.1073C67.2902 49.0019 67.2486 48.901 67.1748 48.8265C67.1009 48.7521 67.0007 48.7102 66.8963 48.71ZM67.1152 49.1073C67.1152 49.1658 67.0921 49.2219 67.0511 49.2633C67.01 49.3047 66.9543 49.3279 66.8963 49.328H57.5249C57.3972 49.3279 57.2747 49.2767 57.1844 49.1857C57.0941 49.0946 57.0433 48.9712 57.0432 48.8424V44.5168C57.0433 44.388 57.0941 44.2646 57.1844 44.1735C57.2747 44.0825 57.3972 44.0313 57.5249 44.0312H65.3198C65.3572 44.0311 65.3946 44.0356 65.431 44.0445C65.5364 44.0699 65.6302 44.1303 65.6974 44.2159C65.7646 44.3016 65.8013 44.4076 65.8015 44.5168V48.8866H66.8963C66.9495 48.8866 67.0008 48.9062 67.0408 48.9416C67.0807 48.977 67.1066 49.0258 67.1135 49.079C67.1143 49.0887 67.1152 49.0975 67.1152 49.1073ZM66.0896 48.71H65.9766V48.6985C65.9188 48.7065 65.8601 48.7144 65.8015 48.7232V48.8866H66.6107C66.4408 48.8248 66.2671 48.7659 66.0896 48.71Z" fill="#3F3D56"/>
<path d="M61.4221 47.2094C61.7123 47.2094 61.9476 46.9723 61.9476 46.6797C61.9476 46.3872 61.7123 46.1501 61.4221 46.1501C61.1318 46.1501 60.8966 46.3872 60.8966 46.6797C60.8966 46.9723 61.1318 47.2094 61.4221 47.2094Z" fill="#00BFA6"/>
<path d="M66.652 37.4349C66.1524 37.8848 65.4825 38.3677 64.8707 38.0381C64.469 37.8216 64.2901 37.347 64.3839 36.8977C64.5527 36.0898 65.2456 35.6532 65.9165 35.3003C66.7888 34.8416 67.7513 34.4415 68.728 34.5608C69.7047 34.68 70.6589 35.4935 70.6128 36.4841C70.5757 37.2806 69.9304 38.0238 70.1347 38.7942C70.3403 39.5696 71.274 39.8698 72.0693 39.9093C72.8646 39.9487 73.7401 39.8804 74.3709 40.37C75.1758 40.9947 75.1629 42.3009 74.5899 43.1463C74.017 43.9917 73.0495 44.4675 72.0992 44.8291C70.8401 45.3083 69.4562 45.6545 68.1565 45.3022C66.8568 44.9499 65.7191 43.6931 65.9097 42.3503C65.9902 41.7831 66.2863 41.2739 66.572 40.7785C66.8577 40.2831 67.1451 39.7666 67.2051 39.1968C67.2551 38.722 67.1054 38.1978 66.758 37.892C66.6951 37.8387 66.6506 37.7667 66.6308 37.6863C66.611 37.606 66.617 37.5214 66.648 37.4447L66.652 37.4349Z" fill="#2F2E41"/>
<path d="M6.10428 60H73.8314C73.8591 60 73.8856 59.9889 73.9051 59.9692C73.9247 59.9495 73.9357 59.9228 73.9357 59.8949C73.9357 59.867 73.9247 59.8403 73.9051 59.8206C73.8856 59.8009 73.8591 59.7898 73.8314 59.7898H6.10428C6.09056 59.7897 6.07697 59.7924 6.06428 59.7977C6.05159 59.803 6.04006 59.8107 6.03035 59.8205C6.02063 59.8302 6.01292 59.8418 6.00766 59.8546C6.0024 59.8674 5.99969 59.8811 5.99969 59.8949C5.99969 59.9087 6.0024 59.9224 6.00766 59.9352C6.01292 59.948 6.02063 59.9596 6.03035 59.9693C6.04006 59.9791 6.05159 59.9868 6.06428 59.9921C6.07697 59.9974 6.09056 60 6.10428 60Z" fill="#3F3D56"/>
<path d="M9.54097 51.2292V51.4058C9.54122 51.6984 9.65665 51.9789 9.8619 52.1858C10.0672 52.3927 10.3455 52.509 10.6358 52.5093H18.5182C18.8085 52.5092 19.0869 52.3929 19.2922 52.1859C19.4975 51.979 19.6129 51.6984 19.613 51.4058V51.2292C19.6135 50.971 19.5236 50.7209 19.3589 50.523C19.3042 50.4573 19.2422 50.3981 19.1742 50.3464C19.1742 50.3464 14.8406 50.2476 14.8406 50.1257H10.6358C10.3455 50.1262 10.0673 50.2425 9.86207 50.4494C9.65684 50.6563 9.54137 50.9367 9.54097 51.2292Z" fill="#3F3D56"/>
<path d="M13.9643 59.8808H15.1029L15.1029 52.4654H13.9643V59.8808Z" fill="#3F3D56"/>
<path d="M10.7238 59.8405C10.7238 59.9645 12.4491 59.8885 14.5774 59.8885C16.7057 59.8885 18.431 59.9645 18.431 59.8405C18.431 59.7165 16.7057 58.7332 14.5774 58.7332C12.4491 58.7332 10.7238 59.7165 10.7238 59.8405Z" fill="#3F3D56"/>
<path d="M20.3224 58.9324H21.3961L21.9069 54.7579L20.3222 54.7579L20.3224 58.9324Z" fill="#A0616A"/>
<path d="M23.467 59.9372L20.0924 59.9374L20.0923 58.6232L22.1631 58.6231C22.5089 58.6231 22.8405 58.7615 23.0851 59.008C23.3296 59.2544 23.467 59.5887 23.467 59.9372Z" fill="#2F2E41"/>
<path d="M21.9985 58.3284L23.023 58.0043L22.2705 53.8671L20.7585 54.3454L21.9985 58.3284Z" fill="#A0616A"/>
<path d="M25.2973 58.3382L22.0775 59.3567L21.6871 58.1028L23.6629 57.4778C23.9929 57.3734 24.3504 57.4055 24.6569 57.5668C24.9634 57.7282 25.1938 58.0057 25.2973 58.3382Z" fill="#2F2E41"/>
<path d="M21.2802 56.407L19.3159 51.2099C18.8753 51.3143 15.1797 52.1385 13.942 50.8102C13.5178 50.3549 13.4351 49.6953 13.6961 48.8497L14.4184 47.9348L14.4409 47.936C14.714 47.9505 21.1353 48.3132 21.5755 50.2655C21.9466 51.9114 22.6244 54.9801 22.8233 55.8814C22.8434 55.9748 22.8296 56.0723 22.7844 56.1563C22.7392 56.2403 22.6655 56.3051 22.5768 56.339L21.7869 56.6375C21.7429 56.6542 21.6962 56.6628 21.6492 56.6628C21.5692 56.6628 21.4912 56.6383 21.4253 56.5926C21.3594 56.547 21.3088 56.4822 21.2802 56.407Z" fill="#2F2E41"/>
<path d="M20.1416 57.0249L18.1774 51.8279C17.7367 51.9322 14.0411 52.7564 12.8034 51.4281C12.3792 50.9729 12.2965 50.3133 12.5575 49.4677L13.2798 48.5527L13.3023 48.5539C13.5754 48.5684 19.9967 48.9312 20.4369 50.8835C20.808 52.5294 21.4858 55.598 21.6847 56.4993C21.7049 56.5927 21.6911 56.6903 21.6458 56.7743C21.6006 56.8583 21.5269 56.9231 21.4382 56.9569L20.6483 57.2555C20.6043 57.2722 20.5577 57.2807 20.5106 57.2807C20.4307 57.2807 20.3526 57.2563 20.2867 57.2106C20.2208 57.1649 20.1702 57.1002 20.1416 57.0249Z" fill="#2F2E41"/>
<path d="M18.3748 46.942C18.0836 46.9419 17.7975 46.8656 17.5445 46.7205C17.2914 46.5755 17.08 46.3668 16.931 46.1147L16.3072 45.0495L17.7899 44.2327L18.4195 45.1027L22.6912 44.6491C22.712 44.6112 22.7354 44.5748 22.7612 44.5402C22.8432 44.4315 22.9469 44.3414 23.0657 44.2757C23.1846 44.2101 23.3157 44.1705 23.4508 44.1593C23.5864 44.1476 23.7229 44.1653 23.8512 44.2112C23.9795 44.257 24.0966 44.33 24.1946 44.4253C24.3517 44.5771 24.4532 44.778 24.4828 44.9954C24.5124 45.2127 24.4682 45.4338 24.3575 45.6226C24.2882 45.7403 24.195 45.8419 24.0841 45.9208C23.9731 45.9996 23.8469 46.054 23.7136 46.0802C23.5804 46.1065 23.4432 46.1041 23.3109 46.0731C23.1787 46.0422 23.0544 45.9835 22.9462 45.9008C22.9211 45.8815 22.8971 45.8608 22.8741 45.839L18.7828 46.8904C18.6494 46.9247 18.5124 46.942 18.3748 46.942Z" fill="#A0616A"/>
<path d="M12.5297 49.7421C12.4706 49.6991 12.4244 49.6405 12.3963 49.5728C12.3682 49.505 12.3593 49.4307 12.3705 49.3582C12.6142 47.7389 12.3338 45.4193 12.0556 43.7584C11.9987 43.4215 12.0208 43.0757 12.1203 42.7489C12.2198 42.4221 12.3938 42.1234 12.6284 41.8766C12.8631 41.6297 13.1518 41.4417 13.4715 41.3276C13.7911 41.2135 14.1329 41.1764 14.4693 41.2194C14.7621 41.2584 15.052 41.316 15.3375 41.3919C15.8118 41.5123 16.2312 41.7917 16.527 42.1843C16.8228 42.5768 16.9772 43.0591 16.965 43.5519C16.9234 45.1545 17.2463 47.1541 17.387 47.9394C17.3966 47.9934 17.3951 48.0487 17.3825 48.1021C17.3699 48.1554 17.3466 48.2055 17.314 48.2493C17.282 48.2927 17.2413 48.3289 17.1946 48.3555C17.1479 48.3821 17.0962 48.3986 17.0429 48.4038C15.4832 48.5643 13.8012 49.3309 12.9375 49.7736C12.882 49.8025 12.8204 49.8176 12.758 49.8178C12.6759 49.8176 12.5959 49.791 12.5297 49.7421Z" fill="#CCCCCC"/>
<path d="M16.7399 45.5655C16.6917 45.5464 16.6477 45.5179 16.6105 45.4815C16.5734 45.4452 16.5437 45.4018 16.5233 45.3538L15.6534 43.3285C15.6008 43.2061 15.5725 43.0745 15.5704 42.9411C15.5682 42.8078 15.5921 42.6753 15.6408 42.5512C15.6894 42.4272 15.7619 42.314 15.8539 42.2182C15.946 42.1224 16.0559 42.0458 16.1773 41.9928C16.2988 41.9398 16.4294 41.9115 16.5617 41.9094C16.694 41.9074 16.8255 41.9316 16.9485 41.9807C17.0715 42.0299 17.1837 42.103 17.2787 42.1958C17.3737 42.2887 17.4496 42.3996 17.5021 42.522L18.3719 44.5473C18.4133 44.644 18.4149 44.7533 18.3765 44.8512C18.338 44.9492 18.2626 45.0277 18.1668 45.0697L17.0415 45.5606C16.9941 45.5815 16.943 45.5927 16.8912 45.5935C16.8394 45.5944 16.788 45.5848 16.7399 45.5655Z" fill="#CCCCCC"/>
<path d="M14.3093 40.5304C15.4973 40.5304 16.4604 39.5597 16.4604 38.3622C16.4604 37.1647 15.4973 36.194 14.3093 36.194C13.1212 36.194 12.1581 37.1647 12.1581 38.3622C12.1581 39.5597 13.1212 40.5304 14.3093 40.5304Z" fill="#A0616A"/>
<path d="M13.0093 40.2885C12.9788 40.324 12.9416 40.3529 12.8998 40.3736C12.8581 40.3943 12.8126 40.4064 12.7662 40.409C12.7197 40.4117 12.6732 40.405 12.6293 40.3893C12.5855 40.3735 12.5452 40.3491 12.5109 40.3174C12.0313 39.926 11.6508 39.4252 11.4011 38.8565C11.1214 38.1846 11.0804 37.3646 11.3987 36.7349C11.6678 36.2025 12.1507 35.8636 12.6329 35.5866C12.8177 35.4692 13.0203 35.3829 13.2327 35.3311C13.3399 35.3066 13.4511 35.3049 13.559 35.3263C13.6669 35.3477 13.7692 35.3916 13.8592 35.4553C13.9548 35.5285 14.0287 35.6266 14.0731 35.739C14.1175 35.8514 14.1307 35.9739 14.1113 36.0933C14.3318 35.8004 14.6292 35.5755 14.9698 35.4439C15.1788 35.3532 15.4122 35.3374 15.6314 35.3992C15.941 35.5034 16.1702 35.8185 16.2978 36.1572C16.4009 36.4164 16.4387 36.6974 16.4077 36.975C16.3942 37.1075 16.3541 37.2359 16.2898 37.3523C16.2255 37.4687 16.1384 37.5707 16.0338 37.6522C15.7812 37.8278 15.4558 37.81 15.1621 37.7323C14.8684 37.6545 14.5833 37.5227 14.2844 37.4859C13.9855 37.4492 13.6543 37.5289 13.4763 37.7975C13.3509 37.9868 13.3213 38.236 13.2957 38.4736L13.1626 39.7094C13.1532 39.8862 13.1154 40.0603 13.0507 40.2249C13.0398 40.2479 13.0258 40.2692 13.0093 40.2885Z" fill="#2F2E41"/>
<path d="M20.7899 53.6424H17.2978C17.2412 53.6426 17.1853 53.6297 17.1344 53.6049C17.0834 53.58 17.0388 53.5437 17.0039 53.4988C16.9682 53.4533 16.9433 53.4002 16.931 53.3436C16.9188 53.2869 16.9195 53.2281 16.9332 53.1718C17.2599 51.7927 17.2599 50.3554 16.9332 48.9763C16.9195 48.92 16.9188 48.8613 16.931 48.8046C16.9433 48.7479 16.9682 48.6948 17.0039 48.6493C17.0388 48.6044 17.0834 48.5682 17.1344 48.5433C17.1853 48.5184 17.2412 48.5056 17.2978 48.5058H20.7899C20.8791 48.5059 20.9654 48.538 21.0334 48.5963C21.1013 48.6546 21.1466 48.7353 21.161 48.8241C21.3888 50.3153 21.3888 51.8329 21.161 53.3241C21.1466 53.4128 21.1013 53.4935 21.0334 53.5518C20.9654 53.6101 20.8791 53.6422 20.7899 53.6424Z" fill="#CCCCCC"/>
<path d="M18.1097 50.4193V50.3159C18.1097 50.2457 18.1374 50.1784 18.1867 50.1287C18.236 50.0791 18.3028 50.0511 18.3724 50.051H20.205C20.2746 50.0511 20.3414 50.0791 20.3907 50.1287C20.4399 50.1784 20.4676 50.2457 20.4677 50.3159V50.4193C20.4676 50.4895 20.4399 50.5569 20.3907 50.6065C20.3414 50.6562 20.2746 50.6841 20.205 50.6842H18.3724C18.3028 50.6841 18.236 50.6562 18.1867 50.6065C18.1374 50.5569 18.1097 50.4895 18.1097 50.4193Z" fill="white"/>
<path d="M18.1097 51.5091V51.4056C18.1097 51.3354 18.1374 51.2681 18.1867 51.2184C18.236 51.1688 18.3028 51.1409 18.3724 51.1408H20.205C20.2746 51.1409 20.3414 51.1688 20.3907 51.2184C20.4399 51.2681 20.4676 51.3354 20.4677 51.4056V51.5091C20.4676 51.5793 20.4399 51.6466 20.3907 51.6963C20.3414 51.7459 20.2746 51.7739 20.205 51.7739H18.3724C18.3028 51.7739 18.236 51.7459 18.1867 51.6963C18.1374 51.6466 18.1097 51.5793 18.1097 51.5091Z" fill="white"/>
<path d="M19.2362 47.264C19.1999 47.2177 19.1746 47.1638 19.1621 47.1061C19.1497 47.0485 19.1504 46.9888 19.1643 46.9315C19.4964 45.5298 19.4963 44.0689 19.1643 42.6672C19.1504 42.6099 19.1497 42.5502 19.1621 42.4926C19.1746 42.435 19.1999 42.381 19.2362 42.3347C19.2717 42.2891 19.3171 42.2523 19.3688 42.227C19.4206 42.2017 19.4774 42.1887 19.5349 42.1889H23.0844C23.1751 42.189 23.2628 42.2216 23.3318 42.2809C23.4009 42.3401 23.4469 42.4222 23.4616 42.5124C23.6931 44.0281 23.6931 45.5706 23.4616 47.0863C23.4469 47.1766 23.4009 47.2586 23.3318 47.3178C23.2628 47.3771 23.1751 47.4097 23.0844 47.4099H19.5349C19.4774 47.4101 19.4206 47.397 19.3688 47.3717C19.3171 47.3465 19.2717 47.3096 19.2362 47.264Z" fill="#00BFA6"/>
<path d="M22.3994 44.1152H20.5296C20.4599 44.1152 20.3931 44.0872 20.3439 44.0376C20.2946 43.9879 20.2669 43.9206 20.2668 43.8504V43.7379C20.2669 43.6677 20.2946 43.6004 20.3439 43.5508C20.3931 43.5011 20.4599 43.4732 20.5296 43.4731H22.3994C22.4691 43.4732 22.5359 43.5011 22.5851 43.5508C22.6344 43.6004 22.6621 43.6677 22.6622 43.7379V43.8504C22.6621 43.9206 22.6344 43.9879 22.5851 44.0376C22.5359 44.0872 22.4691 44.1152 22.3994 44.1152Z" fill="white"/>
<path d="M22.3994 45.2229H20.5296C20.4599 45.2228 20.3931 45.1949 20.3439 45.1452C20.2946 45.0956 20.2669 45.0283 20.2668 44.9581V44.8456C20.2669 44.7754 20.2946 44.7081 20.3439 44.6584C20.3931 44.6088 20.4599 44.5808 20.5296 44.5808H22.3994C22.4691 44.5808 22.5359 44.6088 22.5851 44.6584C22.6344 44.7081 22.6621 44.7754 22.6622 44.8456V44.9581C22.6621 45.0283 22.6344 45.0956 22.5851 45.1452C22.5359 45.1949 22.4691 45.2228 22.3994 45.2229Z" fill="white"/>
<path d="M17.6076 49.206C17.4797 49.1609 17.3626 49.0892 17.264 48.9956C17.1655 48.9019 17.0875 48.7884 17.0353 48.6624C17.0233 48.633 17.0128 48.6029 17.0039 48.5724L12.4214 47.2577C12.2245 47.2004 12.0511 47.0806 11.9271 46.9161C11.8031 46.7516 11.735 46.5512 11.7329 46.3446L11.7217 44.5613L13.4108 44.6068L13.5209 45.678L17.4394 47.4513C17.4763 47.429 17.5147 47.4094 17.5543 47.3926C17.6986 47.3316 17.8555 47.3069 18.0114 47.3207C18.1674 47.3345 18.3176 47.3863 18.4492 47.4717C18.5808 47.5572 18.6898 47.6736 18.7668 47.8109C18.8437 47.9483 18.8864 48.1025 18.891 48.2602C18.8956 48.4178 18.8621 48.5743 18.7934 48.716C18.7246 48.8577 18.6226 48.9804 18.4963 49.0735C18.3699 49.1667 18.223 49.2274 18.0682 49.2504C17.9133 49.2735 17.7553 49.2582 17.6076 49.206Z" fill="#A0616A"/>
<path d="M11.748 45.3442C11.7136 45.3052 11.6872 45.2596 11.6704 45.2103C11.6535 45.1609 11.6466 45.1087 11.6499 45.0566L11.7843 42.8538C11.7922 42.7206 11.8261 42.5902 11.884 42.4702C11.9419 42.3502 12.0228 42.2429 12.1219 42.1544C12.221 42.066 12.3365 41.9981 12.4617 41.9546C12.5869 41.9111 12.7193 41.893 12.8515 41.9012C12.9836 41.9094 13.1129 41.9438 13.2319 42.0024C13.3508 42.061 13.4572 42.1426 13.5448 42.2427C13.6324 42.3427 13.6996 42.4592 13.7425 42.5855C13.7854 42.7118 13.8032 42.8453 13.7948 42.9785L13.6605 45.1813C13.6539 45.2864 13.6063 45.3846 13.528 45.4543C13.4497 45.5241 13.3472 45.5597 13.2429 45.5534L12.0191 45.4775C11.9674 45.4745 11.9168 45.4611 11.8703 45.4382C11.8237 45.4153 11.7822 45.3834 11.748 45.3442Z" fill="#CCCCCC"/>
<path d="M31.4447 33.5122H24.2629C24.0539 33.512 23.8536 33.4282 23.7058 33.2793C23.558 33.1303 23.4749 32.9284 23.4747 32.7177V24.861C23.4749 24.6503 23.558 24.4484 23.7058 24.2994C23.8536 24.1505 24.0539 24.0667 24.2629 24.0664H31.4447C31.6537 24.0667 31.854 24.1505 32.0018 24.2994C32.1496 24.4484 32.2327 24.6503 32.2329 24.861V32.7177C32.2327 32.9284 32.1496 33.1303 32.0018 33.2793C31.854 33.4282 31.6537 33.512 31.4447 33.5122ZM24.2629 24.243C24.1004 24.2432 23.9445 24.3083 23.8296 24.4242C23.7147 24.54 23.65 24.6971 23.6498 24.861V32.7177C23.65 32.8816 23.7147 33.0386 23.8296 33.1545C23.9445 33.2703 24.1004 33.3355 24.2629 33.3357H31.4447C31.6072 33.3355 31.7631 33.2703 31.878 33.1545C31.9929 33.0386 32.0576 32.8816 32.0578 32.7177V24.861C32.0576 24.6971 31.9929 24.54 31.878 24.4242C31.7631 24.3083 31.6072 24.2432 31.4447 24.243H24.2629Z" fill="#3F3D56"/>
<path d="M44.5821 33.5122H37.4003C37.1913 33.512 36.991 33.4282 36.8432 33.2793C36.6954 33.1303 36.6123 32.9284 36.6121 32.7177V24.861C36.6123 24.6503 36.6954 24.4484 36.8432 24.2994C36.991 24.1505 37.1913 24.0667 37.4003 24.0664H44.5821C44.7911 24.0667 44.9914 24.1505 45.1392 24.2994C45.287 24.4484 45.3701 24.6503 45.3703 24.861V32.7177C45.3701 32.9284 45.287 33.1303 45.1392 33.2793C44.9914 33.4282 44.7911 33.512 44.5821 33.5122ZM37.4003 24.243C37.2378 24.2432 37.0819 24.3083 36.967 24.4242C36.8521 24.54 36.7874 24.6971 36.7872 24.861V32.7177C36.7874 32.8816 36.8521 33.0386 36.967 33.1545C37.0819 33.2703 37.2378 33.3355 37.4003 33.3357H44.5821C44.7446 33.3355 44.9005 33.2703 45.0154 33.1545C45.1303 33.0386 45.195 32.8816 45.1952 32.7177V24.861C45.195 24.6971 45.1303 24.54 45.0154 24.4242C44.9005 24.3083 44.7446 24.2432 44.5821 24.243H37.4003Z" fill="#3F3D56"/>
<path d="M25.7093 27.3327H25.0087C24.9042 27.3326 24.804 27.2907 24.7301 27.2163C24.6562 27.1418 24.6147 27.0408 24.6146 26.9355V26.2293C24.6147 26.1239 24.6562 26.023 24.7301 25.9485C24.804 25.874 24.9042 25.8321 25.0087 25.832H25.7093C25.8138 25.8321 25.914 25.874 25.9879 25.9485C26.0618 26.023 26.1034 26.1239 26.1035 26.2293V26.9355C26.1034 27.0408 26.0618 27.1418 25.9879 27.2163C25.914 27.2907 25.8138 27.3326 25.7093 27.3327Z" fill="#00BFA6"/>
<path d="M25.7093 29.5397H25.0087C24.9042 29.5396 24.804 29.4977 24.7301 29.4232C24.6562 29.3487 24.6147 29.2478 24.6146 29.1425V28.4362C24.6147 28.3309 24.6562 28.2299 24.7301 28.1555C24.804 28.081 24.9042 28.0391 25.0087 28.039H25.7093C25.8138 28.0391 25.914 28.081 25.9879 28.1555C26.0618 28.2299 26.1034 28.3309 26.1035 28.4362V29.1425C26.1034 29.2478 26.0618 29.3487 25.9879 29.4232C25.914 29.4977 25.8138 29.5396 25.7093 29.5397Z" fill="#CCCCCC"/>
<path d="M30.8303 26.9034H27.5591C27.4895 26.9034 27.4227 26.8754 27.3734 26.8258C27.3242 26.7761 27.2965 26.7088 27.2964 26.6386V26.5261C27.2965 26.4559 27.3242 26.3886 27.3734 26.339C27.4227 26.2893 27.4895 26.2614 27.5591 26.2613H30.8303C30.9 26.2614 30.9667 26.2893 31.016 26.339C31.0653 26.3886 31.093 26.4559 31.093 26.5261V26.6386C31.093 26.7088 31.0653 26.7761 31.016 26.8258C30.9667 26.8754 30.9 26.9034 30.8303 26.9034Z" fill="#00BFA6"/>
<path d="M38.9071 27.1943H38.2065C38.102 27.1942 38.0018 27.1523 37.9279 27.0778C37.854 27.0033 37.8125 26.9024 37.8124 26.797V26.0908C37.8125 25.9855 37.854 25.8845 37.9279 25.81C38.0018 25.7356 38.102 25.6937 38.2065 25.6936H38.9071C39.0116 25.6937 39.1118 25.7356 39.1857 25.81C39.2596 25.8845 39.3012 25.9855 39.3013 26.0908V26.797C39.3012 26.9024 39.2596 27.0033 39.1857 27.0778C39.1118 27.1523 39.0116 27.1942 38.9071 27.1943Z" fill="#CCCCCC"/>
<path d="M44.0281 26.765H40.7569C40.6873 26.7649 40.6205 26.737 40.5712 26.6873C40.522 26.6377 40.4943 26.5704 40.4942 26.5001V26.3877C40.4943 26.3175 40.522 26.2502 40.5712 26.2005C40.6205 26.1509 40.6873 26.1229 40.7569 26.1228H44.0281C44.0978 26.1229 44.1645 26.1509 44.2138 26.2005C44.2631 26.2502 44.2908 26.3175 44.2908 26.3877V26.5001C44.2908 26.5704 44.2631 26.6377 44.2138 26.6873C44.1645 26.737 44.0978 26.7649 44.0281 26.765Z" fill="#CCCCCC"/>
<path d="M44.0281 28.8837H37.9543C37.8846 28.8836 37.8179 28.8557 37.7686 28.806C37.7193 28.7564 37.6916 28.689 37.6916 28.6188V28.5064C37.6916 28.4362 37.7193 28.3688 37.7686 28.3192C37.8179 28.2695 37.8846 28.2416 37.9543 28.2415H44.0281C44.0978 28.2416 44.1645 28.2695 44.2138 28.3192C44.2631 28.3688 44.2908 28.4362 44.2908 28.5064V28.6188C44.2908 28.689 44.2631 28.7564 44.2138 28.806C44.1645 28.8557 44.0978 28.8836 44.0281 28.8837Z" fill="#00BFA6"/>
<path d="M44.0281 30.3844H37.9543C37.8846 30.3843 37.8179 30.3564 37.7686 30.3067C37.7193 30.2571 37.6916 30.1898 37.6916 30.1196V30.0071C37.6916 29.9369 37.7193 29.8696 37.7686 29.8199C37.8179 29.7703 37.8846 29.7423 37.9543 29.7423H44.0281C44.0978 29.7423 44.1645 29.7703 44.2138 29.8199C44.2631 29.8696 44.2908 29.9369 44.2908 30.0071V30.1196C44.2908 30.1898 44.2631 30.2571 44.2138 30.3067C44.1645 30.3564 44.0978 30.3843 44.0281 30.3844Z" fill="#CCCCCC"/>
<path d="M44.0281 31.8851H37.9543C37.8846 31.8851 37.8179 31.8571 37.7686 31.8075C37.7193 31.7578 37.6916 31.6905 37.6916 31.6203V31.5078C37.6916 31.4376 37.7193 31.3703 37.7686 31.3206C37.8179 31.271 37.8846 31.2431 37.9543 31.243H44.0281C44.0978 31.2431 44.1645 31.271 44.2138 31.3206C44.2631 31.3703 44.2908 31.4376 44.2908 31.5078V31.6203C44.2908 31.6905 44.2631 31.7578 44.2138 31.8075C44.1645 31.8571 44.0978 31.8851 44.0281 31.8851Z" fill="#CCCCCC"/>
<path d="M57.7195 33.5122H50.5377C50.3287 33.512 50.1284 33.4282 49.9806 33.2793C49.8328 33.1303 49.7497 32.9284 49.7495 32.7177V24.861C49.7497 24.6503 49.8328 24.4484 49.9806 24.2994C50.1284 24.1505 50.3287 24.0667 50.5377 24.0664H57.7195C57.9285 24.0667 58.1288 24.1505 58.2766 24.2994C58.4244 24.4484 58.5075 24.6503 58.5077 24.861V32.7177C58.5075 32.9284 58.4244 33.1303 58.2766 33.2793C58.1288 33.4282 57.9285 33.512 57.7195 33.5122ZM50.5377 24.243C50.3752 24.2432 50.2193 24.3083 50.1044 24.4242C49.9895 24.54 49.9248 24.6971 49.9246 24.861V32.7177C49.9248 32.8816 49.9895 33.0386 50.1044 33.1545C50.2193 33.2703 50.3752 33.3355 50.5377 33.3357H57.7195C57.882 33.3355 58.0379 33.2703 58.1528 33.1545C58.2677 33.0386 58.3324 32.8816 58.3326 32.7177V24.861C58.3324 24.6971 58.2677 24.54 58.1528 24.4242C58.0379 24.3083 57.882 24.2432 57.7195 24.243H50.5377Z" fill="#3F3D56"/>
<path d="M57.1655 26.765H53.8943C53.8247 26.7649 53.7579 26.737 53.7086 26.6873C53.6594 26.6377 53.6317 26.5704 53.6316 26.5001V26.3877C53.6317 26.3175 53.6594 26.2502 53.7086 26.2005C53.7579 26.1509 53.8247 26.1229 53.8943 26.1228H57.1655C57.2352 26.1229 57.3019 26.1509 57.3512 26.2005C57.4005 26.2502 57.4282 26.3175 57.4282 26.3877V26.5001C57.4282 26.5704 57.4005 26.6377 57.3512 26.6873C57.3019 26.737 57.2352 26.7649 57.1655 26.765Z" fill="#CCCCCC"/>
<path d="M57.1655 28.8837H51.0917C51.022 28.8836 50.9552 28.8557 50.906 28.806C50.8567 28.7564 50.829 28.689 50.8289 28.6188V28.5064C50.829 28.4362 50.8567 28.3688 50.906 28.3192C50.9552 28.2695 51.022 28.2416 51.0917 28.2415H57.1655C57.2352 28.2416 57.3019 28.2695 57.3512 28.3192C57.4005 28.3688 57.4282 28.4362 57.4282 28.5064V28.6188C57.4282 28.689 57.4005 28.7564 57.3512 28.806C57.3019 28.8557 57.2352 28.8836 57.1655 28.8837Z" fill="#CCCCCC"/>
<path d="M57.1655 30.3844H51.0917C51.022 30.3843 50.9552 30.3564 50.906 30.3067C50.8567 30.2571 50.829 30.1898 50.8289 30.1196V30.0071C50.829 29.9369 50.8567 29.8696 50.906 29.8199C50.9552 29.7703 51.022 29.7423 51.0917 29.7423H57.1655C57.2352 29.7423 57.3019 29.7703 57.3512 29.8199C57.4005 29.8696 57.4282 29.9369 57.4282 30.0071V30.1196C57.4282 30.1898 57.4005 30.2571 57.3512 30.3067C57.3019 30.3564 57.2352 30.3843 57.1655 30.3844Z" fill="#CCCCCC"/>
<path d="M57.1655 31.8851H51.0917C51.022 31.8851 50.9552 31.8571 50.906 31.8075C50.8567 31.7578 50.829 31.6905 50.8289 31.6203V31.5078C50.829 31.4376 50.8567 31.3703 50.906 31.3206C50.9552 31.271 51.022 31.2431 51.0917 31.243H57.1655C57.2352 31.2431 57.3019 31.271 57.3512 31.3206C57.4005 31.3703 57.4282 31.4376 57.4282 31.5078V31.6203C57.4282 31.6905 57.4005 31.7578 57.3512 31.8075C57.3019 31.8571 57.2352 31.8851 57.1655 31.8851Z" fill="#CCCCCC"/>
<path d="M30.8303 29.1104H27.5591C27.4895 29.1103 27.4227 29.0824 27.3734 29.0328C27.3242 28.9831 27.2965 28.9158 27.2964 28.8456V28.7331C27.2965 28.6629 27.3242 28.5956 27.3734 28.5459C27.4227 28.4963 27.4895 28.4683 27.5591 28.4683H30.8303C30.9 28.4683 30.9667 28.4963 31.016 28.5459C31.0653 28.5956 31.093 28.6629 31.093 28.7331V28.8456C31.093 28.9158 31.0653 28.9831 31.016 29.0328C30.9667 29.0824 30.9 29.1103 30.8303 29.1104Z" fill="#CCCCCC"/>
<path d="M25.7093 31.7467H25.0087C24.9042 31.7465 24.804 31.7047 24.7301 31.6302C24.6562 31.5557 24.6147 31.4547 24.6146 31.3494V30.6432C24.6147 30.5379 24.6562 30.4369 24.7301 30.3624C24.804 30.2879 24.9042 30.2461 25.0087 30.2459H25.7093C25.8138 30.2461 25.914 30.2879 25.9879 30.3624C26.0618 30.4369 26.1034 30.5379 26.1035 30.6432V31.3494C26.1034 31.4547 26.0618 31.5557 25.9879 31.6302C25.914 31.7047 25.8138 31.7465 25.7093 31.7467Z" fill="#CCCCCC"/>
<path d="M30.8303 31.3174H27.5591C27.4895 31.3173 27.4227 31.2894 27.3734 31.2397C27.3242 31.1901 27.2965 31.1227 27.2964 31.0525V30.9401C27.2965 30.8699 27.3242 30.8025 27.3734 30.7529C27.4227 30.7032 27.4895 30.6753 27.5591 30.6752H30.8303C30.9 30.6753 30.9667 30.7032 31.016 30.7529C31.0653 30.8025 31.093 30.8699 31.093 30.9401V31.0525C31.093 31.1227 31.0653 31.1901 31.016 31.2397C30.9667 31.2894 30.9 31.3173 30.8303 31.3174Z" fill="#CCCCCC"/>
<path d="M52.4642 26.3617C52.4642 26.3596 52.4645 26.3577 52.4645 26.3556C52.4645 26.2513 52.4441 26.148 52.4045 26.0516C52.3649 25.9552 52.3068 25.8676 52.2337 25.7938C52.1605 25.7201 52.0736 25.6615 51.9779 25.6216C51.8823 25.5817 51.7798 25.5611 51.6763 25.5611V26.3617H52.4642Z" fill="#00BFA6"/>
<path d="M51.5887 26.45V25.6494C51.433 25.6494 51.2809 25.6958 51.1513 25.7828C51.0218 25.8698 50.9207 25.9935 50.8608 26.1383C50.801 26.2831 50.785 26.4426 50.8149 26.5965C50.8448 26.7505 50.9192 26.8921 51.0288 27.0035C51.1385 27.1149 51.2783 27.191 51.4309 27.2224C51.5834 27.2537 51.7417 27.2389 51.8858 27.1797C52.03 27.1205 52.1535 27.0196 52.2409 26.8897C52.3282 26.7599 52.3755 26.6068 52.3766 26.45H51.5887Z" fill="#CCCCCC"/>
</g>
<defs>
<clipPath id="clip0_160_2134">
<rect width="69" height="40" fill="white" transform="translate(6 20)"/>
</clipPath>
</defs>
</svg>
