<svg width="80" height="80" viewBox="0 0 80 80" fill="none" xmlns="http://www.w3.org/2000/svg">
<circle cx="40" cy="40" r="40" fill="white"/>
<g clip-path="url(#clip0_160_2219)">
<path d="M49.6702 44.8333V56.4355L51.6282 59.5983L51.7772 59.8389H59.5028L59.6589 44.8333H49.6702Z" fill="#E6E6E6"/>
<path opacity="0.1" d="M49.6702 44.8333V56.4355L51.6282 59.5983L51.7483 44.8333H49.6702Z" fill="black"/>
<path d="M31.0195 44.5239V56.1261L29.0615 59.2889L28.9125 59.5294H21.1869L21.0308 44.5239H31.0195Z" fill="#E6E6E6"/>
<path opacity="0.1" d="M31.0195 44.5239V56.1261L29.0615 59.2889L28.9413 44.5239H31.0195Z" fill="black"/>
<path d="M62 44.2919V44.988H20.0163V43.9824L23.9181 41.9714H58.5664L62 44.2919Z" fill="#E6E6E6"/>
<path opacity="0.1" d="M62 44.2919V44.988H20.0163V43.9824L62 44.2919Z" fill="black"/>
<path d="M26.0251 47.7725H24.1522L23.3719 47.2311H26.8835L26.0251 47.7725Z" fill="#3F3D56"/>
<path d="M26.0251 50.0156H24.1522L23.3719 49.4742H26.8835L26.0251 50.0156Z" fill="#3F3D56"/>
<path d="M26.0251 53.1869H24.1522L23.3719 52.6454H26.8835L26.0251 53.1869Z" fill="#3F3D56"/>
<path d="M26.0251 56.3582H24.1522L23.3719 55.8167H26.8835L26.0251 56.3582Z" fill="#3F3D56"/>
<path d="M54.6645 48.0819H56.5375L57.3178 47.5405H53.8062L54.6645 48.0819Z" fill="#3F3D56"/>
<path d="M54.6645 50.325H56.5375L57.3178 49.7836H53.8062L54.6645 50.325Z" fill="#3F3D56"/>
<path d="M54.6645 53.4963H56.5375L57.3178 52.9549H53.8062L54.6645 53.4963Z" fill="#3F3D56"/>
<path d="M54.6645 56.6676H56.5375L57.3178 56.1261H53.8062L54.6645 56.6676Z" fill="#3F3D56"/>
<path d="M55.94 28.5546H40.1729C40.0946 28.5546 40.017 28.5698 39.9447 28.5995C39.8723 28.6292 39.8066 28.6728 39.7512 28.7277C39.6959 28.7825 39.6519 28.8477 39.622 28.9194C39.592 28.9911 39.5766 29.068 39.5766 29.1456V39.673C39.5766 39.7506 39.592 39.8275 39.622 39.8992C39.6519 39.9709 39.6959 40.0361 39.7512 40.091C39.8066 40.1458 39.8723 40.1894 39.9447 40.2191C40.017 40.2488 40.0946 40.2641 40.1729 40.264H46.1582L45.934 41.6831C45.934 41.6831 44.6525 42.3579 45.5535 42.3777C46.4546 42.3976 50.6995 42.3777 50.6995 42.3777C50.6995 42.3777 51.5204 42.3777 50.2189 41.6632L50.008 40.264H55.94C56.0183 40.2641 56.0958 40.2488 56.1682 40.2191C56.2405 40.1894 56.3062 40.1458 56.3616 40.091C56.417 40.0361 56.4609 39.9709 56.4909 39.8992C56.5208 39.8275 56.5363 39.7506 56.5362 39.673V29.1456C56.5363 29.068 56.5208 28.9911 56.4909 28.9194C56.4609 28.8477 56.417 28.7825 56.3616 28.7277C56.3062 28.6728 56.2405 28.6292 56.1682 28.5995C56.0958 28.5698 56.0183 28.5546 55.94 28.5546Z" fill="#3F3D56"/>
<path d="M55.9656 29.1797H40.1473V37.9519H55.9656V29.1797Z" fill="#F2F2F2"/>
<path d="M48.0564 29.0011C48.1117 29.0011 48.1565 28.9567 48.1565 28.9019C48.1565 28.8471 48.1117 28.8027 48.0564 28.8027C48.0011 28.8027 47.9563 28.8471 47.9563 28.9019C47.9563 28.9567 48.0011 29.0011 48.0564 29.0011Z" fill="#F2F2F2"/>
<path d="M48.0564 39.8373C48.2665 39.8373 48.4369 39.6685 48.4369 39.4603C48.4369 39.252 48.2665 39.0832 48.0564 39.0832C47.8463 39.0832 47.676 39.252 47.676 39.4603C47.676 39.6685 47.8463 39.8373 48.0564 39.8373Z" fill="#F2F2F2"/>
<path d="M47.4636 43.4494V43.6479H36.6911V43.4891L36.7059 43.4494L36.9714 42.735H47.2433L47.4636 43.4494Z" fill="#3F3D56"/>
<path d="M51.6092 43.2551C51.5896 43.3383 51.5155 43.426 51.3481 43.509C50.7474 43.8067 49.526 43.4296 49.526 43.4296C49.526 43.4296 48.5849 43.2708 48.5849 42.854C48.6113 42.8361 48.6388 42.8198 48.6674 42.8054C48.9199 42.673 49.7573 42.3462 51.242 42.8192C51.3514 42.8533 51.4491 42.9167 51.5243 43.0026C51.5576 43.035 51.5826 43.0748 51.5974 43.1187C51.6121 43.1626 51.6162 43.2094 51.6092 43.2551Z" fill="#3F3D56"/>
<path opacity="0.1" d="M51.6092 43.2551C50.8739 43.5344 50.2186 43.5552 49.546 43.0922C49.2917 42.9058 48.9837 42.8053 48.6674 42.8054C48.9199 42.673 49.7573 42.3462 51.242 42.8192C51.3514 42.8533 51.4491 42.9167 51.5243 43.0026C51.5576 43.035 51.5826 43.0748 51.5974 43.1187C51.6121 43.1626 51.6162 43.2094 51.6092 43.2551Z" fill="black"/>
<path d="M50.6873 43.0922C50.8311 43.0922 50.9476 43.0566 50.9476 43.0128C50.9476 42.969 50.8311 42.9334 50.6873 42.9334C50.5435 42.9334 50.427 42.969 50.427 43.0128C50.427 43.0566 50.5435 43.0922 50.6873 43.0922Z" fill="#F2F2F2"/>
<path opacity="0.1" d="M47.4636 43.4494V43.6479H36.6911V43.4891L36.7059 43.4494H47.4636Z" fill="black"/>
<path d="M22.9896 21C22.8803 20.9911 22.7708 21.0154 22.6757 21.0695C22.5823 21.1329 22.5235 21.244 22.4634 21.3473C22.2337 21.7472 21.9227 22.0954 21.5501 22.3699C21.2787 22.5669 20.9337 22.8126 20.9801 23.176C21.0046 23.2959 21.0493 23.411 21.1124 23.5162C21.3627 24.0171 22.0459 24.4042 21.9787 24.9758C22.2274 24.5631 21.8947 24.359 22.1435 23.9463C22.2619 23.7497 22.4677 23.5279 22.6465 23.6513C22.7064 23.6926 22.7457 23.7668 22.8081 23.803C22.9569 23.8895 23.1151 23.7241 23.2468 23.6069C23.7009 23.2029 24.3467 23.3087 24.9118 23.4346C25.1786 23.4941 25.4716 23.572 25.6293 23.8248C25.8367 24.1571 25.4323 24.5159 25.3302 24.8916C25.3218 24.9236 25.3214 24.9572 25.329 24.9894C25.3366 25.0216 25.3519 25.0514 25.3737 25.0765C25.3955 25.1015 25.4231 25.121 25.4541 25.1331C25.4851 25.1453 25.5186 25.1498 25.5518 25.1464C25.7214 25.1298 25.9222 25.1162 25.9323 25.0425C26.1456 25.05 26.407 25.026 26.4984 24.8059C26.5263 24.7187 26.5411 24.628 26.5422 24.5366C26.5758 24.1668 26.7341 23.8293 26.839 23.4773C26.944 23.1253 26.9896 22.7128 26.8125 22.4007C26.7493 22.2969 26.6712 22.2027 26.5806 22.1213C25.5758 21.1575 24.2548 20.9986 22.9896 21Z" fill="#2F2E41"/>
<path d="M22.1972 25.6978C22.1972 25.6978 22.4157 27.5026 21.6145 27.647C20.8133 27.7914 22.3429 30.2461 22.3429 30.2461L25.9848 30.6792L25.1107 27.7914C25.1107 27.7914 24.528 27.5748 24.8922 26.1309C25.2564 24.687 22.1972 25.6978 22.1972 25.6978Z" fill="#FFB8B8"/>
<path d="M19.9757 56.7055L20.267 60.6763H21.7966L21.3596 56.7055H19.9757Z" fill="#FFB8B8"/>
<path d="M31.1926 49.1972L31.4111 52.5182L33.0864 51.7963L32.4309 49.0529L31.1926 49.1972Z" fill="#FFB8B8"/>
<path d="M18.8831 41.5446C18.8831 41.5446 18.9559 45.7319 19.393 47.1036C19.83 48.4753 19.7572 48.5475 19.6843 48.7641C19.6115 48.9807 19.5386 48.8363 19.5386 49.1972C19.5386 49.5582 19.393 55.2616 19.5386 55.767C19.6843 56.2723 19.1016 57.1387 19.5386 57.2109C19.9757 57.2831 22.0151 57.2109 22.088 56.7777C22.1608 56.3445 21.5053 56.2002 21.7966 55.9114C22.088 55.6226 22.525 49.7026 22.525 49.7026L23.5447 45.5875L25.4385 43.4216H29.4445L30.6828 48.1865C30.6828 48.1865 30.1729 49.5582 30.5371 49.5582C30.9013 49.5582 33.0864 49.9914 33.0864 48.4031C33.0864 46.8148 32.358 42.1221 32.2124 41.9777C32.0667 41.8334 32.2852 41.328 32.0667 41.1114C31.8482 40.8948 29.2989 39.3787 28.352 39.0899C27.4051 38.8012 26.0768 38.4575 26.0768 38.4575L18.8831 41.5446Z" fill="#2F2E41"/>
<path d="M33.0864 51.2187C33.0864 51.2187 31.9939 50.8577 31.484 51.9406C30.9741 53.0236 31.1926 53.3124 31.1926 53.3124C31.1926 53.3124 32.8679 53.8899 33.1593 53.6011C33.286 53.4755 33.6885 53.4318 34.1028 53.4226C34.7339 53.4086 34.9018 52.5237 34.3058 52.3176C34.288 52.3115 34.27 52.3062 34.2518 52.3016C33.6691 52.1572 33.0864 51.2187 33.0864 51.2187Z" fill="#2F2E41"/>
<path d="M23.8361 26.889C25.0429 26.889 26.0212 25.9193 26.0212 24.7231C26.0212 23.527 25.0429 22.5573 23.8361 22.5573C22.6292 22.5573 21.6509 23.527 21.6509 24.7231C21.6509 25.9193 22.6292 26.889 23.8361 26.889Z" fill="#FFB8B8"/>
<path d="M20.9954 28.5495C20.9954 28.5495 24.5644 29.2714 25.4385 28.1163C26.3125 26.9612 26.6767 31.3651 26.6767 31.3651L27.1137 35.9856L26.4582 38.5124C26.4582 38.5124 23.0348 41.2558 21.9423 41.4724C20.8497 41.689 19.1745 41.8334 19.1745 41.8334C19.1745 41.8334 19.6843 33.8197 19.6843 33.6753C19.6843 33.5309 20.9954 28.5495 20.9954 28.5495Z" fill="#00BFA6"/>
<path d="M22.0808 27.1955C22.0808 27.1955 21.2867 26.7446 21.0682 27.1778C20.8497 27.6109 18.8103 28.6939 18.5918 28.6939C18.3732 28.6939 19.0288 34.686 18.7374 35.408C18.4461 36.1299 17.0622 41.4002 17.8634 41.8333C18.6646 42.2665 18.0819 41.4002 18.8831 42.4831C19.6843 43.566 23.6175 43.566 23.8361 43.1329C24.0546 42.6997 22.088 39.4509 22.4521 36.4187C22.8163 33.3865 23.399 29.1992 22.8892 28.6217C22.3793 28.0441 22.0808 27.1955 22.0808 27.1955Z" fill="#2F2E41"/>
<path d="M24.7101 27.6831L24.8116 27.3371C24.8116 27.3371 27.8421 28.3329 27.9878 28.9826C28.1335 29.6324 28.0606 34.1807 27.5508 34.5417C27.0409 34.9026 26.3125 35.4802 26.8224 36.3465C27.3323 37.2129 27.915 38.1514 28.352 38.2236C28.789 38.2958 29.5902 38.8012 29.3717 39.3065C29.1532 39.8119 26.531 38.8734 26.531 38.8734C26.531 38.8734 24.7829 37.5738 24.8558 35.5524C24.9286 33.5309 24.7101 27.6831 24.7101 27.6831Z" fill="#2F2E41"/>
<path d="M27.2594 36.2021L25.5113 39.4509C25.5113 39.4509 22.962 42.0499 24.4188 42.3387C25.8755 42.6275 26.6767 39.9563 26.6767 39.9563L28.5705 37.2851L27.2594 36.2021Z" fill="#FFB8B8"/>
<path d="M23.0961 21.5667C23.008 21.5602 22.9198 21.5772 22.8405 21.6158C22.7689 21.6677 22.7098 21.7348 22.6677 21.8122C22.4734 22.1018 22.2202 22.348 21.9242 22.5349C21.7033 22.6742 21.4224 22.8479 21.4602 23.1046C21.4808 23.1907 21.5173 23.2723 21.5679 23.3451C21.7724 23.7028 21.8538 24.1167 21.7998 24.5242L22.4073 23.6491C22.5037 23.5102 22.6712 23.3534 22.8168 23.4406C22.8655 23.4698 22.8975 23.5222 22.9483 23.5478C23.0694 23.609 23.1982 23.4921 23.3054 23.4093C23.6751 23.1237 24.2008 23.1985 24.6608 23.2875C24.878 23.3295 25.1165 23.3846 25.2449 23.5632C25.4582 23.8601 25.2355 24.289 25.36 24.6319C25.3948 24.6077 25.4244 24.5768 25.447 24.5411C25.4696 24.5054 25.4848 24.4655 25.4915 24.4239C25.6652 24.4292 25.878 24.4123 25.9524 24.2566C25.975 24.1957 25.9871 24.1313 25.988 24.0663C26.0153 23.8049 26.1443 23.5665 26.2297 23.3177C26.3151 23.0689 26.3522 22.7773 26.2081 22.5567C26.1554 22.482 26.0917 22.4154 26.0193 22.3592C25.2014 21.678 24.126 21.5657 23.0961 21.5667Z" fill="#2F2E41"/>
<path d="M27.2594 28.6939L27.9381 28.8724C27.9381 28.8724 29.5174 32.8812 29.1532 35.6246C28.789 38.368 28.5705 37.7904 28.5705 37.7904C28.5705 37.7904 27.9878 36.4909 26.6767 36.7797L27.2594 28.6939Z" fill="#2F2E41"/>
<path d="M20.0766 60.1515C19.9009 60.3881 19.9362 60.7262 19.7806 60.9762C19.6457 61.1929 19.3915 61.3066 19.2228 61.4986C19.169 61.5624 19.121 61.6308 19.0795 61.703C18.923 61.9628 18.7958 62.2958 18.9499 62.557C19.0739 62.7671 19.3345 62.8492 19.5735 62.9052C19.8755 62.9759 20.1894 63.0326 20.495 62.9785C20.8005 62.9244 21.0992 62.739 21.2081 62.4509C21.2295 62.3785 21.255 62.3073 21.2844 62.2376C21.45 61.9145 21.9695 61.911 22.139 61.5898C22.2576 61.365 22.1485 61.0933 22.0395 60.8638L21.7067 60.1628C21.5962 59.9302 21.1483 60.0639 20.9149 60.0082C20.6104 59.9355 20.2956 59.8554 20.0766 60.1515Z" fill="#2F2E41"/>
<path d="M17.6449 37.646L20.704 42.3387C20.704 42.3387 22.5978 44.7212 23.1805 43.6382C23.7632 42.5553 21.1411 40.7504 21.1411 40.7504L19.1745 37.1407L17.6449 37.646Z" fill="#FFB8B8"/>
<path d="M19.1745 28.8383L18.5918 28.6939C18.5918 28.6939 17.4264 29.0548 17.135 30.5709C16.8437 32.087 17.0622 38.1514 17.4264 38.2236C17.7905 38.2958 19.2251 37.1677 19.4547 37.4069C19.6843 37.646 18.9559 36.4187 19.1745 35.769C19.393 35.1192 19.1745 28.8383 19.1745 28.8383Z" fill="#2F2E41"/>
<path d="M46.5592 32.0608H44.6767V32.51H46.5592V32.0608Z" fill="#00BFA6"/>
<path d="M53.0785 32.0608H52.4161V32.51H53.0785V32.0608Z" fill="#00BFA6"/>
<path d="M54.4032 32.0608H53.7409V32.51H54.4032V32.0608Z" fill="#00BFA6"/>
<path d="M51.7188 32.0608H47.2216V32.51H51.7188V32.0608Z" fill="#00BFA6"/>
<path d="M44.1886 34.9634H42.306V35.4126H44.1886V34.9634Z" fill="#00BFA6"/>
<path d="M50.7078 34.9634H50.0455V35.4126H50.7078V34.9634Z" fill="#00BFA6"/>
<path d="M52.0326 34.9634H51.3702V35.4126H52.0326V34.9634Z" fill="#00BFA6"/>
<path d="M49.3482 34.9634H44.851V35.4126H49.3482V34.9634Z" fill="#00BFA6"/>
<path d="M51.9629 33.0629H50.0803V33.5121H51.9629V33.0629Z" fill="#00BFA6"/>
<path d="M54.5078 33.0629H52.6253V33.5121H54.5078V33.0629Z" fill="#00BFA6"/>
<path d="M42.9684 33.0629H42.306V33.5121H42.9684V33.0629Z" fill="#00BFA6"/>
<path d="M44.2932 33.0629H43.6308V33.5121H44.2932V33.0629Z" fill="#00BFA6"/>
<path d="M49.4528 33.0629H44.9556V33.5121H49.4528V33.0629Z" fill="#00BFA6"/>
<path d="M48.0583 34.0304H46.1757V34.4796H48.0583V34.0304Z" fill="#00BFA6"/>
<path d="M45.5134 34.0304H43.6308V34.4796H45.5134V34.0304Z" fill="#00BFA6"/>
<path d="M42.9684 34.0304H42.306V34.4796H42.9684V34.0304Z" fill="#00BFA6"/>
<path d="M54.5078 34.0304H53.8454V34.4796H54.5078V34.0304Z" fill="#00BFA6"/>
<path d="M53.1831 34.0304H48.6858V34.4796H53.1831V34.0304Z" fill="#00BFA6"/>
</g>
<defs>
<clipPath id="clip0_160_2219">
<rect width="45" height="42" fill="white" transform="translate(17 21)"/>
</clipPath>
</defs>
</svg>
