<svg width="678" height="370" viewBox="0 0 678 370" fill="none" xmlns="http://www.w3.org/2000/svg">
<g clip-path="url(#clip0_3283_1103)">
<path d="M339.054 143.637C344.161 138.026 349.284 132.426 354.368 126.798C367.447 112.319 380.526 97.8396 393.543 83.3037C394.586 82.1352 395.67 82.3215 396.855 82.4401C402.915 83.0497 408.974 83.6876 415.034 84.3142C421.732 85.0085 428.429 85.7367 435.132 86.3803C436.323 86.4932 436.537 86.8657 436.436 88.0568C435.381 100.786 434.393 113.521 433.445 126.256C433.366 127.295 432.83 127.927 432.238 128.588C423.983 137.767 415.717 146.934 407.451 156.107C398.006 166.59 388.56 177.078 379.121 187.567C378.98 187.725 378.878 187.917 378.76 188.092C377.631 190.463 375.549 192.066 373.873 193.974C369.365 199.111 364.761 204.163 360.185 209.232C356.822 212.958 353.454 216.678 350.096 220.409C346.7 224.18 343.258 227.9 339.906 231.71C339.557 232.106 339.28 232.591 338.671 232.642C333.717 238.095 328.751 243.537 323.82 249.012C310.764 263.503 297.724 278.005 284.679 292.496C284.51 292.682 284.301 292.834 283.9 293.196C284.143 288.189 284.369 283.469 284.606 278.75C285.023 270.373 285.429 261.996 285.886 253.619C285.948 252.484 285.322 252.433 284.521 252.371C279.939 252.027 275.358 251.671 270.776 251.321C261.935 250.649 253.093 249.978 243.907 249.278C245.442 247.545 246.819 245.97 248.218 244.417C264.761 226.088 281.305 207.759 297.848 189.43C298.17 189.074 298.452 188.684 298.751 188.312C299.169 186.85 300.41 185.963 301.358 184.942C305.889 180.053 310.295 175.052 314.764 170.107C320.237 164.061 325.716 158.015 331.138 151.919C333.192 149.61 335.308 147.352 337.35 145.026C337.836 144.478 338.293 143.852 339.066 143.632L339.054 143.637Z" fill="#07FF75"/>
<path d="M602.051 92.6064C620.941 112.996 632.937 136.773 638.692 163.733C641.056 174.814 642.032 186.037 641.852 197.349C641.366 227.612 630.742 253.946 610.943 276.69C605.876 282.509 600.347 287.861 594.208 292.563C593.531 293.083 592.904 293.263 592.018 293.184C579.188 292.027 566.351 290.932 553.515 289.82C553.464 289.82 553.408 289.82 553.357 289.808C550.293 289.43 550.919 289.848 551.168 287.144C551.935 278.682 552.776 270.22 553.583 261.764C554.011 257.293 554.452 252.828 554.852 248.357C554.897 247.827 555.061 247.477 555.501 247.178C565.104 240.567 571.356 231.343 575.362 220.646C582.737 200.968 583.623 181.035 576.412 161.063C572.078 149.051 565.257 138.624 555.913 129.88C555.682 129.666 555.405 129.496 554.897 129.118C556.393 128.791 557.538 128.977 558.655 129.034C571.683 129.722 584.706 130.428 597.728 131.196C599.032 131.275 599.342 130.84 599.421 129.666C600.07 120.069 600.758 110.473 601.441 100.876C601.639 98.1216 601.847 95.3725 602.051 92.6177V92.6064Z" fill="#07FF75"/>
<path d="M119.014 245.168C123.827 249.306 128.696 253.031 133.893 256.317C145.691 263.785 158.431 268.741 172.317 270.525C187.507 272.473 202.261 270.502 216.621 265.309C222.653 263.124 228.453 260.432 233.887 257.005C234.507 256.616 235.1 256.452 235.828 256.514C249.307 257.575 262.781 258.642 276.267 259.63C277.513 259.721 277.446 260.308 277.406 261.143C276.961 270.322 276.526 279.506 276.092 288.685C275.951 291.677 275.77 294.663 275.719 297.655C275.702 298.784 275.324 299.529 274.455 300.235C265.676 307.359 255.898 312.789 245.516 317.153C229.254 323.983 212.282 327.624 194.667 328.448C165.941 329.797 138.717 324.164 113.089 311.067C99.3446 304.045 86.8242 295.273 75.8724 284.344C75.3082 283.779 74.7834 283.17 74.253 282.571C74.1966 282.509 74.2135 282.374 74.1797 282.199C77.6497 282.419 81.0972 282.617 84.5391 282.854C94.5091 283.537 104.479 284.203 114.444 284.954C115.837 285.061 115.719 284.333 115.792 283.452C116.785 271.259 117.801 259.06 118.811 246.867C118.85 246.387 118.924 245.913 119.014 245.162V245.168Z" fill="#1970A3"/>
<path d="M83.1559 84.0889C82.9753 87.4307 82.806 90.4451 82.6424 93.4652C82.1459 102.48 81.6494 111.501 81.1528 120.516C81.1303 120.945 81.1923 121.374 81.1416 121.797C81.0174 122.876 81.4067 123.293 82.5521 123.361C88.0986 123.672 93.645 124.072 99.1915 124.445C107.221 124.987 115.244 125.534 123.55 126.099C119.109 130.287 115.283 134.64 111.859 139.348C104.021 150.124 98.5144 161.916 96.3308 175.137C95.1008 182.571 95.1741 190.057 95.9697 197.519C96.9514 206.715 99.2648 215.566 103.293 223.926C105.364 228.222 107.768 232.309 110.871 235.95C111.283 236.43 111.486 236.899 111.441 237.537C110.471 249.899 109.489 262.256 108.575 274.618C108.479 275.922 108.01 276.131 106.848 276.047C94.2713 275.098 81.6945 274.071 69.1008 273.377C66.2175 273.219 64.5192 271.892 62.8321 269.995C53.1611 259.14 46.5595 246.552 41.9554 232.857C37.78 220.421 35.6472 207.601 35.0265 194.516C34.0448 173.816 36.6233 153.663 44.6242 134.414C52.6025 115.215 64.4176 98.8279 80.7692 85.8388C81.4632 85.2856 82.1967 84.7888 83.1559 84.0889Z" fill="#1970A3"/>
<path d="M546.27 254.121C545.982 257.525 545.734 260.641 545.452 263.752C544.532 273.975 543.635 284.192 542.647 294.41C542.501 295.917 542.873 296.413 544.402 296.538C554.903 297.367 565.392 298.276 575.887 299.174C578.42 299.388 580.948 299.631 583.797 299.885C580.107 302.578 576.513 304.836 572.823 306.953C555.241 317.035 536.328 323.188 516.331 326.191C502.254 328.308 488.114 328.81 473.946 327.653C458.198 326.36 443.201 322.104 428.926 315.341C412.032 307.342 397.069 296.651 384.159 283.108C383.206 282.109 382.816 281.161 382.94 279.727C384.001 267.59 384.989 255.442 385.942 243.294C386.032 242.154 386.416 241.872 387.511 241.968C396.99 242.803 406.469 243.593 415.954 244.395C420.428 244.773 424.903 245.168 429.377 245.518C430.105 245.575 430.669 245.761 431.222 246.28C444.403 258.699 460.15 265.925 477.817 269.284C501.667 273.811 523.486 268.493 543.798 255.792C544.555 255.318 545.277 254.799 546.27 254.127V254.121Z" fill="#07FF75"/>
<path d="M291.873 91.9745C285 91.4946 278.122 91.0148 271.25 90.535C265.066 90.106 258.882 89.7108 252.703 89.2028C251.547 89.1068 251.485 89.6374 251.417 90.4503C250.977 95.7735 250.525 101.102 250.08 106.426C249.403 114.464 248.726 122.503 248.043 130.637C247.315 130.547 247.055 129.914 246.627 129.508C232.154 115.937 215.17 107.476 195.524 104.495C180.583 102.231 166.279 105.003 152.303 110.129C145.989 112.443 139.879 115.232 134.056 118.613C133.413 118.986 132.764 119.07 132.058 119.02C122.94 118.421 113.822 117.823 104.704 117.23C100.281 116.942 95.8515 116.62 91.4222 116.406C90.3219 116.35 89.9552 116.056 90.0285 114.921C90.6718 104.896 91.2642 94.8703 91.8792 84.8448C91.9977 82.9256 92.246 81.0063 92.2347 79.087C92.2347 77.9467 92.7369 77.3709 93.5663 76.7725C106.279 67.6051 120.266 60.9891 135.094 56.0667C150.187 51.054 165.704 48.35 181.581 47.5033C212.846 45.8323 241.182 54.5087 267.187 71.5001C275.713 77.0717 283.68 83.3546 290.857 90.5971C291.229 90.9697 291.703 91.235 292.132 91.5511C292.048 91.6866 291.957 91.8221 291.873 91.9632V91.9745Z" fill="#1970A3"/>
<path d="M440.938 120.589C441.26 116.101 441.581 111.596 441.914 107.092C442.535 98.6693 443.144 90.247 443.804 81.8303C443.883 80.8142 443.669 80.4755 442.586 80.3739C429.495 79.1264 416.411 77.8168 403.326 76.5241C403.072 76.5015 402.818 76.4507 402.107 76.3434C403.45 75.4402 404.455 74.7233 405.498 74.0741C421.218 64.2631 438.224 57.5569 456.173 53.1595C473.156 48.9991 490.405 47.3733 507.862 48.0733C530.719 48.9878 552.471 54.0626 572.405 65.6913C580.716 70.5404 588.328 76.2813 594.822 83.4448C595.595 84.2972 595.866 85.1044 595.776 86.2955C594.924 97.0605 594.162 107.831 593.378 118.596C593.259 120.194 593.084 121.791 593.051 123.394C593.028 124.49 592.661 124.817 591.538 124.744C583.696 124.23 575.853 123.778 568.004 123.315C562.029 122.96 556.054 122.61 550.073 122.254C549.446 122.215 548.877 122.186 548.335 121.678C540.385 114.233 530.832 109.739 520.462 106.888C507.969 103.456 495.257 103.078 482.443 104.461C472.552 105.528 463.022 107.938 454.034 112.279C449.594 114.425 445.39 116.948 441.7 120.267C441.514 120.436 441.361 120.702 440.933 120.606L440.938 120.589Z" fill="#07FF75"/>
<path d="M339.054 143.638C335.861 147.217 332.678 150.813 329.468 154.38C319.932 164.97 310.391 175.549 300.844 186.128C300.167 186.878 299.445 187.59 298.74 188.324C292.178 181.002 285.621 173.68 279.048 166.365C271.905 158.411 264.744 150.474 257.584 142.531C257.144 142.04 256.873 141.583 256.924 140.849C257.821 128.487 258.684 116.119 259.553 103.756C259.649 102.424 259.813 101.092 259.802 99.7594C259.79 98.4046 260.23 97.9925 261.647 98.128C268.079 98.7489 274.528 99.2457 280.966 99.7932C287.037 100.313 293.103 100.871 299.174 101.334C300.748 101.453 301.905 101.938 303 103.18C314.973 116.7 327.019 130.163 339.043 143.638H339.054Z" fill="#1970A3"/>
<path d="M338.665 232.654C343.32 227.432 347.964 222.193 352.641 216.989C361.031 207.641 369.433 198.315 377.834 188.978C378.116 188.662 378.449 188.391 378.76 188.098C386.134 196.407 393.509 204.716 400.895 213.02C407.705 220.675 414.532 228.318 421.602 236.249C419.351 236.097 417.421 235.99 415.497 235.837C403.942 234.917 392.386 234.008 380.836 233.032C379.499 232.919 379.267 233.404 379.149 234.562C377.879 246.997 376.565 259.428 375.256 271.864C375.222 272.174 375.12 272.473 375.002 273.026C362.803 259.473 350.74 246.066 338.671 232.659L338.665 232.654Z" fill="#1970A3"/>
<path d="M530.195 206.387C525.213 206.348 520.97 205.134 517.082 202.645C516.202 202.08 516.078 201.645 516.676 200.793C517.624 199.438 518.51 198.033 519.333 196.604C519.779 195.831 520.129 195.746 520.908 196.243C523.514 197.903 526.364 198.953 529.473 199.077C530.753 199.128 532.497 199.404 532.807 197.683C533.112 195.989 531.363 195.831 530.212 195.43C527.898 194.617 525.461 194.194 523.204 193.2C518.904 191.298 517.443 189.063 517.556 184.53C517.652 180.849 519.943 177.728 523.785 176.435C529.743 174.437 535.363 175.65 540.757 178.518C541.293 178.8 541.395 179.094 541.085 179.647C540.114 181.363 539.149 183.09 538.269 184.852C537.863 185.659 537.462 185.247 537.016 185.021C534.765 183.881 532.44 182.96 529.896 182.757C529.422 182.718 528.937 182.706 528.468 182.763C527.639 182.864 526.832 183.118 526.674 184.073C526.499 185.094 527.34 185.439 528.056 185.783C529.845 186.647 531.797 187.03 533.659 187.685C534.816 188.092 535.984 188.487 537.084 189.018C540.43 190.615 542.264 193.15 542.044 197.022C541.835 200.725 540.165 203.424 536.836 205.032C534.63 206.099 532.249 206.421 530.206 206.387H530.195Z" fill="#46AFEE"/>
<path d="M208.749 175.837C211.949 175.837 215.154 175.882 218.358 175.808C219.34 175.786 219.487 176.356 219.707 177.028C221.479 182.447 223.262 187.866 225.073 193.392C225.643 192.822 225.705 192.128 225.908 191.518C227.533 186.714 229.169 181.916 230.698 177.084C231.026 176.057 231.483 175.791 232.487 175.814C235.472 175.876 238.462 175.837 241.65 175.837C240.121 179.754 238.654 183.519 237.176 187.279C234.896 193.082 232.583 198.874 230.348 204.694C229.965 205.693 229.519 206.099 228.396 206.048C226.1 205.947 223.798 206.003 221.496 206.026C220.852 206.032 220.429 205.936 220.153 205.23C216.361 195.554 212.535 185.89 208.721 176.22C208.687 176.136 208.733 176.017 208.749 175.831V175.837Z" fill="#07FF75"/>
<path d="M331.522 201.555C328.469 201.532 325.484 199.077 324.869 196.073C324.249 193.059 325.648 190.293 328.379 189.13C330.472 188.233 333.79 189.034 335.325 190.716C335.94 191.388 335.325 191.699 335.037 192.032C333.406 193.934 331.77 195.842 330.06 197.671C329.259 198.529 329.383 198.907 330.438 199.302C332.763 200.183 335.449 198.693 336.114 196.085C336.222 195.673 336.34 195.255 336.351 194.832C336.374 193.94 337.085 193.962 337.61 193.951C338.253 193.934 338.055 194.555 338.078 194.933C338.259 198.439 335.144 201.577 331.516 201.549L331.522 201.555Z" fill="#1970A3"/>
<path d="M371.847 155.627C368.569 155.565 365.737 152.884 365.229 149.367C364.828 146.607 366.617 143.908 369.449 143.011C371.943 142.22 373.901 143.378 375.774 144.8C376.508 145.359 375.814 145.76 375.52 146.099C373.89 148.001 372.265 149.915 370.544 151.732C369.573 152.754 370.047 153.07 371.057 153.42C373.331 154.21 375.938 152.709 376.587 150.169C376.705 149.706 376.79 149.232 376.852 148.757C376.948 147.978 377.614 148.046 378.076 148.029C378.731 148.001 378.533 148.622 378.556 149C378.753 152.568 375.571 155.701 371.847 155.627Z" fill="#1970A3"/>
<path d="M345.3 185.817C341.875 185.783 338.952 183 338.518 179.359C338.191 176.599 340.228 173.827 343.133 173.11C345.52 172.523 347.382 173.652 349.137 175.024C349.848 175.583 349.103 175.989 348.821 176.322C347.196 178.23 345.56 180.133 343.844 181.956C342.975 182.876 343.297 183.203 344.284 183.57C346.558 184.417 349.199 182.989 349.904 180.466C350.034 180.008 350.147 179.528 350.169 179.054C350.203 178.264 350.807 178.264 351.298 178.213C352.127 178.129 351.868 178.817 351.885 179.224C352.048 182.735 348.928 185.845 345.294 185.806L345.3 185.817Z" fill="#1970A3"/>
<path d="M359.981 169.971C360.128 172.094 359.474 173.804 357.883 175.125C356.229 176.497 354.017 176.649 352.596 175.441C350.971 174.058 350.683 172.1 351.817 170.096C352.754 168.442 354.164 167.222 355.654 166.082C354.119 164.552 352.596 164.49 351.129 165.856C350.215 166.709 349.549 167.742 349.126 168.91C348.9 169.537 348.657 169.729 347.969 169.475C347.235 169.209 347.106 168.871 347.376 168.176C348.093 166.347 349.114 164.755 350.745 163.609C352.641 162.283 354.508 162.266 356.342 163.756C358.249 165.303 360.044 166.985 361.894 168.605C362.346 169 362.865 169.322 362.165 169.977C361.635 170.474 361.2 171.066 360.501 170.22C360.416 170.118 360.241 170.096 359.981 169.977V169.971Z" fill="#1970A3"/>
<path d="M369.241 160.098C369.269 162.65 365.952 166.076 363.435 166.15C362.747 166.167 362.831 165.71 362.73 165.32C362.606 164.868 362.346 164.423 363.114 164.214C364.366 163.875 365.529 163.305 366.426 162.345C367.187 161.527 367.74 160.533 367.018 159.461C366.245 158.309 365.229 158.857 364.321 159.348C363.379 159.856 362.487 160.454 361.534 160.928C359.892 161.752 358.419 161.6 357.392 160.505C356.252 159.28 356.055 157.829 356.783 156.35C357.703 154.487 359.282 153.347 361.195 152.591C361.799 152.354 362.002 152.63 362.104 153.087C362.205 153.533 362.707 154.058 361.838 154.386C360.676 154.82 359.61 155.441 358.865 156.48C358.374 157.157 358.019 157.869 358.611 158.676C359.226 159.517 360.027 159.336 360.766 158.969C362.058 158.332 363.266 157.507 364.586 156.943C366.905 155.949 369.213 157.558 369.241 160.093V160.098Z" fill="#1970A3"/>
<path d="M320.073 201.584C320.096 199.873 319.769 198.405 320.637 197.096C320.948 196.627 321.247 196.063 321.839 196.667C322.24 197.079 323.222 197.147 322.68 198.225C321.213 201.177 321.625 203.074 324.062 205.281C325.01 206.139 325.947 207.014 326.946 207.821C327.73 208.459 327.386 208.939 326.923 209.554C326.381 210.266 326.02 209.955 325.524 209.515C322.9 207.166 320.254 204.841 317.619 202.509C317.139 202.08 316.609 201.747 317.297 200.974C317.952 200.246 318.448 200.161 319.108 200.878C319.312 201.098 319.599 201.245 320.073 201.589V201.584Z" fill="#1970A3"/>
<path d="M343.5 190.796C343.139 191.231 342.851 191.699 342.445 192.021C341.909 192.45 341.559 191.88 341.237 191.597C338.027 188.781 334.845 185.936 331.645 183.102C330.889 182.43 330.144 181.736 329.355 181.103C328.802 180.657 328.79 180.274 329.309 179.833C329.75 179.461 330.032 178.687 330.839 179.41C334.856 183.006 338.896 186.573 342.924 190.158C343.122 190.333 343.28 190.548 343.5 190.796Z" fill="#1970A3"/>
<path d="M607.546 166.596C602.525 166.596 598.806 162.83 598.795 157.733C598.784 152.912 602.812 148.915 607.704 148.898C612.619 148.882 616.585 152.94 616.574 157.97C616.557 162.875 612.664 166.596 607.552 166.596H607.546Z" fill="#1970A3"/>
<path d="M605.47 173.657C603.783 173.962 602.259 174.193 600.758 174.526C599.703 174.764 599.494 174.188 599.314 173.369C599.099 172.364 599.737 172.393 600.403 172.285C604.917 171.529 609.431 170.739 613.944 169.965C614.701 169.836 615.615 169.124 615.902 170.603C616.184 172.054 615.191 171.998 613.939 172.071C615.637 173.397 617.059 174.639 617.211 176.717C617.352 178.698 616.828 180.38 615.344 181.775C612.974 183.999 608.612 184.292 606.181 182.328C603.574 180.228 603.297 177.462 605.47 173.657Z" fill="#1970A3"/>
<path d="M612.743 186.387C614.808 186.42 616.992 187.374 618.199 189.83C619.294 192.06 619.17 194.289 617.556 196.288C616.292 197.851 614.515 198.371 612.613 198.585C611.677 198.693 611.423 198.196 611.428 197.338C611.434 194.877 611.321 192.415 611.389 189.96C611.428 188.577 610.881 188.582 609.882 189.023C607.394 190.118 606.689 193.302 608.353 195.864C608.59 196.226 609.245 196.468 608.934 197.039C608.743 197.394 608.398 197.784 608.037 197.897C607.592 198.038 607.309 197.53 607.056 197.208C605.368 195.029 605.024 192.59 606.125 190.118C607.247 187.6 609.369 186.381 612.743 186.381V186.387Z" fill="#1970A3"/>
<path d="M600.724 232.281C605.542 232.332 608.888 237.028 607.1 241.217C605.655 244.598 601.17 245.846 598.123 243.774C597.412 243.294 597.739 242.927 597.982 242.464C599.178 240.195 600.346 237.909 601.599 235.673C602.151 234.691 601.886 234.375 600.859 234.279C597.937 233.997 595.747 236.43 596.024 239.653C596.063 240.105 596.549 240.703 595.702 240.985C595.053 241.2 594.596 241.42 594.325 240.404C593.214 236.255 596.34 232.23 600.735 232.281H600.724Z" fill="#1970A3"/>
<path d="M609.899 219.371C612.387 220.014 613.95 218.891 614.266 216.272C614.368 215.425 614.345 214.561 614.289 213.709C614.244 212.998 614.52 212.777 615.192 212.744C615.88 212.704 616.19 212.964 616.207 213.635C616.247 214.866 616.354 216.097 616.061 217.31C615.146 221.081 613.16 222.334 609.363 221.505C607.541 221.104 605.712 220.714 603.907 220.246C603.303 220.088 602.355 220.387 602.31 219.207C602.271 218.016 602.998 217.824 603.997 217.847C603.083 215.735 602.919 213.72 603.997 211.733C604.917 210.034 606.553 209.238 608.263 209.628C610.029 210.028 611.265 211.536 611.389 213.432C611.49 214.968 611.135 216.379 609.893 219.371H609.899Z" fill="#1970A3"/>
<path d="M600.967 229.334C599.45 229.266 599.004 228.617 599.41 227.143C600.189 224.304 601.802 223.378 604.539 224.394C606.39 225.083 608.229 225.789 610.068 226.5C610.746 226.765 611.406 227.014 611.637 225.981C611.806 225.224 612.275 225.444 612.726 225.619C613.211 225.811 613.832 225.941 613.414 226.709C613.019 227.437 613.352 227.753 614.052 227.951C614.611 228.109 615.147 228.363 615.694 228.572C616.219 228.769 616.704 228.933 616.32 229.701C616.032 230.282 615.942 230.999 615.022 230.666C614.87 230.615 614.735 230.53 614.582 230.48C612.331 229.712 612.342 229.718 611.439 231.942C611.191 232.557 611.208 233.46 610.001 232.98C608.793 232.501 609.437 231.846 609.668 231.23C610.492 229.001 610.503 229.006 608.201 228.131C606.954 227.657 605.718 227.172 604.471 226.698C602.299 225.879 601.407 226.41 601.086 228.696C601.058 228.905 601.012 229.108 600.973 229.328L600.967 229.334Z" fill="#1970A3"/>
<path d="M615.181 204.451C616.484 205.721 617.534 206.782 617.567 208.419C617.579 209.051 617.59 209.638 616.693 209.548C616.044 209.48 615.356 209.706 615.243 208.583C614.949 205.659 613.228 204.095 610.227 203.79C608.957 203.66 607.682 203.502 606.407 203.457C605.493 203.423 605.244 203.073 605.267 202.181C605.29 201.103 605.91 201.126 606.649 201.205C610.04 201.56 613.431 201.899 616.811 202.306C617.313 202.368 618.25 202.142 618.069 203.26C617.94 204.101 617.652 204.676 616.631 204.462C616.275 204.389 615.892 204.451 615.181 204.451Z" fill="#1970A3"/>
<path d="M180.374 304.977C177.802 304.96 175.804 303.859 174.653 301.567C173.372 299.021 173.666 296.47 175.279 294.15C176.825 291.92 179.088 291.355 181.65 291.79C184.499 292.275 186.728 295.854 186.141 298.818C185.983 299.614 185.481 299.546 184.962 299.501C182.575 299.298 180.188 299.044 177.802 298.869C176.075 298.739 175.821 299.162 176.555 300.743C177.48 302.747 180.115 303.678 182.315 302.769C182.756 302.589 183.19 302.363 183.579 302.092C184.307 301.595 184.51 302.318 184.843 302.628C185.328 303.08 184.9 303.356 184.567 303.639C183.574 304.485 182.039 304.982 180.38 304.977H180.374Z" fill="#07FF75"/>
<path d="M193.865 305.315C192.115 305.428 190.716 304.948 189.385 304.214C188.798 303.892 188.459 303.576 188.956 302.842C189.373 302.227 189.633 302.092 190.332 302.526C191.658 303.351 193.097 303.904 194.739 303.458C195.608 303.221 196.229 302.724 196.313 301.866C196.398 301.025 195.76 300.489 195.027 300.218C193.983 299.828 192.888 299.557 191.839 299.173C189.791 298.434 188.865 297.226 189.023 295.589C189.193 293.895 190.417 292.71 192.426 292.275C194.135 291.903 195.693 292.405 197.216 293.094C197.634 293.286 198.192 293.449 197.73 294.115C197.414 294.567 197.295 295.267 196.438 294.832C195.433 294.319 194.378 293.957 193.216 294.019C192.223 294.07 191.365 294.42 191.151 295.442C190.931 296.509 191.788 296.927 192.618 297.226C193.667 297.61 194.75 297.897 195.783 298.315C197.921 299.179 198.661 300.387 198.333 302.351C198.063 303.971 196.579 305.157 194.626 305.309C194.31 305.332 193.983 305.309 193.87 305.309L193.865 305.315Z" fill="#07FF75"/>
<path d="M169.169 303.413C166.184 303.368 164.881 301.765 165.451 298.84C165.778 297.164 166.128 295.499 166.404 293.816C166.545 292.947 167.07 291.903 165.552 291.564C165.073 291.457 165.225 290.847 165.259 290.424C165.287 290.063 165.456 289.746 165.84 289.825C167.566 290.181 167.138 288.725 167.448 287.923C167.702 287.263 167.346 286.167 168.723 286.416C169.705 286.591 169.891 287.121 169.705 288.002C169.191 290.435 168.785 290.266 171.595 290.796C172.255 290.921 173.085 290.734 172.944 291.863C172.797 293.015 171.984 292.795 171.251 292.71C170.879 292.671 170.517 292.575 170.151 292.484C169.265 292.27 168.819 292.462 168.684 293.517C168.447 295.363 167.99 297.181 167.645 299.015C167.335 300.664 168.04 301.488 169.756 301.703C170.173 301.753 171.065 301.031 171.008 302.222C170.963 303.159 170.393 303.515 169.496 303.43C169.389 303.419 169.282 303.43 169.175 303.43L169.169 303.413Z" fill="#07FF75"/>
<path d="M206.233 304.61C203.96 304.615 202.684 303.481 202.476 301.516C202.25 299.394 202.019 297.271 201.872 295.143C201.81 294.268 201.533 293.862 200.614 293.98C200.004 294.059 199.925 293.619 199.931 293.156C199.937 292.75 199.756 292.157 200.365 292.123C202.194 292.016 201.358 290.785 201.364 289.91C201.364 289.329 200.856 288.646 201.674 288.234C202.82 287.652 203.39 288.008 203.474 289.329C203.627 291.711 203.621 291.683 206.025 291.513C206.645 291.468 207.576 290.994 207.672 292.321C207.763 293.574 206.922 293.365 206.211 293.416C204.005 293.568 203.982 293.568 204.118 295.747C204.213 297.345 204.332 298.948 204.513 300.534C204.693 302.143 205.635 302.747 207.164 302.476C207.605 302.397 208.287 301.612 208.575 302.623C208.801 303.424 208.581 304.107 207.616 304.305C207.046 304.423 206.476 304.559 206.239 304.61H206.233Z" fill="#07FF75"/>
<path d="M74.7662 163.017C76.6789 167.019 76.0018 170.028 72.9211 171.721C69.9476 173.353 65.5014 172.224 63.6394 169.373C61.7605 166.494 62.6182 163.463 66.2067 160.685C64.2093 160.16 62.3417 159.579 60.4289 159.206C59.4415 159.009 59.3794 158.602 59.5656 157.789C59.7575 156.926 60.1863 156.852 60.9593 157.05C65.9584 158.354 70.9745 159.601 75.9793 160.894C76.5604 161.047 77.4519 160.917 77.0682 162.119C76.7861 163.011 76.4871 163.44 75.5335 163.028C75.3586 162.955 75.1216 163.017 74.7662 163.017Z" fill="#07FF75"/>
<path d="M65.9129 215.007C62.3526 212.58 61.4442 209.554 63.2102 206.562C64.9424 203.627 69.4338 202.447 72.5596 204.112C75.6855 205.778 76.3569 208.911 74.4498 212.913C75.0197 213.28 75.6065 212.512 76.12 212.902C76.577 213.246 76.5939 213.828 76.6052 214.369C76.6278 215.103 76.0015 215.036 75.5839 215.132C70.5453 216.272 65.501 217.395 60.4568 218.513C59.8023 218.66 59.1929 218.71 58.9785 217.802C58.7697 216.927 59.0744 216.509 59.9207 216.334C61.8391 215.927 63.7575 215.493 65.9129 215.013V215.007Z" fill="#07FF75"/>
<path d="M71.2622 191.1C72.3229 191.953 73.1806 192.878 73.4063 194.205C73.9987 197.671 72.4076 199.861 68.9206 200.2C66.6411 200.42 64.339 200.465 62.0482 200.595C61.3485 200.635 60.8125 200.595 60.7786 199.647C60.7448 198.698 61.2188 198.416 62.0087 198.365C63.9779 198.241 65.9527 198.128 67.9219 198.015C70.3086 197.88 71.5161 196.711 71.454 194.6C71.3919 192.506 70.0547 191.207 67.8034 191.241C65.727 191.275 63.6506 191.439 61.5742 191.574C60.7335 191.631 60.158 191.563 60.1523 190.451C60.1523 189.435 60.6658 189.356 61.4444 189.316C64.638 189.141 67.8316 188.916 71.0252 188.724C71.8997 188.673 72.8589 188.385 73.0226 189.813C73.1975 191.298 71.9674 190.728 71.2565 191.1H71.2622Z" fill="#07FF75"/>
<path d="M73.756 177.581C73.9253 178.721 73.5134 178.975 72.3285 178.805C67.2673 178.094 62.1892 177.479 57.1111 176.903C56.0672 176.785 55.9431 176.356 55.9995 175.458C56.0672 174.284 56.7951 174.747 57.3481 174.814C62.5277 175.441 67.7074 176.079 72.8815 176.728C73.3385 176.785 74.1228 176.61 73.7504 177.581H73.756Z" fill="#07FF75"/>
<path d="M62.319 182.294C65.7777 182.492 69.0672 182.684 72.3624 182.864C72.9435 182.898 73.4796 182.949 73.2426 183.756C73.0733 184.338 73.3554 185.156 72.148 185.055C68.9149 184.789 65.6649 184.693 62.4262 184.49C61.6024 184.439 60.378 184.976 60.4796 183.254C60.5755 181.583 61.783 182.52 62.319 182.289V182.294Z" fill="#07FF75"/>
<path d="M57.9121 183.062C57.9741 183.97 57.85 184.394 56.8739 184.315C55.909 184.236 55.5987 183.937 55.6213 182.971C55.6438 181.978 56.1403 181.882 56.9416 181.882C57.9741 181.882 58.0926 182.418 57.9121 183.062Z" fill="#07FF75"/>
<path d="M427.025 277.283C430.974 276.283 432.436 277.006 433.858 280.506C434.111 281.127 434.405 281.138 434.958 280.952C435.928 280.619 436.899 280.528 437.943 280.805C440.899 281.601 442.423 284.152 441.249 286.964C440.183 289.521 438.755 291.92 437.502 294.398C437.091 295.211 436.639 294.658 436.205 294.472C435.618 294.223 435.189 293.969 435.635 293.168C436.746 291.158 437.841 289.131 438.806 287.048C440.008 284.446 438.349 282.126 435.601 282.442C434.377 282.583 433.587 283.328 433.034 284.384C432.063 286.23 431.065 288.059 430.128 289.916C429.756 290.661 429.423 290.972 428.542 290.526C427.668 290.085 427.719 289.662 428.125 288.928C429.129 287.105 430.1 285.259 431.014 283.385C432.041 281.279 431.651 279.682 430.004 278.812C428.221 277.87 426.46 278.496 425.343 280.523C424.339 282.346 423.363 284.192 422.432 286.055C422.076 286.772 421.755 287.003 420.976 286.58C420.237 286.179 419.977 285.88 420.44 285.027C422.02 282.12 423.481 279.14 425.072 276.238C425.366 275.702 425.275 274.5 426.641 275.041C427.944 275.555 427.634 276.278 427.047 277.288L427.025 277.283Z" fill="#1970A3"/>
<path d="M503.551 299.546C503.54 303.452 500.792 306.241 496.927 306.258C493.085 306.275 490.252 303.435 490.264 299.585C490.281 295.719 493.074 292.975 496.989 292.986C500.854 292.998 503.551 295.696 503.546 299.546H503.551Z" fill="#1970A3"/>
<path d="M449.876 299.163C446.163 299.134 443.116 296.092 443.139 292.445C443.161 288.889 446.22 285.818 449.791 285.762C453.572 285.705 456.652 288.759 456.613 292.53C456.573 296.301 453.634 299.197 449.87 299.163H449.876Z" fill="#1970A3"/>
<path d="M462.78 291.655C464.416 290.537 466.008 289.961 467.853 290.503C469.856 291.096 471.12 292.615 471.091 294.726C471.052 297.74 470.059 300.591 469.506 303.521C469.331 304.452 468.716 304.001 468.276 303.95C467.751 303.888 467.226 303.775 467.413 302.956C467.87 300.986 468.259 298.993 468.671 297.012C469.145 294.743 468.659 293.281 467.176 292.541C465.173 291.536 462.893 292.389 462.272 294.551C461.64 296.747 461.195 299.005 460.771 301.251C460.608 302.132 460.269 302.239 459.479 302.104C458.633 301.963 458.385 301.562 458.548 300.789C459.288 297.294 460.044 293.806 460.766 290.311C460.929 289.515 461.426 289.459 462.075 289.538C462.797 289.628 463.136 289.973 462.978 290.718C462.927 290.966 462.87 291.22 462.775 291.655H462.78Z" fill="#1970A3"/>
<path d="M485.203 306.224C482.585 306.218 481.264 304.751 481.484 302.188C481.654 300.274 481.738 298.355 481.885 296.441C481.947 295.662 482.02 294.928 480.931 294.816C480.407 294.759 480.265 294.353 480.311 293.867C480.339 293.557 480.299 293.066 480.666 293.077C482.765 293.145 482.167 291.57 482.218 290.491C482.263 289.583 482.421 289.08 483.487 289.255C484.418 289.413 484.542 289.904 484.43 290.729C484.091 293.212 484.114 293.212 486.585 293.337C487.29 293.37 488.131 293.133 488.075 294.387C488.018 295.713 487.093 295.284 486.455 295.245C483.995 295.092 484.018 295.07 483.905 297.621C483.843 299.061 483.645 300.494 483.623 301.934C483.594 303.605 484.384 304.299 485.942 304.327C486.393 304.333 487.302 303.424 487.347 304.745C487.381 305.716 486.805 306.201 485.846 306.224C485.631 306.224 485.417 306.224 485.203 306.224Z" fill="#1970A3"/>
<path d="M508.484 295.352C509.415 293.58 510.238 292.202 511.948 291.745C512.371 291.632 512.98 291.186 513.076 291.976C513.15 292.586 513.821 293.591 512.958 293.845C508.151 295.268 508.963 298.925 509.375 302.454C509.443 303.035 509.539 303.611 509.589 304.198C509.668 305.158 508.918 305.124 508.303 305.231C507.564 305.361 507.423 304.909 507.349 304.299C506.943 300.805 506.509 297.317 506.08 293.828C505.99 293.072 506.001 292.485 507.039 292.406C508.077 292.326 508.365 292.761 508.32 293.687C508.297 294.116 508.405 294.556 508.495 295.341L508.484 295.352Z" fill="#1970A3"/>
<path d="M477.682 293.348C477.202 296.955 476.672 300.579 476.265 304.214C476.152 305.253 475.616 305.033 474.984 305.005C474.268 304.971 473.986 304.818 474.116 303.96C474.635 300.387 475.086 296.808 475.487 293.223C475.599 292.219 476.192 292.377 476.835 292.399C477.45 292.422 477.93 292.54 477.682 293.353V293.348Z" fill="#1970A3"/>
<path d="M478.42 288.595C478.449 289.29 478.404 289.995 477.365 289.843C476.773 289.753 475.802 290.142 475.887 288.996C475.932 288.42 475.701 287.427 476.779 287.534C477.41 287.596 478.556 287.139 478.415 288.595H478.42Z" fill="#1970A3"/>
<path d="M186.981 80.0188C183.15 83.0445 180.447 83.1744 177.891 80.4817C175.645 78.1165 175.516 73.6851 177.615 71.1957C179.826 68.5708 183.003 68.4805 186.699 71.0376C186.699 69.1692 186.688 67.3853 186.705 65.6072C186.71 64.9185 186.417 64.0717 187.664 64.0209C188.871 63.9701 188.741 64.7435 188.77 65.483C188.95 70.4393 189.142 75.3899 189.283 80.3462C189.3 81.018 189.78 81.9833 188.346 82.051C186.987 82.1188 187.037 81.3567 187.083 80.4535C187.088 80.318 187.02 80.1769 186.981 80.0188Z" fill="#07FF75"/>
<path d="M204.495 75.9652C204.54 78.0087 204.416 78.1046 202.306 77.8224C200.145 77.5345 197.978 77.2692 195.812 76.9813C194.779 76.8458 194.305 77.0377 194.689 78.2627C195.479 80.8086 198.159 82.1126 200.698 81.0569C201.138 80.8763 201.544 80.6053 201.967 80.3852C202.695 80.0013 202.865 80.7295 203.203 81.0513C203.604 81.4408 203.22 81.7005 202.938 81.9489C200.845 83.8286 196.737 83.6875 194.503 81.6553C191.918 79.3014 191.614 74.9999 193.831 72.2282C195.84 69.7162 199.253 69.0783 201.849 70.7887C203.683 71.9967 204.512 73.7806 204.495 75.9595V75.9652Z" fill="#07FF75"/>
<path d="M173.344 77.2753C173.344 81.1422 170.443 83.9759 166.505 83.9759C162.849 83.9759 160.028 81.0518 160.033 77.281C160.039 73.5553 163.012 70.5522 166.714 70.5352C170.432 70.5183 173.349 73.4819 173.344 77.281V77.2753Z" fill="#07FF75"/>
<path d="M146.875 80.2495C146.943 75.5867 151.722 72.3126 155.852 74.119C156.371 74.3448 157.178 74.4464 156.721 75.4512C156.337 76.2923 155.999 76.4899 155.062 76.0891C152.907 75.1633 150.503 76.044 149.549 77.9294C148.489 80.0237 149.166 82.9196 151.028 84.2348C152.901 85.5614 155.344 85.2622 156.952 83.501C157.167 83.2639 157.392 83.0212 157.545 82.7446C158.007 81.8922 158.515 82.4454 159.006 82.6768C159.683 82.9873 159.39 83.3937 159.141 83.8453C157.799 86.3009 154.639 87.5823 151.682 86.8598C148.884 86.1711 146.83 83.3486 146.881 80.2495H146.875Z" fill="#07FF75"/>
<path d="M484.757 80.1879C481.767 83.5918 478.686 84.1845 475.995 82.0225C473.19 79.7701 472.502 75.0566 474.578 72.3188C476.683 69.5414 479.989 69.231 483.567 71.647C483.279 69.564 483.07 67.6504 482.72 65.7593C482.551 64.8335 482.658 64.4722 483.685 64.269C484.797 64.0545 484.774 64.5795 484.881 65.3472C485.559 70.2132 486.303 75.0622 486.952 79.9339C487.048 80.6338 487.793 81.6782 486.422 82.0451C484.943 82.4402 484.921 81.3169 484.757 80.1935V80.1879Z" fill="#1970A3"/>
<path d="M506.779 79.8436C506.548 81.5992 506.294 83.112 506.17 84.6362C506.08 85.7934 505.375 85.6579 504.602 85.6071C503.535 85.5337 504.009 84.8168 504.065 84.3201C504.579 79.6629 505.104 75.0058 505.645 70.3487C505.719 69.7108 505.391 68.7963 506.768 68.9996C508.105 69.1971 507.947 69.8858 507.722 70.7664C507.699 70.8624 507.739 70.9753 507.778 71.3987C509.189 69.9423 510.78 69.2818 512.659 69.4625C514.611 69.6487 516.072 70.614 517.071 72.2624C518.894 75.2711 518.047 79.6517 515.282 81.6274C512.58 83.558 509.431 82.9766 506.779 79.8436Z" fill="#1970A3"/>
<path d="M496.499 81.797C493.463 81.8703 491.466 80.6454 490.287 78.2067C489.045 75.6326 489.559 72.4376 491.432 70.4336C493.232 68.5087 495.427 68.0853 497.87 68.8756C500.228 69.6377 502 72.5053 501.876 75.0512C501.831 75.9544 501.295 75.9318 500.697 75.9375C498.186 75.96 495.675 76.0165 493.164 75.9657C491.962 75.9431 491.787 76.327 492.211 77.3713C493.311 80.0583 496.538 80.8091 499.224 78.9688C499.647 78.6809 499.958 77.9979 500.663 78.7035C501.188 79.2285 501.34 79.5785 500.731 80.1148C499.433 81.2663 497.955 81.8816 496.499 81.7913V81.797Z" fill="#1970A3"/>
<path d="M540.12 80.8481C540.058 84.5568 537.051 87.4866 533.31 87.4753C529.654 87.464 526.562 84.3028 526.646 80.6674C526.731 76.9756 529.812 73.9951 533.502 74.0346C537.169 74.0684 540.188 77.1732 540.126 80.8481H540.12Z" fill="#1970A3"/>
<path d="M545.559 89.8239C547.963 87.5715 550.192 85.6466 552.212 83.5241C553.397 82.2822 554.294 82.4402 555.473 83.5692C551.653 86.9731 547.924 90.4166 544.047 93.685C542.106 95.3221 539.601 94.9213 538.027 93.1149C537.66 92.6972 537.446 92.3867 537.999 91.9577C538.422 91.6303 538.76 91.1335 539.33 91.7432C539.545 91.9746 539.799 92.1891 540.075 92.3415C541.706 93.2729 543.489 92.2625 543.551 90.394C543.669 86.7078 543.776 83.0216 543.946 79.3411C543.968 78.8839 543.568 77.9016 544.459 78.0371C545.204 78.15 546.242 78.3702 546.096 79.7588C545.819 82.4628 545.723 85.1893 545.565 87.9102C545.537 88.4295 545.565 88.9602 545.565 89.8295L545.559 89.8239Z" fill="#1970A3"/>
<path d="M521.207 84.0597C520.169 84.1501 519.875 83.7323 520.135 82.5638C521.286 77.4833 522.335 72.3859 523.436 67.2941C523.565 66.6901 523.74 66.199 524.615 66.4812C525.281 66.6958 525.834 66.7917 525.636 67.6949C524.468 72.9843 523.306 78.2793 522.161 83.5743C522.048 84.088 521.862 84.3702 521.213 84.0597H521.207Z" fill="#1970A3"/>
<path d="M274.715 124.726C273.44 125.9 272.3 126.86 271.273 127.927C270.607 128.621 270.24 128.463 269.625 127.865C268.954 127.216 269.196 126.86 269.732 126.346C273.248 122.982 276.752 119.612 280.227 116.214C280.814 115.638 281.181 115.565 281.751 116.214C282.208 116.739 282.67 117.139 281.892 117.755C281.666 117.935 281.344 118.116 281.395 118.506C285.903 119.194 287.94 121.368 287.624 125.144C287.354 128.39 284.109 131.252 280.696 131.269C277.084 131.286 275.087 129.186 274.715 124.726Z" fill="#07FF75"/>
<path d="M302.108 138.924C302.119 140.053 301.708 141.024 300.935 141.814C299.101 143.677 297.227 145.501 295.377 147.352C295.044 147.685 294.717 147.967 294.35 147.454C294.045 147.025 293.114 146.759 293.616 146.093C294.367 145.083 293.712 145.139 293.013 145.009C290.66 144.575 289.052 142.921 288.482 140.618C288.115 139.116 288.657 137.981 289.701 137.05C290.756 136.113 292.014 135.774 293.413 136.282C295.428 137.011 296.81 138.478 297.876 140.234C298.565 141.368 299.022 141.069 299.49 140.172C300.083 139.037 300.009 137.931 299.247 136.864C298.452 135.746 297.419 134.933 296.184 134.374C295.665 134.143 295.36 133.878 295.71 133.302C295.947 132.912 296.043 132.421 296.737 132.534C298.96 132.895 302.125 136.632 302.102 138.924H302.108Z" fill="#07FF75"/>
<path d="M306.509 144.575C308.495 144.851 309.878 145.105 310.972 146.24C312.896 148.238 313.043 150.807 311.13 152.816C309.398 154.634 307.553 156.344 305.77 158.117C305.318 158.569 304.957 158.964 304.393 158.202C303.976 157.643 303.349 157.276 304.173 156.514C305.708 155.103 307.186 153.629 308.659 152.15C310.453 150.344 310.588 148.791 309.121 147.279C307.564 145.664 305.668 145.63 303.885 147.279C302.356 148.695 300.867 150.163 299.422 151.665C298.79 152.32 298.418 152.145 297.904 151.563C297.425 151.021 297.154 150.649 297.842 150.005C300.342 147.674 302.768 145.258 305.273 142.926C305.691 142.537 306.024 141.43 307.011 142.418C307.756 143.163 308.1 143.762 306.52 144.58L306.509 144.575Z" fill="#07FF75"/>
<path d="M297.38 124.789C297.448 125.443 297.194 125.585 297.013 125.76C293.171 129.451 289.311 133.132 285.48 136.841C284.888 137.411 284.51 137.62 283.833 136.897C283.156 136.169 283.415 135.808 283.996 135.249C287.732 131.67 291.439 128.063 295.168 124.478C295.473 124.185 295.727 123.569 296.331 123.964C296.776 124.252 297.166 124.619 297.374 124.789H297.38Z" fill="#07FF75"/>
<path fill-rule="evenodd" clip-rule="evenodd" d="M136.075 181.507C136.073 183.07 136.07 184.633 136.07 186.195H136.076C136.076 188.21 136.075 190.225 136.075 192.24C136.074 196.271 136.072 200.302 136.076 204.332C136.076 204.429 136.071 204.528 136.065 204.627C136.034 205.193 136.003 205.749 137.007 205.715C139.24 205.645 141.478 205.693 143.715 205.74C147.634 205.823 151.551 205.906 155.441 205.359C171.307 203.13 175.685 188.453 170.923 177.801C167.448 170.016 160.57 167.244 152.569 166.883C149.46 166.743 146.345 166.772 143.23 166.801C141.313 166.819 139.396 166.837 137.481 166.815C136.381 166.804 136.031 167.069 136.042 168.221C136.088 172.648 136.082 177.078 136.075 181.507ZM146.304 183.776C146.302 184.608 146.3 185.441 146.3 186.273V186.279C146.3 187.041 146.301 187.803 146.302 188.565C146.305 190.853 146.308 193.143 146.283 195.43C146.277 196.226 146.452 196.598 147.338 196.553C148.145 196.51 148.955 196.502 149.764 196.493C150.882 196.48 152 196.468 153.11 196.367C158.149 195.904 161.743 192.252 162.036 187.453C162.392 181.554 159.627 177.614 154.295 176.389C152.859 176.058 151.412 176.086 149.965 176.114C149.115 176.13 148.265 176.146 147.417 176.09C146.458 176.022 146.272 176.412 146.283 177.281C146.315 179.446 146.31 181.611 146.304 183.776Z" fill="#07FF75"/>
<path fill-rule="evenodd" clip-rule="evenodd" d="M433.338 189.519C435.002 199.534 443.291 206.341 454.079 206.341L454.085 206.336C455.281 206.437 456.72 206.285 458.136 205.997C465.578 204.479 471.057 200.397 473.658 193.172C476.231 186.025 475.227 179.2 470.233 173.352C464.907 167.114 457.882 165.319 449.972 166.533C439.037 168.21 431.527 178.625 433.338 189.519ZM453.617 196.976C459.609 197.129 464.123 192.726 464.281 186.578C464.439 180.617 459.981 175.689 454.322 175.565C448.414 175.441 443.946 179.804 443.742 185.89C443.545 191.845 447.991 196.835 453.617 196.976Z" fill="#46AFEE"/>
<path fill-rule="evenodd" clip-rule="evenodd" d="M490.353 205.502C490.356 204.45 490.359 203.382 490.359 202.294L490.371 202.289C490.506 202.39 490.611 202.463 490.693 202.521C490.828 202.616 490.906 202.671 490.969 202.74C495.957 208.244 505.729 207.493 510.096 200.663C513.471 195.385 513.696 189.667 511.535 183.92C509.165 177.603 502.948 174.357 496.617 175.808C494.123 176.378 492.267 177.902 490.365 179.946C490.365 179.552 490.357 179.191 490.35 178.853C490.335 178.164 490.321 177.569 490.382 176.982C490.489 175.961 490.1 175.724 489.129 175.752C486.619 175.819 484.102 175.819 481.591 175.752C480.632 175.724 480.333 175.949 480.333 176.971C480.367 189.17 480.361 201.363 480.333 213.556C480.333 214.459 480.576 214.73 481.484 214.708C483.995 214.651 486.511 214.617 489.022 214.719C490.207 214.77 490.399 214.335 490.382 213.274C490.338 210.715 490.345 208.156 490.353 205.502ZM496.544 197.829C500.138 197.84 502.858 194.899 502.88 190.982H502.874C502.897 187.058 500.025 183.875 496.51 183.931C492.983 183.987 490.269 187.024 490.269 190.925C490.269 194.86 492.955 197.812 496.544 197.829Z" fill="#46AFEE"/>
<path fill-rule="evenodd" clip-rule="evenodd" d="M194.437 193.771C195.295 193.768 196.154 193.764 197.014 193.764H197.019H204.084C206.307 193.764 207.373 192.637 207.283 190.383C206.888 180.538 199.35 174.097 189.978 175.599C182.648 176.773 177.497 182.587 177.164 190.056C176.808 197.964 181.153 204.095 188.635 205.822C194.841 207.256 200.518 206.2 205.133 201.385C205.844 200.646 205.94 200.2 205.02 199.556C203.926 198.794 202.882 197.936 201.939 196.999C200.89 195.96 200.015 195.565 198.825 196.852C198.304 197.422 197.487 197.756 196.733 198.064C196.695 198.08 196.657 198.095 196.619 198.111C192.929 199.629 188.9 198.241 187.399 195.029C186.948 194.064 187.032 193.725 188.189 193.747C190.271 193.787 192.353 193.779 194.437 193.771ZM192.037 183.09C189.284 183.191 187.365 185.145 186.953 188.357H186.959C187.773 188.357 188.587 188.355 189.401 188.354C191.84 188.351 194.276 188.348 196.709 188.373C197.561 188.385 197.646 188.119 197.46 187.346C196.822 184.693 194.706 182.988 192.037 183.09Z" fill="#07FF75"/>
<path d="M330.546 190.717C330.715 190.762 331.025 190.83 331.33 190.92C333.085 191.434 333.175 191.693 332.024 193.026C330.946 194.273 329.835 195.498 328.785 196.768C328.125 197.564 327.69 197.378 327.25 196.588C326.494 195.233 326.37 193.884 327.188 192.506C327.916 191.287 329.056 190.83 330.54 190.717H330.546Z" fill="#07FF75"/>
<path d="M367.018 148.712C367.238 147.216 367.689 145.997 368.992 145.291C370.268 144.603 371.537 144.704 372.795 145.376C373.444 145.721 373.45 146.054 372.965 146.595C371.785 147.894 370.663 149.249 369.506 150.564C368.479 151.732 368.219 151.693 367.565 150.253C367.328 149.728 367.176 149.158 367.023 148.712H367.018Z" fill="#07FF75"/>
<path d="M340.357 178.885C340.583 177.383 341.057 176.192 342.349 175.47C343.647 174.741 344.894 174.928 346.146 175.577C346.818 175.927 346.761 176.277 346.287 176.796C345.108 178.095 343.985 179.449 342.823 180.77C341.813 181.916 341.531 181.865 340.888 180.426C340.651 179.895 340.504 179.331 340.352 178.885H340.357Z" fill="#07FF75"/>
<path d="M358.858 169.909C358.904 171.507 357.437 173.578 355.987 174.058C355.084 174.357 354.294 174.148 353.662 173.471C352.923 172.675 352.934 171.698 353.335 170.79C353.972 169.333 355.174 168.351 356.432 167.442C357.318 166.799 357.645 167.696 358.097 168.108C358.627 168.594 358.779 169.288 358.864 169.915L358.858 169.909Z" fill="#07FF75"/>
<path d="M607.343 164.31C603.641 164.315 600.814 161.532 600.837 157.897C600.854 154.341 604.279 151.157 608.048 151.191C611.518 151.225 614.446 154.149 614.503 157.643C614.559 161.25 611.287 164.304 607.348 164.31H607.343Z" fill="#07FF75"/>
<path d="M615.247 177.055C615.264 179.505 612.928 181.509 610.107 181.47C607.692 181.436 605.932 179.709 605.904 177.338C605.87 174.775 607.974 172.709 610.626 172.703C613.182 172.703 615.236 174.628 615.253 177.05L615.247 177.055Z" fill="#07FF75"/>
<path d="M616.935 192.647C616.885 194.476 615.807 195.707 614.001 196.136C613.29 196.305 613.008 196.164 613.003 195.43C612.997 193.398 613.003 191.371 612.929 189.345C612.895 188.487 613.403 188.662 613.849 188.741C615.734 189.074 616.986 190.683 616.935 192.659V192.647Z" fill="#07FF75"/>
<path d="M601.915 242.634C599.969 242.617 599.828 242.408 600.702 240.714C601.464 239.247 602.288 237.807 603.021 236.328C603.422 235.515 603.766 235.459 604.415 236.102C605.538 237.226 605.989 238.953 605.425 240.364C604.827 241.855 603.591 242.656 601.915 242.639V242.634Z" fill="#07FF75"/>
<path d="M609.769 214.752C609.673 215.927 609.228 217.168 608.686 218.388C608.466 218.879 608.15 219.048 607.546 218.947C606.062 218.693 604.99 217.586 604.759 215.887C604.544 214.318 605.425 212.415 606.598 211.924C608.206 211.253 609.792 212.579 609.769 214.752Z" fill="#07FF75"/>
<path d="M182.682 297.779C180.876 297.604 179.02 297.384 177.158 297.254C176.436 297.203 176.221 297.045 176.464 296.3C176.972 294.753 178.766 293.376 180.34 293.432C181.931 293.489 183.455 294.844 183.805 296.526C183.991 297.406 183.9 298.061 182.676 297.785L182.682 297.779Z" fill="#1970A3"/>
<path d="M74.0894 166.098C74.0838 168.475 72.1992 170.281 69.7335 170.27C66.9857 170.253 64.6723 168.136 64.7174 165.686C64.7626 163.456 66.822 161.503 69.158 161.475C71.9115 161.441 74.0951 163.49 74.0838 166.104L74.0894 166.098Z" fill="#1970A3"/>
<path d="M73.7393 209.859C73.7111 212.343 71.5106 214.358 68.8417 214.324C66.4268 214.296 64.3843 212.298 64.3956 209.983C64.4068 207.488 66.6186 205.637 69.547 205.67C72.1651 205.699 73.7675 207.296 73.7393 209.859Z" fill="#1970A3"/>
<path d="M492.521 299.563C492.504 296.763 494.219 294.946 496.882 294.951C499.444 294.951 501.323 296.882 501.373 299.557C501.424 302.228 499.562 304.265 497.04 304.299C494.45 304.333 492.538 302.329 492.521 299.563Z" fill="#07FF75"/>
<path d="M454.361 292.321C454.35 295.019 452.319 297.26 449.898 297.226C447.365 297.198 445.328 295.092 445.379 292.569C445.435 289.972 447.534 287.776 450.006 287.737C452.398 287.697 454.373 289.775 454.361 292.321Z" fill="#07FF75"/>
<path d="M178.416 75.61C178.416 72.8326 180.081 71.0714 182.676 71.094C185.068 71.1165 187.026 73.1826 187.021 75.689C187.021 78.3478 185.08 80.4477 182.637 80.4364C180.137 80.4251 178.416 78.4494 178.416 75.6043V75.61Z" fill="#1970A3"/>
<path d="M198.706 71.748C200.602 71.7763 202.244 73.3794 202.402 75.3213C202.452 75.9253 202.294 76.2527 201.629 76.1737C199.671 75.931 197.713 75.6939 195.749 75.4512C194.931 75.3495 194.598 75.0617 195.072 74.2036C195.879 72.7529 196.946 71.7537 198.706 71.7537V71.748Z" fill="#1970A3"/>
<path d="M166.81 82.0054C164.35 82.0393 162.144 79.7192 162.144 77.0886C162.144 74.6951 164.259 72.5049 166.578 72.5049C169.078 72.5049 171.183 74.7572 171.211 77.4612C171.239 79.928 169.264 81.9715 166.81 82.0054Z" fill="#1970A3"/>
<path d="M484.232 76.6821C484.232 79.3465 482.433 81.1981 479.882 81.1642C477.49 81.136 475.617 79.0135 475.594 76.3039C475.571 73.8257 477.478 71.7879 479.814 71.7822C482.258 71.7766 484.232 73.9612 484.227 76.6821H484.232Z" fill="#07FF75"/>
<path d="M515.711 75.8415C515.728 78.6809 514.013 80.6961 511.53 80.7526C509.194 80.809 507.135 78.6922 507.09 76.1858C507.044 73.6004 509.143 71.2859 511.575 71.2408C513.821 71.2013 515.7 73.2899 515.717 75.8415H515.711Z" fill="#07FF75"/>
<path d="M496.019 70.4561C497.786 70.5069 499.202 71.8673 499.467 73.6229C499.597 74.4753 499.066 74.3059 498.621 74.3398C496.663 74.4809 494.694 74.2156 492.736 74.5543C491.98 74.6842 491.855 74.2269 491.985 73.5721C492.38 71.6189 493.943 70.3996 496.019 70.4617V70.4561Z" fill="#07FF75"/>
<path d="M537.851 80.5091C537.874 83.2751 535.815 85.5501 533.309 85.5275C530.9 85.5049 528.891 83.4275 528.886 80.9381C528.88 78.4543 530.99 76.0552 533.236 75.9987C535.775 75.931 537.829 77.935 537.851 80.5091Z" fill="#07FF75"/>
<path d="M276.367 124.896C276.39 122.299 278.765 119.94 281.282 119.996C283.691 120.053 285.446 121.915 285.401 124.365C285.355 126.77 282.929 129.192 280.537 129.214C278.195 129.237 276.339 127.323 276.362 124.896H276.367Z" fill="#1970A3"/>
<path d="M294.603 143.993C292.944 144.015 290.908 142.474 290.563 140.888C290.371 140.002 290.552 139.206 291.297 138.59C292.025 137.992 292.781 137.868 293.661 138.252C295.325 138.98 296.324 140.357 297.131 141.859C297.605 142.734 296.087 143.976 294.598 143.998L294.603 143.993Z" fill="#1970A3"/>
</g>
<defs>
<clipPath id="clip0_3283_1103">
<rect width="637" height="327.974" fill="white" transform="translate(21 21)"/>
</clipPath>
</defs>
</svg>
