<svg width="2211" height="934" viewBox="0 0 2211 934" fill="none" xmlns="http://www.w3.org/2000/svg">
<path d="M433.5 680L390.7 145H904.3L861.5 680L647.5 744.2L433.5 680Z" fill="#1172B8"/>
<path d="M861.5 187.8H647.5V712.1L818.7 658.6L861.5 187.8Z" fill="#33AADD"/>
<path d="M722.4 455.3H508.4L497.7 380.4L668.9 326.9H497.7L487 262.7H818.7L808 337.6L668.9 391.1H797.3L775.9 594.4L647.5 637.2L519.1 594.4L508.4 487.4H572.6L583.3 540.9L647.5 562.3L711.7 540.9L722.4 455.3Z" fill="white"/>
<g clip-path="url(#clip0_50_155)">
<path d="M1381.71 671.569L1338.7 145.982L1852.3 147.039L1806.83 671.569L1597.44 732.199L1381.71 671.569Z" fill="#E9CA32"/>
<path d="M1597.44 681.439V196.038L1808.94 196.742L1771.23 631.028L1597.44 681.439Z" fill="#FFDE25"/>
<path d="M1574.79 253.673H1518.87V576.744L1475.38 568.46V524.97L1423.61 516.686V614.021L1574.79 653.37V253.673ZM1616.74 253.673H1771.53L1761.18 315.595H1675.83V417.209H1761.18L1750.82 622.305L1616.74 653.37V589.17L1707.33 558.105L1712.56 473.195L1616.74 487.071V253.673Z" fill="white"/>
</g>
<path d="M837.5 760.75L784 92H1426L1372.5 760.75L1105 841L837.5 760.75Z" fill="#E44D26"/>
<path d="M1372.5 145.5H1105V800.875L1319 734L1372.5 145.5Z" fill="#F16529"/>
<path d="M931.125 479.875L904.375 225.75H1319L1305.62 306H984.625L998 399.625H1292.25L1265.5 653.75L1105 707.25L944.5 653.75L931.125 520H1011.38L1024.75 586.875L1105 613.625L1185.25 586.875L1198.62 479.875H931.125Z" fill="white"/>
<defs>
<clipPath id="clip0_50_155">
<rect width="513.6" height="588.181" fill="white" transform="translate(1338.7 145)"/>
</clipPath>
</defs>
</svg>
