<svg width="466" height="315" viewBox="0 0 466 315" fill="none" xmlns="http://www.w3.org/2000/svg">
<g clip-path="url(#clip0_61_135)">
<path d="M367.45 263.975C347.066 237.089 326.803 210.377 306.144 183.144C305.14 184.311 304.306 185.356 303.394 186.329C284.469 206.506 265.598 226.733 246.585 246.826C231.382 262.894 214.302 276.413 193.287 284.148C152.618 299.118 113.377 295.812 76.536 272.994C43.8947 252.777 23.9112 223.096 16.9597 185.298C4.1405 115.595 49.0167 48.4989 118.219 33.5754C149.318 26.8687 179.093 31.2281 207.38 45.8577C209.816 47.1174 210.701 48.5854 210.677 51.3757C210.534 68.4012 210.606 85.4285 210.606 102.455C210.606 103.636 210.606 104.817 210.606 106.787C209.503 105.795 208.873 105.296 208.321 104.721C185.444 80.9253 157.621 72.0164 125.709 79.807C94.1063 87.5222 73.5846 108.172 64.38 139.419C54.5133 172.914 67.9716 210.513 96.648 230.547C121.348 247.804 148.162 250.866 176.441 241.284C188.548 237.181 198.453 229.32 207.257 220.279C221.556 205.595 235.583 190.644 249.616 175.704C284.225 138.858 318.772 101.955 353.344 65.0742C362.668 55.1283 371.96 45.1532 381.363 35.2831C382.268 34.333 383.854 33.5187 385.128 33.5116C405.024 33.401 424.92 33.4336 444.816 33.4362C445.178 33.4363 445.539 33.4743 446.662 33.5375C410.415 72.2021 374.604 110.402 338.548 148.864C374.188 195.865 409.736 242.744 445.618 290.064C444.401 290.131 443.763 290.197 443.124 290.197C425.416 290.205 407.708 290.172 390.001 290.255C387.961 290.264 386.761 289.551 385.577 287.959C379.641 279.973 373.585 272.077 367.45 263.975Z" fill="#11B685"/>
<path d="M224.731 154.647C224.731 115.316 224.73 76.2838 224.73 37.2514C224.73 33.4122 224.732 33.4097 228.638 33.4094C242.565 33.4083 256.494 33.493 270.42 33.3394C273.264 33.308 273.868 34.2178 273.861 36.882C273.776 66.7534 273.833 96.6253 273.739 126.497C273.734 128.012 273.093 129.877 272.09 130.98C264.527 139.292 256.796 147.451 249.125 155.664C241.59 163.73 234.066 171.805 226.527 179.867C226.204 180.213 225.785 180.47 224.731 181.309C224.731 172.099 224.731 163.522 224.731 154.647Z" fill="#5278FF"/>
<path d="M271.194 290.232C256.801 290.231 242.692 290.261 228.583 290.178C227.311 290.17 224.996 289.513 224.956 289.014C224.779 286.819 223.849 284.401 226.465 282.556C231.406 279.07 236.467 275.627 240.842 271.493C250.433 262.429 259.633 252.949 268.98 243.627C270.35 242.262 271.655 240.831 273.496 238.9C273.652 240.502 273.802 241.332 273.802 242.161C273.819 257.178 273.809 272.195 273.829 287.212C273.831 288.885 273.973 290.557 271.194 290.232Z" fill="#5278FF"/>
</g>
<defs>
<clipPath id="clip0_61_135">
<rect width="466" height="315" fill="white"/>
</clipPath>
</defs>
</svg>
