<svg width="80" height="80" viewBox="0 0 80 80" fill="none" xmlns="http://www.w3.org/2000/svg">
<circle cx="40" cy="40" r="40" fill="white"/>
<g clip-path="url(#clip0_158_618)">
<path d="M56.3801 16.2941C56.3127 16.2491 56.2445 16.2064 56.177 16.163C54.2278 14.9144 52.1386 13.9002 49.9525 13.1411L49.4456 20.1443H46.2322V12.1188C46.0299 12.0768 45.8261 12.0373 45.6222 12V20.1443H41.8035C39.7012 20.1443 37.6851 19.3079 36.1986 17.8191C34.712 16.3304 33.8769 14.3112 33.8769 12.2057C33.6723 12.25 33.4692 12.2973 33.2662 12.3478V20.1443H30.1559L29.673 13.4663C27.4264 14.3292 25.2937 15.4639 23.3221 16.8453C23.288 16.8686 23.2539 16.8926 23.2206 16.9159C23.0493 17.0362 22.8803 17.1589 22.7122 17.2831V44.0004H31.8788L31.7168 41.7532L30.8255 29.4149H48.7752L47.8839 41.7532L47.7219 44.0004H56.787V16.5643C56.6521 16.4727 56.5165 16.3826 56.3801 16.2941ZM33.2662 27.3773H30.6783L30.2 20.756H33.2662V27.3773ZM45.6222 27.3773H41.2757V27.2461C41.2757 27.183 41.2633 27.1206 41.2391 27.0623C41.215 27.0041 41.1797 26.9511 41.1351 26.9066C41.0906 26.862 41.0377 26.8267 40.9795 26.8026C40.9213 26.7786 40.8589 26.7662 40.7959 26.7664H38.9063C38.8434 26.7663 38.7811 26.7787 38.723 26.8028C38.6649 26.8269 38.612 26.8623 38.5676 26.9068C38.5231 26.9514 38.4878 27.0042 38.4637 27.0625C38.4397 27.1207 38.4273 27.1831 38.4273 27.2461V27.3773H33.8769V20.756H45.6222V27.3773ZM46.2322 27.3773V20.756H49.4014L48.9232 27.3773H46.2322Z" fill="#F2F2F2"/>
<path d="M66.3353 60.5574L66.3959 59.1931C67.0275 58.855 67.7319 58.6764 68.448 58.6729C67.4624 59.4799 67.5856 61.0356 66.9174 62.1208C66.7064 62.4577 66.4224 62.7427 66.0864 62.9547C65.7505 63.1668 65.3712 63.3004 64.9767 63.3456L64.1519 63.8514C64.0388 63.2195 64.0637 62.5705 64.2251 61.9492C64.3864 61.3279 64.6804 60.749 65.0866 60.2525C65.3173 59.9761 65.5818 59.73 65.8739 59.5199C66.0714 60.0415 66.3353 60.5574 66.3353 60.5574Z" fill="#F2F2F2"/>
<path d="M22.0831 59.0624L20.0927 58.4589C19.8316 57.3968 19.8334 56.2869 20.0979 55.2256C20.9175 56.9883 23.2595 57.392 24.6093 58.7898C25.0269 59.2289 25.3405 59.7566 25.5268 60.3337C25.7132 60.9108 25.7675 61.5224 25.6857 62.1234L26.1213 63.5346C25.1463 63.4642 24.1981 63.1828 23.342 62.71C22.486 62.2371 21.7425 61.5841 21.1627 60.7957C20.8419 60.3502 20.5783 59.8661 20.3782 59.3546C21.2224 59.2587 22.0831 59.0624 22.0831 59.0624Z" fill="#F2F2F2"/>
<path d="M64.7865 63.6283C64.7862 63.6696 64.7698 63.7092 64.7408 63.7385C64.7264 63.7529 64.7094 63.7642 64.6906 63.772C64.6718 63.7797 64.6518 63.7836 64.6315 63.7836H64.0083C63.9879 63.7836 63.9678 63.7797 63.9489 63.7719C63.9301 63.7641 63.913 63.7527 63.8986 63.7382C63.8841 63.7238 63.8727 63.7067 63.865 63.6878C63.8572 63.6689 63.8532 63.6487 63.8533 63.6283V44.7549C63.8533 44.3388 63.7138 44.0012 63.5425 44.0004H16.8458C16.6737 44.0012 16.535 44.3388 16.5342 44.7549V63.5126C16.5341 63.5512 16.5197 63.5884 16.4937 63.6169C16.4678 63.6455 16.4323 63.6633 16.3939 63.6671C16.2684 63.6795 16.1428 63.6904 16.018 63.7005C16.0149 63.7005 16.0118 63.7013 16.0087 63.7013C15.9405 63.7075 15.8723 63.7121 15.8041 63.7176H15.8033C15.7677 63.6531 15.7336 63.5872 15.6987 63.5212C15.6875 63.4988 15.6817 63.4741 15.6816 63.449V43.776C15.6816 43.6612 15.6863 43.5455 15.694 43.4314C15.7051 43.2747 15.7245 43.1187 15.7522 42.9641C15.8832 42.243 16.1792 41.7547 16.5156 41.7532H63.8719C63.921 41.7535 63.9695 41.7638 64.0145 41.7834C64.0806 41.8127 64.1404 41.8547 64.1905 41.9069C64.2584 41.9776 64.3166 42.0573 64.3633 42.1436C64.5292 42.4363 64.6478 42.8725 64.6896 43.3802C64.6896 43.3848 64.6904 43.3895 64.6904 43.3941C64.7012 43.5199 64.7067 43.648 64.7059 43.776L64.7167 45.4395L64.7237 46.4315L64.7446 49.5443L64.7524 50.6496L64.7865 63.6283Z" fill="#E6E6E6"/>
<path d="M68.9077 63.9761L47.5354 64C47.5109 63.9999 47.4875 63.9901 47.4703 63.9728C47.453 63.9555 47.4434 63.932 47.4434 63.9075C47.4434 63.8831 47.453 63.8596 47.4703 63.8423C47.4875 63.825 47.5109 63.8152 47.5354 63.8151L68.9077 63.7913C68.9322 63.7913 68.9556 63.8011 68.9728 63.8184C68.9901 63.8357 68.9997 63.8592 68.9997 63.8837C68.9997 63.9082 68.9901 63.9316 68.9728 63.9489C68.9556 63.9663 68.9322 63.976 68.9077 63.9761Z" fill="#CACACA"/>
<path d="M42.3795 36.2389H38.5942C38.5407 36.239 38.4894 36.2603 38.4515 36.2983C38.4137 36.3363 38.3925 36.3877 38.3926 36.4414V42.43H42.5817V36.4414C42.5817 36.4148 42.5765 36.3884 42.5663 36.3639C42.5562 36.3393 42.5413 36.317 42.5225 36.2982C42.5037 36.2794 42.4814 36.2644 42.4569 36.2543C42.4324 36.2441 42.4061 36.2389 42.3795 36.2389ZM40.4996 39.6416C40.3812 39.641 40.2679 39.5937 40.1841 39.5099C40.1004 39.426 40.0532 39.3125 40.0526 39.1939V38.5032C40.0526 38.3845 40.0997 38.2706 40.1835 38.1866C40.2674 38.1027 40.3811 38.0555 40.4996 38.0555C40.6181 38.0555 40.7318 38.1027 40.8157 38.1866C40.8995 38.2706 40.9466 38.3845 40.9466 38.5032V39.1939C40.946 39.3125 40.8988 39.426 40.8151 39.5099C40.7313 39.5937 40.618 39.641 40.4996 39.6416Z" fill="#2F2E41"/>
<path d="M48.6476 26.8928H32.467C32.328 26.893 32.1948 26.9484 32.0965 27.0469C31.9982 27.1453 31.9428 27.2788 31.9426 27.418V38.3533C31.9428 38.4925 31.9981 38.626 32.0964 38.7245C32.1947 38.823 32.328 38.8783 32.467 38.8785H48.6476C48.7866 38.8783 48.9199 38.823 49.0182 38.7245C49.1166 38.626 49.1719 38.4925 49.172 38.3533V27.418C49.1718 27.2788 49.1164 27.1453 49.0181 27.0469C48.9198 26.9484 48.7866 26.893 48.6476 26.8928Z" fill="#3F3D56"/>
<path d="M48.5123 27.2721H32.602C32.5276 27.2723 32.4562 27.302 32.4037 27.3547C32.3511 27.4075 32.3215 27.479 32.3215 27.5536V38.2178C32.3217 38.2922 32.3512 38.3636 32.4038 38.4162C32.4564 38.4689 32.5276 38.4985 32.602 38.4986H48.5123C48.5866 38.4985 48.6579 38.4689 48.7104 38.4162C48.763 38.3636 48.7926 38.2922 48.7927 38.2178V27.5536C48.7927 27.479 48.7632 27.4075 48.7106 27.3547C48.658 27.302 48.5867 27.2723 48.5123 27.2721Z" fill="white"/>
<path d="M38.3796 42.2385V42.8163C38.3797 42.8463 38.3916 42.8749 38.4127 42.8961C38.4339 42.9173 38.4625 42.9292 38.4924 42.9293H42.4819C42.5118 42.9291 42.5404 42.9172 42.5615 42.896C42.5826 42.8749 42.5946 42.8462 42.5947 42.8163V42.2385H38.3796Z" fill="#3F3D56"/>
<path d="M45.4133 43.1303H35.9476C35.9217 43.1303 35.8961 43.1245 35.8727 43.1133C35.8493 43.1022 35.8287 43.0859 35.8123 43.0658C35.796 43.0456 35.7844 43.0221 35.7783 42.9969C35.7722 42.9716 35.7718 42.9454 35.7772 42.92L35.924 42.2213C35.9324 42.1823 35.9539 42.1472 35.9849 42.122C36.0158 42.0968 36.0545 42.083 36.0944 42.0829H45.2665C45.3064 42.083 45.345 42.0968 45.376 42.122C45.407 42.1472 45.4285 42.1823 45.4368 42.2213L45.5837 42.92C45.5891 42.9454 45.5887 42.9716 45.5826 42.9969C45.5765 43.0221 45.5649 43.0456 45.5485 43.0658C45.5322 43.0859 45.5116 43.1022 45.4882 43.1133C45.4648 43.1245 45.4392 43.1303 45.4133 43.1303Z" fill="#2F2E41"/>
<path d="M36.4153 42.2086H36.1995C36.1786 42.2086 36.1616 42.2256 36.1616 42.2465V42.3459C36.1616 42.3668 36.1786 42.3838 36.1995 42.3838H36.4153C36.4362 42.3838 36.4532 42.3668 36.4532 42.3459V42.2465C36.4532 42.2256 36.4362 42.2086 36.4153 42.2086Z" fill="#3F3D56"/>
<path d="M36.9986 42.2086H36.7827C36.7618 42.2086 36.7449 42.2256 36.7449 42.2465V42.3459C36.7449 42.3668 36.7618 42.3838 36.7827 42.3838H36.9986C37.0195 42.3838 37.0364 42.3668 37.0364 42.3459V42.2465C37.0364 42.2256 37.0195 42.2086 36.9986 42.2086Z" fill="#3F3D56"/>
<path d="M37.5816 42.2086H37.3657C37.3448 42.2086 37.3279 42.2256 37.3279 42.2465V42.3459C37.3279 42.3668 37.3448 42.3838 37.3657 42.3838H37.5816C37.6025 42.3838 37.6194 42.3668 37.6194 42.3459V42.2465C37.6194 42.2256 37.6025 42.2086 37.5816 42.2086Z" fill="#3F3D56"/>
<path d="M38.1646 42.2086H37.9487C37.9278 42.2086 37.9109 42.2256 37.9109 42.2465V42.3459C37.9109 42.3668 37.9278 42.3838 37.9487 42.3838H38.1646C38.1855 42.3838 38.2024 42.3668 38.2024 42.3459V42.2465C38.2024 42.2256 38.1855 42.2086 38.1646 42.2086Z" fill="#3F3D56"/>
<path d="M38.7476 42.2086H38.5317C38.5108 42.2086 38.4939 42.2256 38.4939 42.2465V42.3459C38.4939 42.3668 38.5108 42.3838 38.5317 42.3838H38.7476C38.7685 42.3838 38.7854 42.3668 38.7854 42.3459V42.2465C38.7854 42.2256 38.7685 42.2086 38.7476 42.2086Z" fill="#3F3D56"/>
<path d="M39.3308 42.2086H39.115C39.0941 42.2086 39.0771 42.2256 39.0771 42.2465V42.3459C39.0771 42.3668 39.0941 42.3838 39.115 42.3838H39.3308C39.3517 42.3838 39.3687 42.3668 39.3687 42.3459V42.2465C39.3687 42.2256 39.3517 42.2086 39.3308 42.2086Z" fill="#3F3D56"/>
<path d="M39.9139 42.2086H39.698C39.6771 42.2086 39.6602 42.2256 39.6602 42.2465V42.3459C39.6602 42.3668 39.6771 42.3838 39.698 42.3838H39.9139C39.9348 42.3838 39.9517 42.3668 39.9517 42.3459V42.2465C39.9517 42.2256 39.9348 42.2086 39.9139 42.2086Z" fill="#3F3D56"/>
<path d="M40.4969 42.2086H40.281C40.2601 42.2086 40.2432 42.2256 40.2432 42.2465V42.3459C40.2432 42.3668 40.2601 42.3838 40.281 42.3838H40.4969C40.5178 42.3838 40.5347 42.3668 40.5347 42.3459V42.2465C40.5347 42.2256 40.5178 42.2086 40.4969 42.2086Z" fill="#3F3D56"/>
<path d="M41.0799 42.2086H40.864C40.8431 42.2086 40.8262 42.2256 40.8262 42.2465V42.3459C40.8262 42.3668 40.8431 42.3838 40.864 42.3838H41.0799C41.1008 42.3838 41.1177 42.3668 41.1177 42.3459V42.2465C41.1177 42.2256 41.1008 42.2086 41.0799 42.2086Z" fill="#3F3D56"/>
<path d="M41.6631 42.2086H41.4473C41.4264 42.2086 41.4094 42.2256 41.4094 42.2465V42.3459C41.4094 42.3668 41.4264 42.3838 41.4473 42.3838H41.6631C41.684 42.3838 41.701 42.3668 41.701 42.3459V42.2465C41.701 42.2256 41.684 42.2086 41.6631 42.2086Z" fill="#3F3D56"/>
<path d="M42.2461 42.2086H42.0303C42.0094 42.2086 41.9924 42.2256 41.9924 42.2465V42.3459C41.9924 42.3668 42.0094 42.3838 42.0303 42.3838H42.2461C42.267 42.3838 42.284 42.3668 42.284 42.3459V42.2465C42.284 42.2256 42.267 42.2086 42.2461 42.2086Z" fill="#3F3D56"/>
<path d="M42.8291 42.2086H42.6133C42.5924 42.2086 42.5754 42.2256 42.5754 42.2465V42.3459C42.5754 42.3668 42.5924 42.3838 42.6133 42.3838H42.8291C42.85 42.3838 42.867 42.3668 42.867 42.3459V42.2465C42.867 42.2256 42.85 42.2086 42.8291 42.2086Z" fill="#3F3D56"/>
<path d="M43.4124 42.2086H43.1965C43.1756 42.2086 43.1587 42.2256 43.1587 42.2465V42.3459C43.1587 42.3668 43.1756 42.3838 43.1965 42.3838H43.4124C43.4333 42.3838 43.4502 42.3668 43.4502 42.3459V42.2465C43.4502 42.2256 43.4333 42.2086 43.4124 42.2086Z" fill="#3F3D56"/>
<path d="M43.9954 42.2086H43.7795C43.7586 42.2086 43.7417 42.2256 43.7417 42.2465V42.3459C43.7417 42.3668 43.7586 42.3838 43.7795 42.3838H43.9954C44.0163 42.3838 44.0332 42.3668 44.0332 42.3459V42.2465C44.0332 42.2256 44.0163 42.2086 43.9954 42.2086Z" fill="#3F3D56"/>
<path d="M44.5784 42.2086H44.3625C44.3416 42.2086 44.3247 42.2256 44.3247 42.2465V42.3459C44.3247 42.3668 44.3416 42.3838 44.3625 42.3838H44.5784C44.5993 42.3838 44.6162 42.3668 44.6162 42.3459V42.2465C44.6162 42.2256 44.5993 42.2086 44.5784 42.2086Z" fill="#3F3D56"/>
<path d="M45.1614 42.2086H44.9456C44.9247 42.2086 44.9077 42.2256 44.9077 42.2465V42.3459C44.9077 42.3668 44.9247 42.3838 44.9456 42.3838H45.1614C45.1823 42.3838 45.1993 42.3668 45.1993 42.3459V42.2465C45.1993 42.2256 45.1823 42.2086 45.1614 42.2086Z" fill="#3F3D56"/>
<path d="M36.4085 42.5006H36.1926C36.1717 42.5006 36.1548 42.5176 36.1548 42.5385V42.6379C36.1548 42.6588 36.1717 42.6758 36.1926 42.6758H36.4085C36.4294 42.6758 36.4463 42.6588 36.4463 42.6379V42.5385C36.4463 42.5176 36.4294 42.5006 36.4085 42.5006Z" fill="#3F3D56"/>
<path d="M36.9915 42.5006H36.7756C36.7547 42.5006 36.7378 42.5176 36.7378 42.5385V42.6379C36.7378 42.6588 36.7547 42.6758 36.7756 42.6758H36.9915C37.0124 42.6758 37.0293 42.6588 37.0293 42.6379V42.5385C37.0293 42.5176 37.0124 42.5006 36.9915 42.5006Z" fill="#3F3D56"/>
<path d="M37.5747 42.5006H37.3589C37.338 42.5006 37.321 42.5176 37.321 42.5385V42.6379C37.321 42.6588 37.338 42.6758 37.3589 42.6758H37.5747C37.5956 42.6758 37.6126 42.6588 37.6126 42.6379V42.5385C37.6126 42.5176 37.5956 42.5006 37.5747 42.5006Z" fill="#3F3D56"/>
<path d="M38.1578 42.5006H37.9419C37.921 42.5006 37.9041 42.5176 37.9041 42.5385V42.6379C37.9041 42.6588 37.921 42.6758 37.9419 42.6758H38.1578C38.1786 42.6758 38.1956 42.6588 38.1956 42.6379V42.5385C38.1956 42.5176 38.1786 42.5006 38.1578 42.5006Z" fill="#3F3D56"/>
<path d="M38.7408 42.5006H38.5249C38.504 42.5006 38.4871 42.5176 38.4871 42.5385V42.6379C38.4871 42.6588 38.504 42.6758 38.5249 42.6758H38.7408C38.7617 42.6758 38.7786 42.6588 38.7786 42.6379V42.5385C38.7786 42.5176 38.7617 42.5006 38.7408 42.5006Z" fill="#3F3D56"/>
<path d="M39.324 42.5006H39.1082C39.0873 42.5006 39.0703 42.5176 39.0703 42.5385V42.6379C39.0703 42.6588 39.0873 42.6758 39.1082 42.6758H39.324C39.3449 42.6758 39.3618 42.6588 39.3618 42.6379V42.5385C39.3618 42.5176 39.3449 42.5006 39.324 42.5006Z" fill="#3F3D56"/>
<path d="M39.907 42.5006H39.6912C39.6703 42.5006 39.6533 42.5176 39.6533 42.5385V42.6379C39.6533 42.6588 39.6703 42.6758 39.6912 42.6758H39.907C39.9279 42.6758 39.9449 42.6588 39.9449 42.6379V42.5385C39.9449 42.5176 39.9279 42.5006 39.907 42.5006Z" fill="#3F3D56"/>
<path d="M40.49 42.5006H40.2742C40.2533 42.5006 40.2363 42.5176 40.2363 42.5385V42.6379C40.2363 42.6588 40.2533 42.6758 40.2742 42.6758H40.49C40.5109 42.6758 40.5279 42.6588 40.5279 42.6379V42.5385C40.5279 42.5176 40.5109 42.5006 40.49 42.5006Z" fill="#3F3D56"/>
<path d="M41.073 42.5006H40.8572C40.8363 42.5006 40.8193 42.5176 40.8193 42.5385V42.6379C40.8193 42.6588 40.8363 42.6758 40.8572 42.6758H41.073C41.0939 42.6758 41.1109 42.6588 41.1109 42.6379V42.5385C41.1109 42.5176 41.0939 42.5006 41.073 42.5006Z" fill="#3F3D56"/>
<path d="M41.6563 42.5006H41.4404C41.4195 42.5006 41.4026 42.5176 41.4026 42.5385V42.6379C41.4026 42.6588 41.4195 42.6758 41.4404 42.6758H41.6563C41.6772 42.6758 41.6941 42.6588 41.6941 42.6379V42.5385C41.6941 42.5176 41.6772 42.5006 41.6563 42.5006Z" fill="#3F3D56"/>
<path d="M42.2393 42.5006H42.0234C42.0025 42.5006 41.9856 42.5176 41.9856 42.5385V42.6379C41.9856 42.6588 42.0025 42.6758 42.0234 42.6758H42.2393C42.2602 42.6758 42.2771 42.6588 42.2771 42.6379V42.5385C42.2771 42.5176 42.2602 42.5006 42.2393 42.5006Z" fill="#3F3D56"/>
<path d="M42.8223 42.5006H42.6064C42.5855 42.5006 42.5686 42.5176 42.5686 42.5385V42.6379C42.5686 42.6588 42.5855 42.6758 42.6064 42.6758H42.8223C42.8432 42.6758 42.8601 42.6588 42.8601 42.6379V42.5385C42.8601 42.5176 42.8432 42.5006 42.8223 42.5006Z" fill="#3F3D56"/>
<path d="M43.4053 42.5006H43.1894C43.1686 42.5006 43.1516 42.5176 43.1516 42.5385V42.6379C43.1516 42.6588 43.1686 42.6758 43.1894 42.6758H43.4053C43.4262 42.6758 43.4431 42.6588 43.4431 42.6379V42.5385C43.4431 42.5176 43.4262 42.5006 43.4053 42.5006Z" fill="#3F3D56"/>
<path d="M43.9886 42.5006H43.7727C43.7518 42.5006 43.7349 42.5176 43.7349 42.5385V42.6379C43.7349 42.6588 43.7518 42.6758 43.7727 42.6758H43.9886C44.0095 42.6758 44.0264 42.6588 44.0264 42.6379V42.5385C44.0264 42.5176 44.0095 42.5006 43.9886 42.5006Z" fill="#3F3D56"/>
<path d="M44.5716 42.5006H44.3557C44.3348 42.5006 44.3179 42.5176 44.3179 42.5385V42.6379C44.3179 42.6588 44.3348 42.6758 44.3557 42.6758H44.5716C44.5925 42.6758 44.6094 42.6588 44.6094 42.6379V42.5385C44.6094 42.5176 44.5925 42.5006 44.5716 42.5006Z" fill="#3F3D56"/>
<path d="M45.1546 42.5006H44.9387C44.9178 42.5006 44.9009 42.5176 44.9009 42.5385V42.6379C44.9009 42.6588 44.9178 42.6758 44.9387 42.6758H45.1546C45.1755 42.6758 45.1924 42.6588 45.1924 42.6379V42.5385C45.1924 42.5176 45.1755 42.5006 45.1546 42.5006Z" fill="#3F3D56"/>
<path d="M41.2481 42.851H38.9915C38.9706 42.851 38.9536 42.8679 38.9536 42.8888V42.9882C38.9536 43.0092 38.9706 43.0261 38.9915 43.0261H41.2481C41.269 43.0261 41.2859 43.0092 41.2859 42.9882V42.8888C41.2859 42.8679 41.269 42.851 41.2481 42.851Z" fill="#3F3D56"/>
<path d="M47.7128 28.7415H32.8256C32.8101 28.7412 32.7953 28.7348 32.7845 28.7237C32.7737 28.7126 32.7676 28.6977 32.7676 28.6822C32.7676 28.6667 32.7737 28.6518 32.7845 28.6407C32.7953 28.6296 32.8101 28.6232 32.8256 28.6229H47.7128C47.7282 28.6232 47.743 28.6296 47.7538 28.6407C47.7647 28.6518 47.7707 28.6667 47.7707 28.6822C47.7707 28.6977 47.7647 28.7126 47.7538 28.7237C47.743 28.7348 47.7282 28.7412 47.7128 28.7415Z" fill="#CACACA"/>
<path d="M33.8389 28.3202C34.0305 28.3202 34.1858 28.1611 34.1858 27.965C34.1858 27.7688 34.0305 27.6097 33.8389 27.6097C33.6473 27.6097 33.4919 27.7688 33.4919 27.965C33.4919 28.1611 33.6473 28.3202 33.8389 28.3202Z" fill="#3F3D56"/>
<path d="M35.0374 28.3202C35.229 28.3202 35.3843 28.1611 35.3843 27.965C35.3843 27.7688 35.229 27.6097 35.0374 27.6097C34.8458 27.6097 34.6904 27.7688 34.6904 27.965C34.6904 28.1611 34.8458 28.3202 35.0374 28.3202Z" fill="#3F3D56"/>
<path d="M36.2361 28.3202C36.4277 28.3202 36.5831 28.1611 36.5831 27.965C36.5831 27.7688 36.4277 27.6097 36.2361 27.6097C36.0445 27.6097 35.8892 27.7688 35.8892 27.965C35.8892 28.1611 36.0445 28.3202 36.2361 28.3202Z" fill="#3F3D56"/>
<path d="M46.991 27.6978H46.1396C46.1227 27.6981 46.1067 27.705 46.0949 27.7171C46.083 27.7292 46.0764 27.7454 46.0764 27.7623C46.0764 27.7792 46.083 27.7955 46.0949 27.8075C46.1067 27.8196 46.1227 27.8265 46.1396 27.8269H46.991C47.0079 27.8265 47.024 27.8196 47.0358 27.8075C47.0476 27.7955 47.0542 27.7792 47.0542 27.7623C47.0542 27.7454 47.0476 27.7292 47.0358 27.7171C47.024 27.705 47.0079 27.6981 46.991 27.6978Z" fill="#3F3D56"/>
<path d="M46.991 27.9402H46.1396C46.1227 27.9405 46.1067 27.9475 46.0949 27.9595C46.083 27.9716 46.0764 27.9878 46.0764 28.0047C46.0764 28.0217 46.083 28.0379 46.0949 28.05C46.1067 28.062 46.1227 28.069 46.1396 28.0693H46.991C47.0079 28.069 47.024 28.062 47.0358 28.05C47.0476 28.0379 47.0542 28.0217 47.0542 28.0047C47.0542 27.9878 47.0476 27.9716 47.0358 27.9595C47.024 27.9475 47.0079 27.9405 46.991 27.9402Z" fill="#3F3D56"/>
<path d="M46.991 28.1823H46.1396C46.1227 28.1826 46.1067 28.1895 46.0949 28.2016C46.083 28.2137 46.0764 28.2299 46.0764 28.2468C46.0764 28.2637 46.083 28.2799 46.0949 28.292C46.1067 28.3041 46.1227 28.311 46.1396 28.3114H46.991C47.0079 28.311 47.024 28.3041 47.0358 28.292C47.0476 28.2799 47.0542 28.2637 47.0542 28.2468C47.0542 28.2299 47.0476 28.2137 47.0358 28.2016C47.024 28.1895 47.0079 28.1826 46.991 28.1823Z" fill="#3F3D56"/>
<path d="M41.4582 32.2054H39.598C39.4582 32.2054 39.345 32.3189 39.345 32.4588V32.4588C39.345 32.5988 39.4582 32.7122 39.598 32.7122H41.4582C41.5979 32.7122 41.7112 32.5988 41.7112 32.4588V32.4588C41.7112 32.3189 41.5979 32.2054 41.4582 32.2054Z" fill="#04CD91"/>
<path d="M42.66 33.2189H38.3963C38.2566 33.2189 38.1433 33.3323 38.1433 33.4722V33.4723C38.1433 33.6122 38.2566 33.7256 38.3963 33.7256H42.66C42.7997 33.7256 42.913 33.6122 42.913 33.4722C42.913 33.3323 42.7997 33.2189 42.66 33.2189Z" fill="#E6E6E6"/>
<path d="M42.66 34.2324H38.3963C38.2566 34.2324 38.1433 34.3459 38.1433 34.4858C38.1433 34.6257 38.2566 34.7392 38.3963 34.7392H42.66C42.7997 34.7392 42.913 34.6257 42.913 34.4858C42.913 34.3459 42.7997 34.2324 42.66 34.2324Z" fill="#E6E6E6"/>
<path d="M32.9709 43.8925H28.3205C28.156 43.8925 27.9983 43.9579 27.882 44.0743C27.7658 44.1908 27.7004 44.3487 27.7004 44.5134C27.7004 44.6781 27.7658 44.8361 27.882 44.9525C27.9983 45.069 28.156 45.1344 28.3205 45.1344H30.0256V49.9471H31.2657V45.1344H32.9709C33.1353 45.1344 33.293 45.069 33.4093 44.9525C33.5256 44.8361 33.5909 44.6781 33.5909 44.5134C33.5909 44.3487 33.5256 44.1908 33.4093 44.0743C33.293 43.9579 33.1353 43.8925 32.9709 43.8925Z" fill="#3F3D56"/>
<path d="M36.0403 52.6125H23.6019C22.396 52.6081 21.232 52.1693 20.3225 51.3764C19.4129 50.5835 18.8186 49.4894 18.648 48.2938L18.2077 46.6718C17.2964 43.3107 15.9083 40.0979 14.0858 37.1316C13.2528 35.7768 12.8241 34.4654 13.7979 33.2027C13.8061 33.192 13.8143 33.1813 13.8223 33.1709C14.6034 32.1528 18.4909 31.9324 19.7582 31.8895C19.8082 31.8878 19.8585 31.8869 19.9089 31.887H27.6455C27.696 31.887 27.7463 31.8878 27.7963 31.8895C28.4794 31.9094 29.1445 32.1142 29.7208 32.4822C30.2972 32.8501 30.7633 33.3674 31.0698 33.9792C31.3969 34.6038 31.549 35.3055 31.51 36.0097C31.4711 36.714 31.2425 37.3945 30.8485 37.9791C28.1308 42.0676 27.2988 44.6313 28.1506 46.2915C28.9746 47.8973 31.5005 48.7183 36.0996 48.8752C37.3355 48.9173 37.9027 49.8812 37.9067 50.7588C37.9106 51.6138 37.3652 52.5578 36.1587 52.61C36.1195 52.6117 36.08 52.6125 36.0403 52.6125Z" fill="#3F3D56"/>
<path d="M25.7148 63.6738H30.3652C30.5296 63.6738 30.6873 63.6084 30.8036 63.4919C30.9199 63.3755 30.9852 63.2175 30.9852 63.0528C30.9852 62.8881 30.9199 62.7302 30.8036 62.6137C30.6873 62.4973 30.5296 62.4318 30.3652 62.4318H28.66V51.9526H27.4199V62.4318H25.7148C25.5503 62.4318 25.3926 62.4973 25.2763 62.6137C25.1601 62.7302 25.0947 62.8881 25.0947 63.0528C25.0947 63.2175 25.1601 63.3755 25.2763 63.4919C25.3926 63.6084 25.5503 63.6738 25.7148 63.6738Z" fill="#3F3D56"/>
<path d="M25.3434 32.276L25.4409 32.8693C25.487 33.1569 25.654 35.1891 25.5303 35.4315C25.5194 34.9789 24.6777 34.2672 24.1324 34.4297L23.2765 34.6201L22.7453 34.7385L22.313 34.8334L21.0567 35.1083C21.0545 35.0937 21.0529 35.0782 21.0507 35.0636C21.0478 35.0452 21.0448 35.0268 21.0411 35.0085C21.0177 34.8905 20.975 34.7772 20.9148 34.6731C20.9084 34.8125 20.8673 34.9482 20.7952 35.0676C20.7933 35.0707 20.7915 35.074 20.7901 35.0774C20.7678 35.1136 20.7432 35.1482 20.7164 35.1812C20.7151 35.1821 20.714 35.1831 20.7131 35.1843C20.7131 35.1843 20.4549 31.0632 20.482 31.0252C20.5018 30.9982 20.5217 30.9719 20.5426 30.9462C20.5633 30.9198 20.5834 30.8943 20.605 30.8685C20.6078 30.866 20.6101 30.8631 20.612 30.8599C20.6725 30.7881 20.7366 30.7195 20.8041 30.6542C20.8239 30.635 20.8445 30.6158 20.8651 30.5965C21.1794 30.3052 21.5549 30.0883 21.964 29.9617C22.0101 29.9475 22.0581 29.9345 22.1069 29.9213C22.155 29.9091 22.204 29.8974 22.2534 29.8873L22.2701 29.8839C22.2936 29.8791 22.3181 29.8748 22.3418 29.8708C22.3715 29.8655 22.4015 29.8609 22.4308 29.8573C22.8114 29.8024 23.1992 29.8242 23.5713 29.9215C23.572 29.9213 23.5722 29.9221 23.5729 29.9219C23.8835 30.0032 24.1787 30.1349 24.4469 30.3117C24.9106 30.6184 25.0911 31.1186 25.2193 31.6802C25.2643 31.8731 25.3021 32.0737 25.3434 32.276Z" fill="#2F2E41"/>
<path d="M29.9238 59.4492L30.7249 59.885L32.8457 56.9484L31.6632 56.3052L29.9238 59.4492Z" fill="#FFB6B6"/>
<path d="M30.3094 58.4027L31.7637 58.8588L31.5322 59.469L32.5295 60.9186C32.5787 60.9902 32.6039 61.0757 32.6012 61.1626C32.5985 61.2495 32.5681 61.3333 32.5146 61.4017C32.461 61.4701 32.387 61.5195 32.3033 61.5428C32.2197 61.5661 32.1308 61.562 32.0496 61.5311L30.3566 60.8869L30.2938 60.1723L29.9508 60.7325L29.3125 60.4897L30.3094 58.4027Z" fill="#2F2E41"/>
<path d="M34.4616 46.3144C34.3337 46.3456 34.2006 46.3483 34.0715 46.3224C33.9425 46.2964 33.8207 46.2425 33.7147 46.1643C33.6088 46.0862 33.5212 45.9857 33.4582 45.87C33.3952 45.7542 33.3583 45.6261 33.3502 45.4946L26.5171 43.0326L27.7711 41.9397L34.2567 44.5259C34.4782 44.5267 34.6918 44.609 34.8568 44.757C35.0219 44.905 35.127 45.1085 35.1523 45.329C35.1776 45.5494 35.1212 45.7715 34.9939 45.9531C34.8666 46.1347 34.6772 46.2633 34.4616 46.3144Z" fill="#FFB6B6"/>
<path d="M24.6083 36.9335C24.6083 36.9335 23.4574 36.9589 23.3551 38.2747C23.2528 39.5906 25.7639 42.8454 26.153 43.3821C26.542 43.9188 30.8635 44.5795 30.8635 44.5795L32.3326 43.5114C30.789 42.5096 29.3802 41.7415 28.4348 41.7761L24.6083 36.9335Z" fill="#04CD91"/>
<path d="M23.1968 42.7396L23.4772 43.9463C23.4772 43.9463 23.48 45.0591 23.6767 45.2642C23.8721 45.4684 28.1686 45.0584 28.1686 45.0584C28.1686 45.0584 27.7131 43.2653 27.7192 41.9086L23.1968 42.7396Z" fill="#FFB6B6"/>
<path d="M32.2732 58.1753L30.7231 57.3214C30.6936 55.3013 31.9068 52.5675 33.3459 49.704C30.1276 50.2583 27.0914 50.4359 24.4653 49.7653C24.0341 49.6513 23.6651 49.372 23.4379 48.9877C23.2108 48.6034 23.1437 48.145 23.2513 47.7116C23.2615 47.669 23.2733 47.6269 23.2867 47.5853C23.601 46.6249 22.8963 46.0229 23.5445 44.9666C25.2494 44.3834 26.8689 44.2188 28.3499 44.7337L29.2778 46.7885L33.8772 46.1924C34.0995 46.1658 34.3247 46.1835 34.5401 46.2445C34.7554 46.3055 34.9566 46.4086 35.132 46.5478C35.3074 46.687 35.4535 46.8596 35.562 47.0557C35.6705 47.2517 35.7391 47.4673 35.764 47.6901C35.7702 47.7401 35.7742 47.7903 35.7761 47.8407C34.8461 52.2072 33.8033 56.1362 32.2732 58.1753Z" fill="#2F2E41"/>
<path d="M23.4097 34.4006C24.4499 34.1874 25.1207 33.17 24.9078 32.1282C24.695 31.0864 23.6791 30.4146 22.6389 30.6278C21.5987 30.841 20.9279 31.8584 21.1408 32.9002C21.3536 33.942 22.3695 34.6137 23.4097 34.4006Z" fill="#FFB6B6"/>
<path d="M22.5725 35.0995L24.3443 34.9948C24.419 34.9903 24.4933 35.0094 24.5567 35.0492C24.6201 35.0891 24.6695 35.1477 24.6981 35.217L25.1988 36.4327L27.2798 38.1554C27.2798 38.1554 28.1038 39.2055 28.1057 40.5616C28.1076 41.9178 28.398 45.0568 28.398 45.0568C28.398 45.0568 27.1955 43.3616 26.4533 43.8125C26.327 43.8892 26.2826 44.046 26.1503 44.1253C26.0844 44.1649 25.9319 44.1264 25.8653 44.166C24.8426 44.7741 23.7759 45.3682 23.6763 45.264C23.4806 45.0595 23.2432 44.0144 23.2432 44.0144L21.6213 38.0462C21.5334 37.7321 21.5159 37.4025 21.5702 37.081C21.6244 36.7594 21.7491 36.4538 21.9351 36.1862C22.0485 36.0264 22.1672 35.9075 22.2775 35.8879C22.5252 35.835 22.3935 35.279 22.5725 35.0995Z" fill="#04CD91"/>
<path d="M37.645 61.9773L38.3929 61.4565L36.6986 58.255L35.5947 59.0236L37.645 61.9773Z" fill="#FFB6B6"/>
<path d="M37.7581 59.8291L36.5859 60.8784C34.7221 58.7985 33.313 55.8813 32.119 52.5686C28.9904 51.6509 26.631 50.1709 24.5713 48.4137C23.8725 47.8215 23.3487 47.0608 23.9447 46.3395C23.9725 46.3058 24.0016 46.2732 24.0319 46.2417C24.7356 45.5174 26.5199 45.6554 27.565 44.9919L29.8996 47.4911L29.7528 48.1612L34.1378 49.6488C34.3488 49.7229 34.5431 49.838 34.7094 49.9877C34.8758 50.1373 35.0109 50.3184 35.107 50.5206C35.2031 50.7228 35.2582 50.942 35.2693 51.1656C35.2804 51.3893 35.2471 51.6129 35.1714 51.8236C35.155 51.8712 35.1366 51.9181 35.1161 51.9642L37.7581 59.8291Z" fill="#2F2E41"/>
<path d="M37.209 61.7661L38.4063 60.8218L38.7783 61.3578L40.536 61.3524C40.6228 61.3521 40.7074 61.3796 40.7775 61.431C40.8476 61.4823 40.8995 61.5547 40.9256 61.6376C40.9516 61.7205 40.9506 61.8096 40.9225 61.8919C40.8945 61.9742 40.8409 62.0453 40.7696 62.0949L39.2825 63.1303L38.6582 62.7785L38.9261 63.3784L38.3654 63.7687L37.209 61.7661Z" fill="#2F2E41"/>
<path d="M25.189 50.1407C25.0678 50.0892 24.9594 50.0117 24.8714 49.9137C24.7834 49.8157 24.7179 49.6996 24.6795 49.5735C24.6412 49.4474 24.6309 49.3145 24.6494 49.184C24.6679 49.0535 24.7148 48.9286 24.7867 48.8182L20.7754 42.7557L22.433 42.6295L26.0914 48.5838C26.2686 48.717 26.3908 48.9107 26.4349 49.1282C26.479 49.3457 26.4419 49.5718 26.3307 49.7637C26.2194 49.9556 26.0418 50.1 25.8313 50.1694C25.6209 50.2389 25.3923 50.2287 25.189 50.1407Z" fill="#FFB6B6"/>
<path d="M22.8826 36.7224C22.8826 36.7224 21.9446 36.0542 21.0776 37.0483C20.2107 38.0423 20.2831 42.1549 20.2749 42.8181C20.2724 43.0258 20.5718 43.4739 20.9843 43.9915C21.1695 44.2239 21.3776 44.4703 21.5913 44.7152C21.7149 44.8569 21.6084 45.1519 21.7326 45.2897C21.8561 45.4267 22.2103 45.4065 22.3278 45.5336C22.8854 46.1372 23.3384 46.5966 23.3384 46.5966L25.1536 46.619C25.1741 45.2675 24.25 44.0612 23.0628 42.8953L22.8826 36.7224Z" fill="#04CD91"/>
<path d="M25.4273 31.5789C25.3562 31.614 25.2872 31.648 25.2194 31.6801C24.9473 31.814 24.6662 31.9286 24.378 32.0229C24.3301 31.8923 24.2569 31.7724 24.1627 31.67C24.1868 31.8114 24.1746 31.9565 24.1271 32.0917C23.6909 32.1999 23.2331 32.1822 22.8065 32.0407C23.0855 32.5579 23.2916 33.6479 23.2766 34.62C23.27 35.134 23.2006 35.6149 23.0489 35.9605L22.8539 35.3666C22.8359 35.1545 22.7995 34.9443 22.7454 34.7384C22.6147 34.1606 22.4926 34.5469 22.313 34.8333L21.0567 35.1082C21.0545 35.0936 21.0529 35.0781 21.0508 35.0635C21.0478 35.0451 21.0448 35.0267 21.0411 35.0084C21.0177 34.8904 20.975 34.7771 20.9148 34.673C20.9084 34.8124 20.8673 34.948 20.7953 35.0675C20.7933 35.0706 20.7916 35.0739 20.7901 35.0773C20.7678 35.1134 20.7432 35.1481 20.7164 35.1811C20.7152 35.182 20.714 35.183 20.7131 35.1842C19.902 35.2929 19.3334 31.1038 20.4821 31.0259C20.5155 31.0236 20.5219 30.9726 20.5426 30.9461C20.5633 30.9197 20.5834 30.8942 20.605 30.8684C20.6078 30.8659 20.6101 30.863 20.612 30.8598C20.6734 30.7886 20.7369 30.7201 20.8041 30.654C20.8239 30.6349 20.8445 30.6157 20.8651 30.5964C21.1804 30.3066 21.5557 30.0901 21.9642 29.9623C22.0103 29.9481 22.0581 29.9343 22.1069 29.9212C22.155 29.9089 22.2041 29.8973 22.2534 29.8872L22.2701 29.8838C22.2937 29.8789 22.3181 29.8747 22.3418 29.8707C22.3716 29.8654 22.4015 29.8608 22.4308 29.8572C22.5409 29.9127 22.6351 29.9954 22.7046 30.0974L23.5072 29.9329C23.5284 29.9286 23.5499 29.925 23.5714 29.9221L23.573 29.9218C24.575 29.7537 25.2193 30.5606 25.4273 31.5789Z" fill="#2F2E41"/>
<path d="M21.0528 30.8384C20.881 30.9626 20.7002 31.0906 20.4905 31.1213C20.2808 31.1521 20.0353 31.0506 19.9772 30.8464C19.9063 30.5968 20.1313 30.3695 20.3336 30.2073L20.9751 29.6929C21.0925 29.5886 21.2251 29.5027 21.3683 29.4383C21.4403 29.4066 21.5184 29.3915 21.5969 29.3941C21.6755 29.3967 21.7524 29.417 21.8221 29.4534C21.891 29.5001 21.9469 29.5636 21.9844 29.638C22.0219 29.7123 22.0397 29.7951 22.0362 29.8783C22.0271 30.0452 21.9721 30.2062 21.8774 30.3437C21.7583 30.5296 21.6029 30.6894 21.4205 30.8136C21.2382 30.9377 21.0326 31.0237 20.8162 31.0662" fill="#2F2E41"/>
<path d="M25.9179 44.203H21.2675C21.1031 44.203 20.9454 44.2684 20.8291 44.3849C20.7128 44.5013 20.6475 44.6593 20.6475 44.824C20.6475 44.9887 20.7128 45.1466 20.8291 45.2631C20.9454 45.3796 21.1031 45.445 21.2675 45.445H22.9726V50.2577H24.2127V45.445H25.9179C26.0823 45.445 26.24 45.3796 26.3563 45.2631C26.4726 45.1466 26.5379 44.9887 26.5379 44.824C26.5379 44.6593 26.4726 44.5013 26.3563 44.3849C26.24 44.2684 26.0823 44.203 25.9179 44.203Z" fill="#3F3D56"/>
<path d="M43.0981 63.8985L9.09226 63.9223C9.06783 63.9223 9.04443 63.9125 9.02718 63.8952C9.00993 63.8778 9.00024 63.8544 9.00024 63.8299C9.00024 63.8054 9.00993 63.782 9.02718 63.7646C9.04443 63.7473 9.06783 63.7375 9.09226 63.7375L43.0981 63.7136C43.1226 63.7137 43.146 63.7235 43.1632 63.7408C43.1805 63.7581 43.1901 63.7816 43.1901 63.806C43.1901 63.8305 43.1805 63.854 43.1632 63.8713C43.146 63.8886 43.1226 63.8984 43.0981 63.8985Z" fill="#CACACA"/>
<path d="M52.9941 53.5889L53.7511 54.4152L57.2935 51.884L56.1762 50.6646L52.9941 53.5889Z" fill="#A0616A"/>
<path d="M54.561 54.7583V54.7575L54.4842 53.9323L54.4494 53.916L54.2455 53.819L53.2837 53.3634L53.2635 53.3416L53.0705 53.1305L52.0017 54.1132L53.4495 55.6936L54.4424 56.7773L54.4757 56.7462C54.6118 56.6214 54.7219 56.4709 54.7998 56.3034C54.8778 56.1358 54.922 55.9546 54.9299 55.7699C54.9378 55.5853 54.9093 55.4009 54.846 55.2273C54.7827 55.0537 54.6858 54.8943 54.561 54.7583Z" fill="#2F2E41"/>
<path d="M49.072 61.8313L50.1433 62.1573L51.9084 58.1738L50.3272 57.6927L49.072 61.8313Z" fill="#A0616A"/>
<path d="M51.8459 62.7232C51.7595 62.5598 51.6416 62.4153 51.4989 62.2981C51.3563 62.1808 51.1918 62.0931 51.015 62.0401L50.529 61.3687L50.4911 61.3718L49.2068 61.4897L49.1781 61.4812L48.9053 61.3981L48.4836 62.7884L51.9381 63.8394L51.9513 63.7952C52.0052 63.6184 52.0236 63.4326 52.0055 63.2486C51.9874 63.0646 51.9332 62.8861 51.8459 62.7232Z" fill="#2F2E41"/>
<path d="M57.9062 40.9744C57.9062 40.9744 64.7462 47.5885 60.4221 49.6358H59.0856C59.0856 49.6358 58.6839 48.2067 57.7644 47.0016C57.6382 46.8361 57.1651 46.8697 57.0337 46.7084C56.2316 45.7236 55.362 44.8778 54.7614 44.9114L54.9051 49.4813L55.1376 51.1114C55.2597 51.9541 51.814 59.3118 51.814 59.3118L49.6482 58.4594C49.6482 58.4594 51.9047 52.3992 51.9311 51.5255L50.1228 41.9192L57.9062 40.9744Z" fill="#2F2E41"/>
<path d="M58.4766 41.3006C58.4417 41.3504 58.3961 41.3918 58.3432 41.4217C58.2561 41.471 58.1616 41.5061 58.0635 41.5257C56.5234 41.8758 51.4925 42.6015 50.1865 42.2553C50.0261 42.2134 49.9214 42.1544 49.8873 42.0768C49.778 41.8315 49.792 40.7952 49.8563 39.5439C49.8679 39.3095 50.126 39.0557 50.1415 38.8104C50.1524 38.6264 49.9206 38.4533 49.933 38.2663C50.0183 37.001 50.1284 35.7117 50.202 34.8966C50.2485 34.3727 50.2803 34.0451 50.2803 34.0451L49.4858 29.0283L49.523 28.9669L49.5649 28.946L52.1265 27.6761L52.266 27.319C52.3064 27.2162 52.3767 27.1279 52.4677 27.0655C52.5588 27.0031 52.6664 26.9694 52.7768 26.9689L54.4641 26.9619C54.5516 26.9614 54.638 26.9819 54.716 27.0216C54.7941 27.0613 54.8616 27.1191 54.9128 27.1901L55.3701 27.8243L58.3929 29.7649L58.3812 29.8006L56.9629 34.1235L56.9559 34.4604V34.4611L56.9032 37.1702L57.0497 37.5374L56.8846 38.1397C56.8846 38.1397 56.9605 38.8438 57.3674 39.367C57.7364 39.842 58.2061 40.3373 58.4184 40.7393V40.7401C58.5362 40.9621 58.5758 41.1546 58.4766 41.3006Z" fill="#04CD91"/>
<path d="M60.7506 49.2429L60.385 49.7056C60.385 49.7056 57.0225 52.0616 56.907 52.2817L56.3756 52.7853L55.0898 51.4088L55.7585 50.5694C56.2936 49.8977 56.985 49.3676 57.7721 49.0255L58.7968 48.115L60.7506 49.2429Z" fill="#2F2E41"/>
<path d="M58.614 42.6303L58.0017 36.6944L57.8401 34.2514L59.554 33.941C59.554 33.941 59.4861 35.6879 59.7106 36.6735C59.9321 37.646 59.74 42.5 59.7263 42.6298C59.8521 42.7425 59.9409 42.8909 59.9807 43.0552C60.0206 43.2195 60.0097 43.3921 59.9495 43.5501C59.8893 43.7081 59.7826 43.844 59.6436 43.94C59.5045 44.0359 59.3397 44.0874 59.1708 44.0874C59.002 44.0875 58.8371 44.0363 58.698 43.9404C58.5588 43.8446 58.452 43.7088 58.3917 43.5508C58.3313 43.3929 58.3203 43.2203 58.36 43.056C58.3997 42.8916 58.4883 42.7432 58.614 42.6303Z" fill="#A0616A"/>
<path d="M60.2857 37.9246L58.0828 38.3812L57.8901 37.6122L57.6656 37.3736L57.2169 35.0198L56.5732 33.6409L56.7406 28.9258L58.3755 29.7942L58.3775 29.7957C58.6275 30.0676 58.7999 30.4567 59.0864 30.8471C59.9894 32.0773 60.0895 35.0667 60.0622 36.7041C60.0617 36.731 60.0887 36.7594 60.1211 36.7892C60.2749 36.9306 60.3752 37.1207 60.4052 37.3276C60.4352 37.5344 60.393 37.7453 60.2857 37.9246Z" fill="#04CD91"/>
<path d="M48.6385 42.8633L49.2509 36.9273L49.4125 34.4843L47.6986 34.174C47.6986 34.174 47.7665 35.9208 47.542 36.9064C47.3205 37.8789 47.5126 42.7329 47.5263 42.8627C47.4004 42.9754 47.3117 43.1238 47.2719 43.2881C47.232 43.4524 47.2429 43.625 47.3031 43.783C47.3633 43.941 47.47 44.0769 47.609 44.1729C47.748 44.2689 47.9129 44.3203 48.0817 44.3203C48.2506 44.3204 48.4155 44.2692 48.5546 44.1733C48.6937 44.0775 48.8005 43.9417 48.8609 43.7837C48.9212 43.6258 48.9323 43.4532 48.8926 43.2889C48.8529 43.1245 48.7643 42.9761 48.6385 42.8633Z" fill="#A0616A"/>
<path d="M50.6794 33.8736L50.2019 34.8967L50.0353 35.253L49.5865 37.6065L49.3625 37.8448L49.1696 38.6141L49.0789 38.5954L47.4435 38.2562L46.9668 38.1576C46.8594 37.9784 46.8171 37.7674 46.847 37.5605C46.877 37.3536 46.9773 37.1634 47.1311 37.022C47.1637 36.9925 47.1908 36.9638 47.19 36.9366C47.1629 35.2995 47.2629 32.3103 48.1659 31.0799C48.4526 30.6895 48.6247 30.3006 48.875 30.0289C48.8758 30.0281 48.8758 30.0273 48.8766 30.0273L49.4858 29.0283L49.523 28.967L49.5648 28.946L50.6794 33.8736Z" fill="#04CD91"/>
<path d="M53.5717 26.4808C54.8116 26.4808 55.8167 25.4742 55.8167 24.2324C55.8167 22.9907 54.8116 21.984 53.5717 21.984C52.3318 21.984 51.3267 22.9907 51.3267 24.2324C51.3267 25.4742 52.3318 26.4808 53.5717 26.4808Z" fill="#A0616A"/>
<path d="M56.0955 23.2462C56.0878 22.8627 56.0444 22.3721 55.7762 21.9809C55.5499 21.6518 55.0934 21.391 54.6679 21.5214C54.6726 21.4362 54.6537 21.3513 54.6132 21.2762C54.5727 21.2011 54.5122 21.1387 54.4384 21.096C54.2772 20.9974 54.0835 20.9796 53.9122 20.9633C53.4805 20.9229 53.0333 20.881 52.5961 20.964C52.1055 21.0572 51.704 21.3102 51.4955 21.6588L51.4909 21.6696L51.4483 21.8761C51.4426 21.9038 51.431 21.9299 51.4142 21.9527C51.3975 21.9755 51.3761 21.9944 51.3514 22.0081C51.3266 22.022 51.2992 22.0302 51.2709 22.0322C51.2426 22.0342 51.2143 22.03 51.1878 22.0197C51.1589 22.0088 51.1276 22.0057 51.0971 22.0107C51.0666 22.0156 51.038 22.0284 51.0139 22.0479C50.9899 22.0673 50.9714 22.0927 50.9601 22.1215C50.9489 22.1504 50.9454 22.1816 50.9499 22.2122L50.9615 22.2945L50.8383 22.2712C50.8073 22.2652 50.7754 22.2676 50.7457 22.2781C50.7159 22.2886 50.6896 22.3069 50.6693 22.331C50.649 22.3552 50.6355 22.3843 50.6302 22.4154C50.6249 22.4465 50.6279 22.4785 50.6391 22.508L50.6732 22.6019C50.6477 22.6022 50.6226 22.6077 50.5993 22.618C50.576 22.6282 50.555 22.6431 50.5375 22.6617C50.5127 22.6887 50.497 22.723 50.4928 22.7596C50.4886 22.7961 50.4962 22.833 50.5143 22.865C50.6524 23.1012 50.8482 23.2983 51.0832 23.4379C51.1889 23.5017 51.3029 23.5505 51.4219 23.5831C51.4467 23.59 51.4723 23.5963 51.4986 23.6017C52.4502 23.8071 53.4313 23.8365 54.3935 23.6886C54.3368 23.8787 54.315 24.0776 54.3292 24.2755C54.3602 24.5231 54.5051 24.7272 54.6989 24.7955C54.7427 24.8104 54.7879 24.8213 54.8337 24.8281C54.8776 24.8353 54.9209 24.8459 54.9632 24.86C55.0255 24.8828 55.0807 24.9218 55.1232 24.9729C55.1656 25.024 55.1939 25.0854 55.2051 25.1509C55.2162 25.2165 55.2099 25.2838 55.1868 25.3461C55.1636 25.4084 55.1244 25.4635 55.0732 25.5058C55.0732 25.5058 55.2763 25.6742 55.3019 25.6657C55.4017 25.6215 55.4852 25.5472 55.5406 25.453C55.9273 24.8957 56.1141 24.1536 56.0955 23.2462Z" fill="#2F2E41"/>
</g>
<defs>
<clipPath id="clip0_158_618">
<rect width="60" height="52" fill="white" transform="translate(9 12)"/>
</clipPath>
</defs>
</svg>
