<svg width="80" height="80" viewBox="0 0 80 80" fill="none" xmlns="http://www.w3.org/2000/svg">
<circle cx="40" cy="40" r="40" fill="white"/>
<path d="M25.0128 25.0951C25.3314 25.0951 25.5897 24.8383 25.5897 24.5216C25.5897 24.2048 25.3314 23.948 25.0128 23.948C24.6941 23.948 24.4358 24.2048 24.4358 24.5216C24.4358 24.8383 24.6941 25.0951 25.0128 25.0951Z" fill="#F2F2F2"/>
<path d="M22.7132 25.0951C23.0318 25.0951 23.2902 24.8383 23.2902 24.5216C23.2902 24.2048 23.0318 23.948 22.7132 23.948C22.3945 23.948 22.1362 24.2048 22.1362 24.5216C22.1362 24.8383 22.3945 25.0951 22.7132 25.0951Z" fill="#F2F2F2"/>
<path d="M20.4139 25.0951C20.7325 25.0951 20.9908 24.8383 20.9908 24.5216C20.9908 24.2048 20.7325 23.948 20.4139 23.948C20.0952 23.948 19.8369 24.2048 19.8369 24.5216C19.8369 24.8383 20.0952 25.0951 20.4139 25.0951Z" fill="#F2F2F2"/>
<path d="M18.1143 25.0951C18.433 25.0951 18.6913 24.8383 18.6913 24.5216C18.6913 24.2048 18.433 23.948 18.1143 23.948C17.7957 23.948 17.5374 24.2048 17.5374 24.5216C17.5374 24.8383 17.7957 25.0951 18.1143 25.0951Z" fill="#F2F2F2"/>
<path d="M25.0128 27.4898C25.3314 27.4898 25.5897 27.233 25.5897 26.9162C25.5897 26.5994 25.3314 26.3427 25.0128 26.3427C24.6941 26.3427 24.4358 26.5994 24.4358 26.9162C24.4358 27.233 24.6941 27.4898 25.0128 27.4898Z" fill="#F2F2F2"/>
<path d="M22.7132 27.4898C23.0318 27.4898 23.2902 27.233 23.2902 26.9162C23.2902 26.5994 23.0318 26.3427 22.7132 26.3427C22.3945 26.3427 22.1362 26.5994 22.1362 26.9162C22.1362 27.233 22.3945 27.4898 22.7132 27.4898Z" fill="#F2F2F2"/>
<path d="M20.4139 27.4898C20.7325 27.4898 20.9908 27.233 20.9908 26.9162C20.9908 26.5994 20.7325 26.3427 20.4139 26.3427C20.0952 26.3427 19.8369 26.5994 19.8369 26.9162C19.8369 27.233 20.0952 27.4898 20.4139 27.4898Z" fill="#F2F2F2"/>
<path d="M18.1143 27.4898C18.433 27.4898 18.6913 27.233 18.6913 26.9162C18.6913 26.5994 18.433 26.3427 18.1143 26.3427C17.7957 26.3427 17.5374 26.5994 17.5374 26.9162C17.5374 27.233 17.7957 27.4898 18.1143 27.4898Z" fill="#F2F2F2"/>
<path d="M25.0128 29.8846C25.3314 29.8846 25.5897 29.6278 25.5897 29.311C25.5897 28.9942 25.3314 28.7374 25.0128 28.7374C24.6941 28.7374 24.4358 28.9942 24.4358 29.311C24.4358 29.6278 24.6941 29.8846 25.0128 29.8846Z" fill="#F2F2F2"/>
<path d="M22.7132 29.8846C23.0318 29.8846 23.2902 29.6278 23.2902 29.311C23.2902 28.9942 23.0318 28.7374 22.7132 28.7374C22.3945 28.7374 22.1362 28.9942 22.1362 29.311C22.1362 29.6278 22.3945 29.8846 22.7132 29.8846Z" fill="#F2F2F2"/>
<path d="M20.4139 29.8846C20.7325 29.8846 20.9908 29.6278 20.9908 29.311C20.9908 28.9942 20.7325 28.7374 20.4139 28.7374C20.0952 28.7374 19.8369 28.9942 19.8369 29.311C19.8369 29.6278 20.0952 29.8846 20.4139 29.8846Z" fill="#F2F2F2"/>
<path d="M18.1143 29.8846C18.433 29.8846 18.6913 29.6278 18.6913 29.311C18.6913 28.9942 18.433 28.7374 18.1143 28.7374C17.7957 28.7374 17.5374 28.9942 17.5374 29.311C17.5374 29.6278 17.7957 29.8846 18.1143 29.8846Z" fill="#F2F2F2"/>
<path d="M25.0128 32.2792C25.3314 32.2792 25.5897 32.0224 25.5897 31.7056C25.5897 31.3889 25.3314 31.1321 25.0128 31.1321C24.6941 31.1321 24.4358 31.3889 24.4358 31.7056C24.4358 32.0224 24.6941 32.2792 25.0128 32.2792Z" fill="#F2F2F2"/>
<path d="M22.7132 32.2792C23.0318 32.2792 23.2902 32.0224 23.2902 31.7056C23.2902 31.3889 23.0318 31.1321 22.7132 31.1321C22.3945 31.1321 22.1362 31.3889 22.1362 31.7056C22.1362 32.0224 22.3945 32.2792 22.7132 32.2792Z" fill="#F2F2F2"/>
<path d="M20.4139 32.2792C20.7325 32.2792 20.9908 32.0224 20.9908 31.7056C20.9908 31.3889 20.7325 31.1321 20.4139 31.1321C20.0952 31.1321 19.8369 31.3889 19.8369 31.7056C19.8369 32.0224 20.0952 32.2792 20.4139 32.2792Z" fill="#F2F2F2"/>
<path d="M18.1143 32.2792C18.433 32.2792 18.6913 32.0224 18.6913 31.7056C18.6913 31.3889 18.433 31.1321 18.1143 31.1321C17.7957 31.1321 17.5374 31.3889 17.5374 31.7056C17.5374 32.0224 17.7957 32.2792 18.1143 32.2792Z" fill="#F2F2F2"/>
<path d="M25.0128 34.6739C25.3314 34.6739 25.5897 34.4171 25.5897 34.1003C25.5897 33.7835 25.3314 33.5267 25.0128 33.5267C24.6941 33.5267 24.4358 33.7835 24.4358 34.1003C24.4358 34.4171 24.6941 34.6739 25.0128 34.6739Z" fill="#F2F2F2"/>
<path d="M22.7132 34.6739C23.0318 34.6739 23.2902 34.4171 23.2902 34.1003C23.2902 33.7835 23.0318 33.5267 22.7132 33.5267C22.3945 33.5267 22.1362 33.7835 22.1362 34.1003C22.1362 34.4171 22.3945 34.6739 22.7132 34.6739Z" fill="#F2F2F2"/>
<path d="M20.4139 34.6739C20.7325 34.6739 20.9908 34.4171 20.9908 34.1003C20.9908 33.7835 20.7325 33.5267 20.4139 33.5267C20.0952 33.5267 19.8369 33.7835 19.8369 34.1003C19.8369 34.4171 20.0952 34.6739 20.4139 34.6739Z" fill="#F2F2F2"/>
<path d="M18.1143 34.6739C18.433 34.6739 18.6913 34.4171 18.6913 34.1003C18.6913 33.7835 18.433 33.5267 18.1143 33.5267C17.7957 33.5267 17.5374 33.7835 17.5374 34.1003C17.5374 34.4171 17.7957 34.6739 18.1143 34.6739Z" fill="#F2F2F2"/>
<path d="M25.0128 37.0686C25.3314 37.0686 25.5897 36.8118 25.5897 36.4951C25.5897 36.1783 25.3314 35.9215 25.0128 35.9215C24.6941 35.9215 24.4358 36.1783 24.4358 36.4951C24.4358 36.8118 24.6941 37.0686 25.0128 37.0686Z" fill="#F2F2F2"/>
<path d="M22.7132 37.0686C23.0318 37.0686 23.2902 36.8118 23.2902 36.4951C23.2902 36.1783 23.0318 35.9215 22.7132 35.9215C22.3945 35.9215 22.1362 36.1783 22.1362 36.4951C22.1362 36.8118 22.3945 37.0686 22.7132 37.0686Z" fill="#F2F2F2"/>
<path d="M20.4139 37.0686C20.7325 37.0686 20.9908 36.8118 20.9908 36.4951C20.9908 36.1783 20.7325 35.9215 20.4139 35.9215C20.0952 35.9215 19.8369 36.1783 19.8369 36.4951C19.8369 36.8118 20.0952 37.0686 20.4139 37.0686Z" fill="#F2F2F2"/>
<path d="M18.1143 37.0686C18.433 37.0686 18.6913 36.8118 18.6913 36.4951C18.6913 36.1783 18.433 35.9215 18.1143 35.9215C17.7957 35.9215 17.5374 36.1783 17.5374 36.4951C17.5374 36.8118 17.7957 37.0686 18.1143 37.0686Z" fill="#F2F2F2"/>
<path d="M19.9429 52.1421V52.3195C19.9431 52.6134 20.0607 52.8953 20.2698 53.1031C20.4789 53.311 20.7624 53.4279 21.0581 53.4281H29.0878C29.3835 53.428 29.6671 53.3112 29.8762 53.1033C30.0854 52.8954 30.2029 52.6135 30.203 52.3195V52.1421C30.2036 51.8827 30.1119 51.6314 29.9442 51.4326C29.8884 51.3666 29.8253 51.307 29.756 51.2552C29.756 51.2552 25.3415 51.1558 25.3415 51.0334H21.0581C20.7624 51.0339 20.479 51.1508 20.27 51.3586C20.0609 51.5664 19.9433 51.8482 19.9429 52.1421Z" fill="#CCCCCC"/>
<path d="M25.7175 53.3842H24.5576V60.8343H25.7175V53.3842Z" fill="#CCCCCC"/>
<path d="M29.0185 60.7938C29.0185 60.9184 27.2609 60.842 25.0928 60.842C22.9248 60.842 21.1672 60.9184 21.1672 60.7938C21.1672 60.6692 22.9248 59.6813 25.0928 59.6813C27.2609 59.6813 29.0185 60.6692 29.0185 60.7938Z" fill="#CCCCCC"/>
<path d="M27.4239 51.9916C27.5077 51.8799 27.5657 51.7514 27.5941 51.615C27.6224 51.4785 27.6203 51.3376 27.5879 51.2021C27.5555 51.0666 27.4936 50.9398 27.4066 50.8306C27.3196 50.7214 27.2096 50.6325 27.0843 50.5702L24.626 42.2433L22.7542 43.1547L25.7591 51.0532C25.6677 51.2694 25.6593 51.5114 25.7355 51.7334C25.8116 51.9553 25.967 52.1418 26.1722 52.2575C26.3774 52.3732 26.6182 52.41 26.8489 52.361C27.0796 52.312 27.2842 52.1806 27.4239 51.9916Z" fill="#A0616A"/>
<path d="M25.183 43.6339L23.0879 44.1977C23.0283 44.2137 22.9659 44.2168 22.905 44.2067C22.844 44.1966 22.786 44.1736 22.7349 44.1392C22.6837 44.1048 22.6406 44.0599 22.6085 44.0074C22.5764 43.955 22.556 43.8963 22.5488 43.8353L22.2956 41.6989C22.2147 41.3953 22.2584 41.0722 22.4168 40.8004C22.5753 40.5287 22.8357 40.3305 23.1409 40.2493C23.4461 40.1681 23.7713 40.2106 24.0451 40.3673C24.3189 40.5241 24.5189 40.7824 24.6015 41.0856L25.4646 43.0507C25.4893 43.1069 25.5015 43.1678 25.5003 43.2292C25.4992 43.2906 25.4848 43.351 25.4581 43.4064C25.4314 43.4617 25.393 43.5107 25.3455 43.5499C25.298 43.5892 25.2426 43.6178 25.183 43.6339Z" fill="#04CD91"/>
<path d="M27.9714 59.9205L29.0652 59.9204L29.5856 57.1003H27.9712L27.9714 59.9205Z" fill="#A0616A"/>
<path d="M27.6924 59.5655L29.8465 59.5654H29.8465C30.0268 59.5654 30.2053 59.6007 30.3719 59.6693C30.5384 59.7379 30.6898 59.8384 30.8172 59.9651C30.9447 60.0918 31.0458 60.2423 31.1148 60.4078C31.1838 60.5734 31.2193 60.7509 31.2193 60.9301V60.9744L27.6925 60.9745L27.6924 59.5655Z" fill="#2F2E41"/>
<path d="M29.2409 58.4083C29.2282 58.4083 29.2154 58.4077 29.2026 58.4065L27.6888 58.2969C27.6276 58.2913 27.5685 58.2717 27.5161 58.2398C27.4637 58.2078 27.4193 58.1643 27.3865 58.1127C27.3537 58.061 27.3332 58.0025 27.3267 57.9417C27.3202 57.881 27.3278 57.8195 27.349 57.7621L29.3748 53.2375C29.3893 53.1972 29.3952 53.1543 29.3922 53.1116C29.3892 53.0689 29.3773 53.0272 29.3573 52.9893C29.3373 52.9509 29.3095 52.9172 29.2755 52.8903C29.2415 52.8634 29.2021 52.8439 29.16 52.8332C28.2074 52.5857 25.7633 51.9265 23.6475 51.1553C22.7411 50.8249 22.1702 50.3474 21.9507 49.7361C21.6613 48.9301 22.0894 48.1951 22.1078 48.1643L22.1221 48.1401L24.113 48.32L26.2713 48.5025L31.0011 51.0239C31.3974 51.2369 31.6984 51.5906 31.8442 52.0144C31.9901 52.4382 31.9699 52.901 31.7879 53.3107L29.6073 58.1717C29.5757 58.2421 29.5243 58.3019 29.4593 58.3439C29.3943 58.3859 29.3185 58.4083 29.2409 58.4083Z" fill="#2F2E41"/>
<path d="M24.4594 39.3684C25.6696 39.3684 26.6507 38.3931 26.6507 37.19C26.6507 35.9869 25.6696 35.0116 24.4594 35.0116C23.2491 35.0116 22.2681 35.9869 22.2681 37.19C22.2681 38.3931 23.2491 39.3684 24.4594 39.3684Z" fill="#A0616A"/>
<path d="M27.3469 59.8319L28.4407 59.8318L28.9611 57.0117H27.3467L27.3469 59.8319Z" fill="#A0616A"/>
<path d="M27.0679 59.4769L29.2219 59.4768H29.222C29.4023 59.4768 29.5808 59.5121 29.7474 59.5807C29.9139 59.6493 30.0652 59.7498 30.1927 59.8765C30.3202 60.0032 30.4213 60.1536 30.4903 60.3192C30.5593 60.4848 30.5948 60.6622 30.5948 60.8414V60.8858L27.0679 60.8859L27.0679 59.4769Z" fill="#2F2E41"/>
<path d="M28.6164 58.6744C28.6037 58.6744 28.5909 58.6738 28.578 58.6726L27.0643 58.563C27.0031 58.5574 26.944 58.5378 26.8916 58.5059C26.8392 58.4739 26.7948 58.4305 26.762 58.3788C26.7292 58.3271 26.7087 58.2686 26.7022 58.2079C26.6957 58.1471 26.7033 58.0856 26.7244 58.0283L28.7503 53.5036C28.7648 53.4633 28.7707 53.4204 28.7677 53.3777C28.7647 53.335 28.7528 53.2933 28.7328 53.2554C28.7128 53.217 28.685 53.1833 28.6509 53.1564C28.6169 53.1295 28.5776 53.11 28.5355 53.0993C27.5829 52.8518 25.1388 52.1927 23.023 51.4214C22.1166 51.091 21.5457 50.6135 21.3262 50.0022C21.0368 49.1963 21.4649 48.4613 21.4833 48.4304L21.4976 48.4062L23.4885 48.5861L25.6468 48.7686L30.3766 51.29C30.7729 51.503 31.0739 51.8567 31.2197 52.2805C31.3655 52.7043 31.3454 53.1671 31.1633 53.5768L28.9828 58.4378C28.9512 58.5082 28.8998 58.5681 28.8348 58.61C28.7698 58.652 28.6939 58.6744 28.6164 58.6744Z" fill="#2F2E41"/>
<path d="M25.1351 40.6037L22.8154 39.8054C22.8154 39.8054 21.3592 40.9176 22.0587 43.6767C22.4239 45.1005 22.3176 46.6034 21.7554 47.9624C21.6877 48.1305 21.6097 48.2943 21.5217 48.4529C21.5217 48.4529 24.1091 51.5572 26.518 49.2512L25.5812 44.7722C25.5812 44.7722 27.0533 41.801 25.1351 40.6037Z" fill="#2F2E41"/>
<path d="M24.7314 39.4425C24.4195 38.9784 24.1734 38.3349 24.5168 37.8934C24.8557 37.4575 25.5242 37.5217 26.0433 37.3289C26.7664 37.0602 27.1857 36.2158 27.0549 35.4596C26.9241 34.7034 26.3135 34.0765 25.586 33.82C24.8586 33.5635 24.0382 33.6469 23.3258 33.9423C22.4489 34.3059 21.6966 35.0093 21.3812 35.9003C21.0657 36.7913 21.2343 37.8611 21.8888 38.546C22.5904 39.2802 23.6915 39.4759 24.7101 39.464" fill="#2F2E41"/>
<path d="M22.6929 35.484C22.2999 35.802 21.7003 35.6607 21.2784 35.3816C20.8566 35.1025 20.5143 34.705 20.0578 34.4862C19.2532 34.1004 18.2803 34.3569 17.4971 34.7842C16.714 35.2116 16.0197 35.802 15.1925 36.1373C14.3653 36.4727 13.3096 36.4893 12.6832 35.856C12.5291 36.3 12.5165 36.7805 12.6472 37.2318C12.7778 37.6832 13.0454 38.0835 13.4134 38.3781C13.7813 38.6727 14.2318 38.8473 14.7032 38.878C15.1747 38.9087 15.6442 38.7941 16.0477 38.5497C16.9541 38.0009 17.4548 36.8501 18.4714 36.5471C19.034 36.3795 19.638 36.5145 20.2066 36.6608C20.7752 36.807 21.368 36.965 21.9418 36.8405C22.5156 36.716 23.0523 36.2034 22.9793 35.6241L22.6929 35.484Z" fill="#2F2E41"/>
<path d="M29.8264 56.0098C29.5943 54.5115 29.5943 52.9868 29.8264 51.4886C29.8411 51.3995 29.8872 51.3184 29.9564 51.2598C30.0256 51.2012 30.1135 51.169 30.2044 51.1688H33.7618C33.8194 51.1686 33.8763 51.1815 33.9282 51.2065C33.9801 51.2315 34.0255 51.268 34.0611 51.3131C34.0975 51.3588 34.1228 51.4121 34.1353 51.4691C34.1478 51.526 34.1471 51.585 34.1331 51.6416C33.8004 53.0272 33.8004 54.4712 34.1331 55.8567C34.147 55.9134 34.1478 55.9724 34.1353 56.0293C34.1228 56.0862 34.0975 56.1396 34.0611 56.1853C34.0255 56.2304 33.9801 56.2668 33.9282 56.2918C33.8763 56.3168 33.8194 56.3297 33.7618 56.3296H30.2044C30.1135 56.3294 30.0256 56.2971 29.9564 56.2386C29.8872 56.18 29.8411 56.0989 29.8264 56.0098Z" fill="#04CD91"/>
<path d="M32.6669 53.3574H30.8001C30.7292 53.3573 30.6611 53.3293 30.611 53.2794C30.5608 53.2295 30.5325 53.1619 30.5325 53.0913V52.9874C30.5325 52.9168 30.5608 52.8492 30.611 52.7993C30.6611 52.7494 30.7292 52.7214 30.8001 52.7213H32.6669C32.7379 52.7214 32.8059 52.7494 32.8561 52.7993C32.9063 52.8492 32.9345 52.9168 32.9346 52.9874V53.0913C32.9345 53.1619 32.9063 53.2295 32.8561 53.2794C32.8059 53.3293 32.7379 53.3573 32.6669 53.3574Z" fill="white"/>
<path d="M32.6669 54.4523H30.8001C30.7292 54.4522 30.6611 54.4242 30.611 54.3743C30.5608 54.3244 30.5325 54.2568 30.5325 54.1862V54.0822C30.5325 54.0117 30.5608 53.9441 30.611 53.8942C30.6611 53.8443 30.7292 53.8162 30.8001 53.8162H32.6669C32.7379 53.8162 32.8059 53.8443 32.8561 53.8942C32.9063 53.9441 32.9345 54.0117 32.9346 54.0822V54.1862C32.9345 54.2568 32.9063 54.3244 32.8561 54.3743C32.8059 54.4242 32.7379 54.4522 32.6669 54.4523Z" fill="white"/>
<path d="M30.7619 51.5926C30.8149 51.4636 30.8388 51.3247 30.832 51.1856C30.8251 51.0465 30.7877 50.9105 30.7222 50.7873C30.6568 50.6641 30.565 50.5567 30.4533 50.4726C30.3416 50.3885 30.2128 50.3298 30.0758 50.3006L25.6028 42.8483L24.0193 44.1957L28.914 51.0973C28.8799 51.3294 28.9326 51.5658 29.0621 51.7618C29.1916 51.9579 29.3889 52.0998 29.6167 52.1609C29.8445 52.2219 30.0868 52.1978 30.2979 52.0931C30.509 51.9883 30.6741 51.8102 30.7619 51.5926Z" fill="#A0616A"/>
<path d="M26.4913 44.0565L24.6044 45.1227C24.5507 45.1531 24.491 45.1715 24.4295 45.1769C24.368 45.1823 24.306 45.1744 24.2478 45.1538C24.1897 45.1332 24.1366 45.1004 24.0924 45.0576C24.0481 45.0148 24.0136 44.963 23.9913 44.9058L23.2092 42.9C23.0546 42.6261 23.0157 42.3024 23.1008 41.9999C23.1859 41.6974 23.3883 41.4409 23.6634 41.2865C23.9385 41.132 24.264 41.0924 24.5685 41.1762C24.873 41.26 25.1317 41.4604 25.2878 41.7334L26.6174 43.4218C26.6554 43.4702 26.6826 43.5261 26.6969 43.5858C26.7113 43.6455 26.7125 43.7076 26.7005 43.7678C26.6886 43.8281 26.6637 43.885 26.6276 43.9348C26.5915 43.9846 26.545 44.0261 26.4913 44.0565Z" fill="#2F2E41"/>
<path d="M46.5692 46.6742H10.3465C10.1927 46.6742 10.0452 46.7349 9.93646 46.843C9.8277 46.9512 9.7666 47.0978 9.7666 47.2507C9.7666 47.4036 9.8277 47.5502 9.93646 47.6583C10.0452 47.7665 10.1927 47.8272 10.3465 47.8272H11.3725V60.3772C11.3725 60.5301 11.4336 60.6767 11.5424 60.7848C11.6511 60.8929 11.7986 60.9537 11.9525 60.9537C12.1063 60.9537 12.2538 60.8929 12.3625 60.7848C12.4713 60.6767 12.5324 60.5301 12.5324 60.3772V48.935L19.0338 60.6493C19.1109 60.7814 19.2375 60.8777 19.3859 60.917C19.5343 60.9564 19.6924 60.9356 19.8254 60.8593C19.9584 60.7829 20.0556 60.6572 20.0955 60.5098C20.1354 60.3623 20.1148 60.2052 20.0383 60.0728L13.242 47.8272H44.2942V47.8347L37.502 60.0728C37.4251 60.2052 37.4043 60.3625 37.4441 60.5102C37.4839 60.6579 37.5811 60.7838 37.7143 60.8603C37.8475 60.9367 38.0058 60.9574 38.1543 60.9179C38.3029 60.8783 38.4295 60.7817 38.5065 60.6493L44.2942 50.221V60.3772C44.2942 60.5301 44.3552 60.6767 44.464 60.7848C44.5728 60.8929 44.7203 60.9537 44.8741 60.9537C45.0279 60.9537 45.1754 60.8929 45.2841 60.7848C45.3929 60.6767 45.454 60.5301 45.454 60.3772V48.1312L45.6227 47.8272H46.5692C46.723 47.8272 46.8705 47.7665 46.9793 47.6583C47.088 47.5502 47.1491 47.4036 47.1491 47.2507C47.1491 47.0978 47.088 46.9512 46.9793 46.843C46.8705 46.7349 46.723 46.6742 46.5692 46.6742Z" fill="#3F3D56"/>
<path d="M31.5805 46.3195H24.5322C24.3598 46.3195 24.22 46.4584 24.22 46.6299C24.22 46.8013 24.3598 46.9403 24.5322 46.9403H31.5805C31.753 46.9403 31.8928 46.8013 31.8928 46.6299C31.8928 46.4584 31.753 46.3195 31.5805 46.3195Z" fill="#CCCCCC"/>
<path d="M36.3089 46.9403H28.3685C28.2147 46.9402 28.0673 46.8794 27.9586 46.7713C27.8499 46.6632 27.7887 46.5167 27.7886 46.3638V42.0179C27.7887 41.8651 27.8499 41.7185 27.9586 41.6104C28.0673 41.5024 28.2147 41.4416 28.3685 41.4414H36.3089C36.4627 41.4416 36.6101 41.5024 36.7188 41.6104C36.8275 41.7185 36.8887 41.8651 36.8889 42.0179V46.3638C36.8887 46.5167 36.8275 46.6632 36.7188 46.7713C36.6101 46.8794 36.4627 46.9402 36.3089 46.9403Z" fill="#CCCCCC"/>
<path d="M32.3388 44.723C32.6344 44.723 32.8741 44.4847 32.8741 44.1908C32.8741 43.8969 32.6344 43.6587 32.3388 43.6587C32.0431 43.6587 31.8035 43.8969 31.8035 44.1908C31.8035 44.4847 32.0431 44.723 32.3388 44.723Z" fill="white"/>
<path d="M42.3687 36.2326V20.6671C42.3689 20.4902 42.4396 20.3207 42.5654 20.1956C42.6912 20.0705 42.8618 20.0002 43.0397 20H55.4169C55.5948 20.0002 55.7653 20.0705 55.8911 20.1956C56.0169 20.3207 56.0877 20.4902 56.0879 20.6671V36.2326C56.0877 36.4095 56.0169 36.579 55.8911 36.7041C55.7653 36.8292 55.5948 36.8995 55.4169 36.8997H43.0397C42.8618 36.8995 42.6912 36.8292 42.5654 36.7041C42.4396 36.579 42.3689 36.4095 42.3687 36.2326ZM43.0397 20.1482C42.9013 20.1484 42.7687 20.2031 42.6708 20.3004C42.573 20.3977 42.5179 20.5295 42.5178 20.6671V36.2326C42.5179 36.3702 42.573 36.5021 42.6708 36.5993C42.7687 36.6966 42.9013 36.7513 43.0397 36.7515H55.4169C55.5552 36.7513 55.6879 36.6966 55.7857 36.5993C55.8836 36.5021 55.9386 36.3702 55.9388 36.2326V20.6671C55.9386 20.5295 55.8836 20.3977 55.7857 20.3004C55.6879 20.2031 55.5552 20.1484 55.4169 20.1482H43.0397Z" fill="#E6E6E6"/>
<path d="M49.9224 27.1484V23.9523C49.9225 23.8639 49.9578 23.7791 50.0207 23.7166C50.0836 23.654 50.1689 23.6189 50.2579 23.6188H52.9823C53.0713 23.6189 53.1566 23.654 53.2195 23.7166C53.2824 23.7791 53.3178 23.8639 53.3179 23.9523V27.1484C53.3178 27.2368 53.2824 27.3216 53.2195 27.3842C53.1566 27.4467 53.0713 27.4819 52.9823 27.482H50.2579C50.1689 27.4819 50.0836 27.4467 50.0207 27.3842C49.9578 27.3216 49.9225 27.2368 49.9224 27.1484Z" fill="#04CD91"/>
<path d="M44.6287 28.6308V25.4347C44.6288 25.3463 44.6641 25.2615 44.727 25.199C44.7899 25.1365 44.8752 25.1013 44.9642 25.1012H47.6887C47.7776 25.1013 47.8629 25.1365 47.9258 25.199C47.9887 25.2615 48.0241 25.3463 48.0242 25.4347V28.6308C48.0241 28.7193 47.9887 28.8041 47.9258 28.8666C47.8629 28.9291 47.7776 28.9643 47.6887 28.9644H44.9642C44.8752 28.9643 44.7899 28.9291 44.727 28.8666C44.6641 28.8041 44.6288 28.7193 44.6287 28.6308Z" fill="#CCCCCC"/>
<path d="M48.8787 33.1522V29.9561C48.8788 29.8677 48.9141 29.7829 48.977 29.7204C49.0399 29.6578 49.1252 29.6227 49.2142 29.6226H51.9386C52.0276 29.6227 52.1129 29.6578 52.1758 29.7204C52.2387 29.7829 52.2741 29.8677 52.2742 29.9561V33.1522C52.2741 33.2406 52.2387 33.3254 52.1758 33.3879C52.1129 33.4505 52.0276 33.4856 51.9386 33.4857H49.2142C49.1252 33.4856 49.0399 33.4505 48.977 33.3879C48.9141 33.3254 48.8788 33.2406 48.8787 33.1522Z" fill="#FF6584"/>
<path d="M69.6566 21.622C69.9752 21.622 70.2335 21.3652 70.2335 21.0484C70.2335 20.7316 69.9752 20.4749 69.6566 20.4749C69.3379 20.4749 69.0796 20.7316 69.0796 21.0484C69.0796 21.3652 69.3379 21.622 69.6566 21.622Z" fill="#F2F2F2"/>
<path d="M69.6566 23.9079C69.9752 23.9079 70.2335 23.6511 70.2335 23.3343C70.2335 23.0175 69.9752 22.7607 69.6566 22.7607C69.3379 22.7607 69.0796 23.0175 69.0796 23.3343C69.0796 23.6511 69.3379 23.9079 69.6566 23.9079Z" fill="#F2F2F2"/>
<path d="M69.6566 26.1938C69.9752 26.1938 70.2335 25.937 70.2335 25.6202C70.2335 25.3034 69.9752 25.0466 69.6566 25.0466C69.3379 25.0466 69.0796 25.3034 69.0796 25.6202C69.0796 25.937 69.3379 26.1938 69.6566 26.1938Z" fill="#F2F2F2"/>
<path d="M69.6566 28.4796C69.9752 28.4796 70.2335 28.2229 70.2335 27.9061C70.2335 27.5893 69.9752 27.3325 69.6566 27.3325C69.3379 27.3325 69.0796 27.5893 69.0796 27.9061C69.0796 28.2229 69.3379 28.4796 69.6566 28.4796Z" fill="#F2F2F2"/>
<path d="M67.2476 21.622C67.5663 21.622 67.8246 21.3652 67.8246 21.0484C67.8246 20.7316 67.5663 20.4749 67.2476 20.4749C66.929 20.4749 66.6707 20.7316 66.6707 21.0484C66.6707 21.3652 66.929 21.622 67.2476 21.622Z" fill="#F2F2F2"/>
<path d="M67.2476 23.9079C67.5663 23.9079 67.8246 23.6511 67.8246 23.3343C67.8246 23.0175 67.5663 22.7607 67.2476 22.7607C66.929 22.7607 66.6707 23.0175 66.6707 23.3343C66.6707 23.6511 66.929 23.9079 67.2476 23.9079Z" fill="#F2F2F2"/>
<path d="M67.2476 26.1938C67.5663 26.1938 67.8246 25.937 67.8246 25.6202C67.8246 25.3034 67.5663 25.0466 67.2476 25.0466C66.929 25.0466 66.6707 25.3034 66.6707 25.6202C66.6707 25.937 66.929 26.1938 67.2476 26.1938Z" fill="#F2F2F2"/>
<path d="M67.2476 28.4796C67.5663 28.4796 67.8246 28.2229 67.8246 27.9061C67.8246 27.5893 67.5663 27.3325 67.2476 27.3325C66.929 27.3325 66.6707 27.5893 66.6707 27.9061C66.6707 28.2229 66.929 28.4796 67.2476 28.4796Z" fill="#F2F2F2"/>
<path d="M64.8387 21.622C65.1573 21.622 65.4157 21.3652 65.4157 21.0484C65.4157 20.7316 65.1573 20.4749 64.8387 20.4749C64.52 20.4749 64.2617 20.7316 64.2617 21.0484C64.2617 21.3652 64.52 21.622 64.8387 21.622Z" fill="#F2F2F2"/>
<path d="M64.8387 23.9079C65.1573 23.9079 65.4157 23.6511 65.4157 23.3343C65.4157 23.0175 65.1573 22.7607 64.8387 22.7607C64.52 22.7607 64.2617 23.0175 64.2617 23.3343C64.2617 23.6511 64.52 23.9079 64.8387 23.9079Z" fill="#F2F2F2"/>
<path d="M64.8387 26.1938C65.1573 26.1938 65.4157 25.937 65.4157 25.6202C65.4157 25.3034 65.1573 25.0466 64.8387 25.0466C64.52 25.0466 64.2617 25.3034 64.2617 25.6202C64.2617 25.937 64.52 26.1938 64.8387 26.1938Z" fill="#F2F2F2"/>
<path d="M64.8387 28.4796C65.1573 28.4796 65.4157 28.2229 65.4157 27.9061C65.4157 27.5893 65.1573 27.3325 64.8387 27.3325C64.52 27.3325 64.2617 27.5893 64.2617 27.9061C64.2617 28.2229 64.52 28.4796 64.8387 28.4796Z" fill="#F2F2F2"/>
<path d="M62.4297 21.622C62.7484 21.622 63.0067 21.3652 63.0067 21.0484C63.0067 20.7316 62.7484 20.4749 62.4297 20.4749C62.1111 20.4749 61.8528 20.7316 61.8528 21.0484C61.8528 21.3652 62.1111 21.622 62.4297 21.622Z" fill="#F2F2F2"/>
<path d="M62.4297 23.9079C62.7484 23.9079 63.0067 23.6511 63.0067 23.3343C63.0067 23.0175 62.7484 22.7607 62.4297 22.7607C62.1111 22.7607 61.8528 23.0175 61.8528 23.3343C61.8528 23.6511 62.1111 23.9079 62.4297 23.9079Z" fill="#F2F2F2"/>
<path d="M62.4297 26.1938C62.7484 26.1938 63.0067 25.937 63.0067 25.6202C63.0067 25.3034 62.7484 25.0466 62.4297 25.0466C62.1111 25.0466 61.8528 25.3034 61.8528 25.6202C61.8528 25.937 62.1111 26.1938 62.4297 26.1938Z" fill="#F2F2F2"/>
<path d="M62.4297 28.4796C62.7484 28.4796 63.0067 28.2229 63.0067 27.9061C63.0067 27.5893 62.7484 27.3325 62.4297 27.3325C62.1111 27.3325 61.8528 27.5893 61.8528 27.9061C61.8528 28.2229 62.1111 28.4796 62.4297 28.4796Z" fill="#F2F2F2"/>
<path d="M60.0211 21.622C60.3397 21.622 60.598 21.3652 60.598 21.0484C60.598 20.7316 60.3397 20.4749 60.0211 20.4749C59.7024 20.4749 59.4441 20.7316 59.4441 21.0484C59.4441 21.3652 59.7024 21.622 60.0211 21.622Z" fill="#F2F2F2"/>
<path d="M60.0211 23.9079C60.3397 23.9079 60.598 23.6511 60.598 23.3343C60.598 23.0175 60.3397 22.7607 60.0211 22.7607C59.7024 22.7607 59.4441 23.0175 59.4441 23.3343C59.4441 23.6511 59.7024 23.9079 60.0211 23.9079Z" fill="#F2F2F2"/>
<path d="M60.0211 26.1938C60.3397 26.1938 60.598 25.937 60.598 25.6202C60.598 25.3034 60.3397 25.0466 60.0211 25.0466C59.7024 25.0466 59.4441 25.3034 59.4441 25.6202C59.4441 25.937 59.7024 26.1938 60.0211 26.1938Z" fill="#F2F2F2"/>
<path d="M60.0211 28.4796C60.3397 28.4796 60.598 28.2229 60.598 27.9061C60.598 27.5893 60.3397 27.3325 60.0211 27.3325C59.7024 27.3325 59.4441 27.5893 59.4441 27.9061C59.4441 28.2229 59.7024 28.4796 60.0211 28.4796Z" fill="#F2F2F2"/>
<path d="M57.6121 21.622C57.9308 21.622 58.1891 21.3652 58.1891 21.0484C58.1891 20.7316 57.9308 20.4749 57.6121 20.4749C57.2935 20.4749 57.0352 20.7316 57.0352 21.0484C57.0352 21.3652 57.2935 21.622 57.6121 21.622Z" fill="#F2F2F2"/>
<path d="M57.6121 23.9079C57.9308 23.9079 58.1891 23.6511 58.1891 23.3343C58.1891 23.0175 57.9308 22.7607 57.6121 22.7607C57.2935 22.7607 57.0352 23.0175 57.0352 23.3343C57.0352 23.6511 57.2935 23.9079 57.6121 23.9079Z" fill="#F2F2F2"/>
<path d="M57.6121 26.1938C57.9308 26.1938 58.1891 25.937 58.1891 25.6202C58.1891 25.3034 57.9308 25.0466 57.6121 25.0466C57.2935 25.0466 57.0352 25.3034 57.0352 25.6202C57.0352 25.937 57.2935 26.1938 57.6121 26.1938Z" fill="#F2F2F2"/>
<path d="M57.6121 28.4796C57.9308 28.4796 58.1891 28.2229 58.1891 27.9061C58.1891 27.5893 57.9308 27.3325 57.6121 27.3325C57.2935 27.3325 57.0352 27.5893 57.0352 27.9061C57.0352 28.2229 57.2935 28.4796 57.6121 28.4796Z" fill="#F2F2F2"/>
<path d="M59.9365 41.3973C59.8891 41.2681 59.8698 41.1305 59.8797 40.9933C59.8896 40.8562 59.9286 40.7227 59.994 40.6016C60.0594 40.4805 60.1499 40.3745 60.2594 40.2905C60.3689 40.2066 60.495 40.1466 60.6295 40.1145C60.6721 40.1045 60.7154 40.0975 60.759 40.0935L62.9272 36.3153L62.3797 35.3803L63.7426 34.3351L64.7852 35.7747C64.9096 35.9478 64.9745 36.1561 64.9703 36.3687C64.9661 36.5814 64.8931 36.787 64.762 36.9551L61.7853 40.7435C61.7961 40.7736 61.8053 40.8042 61.813 40.8353C61.8453 40.969 61.8488 41.1079 61.8233 41.2431C61.7978 41.3782 61.7438 41.5064 61.665 41.6194C61.5861 41.7324 61.4842 41.8275 61.3658 41.8985C61.2474 41.9696 61.1152 42.015 60.9779 42.0317C60.9381 42.0367 60.8979 42.0392 60.8578 42.0392C60.6566 42.0386 60.4605 41.9767 60.2958 41.8619C60.1311 41.7472 60.0057 41.585 59.9365 41.3973Z" fill="#FFB8B8"/>
<path d="M55.7062 59.9903L54.6124 59.9902L54.092 55.7961L55.7064 55.7962L55.7062 59.9903Z" fill="#FFB8B8"/>
<path d="M53.8311 59.6796H55.9406V60.9999H52.5029C52.5029 60.8265 52.5373 60.6548 52.604 60.4946C52.6708 60.3344 52.7686 60.1889 52.8919 60.0663C53.0153 59.9437 53.1617 59.8464 53.3228 59.7801C53.484 59.7137 53.6567 59.6796 53.8311 59.6796Z" fill="#2F2E41"/>
<path d="M64.7172 59.9903L63.6233 59.9902L63.103 55.7961L64.7173 55.7962L64.7172 59.9903Z" fill="#FFB8B8"/>
<path d="M62.8421 59.6796H64.9516V60.9999H61.5139C61.5139 60.8265 61.5483 60.6548 61.615 60.4946C61.6818 60.3344 61.7796 60.1889 61.9029 60.0663C62.0263 59.9437 62.1727 59.8464 62.3338 59.7801C62.495 59.7137 62.6677 59.6796 62.8421 59.6796Z" fill="#2F2E41"/>
<path d="M64.046 34.5393L61.5903 35.467L60.9908 33.8114C60.9112 33.5916 60.9123 33.3508 60.994 33.1317C61.0756 32.9126 61.2326 32.7293 61.4371 32.6141C61.6439 32.4976 61.8859 32.4584 62.1192 32.5037C62.3526 32.549 62.562 32.6757 62.7095 32.8611L64.046 34.5393Z" fill="#04CD91"/>
<path d="M55.8006 56.5934L53.741 56.1264C53.6315 56.1014 53.5356 56.0361 53.4725 55.9437C53.4094 55.8512 53.3838 55.7385 53.4009 55.6281C54.2273 50.421 55.0224 47.3716 57.0714 43.4991C57.1 43.427 57.42 41.9614 57.6288 40.9905C57.6264 40.8835 57.6632 40.7793 57.7324 40.6973C57.8015 40.6153 57.8983 40.5612 58.0047 40.5449L61.8451 39.9573C61.903 39.9374 61.9641 39.9282 62.0254 39.9304L62.0638 39.9376L62.0633 39.9751C62.0628 40.0139 62.024 40.0199 62.0094 40.0221L61.9583 40.0299C62.0166 40.0569 62.07 40.093 62.1167 40.1369C63.7993 42.1488 64.6743 48.7436 65.7856 56.0293C65.7918 56.0884 65.7845 56.1481 65.7644 56.2041C65.7443 56.2601 65.7118 56.3109 65.6693 56.3528C65.6291 56.3964 65.5804 56.4315 65.5261 56.4559C65.4719 56.4803 65.4132 56.4935 65.3537 56.4947L62.9 56.5542C62.7923 56.5566 62.6873 56.5199 62.6046 56.4511C62.522 56.3823 62.4673 56.286 62.4508 56.18L60.7981 46.6856C60.7868 46.6115 60.7519 46.5428 60.6985 46.4897C60.6452 46.4367 60.5762 46.4019 60.5017 46.3904C60.4271 46.379 60.3508 46.3915 60.2838 46.4262C60.2169 46.4608 60.1628 46.5158 60.1295 46.5831C58.7962 49.2824 57.5528 51.6168 56.3282 56.2742C56.3039 56.3686 56.2487 56.4524 56.1713 56.5122C56.0939 56.572 55.9987 56.6046 55.9006 56.6047C55.867 56.6047 55.8334 56.6009 55.8006 56.5934Z" fill="#2F2E41"/>
<path d="M57.7997 41.099C57.748 41.0627 57.7047 41.0158 57.6727 40.9615C57.6406 40.9073 57.6206 40.8468 57.6138 40.7843C57.2993 37.8654 57.5184 35.5812 58.2835 33.8011C58.4183 33.4941 58.6213 33.2214 58.8773 33.0036C59.1333 32.7857 59.4356 32.6284 59.7616 32.5435L61.7466 32.4438L61.7569 32.4488C62.2049 32.6669 62.5702 33.0227 62.7987 33.4635C63.0272 33.9042 63.1067 34.4064 63.0255 34.8957C62.3871 36.5687 61.8524 38.3106 62.2602 39.7158C62.2773 39.7745 62.2822 39.8361 62.2748 39.8968C62.2674 39.9575 62.2477 40.0161 62.217 40.0691C62.1872 40.1203 62.1471 40.1648 62.0993 40.2001C62.0515 40.2353 61.997 40.2604 61.939 40.2739L58.1581 41.168C58.0968 41.1824 58.0332 41.1838 57.9714 41.1719C57.9096 41.16 57.8511 41.1352 57.7997 41.099Z" fill="#04CD91"/>
<path d="M56.9454 36.9102L53.1381 33.9243C53.1077 33.9349 53.0769 33.944 53.0456 33.9514C52.9112 33.9827 52.7718 33.9855 52.6362 33.9596C52.5007 33.9338 52.3721 33.8799 52.2589 33.8014C52.1449 33.7229 52.0492 33.6211 51.978 33.5028C51.9068 33.3845 51.8618 33.2525 51.8461 33.1155C51.8206 32.8966 51.8703 32.6755 51.987 32.4881C52.1038 32.3008 52.2808 32.1581 52.4893 32.0833C52.6195 32.0369 52.7581 32.0183 52.8959 32.0289C53.0338 32.0394 53.1679 32.0788 53.2894 32.1444C53.4109 32.21 53.5171 32.3004 53.6011 32.4097C53.685 32.5189 53.7447 32.6446 53.7764 32.7784C53.7862 32.8208 53.793 32.8639 53.7968 32.9072L57.587 35.0808L58.5302 34.541L59.575 35.9008L58.1106 36.9385C57.9391 37.059 57.7332 37.1213 57.5233 37.1162C57.3134 37.1111 57.1107 37.0389 56.9454 36.9102Z" fill="#FFB8B8"/>
<path d="M60.0395 36.3243L57.8672 34.8558L58.8881 33.4184C59.0237 33.2275 59.2227 33.0904 59.4501 33.0313C59.6775 32.9723 59.9186 32.995 60.1308 33.0955C60.3454 33.1972 60.5164 33.3719 60.6128 33.5879C60.7093 33.8039 60.7248 34.0471 60.6567 34.2736L60.0395 36.3243Z" fill="#04CD91"/>
<path d="M61.0841 31.7067C62.2943 31.7067 63.2754 30.7314 63.2754 29.5284C63.2754 28.3253 62.2943 27.35 61.0841 27.35C59.8739 27.35 58.8928 28.3253 58.8928 29.5284C58.8928 30.7314 59.8739 31.7067 61.0841 31.7067Z" fill="#FFB8B8"/>
<path d="M60.2808 29.204C59.7176 29.5872 58.9781 29.9811 58.4029 29.573C58.0252 29.305 57.9062 28.8089 58.0593 28.3734C58.3348 27.5904 59.0915 27.2457 59.8152 26.9814C60.756 26.6379 61.7803 26.3646 62.7515 26.6107C63.7227 26.8567 64.581 27.7914 64.4056 28.7723C64.2647 29.5612 63.5161 30.2176 63.6224 31.0118C63.7293 31.8111 64.6336 32.2318 65.4319 32.3747C66.2302 32.5175 67.1235 32.5635 67.6972 33.1335C68.4291 33.8606 68.2463 35.1604 67.5577 35.9281C66.869 36.6959 65.8298 37.0439 64.8228 37.2805C63.4885 37.5939 62.0455 37.7587 60.7783 37.2385C59.5111 36.7182 58.525 35.3179 58.8921 34.0048C59.0472 33.4501 59.4124 32.9813 59.7654 32.525C60.1184 32.0686 60.4759 31.5914 60.6105 31.0315C60.7228 30.5649 60.6397 30.0232 60.3285 29.6732C60.2718 29.6119 60.2362 29.5344 60.2267 29.4517C60.2172 29.3691 60.2342 29.2856 60.2754 29.2132L60.2808 29.204Z" fill="#2F2E41"/>
</svg>
