<svg width="80" height="80" viewBox="0 0 80 80" fill="none" xmlns="http://www.w3.org/2000/svg">
<circle cx="40" cy="40" r="40" fill="white"/>
<g clip-path="url(#clip0_158_484)">
<path d="M26.1881 48.779C26.0921 48.9383 25.9409 49.0569 25.7631 49.1122C25.5853 49.1676 25.3933 49.1558 25.2237 49.0791C25.054 49.0025 24.9184 48.8663 24.8427 48.6965C24.7669 48.5266 24.7562 48.3349 24.8127 48.1577L21.8757 42.1328L23.2816 41.2815L25.818 47.6812C25.8277 47.6849 25.8372 47.6889 25.8467 47.693C25.8561 47.6972 25.8654 47.7015 25.8748 47.7059L25.9029 47.72C25.9123 47.7247 25.9214 47.7299 25.9302 47.7356C26.103 47.8397 26.2272 48.0081 26.2757 48.2036C26.3241 48.3992 26.2928 48.606 26.1886 48.7785L26.1881 48.779Z" fill="#FEB8B8"/>
<path d="M22.4362 44.4558L24.5225 43.9218C24.5225 43.9218 24.4544 43.768 24.3437 43.5132C24.233 43.2585 24.0783 42.903 23.9043 42.4999C23.7303 42.0969 23.5373 41.646 23.3486 41.2005C23.16 40.755 22.9763 40.315 22.8222 39.9335C22.6681 39.5521 22.492 39.3233 22.3159 39.1955C22.17 39.0847 21.9861 39.0359 21.8043 39.0597C21.663 39.0807 21.528 39.1321 21.4085 39.2102C21.3519 39.2453 21.2987 39.2857 21.2496 39.3306L20.7659 40.209L22.4362 44.4558Z" fill="#CCCCCC"/>
<path d="M20.363 60.6833L21.6398 60.6783L21.2281 64.0098L20.363 64.0141V60.6833Z" fill="#FEB8B8"/>
<path d="M20.1424 64.8524L22.9303 64.8376V64.8026C22.9302 64.7311 22.9232 64.6598 22.9092 64.5897C22.8818 64.4515 22.8271 64.32 22.7485 64.203C22.6685 64.0844 22.5661 63.9827 22.447 63.9034C22.3294 63.8254 22.1975 63.7714 22.0588 63.7446C21.9886 63.7311 21.9171 63.7246 21.8456 63.725L20.1421 63.7333L20.1424 64.8524Z" fill="#2F2E41"/>
<path d="M24.4512 60.6677L25.7243 60.6627L25.3139 63.9896L24.4512 63.9939L24.4512 60.6677Z" fill="#FEB8B8"/>
<path d="M24.2313 64.8308L27.0119 64.8162V64.7811C27.0119 64.7098 27.0048 64.6386 26.9909 64.5686C26.9635 64.4306 26.909 64.2993 26.8306 64.1824C26.7509 64.064 26.6487 63.9623 26.5298 63.8831C26.4125 63.8052 26.281 63.7514 26.1427 63.7247C26.0726 63.7112 26.0014 63.7046 25.93 63.7051L24.2312 63.7134L24.2313 64.8308Z" fill="#2F2E41"/>
<path d="M24.5054 47.0513L26.6463 55.0293L25.8626 62.6768L24.1275 62.7246L24.5053 55.8193L22.3406 52.3732L21.8712 62.7715L20.297 62.6604L19.4217 53.7199C19.1243 53.0218 18.9062 52.2927 18.7714 51.546C18.6656 50.96 18.6141 50.3654 18.6176 49.7699C18.6194 49.369 18.6502 48.9688 18.7099 48.5723C18.7312 48.4246 18.7601 48.278 18.7964 48.1332L19.4347 47.4871L24.5054 47.0513Z" fill="#2F2E41"/>
<path d="M21.6688 48.3856C22.0288 48.3856 22.3667 48.3741 22.6733 48.3513C22.9862 48.3299 23.2975 48.289 23.6053 48.2289C23.8674 48.18 24.1226 48.0997 24.3655 47.9899C24.561 47.9056 24.731 47.7716 24.8585 47.6013L24.8731 47.5803L24.288 43.7775L23.657 39.5017C23.6155 39.2187 23.4712 38.9608 23.2517 38.7772C23.0321 38.5935 22.7526 38.4969 22.4663 38.5057L20.4899 38.5661C20.1963 38.5751 19.9183 38.7002 19.717 38.9139C19.5157 39.1276 19.4077 39.4123 19.4167 39.7055C19.4171 39.7167 19.4176 39.7278 19.4183 39.7389L19.6777 43.9912L18.7207 48.1858L18.7885 48.1953C18.8157 48.1988 18.9208 48.2127 19.0853 48.2312C19.3003 48.2553 19.5199 48.277 19.7379 48.2958C20.0463 48.3224 20.3481 48.3433 20.6349 48.3579C20.9983 48.3763 21.3468 48.3853 21.6688 48.3856Z" fill="#CCCCCC"/>
<path d="M22.7654 37.7502H22.7669C22.8507 37.7501 22.9309 37.7168 22.9901 37.6576C23.0492 37.5984 23.0825 37.5182 23.0825 37.4346V35.6753C23.0828 35.3601 23.0196 35.048 22.8967 34.7577C22.656 34.191 22.2056 33.739 21.6393 33.4958C21.2812 33.3424 20.8906 33.2801 20.5025 33.3145C20.1144 33.3488 19.7409 33.4788 19.4154 33.6927C19.0899 33.9065 18.8226 34.1977 18.6375 34.54C18.4523 34.8824 18.3551 35.2652 18.3545 35.6543V37.4164C18.3544 37.4588 18.3629 37.5008 18.3795 37.5398C18.4119 37.616 18.4726 37.6767 18.5488 37.7093C18.5879 37.726 18.63 37.7346 18.6725 37.7347L22.7654 37.7502Z" fill="#2F2E41"/>
<path d="M19.6511 35.072C19.4863 35.3727 19.4143 35.7154 19.4444 36.0568C19.4745 36.3983 19.6052 36.7232 19.8201 36.9905C20.035 37.2579 20.3245 37.4556 20.6518 37.5588C20.9792 37.6619 21.3299 37.6659 21.6595 37.5702C21.8778 37.5076 22.0815 37.4024 22.2588 37.2606C22.4361 37.1187 22.5834 36.9432 22.6923 36.7441C22.8567 36.4436 22.9284 36.1012 22.8982 35.76C22.8681 35.4188 22.7374 35.0942 22.5228 34.8271C22.3081 34.56 22.0191 34.3623 21.6921 34.259C21.365 34.1557 21.0147 34.1514 20.6853 34.2466C20.4668 34.309 20.2629 34.4141 20.0854 34.5558C19.9079 34.6975 19.7603 34.873 19.6513 35.072L19.6511 35.072Z" fill="#FEB8B8"/>
<path d="M23.6413 35.8186C23.6415 35.5693 23.5915 35.3225 23.4943 35.0929C23.3041 34.6448 22.9479 34.2874 22.5002 34.0951C22.2705 33.9969 22.0233 33.9457 21.7734 33.9447L21.4208 33.943H21.4089C20.9157 33.9433 20.4429 34.1392 20.0944 34.4877C19.7459 34.8361 19.5502 35.3085 19.5505 35.801V35.836L20.2966 35.8391L20.5509 35.1294L20.6018 35.8405L20.9871 35.8421L21.1154 35.4844L21.1411 35.8429L23.641 35.8541L23.6413 35.8186Z" fill="#2F2E41"/>
<path d="M26.6449 39.5197C26.7597 39.5479 26.8671 39.6005 26.9596 39.6741C27.0319 39.7312 27.0937 39.8004 27.1422 39.8787C27.2381 40.0335 27.2803 40.2155 27.2624 40.3967C27.2534 40.4882 27.2285 40.5775 27.1889 40.6605C27.1401 40.764 27.0699 40.8559 26.9829 40.9303C26.8959 41.0047 26.7941 41.0598 26.6842 41.092C26.5742 41.1242 26.4587 41.1327 26.3453 41.1171C26.2318 41.1014 26.123 41.0619 26.0259 41.0011C26.0188 40.9964 26.0117 40.9918 26.0049 40.9871C25.998 40.9824 25.9911 40.9776 25.9842 40.9726C25.9774 40.9676 25.9707 40.9626 25.9641 40.9575C25.9575 40.9524 25.951 40.9472 25.9445 40.9419L21.828 42.4049C21.7014 42.4499 21.5635 42.4526 21.4352 42.4125C21.3068 42.3725 21.195 42.2919 21.1165 42.183L20.1401 40.8336L21.3203 40.0402L21.9393 40.7424L25.7068 39.994C25.7109 39.9843 25.7152 39.9746 25.7196 39.9649C25.724 39.9553 25.7287 39.9457 25.7336 39.9361C25.7383 39.9268 25.7433 39.9173 25.7487 39.9076C25.754 39.898 25.7595 39.8886 25.765 39.8796C25.8549 39.7346 25.9885 39.6217 26.1465 39.5571C26.3046 39.4924 26.4791 39.4794 26.645 39.5199L26.6449 39.5197Z" fill="#FEB8B8"/>
<path d="M21.873 40.2994C21.7498 40.1459 21.5779 39.9467 21.4027 39.749C21.2275 39.5513 21.0503 39.3555 20.9163 39.2089C20.7824 39.0623 20.6923 38.9653 20.6923 38.9653C20.5687 38.7787 20.3842 38.6405 20.1702 38.5744C19.9561 38.5082 19.7257 38.518 19.5182 38.6022C19.3106 38.6864 19.1385 38.8398 19.0313 39.0362C18.9241 39.2327 18.8883 39.4602 18.93 39.68C18.9539 39.8066 19.0031 39.927 19.0747 40.0341C19.0747 40.0341 19.2091 40.2094 19.4119 40.4715C19.6148 40.7335 19.8859 41.0822 20.1595 41.4288C20.4331 41.7755 20.7094 42.1204 20.9224 42.3749C21.1354 42.6295 21.2854 42.794 21.3064 42.7799L22.0494 40.5744C22.0704 40.5602 21.9961 40.4528 21.873 40.2994Z" fill="#CCCCCC"/>
<path d="M21.4319 37.6947C21.4436 37.7516 21.4391 37.8106 21.4188 37.8651C21.4087 37.8929 21.3947 37.9192 21.3772 37.9432C21.3622 37.9636 21.3449 37.9822 21.3256 37.9986C21.2684 38.0469 21.1957 38.0733 21.1208 38.073C21.1161 38.073 21.1114 38.0728 21.1067 38.0725C21.102 38.0723 21.0974 38.0719 21.0927 38.0716C21.088 38.0712 21.0833 38.0707 21.0786 38.07C21.0739 38.0694 21.0693 38.0686 21.0646 38.0678L20.7998 38.0197L20.4351 37.2417V37.9544L19.2312 37.738V34.7136L21.2494 34.7233L21.1995 34.7812C21.0339 34.9753 20.9252 35.2114 20.8852 35.4633C20.8461 35.7184 20.851 35.9783 20.8998 36.2318C20.9472 36.4883 21.0191 36.7396 21.1147 36.9824C21.1982 37.1974 21.294 37.4075 21.4017 37.6116C21.4156 37.6377 21.4258 37.6657 21.4319 37.6947Z" fill="#2F2E41"/>
<path d="M65.9234 64.9999H14V64.8523H66L65.9234 64.9999Z" fill="#CACACA"/>
<path d="M52.1606 26.8468H51.8866V19.343C51.8866 18.1911 51.4284 17.0865 50.6127 16.272C49.797 15.4576 48.6908 15 47.5373 15H31.6158C31.0446 15 30.479 15.1123 29.9513 15.3306C29.4237 15.5488 28.9442 15.8687 28.5403 16.272C28.1364 16.6753 27.816 17.154 27.5975 17.6809C27.3789 18.2078 27.2664 18.7726 27.2664 19.3429V60.5094C27.2664 61.0797 27.3789 61.6444 27.5974 62.1714C27.816 62.6983 28.1364 63.177 28.5403 63.5803C28.9441 63.9836 29.4236 64.3035 29.9513 64.5218C30.479 64.74 31.0445 64.8523 31.6157 64.8523H47.537C48.6906 64.8523 49.7968 64.3948 50.6125 63.5803C51.4282 62.7659 51.8864 61.6612 51.8864 60.5094V32.1881H52.1604L52.1606 26.8468Z" fill="#3F3D56"/>
<path d="M50.9997 19.0521V60.8002C50.9996 61.6735 50.6521 62.511 50.0338 63.1286C49.4154 63.7461 48.5767 64.0933 47.7021 64.0936H31.454C30.5791 64.0937 29.7399 63.7468 29.1211 63.1292C28.5023 62.5116 28.1546 61.6738 28.1543 60.8002V19.0521C28.1546 18.1785 28.5023 17.3408 29.1211 16.7232C29.7399 16.1056 30.579 15.7587 31.4539 15.7588H33.4249C33.3281 15.9964 33.2912 16.2542 33.3176 16.5094C33.3439 16.7646 33.4327 17.0094 33.5759 17.2223C33.7192 17.4353 33.9127 17.6098 34.1394 17.7306C34.3661 17.8514 34.619 17.9147 34.8759 17.915H44.1392C44.3961 17.9147 44.649 17.8514 44.8757 17.7306C45.1024 17.6098 45.2959 17.4353 45.4392 17.2223C45.5824 17.0094 45.6712 16.7646 45.6975 16.5094C45.7239 16.2542 45.687 15.9964 45.5902 15.7588H47.7015C48.5761 15.7589 49.4148 16.1059 50.0333 16.7233C50.6518 17.3408 50.9994 18.1782 50.9997 19.0515V19.0521Z" fill="white"/>
<path d="M39.7511 35.7538C37.9012 35.7545 36.1267 35.0214 34.8181 33.7157C33.5095 32.4101 32.7738 30.6389 32.7729 28.7917V28.7855C32.7729 28.7709 32.7729 28.7556 32.7738 28.741C32.7949 24.9251 35.9253 21.8177 39.7511 21.8177C41.6018 21.8176 43.3767 22.5517 44.6855 23.8583C45.9942 25.165 46.7295 26.9373 46.7296 28.7853C46.7297 30.6333 45.9946 32.4056 44.686 33.7124C43.3774 35.0192 41.6026 35.7535 39.7519 35.7536H39.7511V35.7538ZM39.7511 21.9644C37.9476 21.9684 36.2185 22.6829 34.9395 23.9527C33.6606 25.2224 32.9351 26.9448 32.9207 28.7457C32.92 28.7612 32.92 28.7737 32.92 28.7856C32.9198 30.1349 33.3203 31.4539 34.0709 32.5759C34.8215 33.6978 35.8884 34.5724 37.1368 35.0889C38.3851 35.6054 39.7588 35.7407 41.0841 35.4776C42.4094 35.2145 43.6269 34.5649 44.5825 33.611C45.5381 32.657 46.1889 31.4415 46.4527 30.1182C46.7165 28.7949 46.5814 27.4231 46.0644 26.1765C45.5475 24.9299 44.6719 23.8643 43.5485 23.1145C42.425 22.3648 41.1042 21.9645 39.7529 21.9644H39.7511Z" fill="#CCCCCC"/>
<path d="M46.967 43.0799H32.5286C32.4577 43.0798 32.3897 43.0517 32.3396 43.0016C32.2895 42.9516 32.2613 42.8837 32.2612 42.8129V39.2367C32.2613 39.1659 32.2895 39.0981 32.3396 39.048C32.3898 38.998 32.4577 38.9698 32.5286 38.9697H46.967C47.0378 38.9698 47.1058 38.998 47.1559 39.048C47.206 39.0981 47.2342 39.1659 47.2343 39.2367V42.813C47.2342 42.8838 47.206 42.9516 47.1559 43.0017C47.1058 43.0517 47.0378 43.0799 46.967 43.08V43.0799ZM32.5286 39.0765C32.486 39.0765 32.4453 39.0934 32.4152 39.1234C32.3851 39.1535 32.3682 39.1942 32.3681 39.2367V42.813C32.3682 42.8555 32.3851 42.8962 32.4152 42.9262C32.4453 42.9563 32.486 42.9732 32.5286 42.9732H46.967C47.0095 42.9732 47.0503 42.9563 47.0804 42.9262C47.1104 42.8962 47.1274 42.8555 47.1274 42.813V39.2367C47.1274 39.1942 47.1104 39.1535 47.0804 39.1234C47.0503 39.0934 47.0095 39.0765 46.967 39.0765H32.5286Z" fill="#E6E6E6"/>
<path d="M34.4003 42.1461C35.0205 42.1461 35.5233 41.6441 35.5233 41.0248C35.5233 40.4055 35.0205 39.9034 34.4003 39.9034C33.7801 39.9034 33.2773 40.4055 33.2773 41.0248C33.2773 41.6441 33.7801 42.1461 34.4003 42.1461Z" fill="#CCCCCC"/>
<path d="M36.9938 40.2772C36.9442 40.2772 36.8966 40.2969 36.8615 40.332C36.8264 40.367 36.8066 40.4146 36.8066 40.4641C36.8066 40.5137 36.8264 40.5612 36.8615 40.5963C36.8966 40.6313 36.9442 40.651 36.9938 40.651H45.8172C45.8668 40.6529 45.9151 40.6351 45.9516 40.6014C45.988 40.5677 46.0095 40.5209 46.0114 40.4714C46.0133 40.4218 45.9954 40.3736 45.9617 40.3372C45.928 40.3008 45.8811 40.2793 45.8315 40.2774C45.8288 40.2773 45.826 40.2773 45.8233 40.2773H36.9938V40.2772Z" fill="#E6E6E6"/>
<path d="M36.9938 41.3984C36.9442 41.3984 36.8966 41.4181 36.8615 41.4532C36.8264 41.4882 36.8066 41.5358 36.8066 41.5853C36.8066 41.6349 36.8264 41.6824 36.8615 41.7175C36.8966 41.7525 36.9442 41.7722 36.9938 41.7722H45.8172C45.8668 41.7741 45.9151 41.7563 45.9516 41.7226C45.988 41.6889 46.0095 41.6421 46.0114 41.5926C46.0133 41.5431 45.9954 41.4948 45.9617 41.4584C45.928 41.422 45.8811 41.4005 45.8315 41.3986C45.8288 41.3985 45.826 41.3985 45.8233 41.3985L36.9938 41.3984Z" fill="#E6E6E6"/>
<path d="M46.967 49.0604H32.5286C32.4577 49.0603 32.3897 49.0321 32.3396 48.9821C32.2895 48.932 32.2613 48.8642 32.2612 48.7934V45.2172C32.2613 45.1464 32.2895 45.0785 32.3396 45.0285C32.3898 44.9784 32.4577 44.9503 32.5286 44.9502H46.967C47.0378 44.9503 47.1058 44.9784 47.1559 45.0285C47.206 45.0785 47.2342 45.1464 47.2343 45.2172V48.7935C47.2342 48.8642 47.206 48.9321 47.1559 48.9821C47.1058 49.0321 47.0378 49.0603 46.967 49.0604ZM32.5286 45.057C32.486 45.057 32.4453 45.0739 32.4152 45.1039C32.3851 45.134 32.3682 45.1747 32.3681 45.2172V48.7935C32.3682 48.8359 32.3851 48.8767 32.4152 48.9067C32.4453 48.9367 32.486 48.9536 32.5286 48.9537H46.967C47.0095 48.9536 47.0503 48.9367 47.0804 48.9067C47.1104 48.8767 47.1274 48.8359 47.1274 48.7935V45.2172C47.1274 45.1747 47.1104 45.134 47.0804 45.1039C47.0503 45.0739 47.0095 45.057 46.967 45.057H32.5286Z" fill="#E6E6E6"/>
<path d="M34.4003 48.1266C35.0205 48.1266 35.5233 47.6245 35.5233 47.0052C35.5233 46.3859 35.0205 45.8839 34.4003 45.8839C33.7801 45.8839 33.2773 46.3859 33.2773 47.0052C33.2773 47.6245 33.7801 48.1266 34.4003 48.1266Z" fill="#CCCCCC"/>
<path d="M36.9938 46.2574C36.9442 46.2574 36.8966 46.2771 36.8615 46.3122C36.8264 46.3472 36.8066 46.3948 36.8066 46.4443C36.8066 46.4939 36.8264 46.5415 36.8615 46.5765C36.8966 46.6116 36.9442 46.6312 36.9938 46.6312H45.8172C45.8661 46.631 45.913 46.6116 45.9478 46.5772C45.9826 46.5428 46.0025 46.4962 46.0033 46.4474C46.0041 46.3985 45.9857 46.3513 45.9521 46.3158C45.9184 46.2803 45.8722 46.2594 45.8233 46.2575L36.9938 46.2574Z" fill="#E6E6E6"/>
<path d="M36.9938 47.3789C36.9442 47.3789 36.8966 47.3986 36.8615 47.4336C36.8264 47.4687 36.8066 47.5162 36.8066 47.5658C36.8066 47.6154 36.8264 47.6629 36.8615 47.698C36.8966 47.733 36.9442 47.7527 36.9938 47.7527H45.8172C45.8661 47.7524 45.913 47.733 45.9478 47.6987C45.9826 47.6643 46.0025 47.6177 46.0033 47.5688C46.0041 47.52 45.9857 47.4727 45.9521 47.4373C45.9184 47.4018 45.8722 47.3808 45.8233 47.379L36.9938 47.3789Z" fill="#E6E6E6"/>
<path d="M46.967 55.0407H32.5286C32.4577 55.0406 32.3897 55.0125 32.3396 54.9624C32.2895 54.9124 32.2613 54.8445 32.2612 54.7737V51.1975C32.2613 51.1267 32.2895 51.0589 32.3396 51.0088C32.3898 50.9588 32.4577 50.9306 32.5286 50.9305H46.967C47.0378 50.9306 47.1058 50.9588 47.1559 51.0088C47.206 51.0589 47.2342 51.1267 47.2343 51.1975V54.7738C47.2342 54.8446 47.206 54.9124 47.1559 54.9625C47.1058 55.0125 47.0378 55.0407 46.967 55.0408V55.0407ZM32.5286 51.0373C32.486 51.0373 32.4453 51.0542 32.4152 51.0843C32.3851 51.1143 32.3682 51.155 32.3681 51.1975V54.7738C32.3682 54.8163 32.3851 54.857 32.4152 54.8871C32.4453 54.9171 32.486 54.934 32.5286 54.934H46.967C47.0095 54.934 47.0503 54.9171 47.0804 54.8871C47.1104 54.857 47.1274 54.8163 47.1274 54.7738V51.1975C47.1274 51.155 47.1104 51.1143 47.0804 51.0843C47.0503 51.0542 47.0095 51.0373 46.967 51.0373H32.5286Z" fill="#E6E6E6"/>
<path d="M34.4003 54.1069C35.0205 54.1069 35.5233 53.6049 35.5233 52.9856C35.5233 52.3663 35.0205 51.8643 34.4003 51.8643C33.7801 51.8643 33.2773 52.3663 33.2773 52.9856C33.2773 53.6049 33.7801 54.1069 34.4003 54.1069Z" fill="#CCCCCC"/>
<path d="M36.9938 52.238C36.9442 52.238 36.8966 52.2577 36.8615 52.2928C36.8264 52.3278 36.8066 52.3754 36.8066 52.4249C36.8066 52.4745 36.8264 52.522 36.8615 52.5571C36.8966 52.5921 36.9442 52.6118 36.9938 52.6118H45.8172C45.8668 52.6137 45.9151 52.5959 45.9516 52.5622C45.988 52.5285 46.0095 52.4817 46.0114 52.4322C46.0133 52.3827 45.9954 52.3344 45.9617 52.298C45.928 52.2616 45.8811 52.2401 45.8315 52.2382C45.8288 52.2381 45.826 52.2381 45.8233 52.2381L36.9938 52.238Z" fill="#E6E6E6"/>
<path d="M36.9938 53.3594C36.9442 53.3594 36.8966 53.3791 36.8615 53.4141C36.8264 53.4492 36.8066 53.4967 36.8066 53.5463C36.8066 53.5958 36.8264 53.6434 36.8615 53.6784C36.8966 53.7135 36.9442 53.7332 36.9938 53.7332H45.8172C45.8418 53.7341 45.8663 53.7302 45.8893 53.7217C45.9124 53.7132 45.9335 53.7002 45.9516 53.6835C45.9696 53.6668 45.9842 53.6468 45.9944 53.6245C46.0047 53.6022 46.0105 53.5781 46.0114 53.5535C46.0124 53.529 46.0085 53.5045 45.9999 53.4815C45.9914 53.4585 45.9784 53.4374 45.9617 53.4194C45.945 53.4013 45.9249 53.3868 45.9026 53.3765C45.8802 53.3663 45.8561 53.3605 45.8315 53.3596C45.8288 53.3595 45.826 53.3594 45.8233 53.3594L36.9938 53.3594Z" fill="#E6E6E6"/>
<path d="M31.0958 45.3356H33.7577C33.9242 44.1089 33.5569 42.9637 33.7577 42.146H31.0958C30.5947 43.2093 30.5947 44.2725 31.0958 45.3356Z" fill="#FF6584"/>
<path d="M48.3775 51.4905H45.7156C45.8154 50.2641 46.1371 49.1189 45.7156 48.3009H48.3774C48.8786 49.3641 48.8787 50.4273 48.3775 51.4905Z" fill="#04CD91"/>
<path d="M43.4537 57.6703H40.7917C40.8916 56.4439 41.2132 55.2987 40.7917 54.4807H43.4536C43.9548 55.5439 43.9548 56.6071 43.4537 57.6703Z" fill="#04CD91"/>
<path d="M43.3172 34.7957C42.2229 35.4586 40.9596 35.7902 39.6803 35.7505C38.4011 35.7108 37.1608 35.3015 36.1099 34.5721C36.3303 34.1091 36.6775 33.7179 37.1114 33.444C37.5453 33.17 38.0481 33.0244 38.5615 33.024H40.7713C41.3262 33.024 41.8678 33.1938 42.3231 33.5107C42.7783 33.8275 43.1253 34.2761 43.3173 34.796L43.3172 34.7957Z" fill="#04CD91"/>
<path d="M36.7368 28.3989C37.0711 27.3353 37.8311 26.3598 38.8822 26C39.9333 25.6401 41.7671 25.9765 42.2629 26.9745C42.9772 28.413 42.6562 30.1745 42.2775 31.7363C42.0799 31.7258 41.8806 31.7176 41.6804 31.7102L41.3976 30.7689V31.7009C39.837 31.6527 38.2124 31.6829 36.5868 31.7141C36.4414 30.6086 36.4026 29.4625 36.7368 28.3989Z" fill="#2F2E41"/>
<path d="M39.0271 31.8227C40.3488 31.8227 41.4202 30.7528 41.4202 29.4331C41.4202 28.1133 40.3488 27.0435 39.0271 27.0435C37.7055 27.0435 36.634 28.1133 36.634 29.4331C36.634 30.7528 37.7055 31.8227 39.0271 31.8227Z" fill="#FEB8B8"/>
<path d="M37.4661 26.554C37.8993 26.2903 38.3954 26.1477 38.9027 26.141C39.41 26.1343 39.9097 26.2638 40.3497 26.516C40.7897 26.7682 41.1537 27.1338 41.4038 27.5746C41.6538 28.0154 41.7807 28.5151 41.7711 29.0216C40.5109 29.0795 39.1872 29.0946 37.845 29.0972L37.5275 28.3219L37.3405 29.0977C36.9315 29.0977 36.5218 29.0971 36.1112 29.096C36.0945 28.591 36.2108 28.0904 36.4486 27.6443C36.6864 27.1982 37.0372 26.8223 37.4661 26.554Z" fill="#2F2E41"/>
<path d="M61.3664 62.7438C61.3477 63.4441 61.2302 64.1384 61.0175 64.806C61.0126 64.8215 61.0075 64.8368 61.0024 64.8522H59.6998C59.7012 64.8382 59.7026 64.8229 59.704 64.806C59.7908 63.8091 60.2915 57.7414 59.6929 56.7037C59.7453 56.788 61.4672 59.576 61.3664 62.7438Z" fill="#F0F0F0"/>
<path d="M61.1573 64.7556C61.1345 64.788 61.1108 64.8204 61.0866 64.8523H59.0432C59.0587 64.8247 59.0767 64.7923 59.0974 64.7556C59.4351 64.1472 60.4342 62.3286 61.3617 60.4426C62.3585 58.4162 63.2729 56.313 63.1959 55.5518C63.2195 55.7235 63.909 60.9572 61.1573 64.7556Z" fill="#F0F0F0"/>
</g>
<defs>
<clipPath id="clip0_158_484">
<rect width="52" height="50" fill="white" transform="translate(14 15)"/>
</clipPath>
</defs>
</svg>
