<svg width="80" height="80" viewBox="0 0 80 80" fill="none" xmlns="http://www.w3.org/2000/svg">
<circle cx="40" cy="40" r="40" fill="white"/>
<g clip-path="url(#clip0_158_307)">
<path d="M69.324 55.3972C69.3945 53.2922 68.4313 51.2006 66.5576 50.4834C67.004 52.6347 66.625 55.0547 65.5089 57.1793C65.0742 58.0068 64.51 58.8937 64.6649 59.7378C64.7613 60.263 65.1345 60.6699 65.5825 60.928C66.0306 61.1861 66.5526 61.3143 67.0682 61.4401L67.1595 61.5298C68.3099 59.6087 69.2535 57.5021 69.324 55.3972Z" fill="#F2F2F2"/>
<path d="M66.5316 50.5228C67.471 51.8353 67.9502 53.5182 67.8462 55.2491C67.8311 55.6323 67.7582 56.011 67.6299 56.3724C67.4885 56.7349 67.2639 57.0591 66.9741 57.3188C66.7062 57.5685 66.4073 57.7967 66.1962 58.0992C66.092 58.2468 66.0186 58.414 65.9805 58.5906C65.9423 58.7673 65.9402 58.9498 65.9742 59.1273C66.0529 59.5479 66.2837 59.8936 66.5224 60.2221C66.7874 60.5868 67.069 60.9606 67.131 61.4392C67.1385 61.4972 67.2307 61.4693 67.2232 61.4114C67.1153 60.5788 66.3937 60.0946 66.1312 59.3418C66.0087 58.9905 65.9977 58.5849 66.2212 58.2201C66.4166 57.9011 66.7247 57.6655 66.9978 57.4148C67.2842 57.1643 67.5136 56.8553 67.6705 56.5087C67.8161 56.1527 67.9032 55.7756 67.9285 55.3918C67.9962 54.5639 67.9289 53.7305 67.7293 52.9242C67.5148 52.0366 67.1328 51.1981 66.6036 50.4539C66.5712 50.4085 66.4994 50.4778 66.5316 50.5228Z" fill="white"/>
<path d="M67.9098 54.6841C68.2117 54.6144 68.4843 54.4522 68.6898 54.2203C68.8953 53.9883 69.0233 53.6981 69.0562 53.39C69.0608 53.3301 68.968 53.3331 68.9633 53.3931C68.9332 53.68 68.8139 53.9503 68.6223 54.1659C68.4306 54.3815 68.1761 54.5316 67.8947 54.5951C67.8888 54.596 67.8831 54.598 67.878 54.6012C67.8729 54.6043 67.8685 54.6084 67.865 54.6133C67.8615 54.6181 67.859 54.6236 67.8576 54.6295C67.8563 54.6353 67.8561 54.6413 67.8571 54.6472C67.8581 54.6531 67.8602 54.6588 67.8634 54.6638C67.8666 54.6689 67.8708 54.6733 67.8757 54.6767C67.8806 54.6801 67.8862 54.6826 67.892 54.6838C67.8979 54.6851 67.9039 54.6852 67.9098 54.6841Z" fill="white"/>
<path d="M67.1242 57.2079C66.8917 57.0465 66.6961 56.8378 66.5501 56.5954C66.4041 56.353 66.3111 56.0824 66.2772 55.8015C66.2695 55.7436 66.1773 55.7714 66.185 55.8292C66.2209 56.1215 66.3183 56.4028 66.4707 56.6547C66.6232 56.9066 66.8274 57.1232 67.0697 57.2905C67.116 57.322 67.1703 57.2392 67.1242 57.2079Z" fill="white"/>
<path d="M67.4089 52.109C67.3045 52.1581 67.1892 52.1798 67.074 52.1718C66.9589 52.1639 66.8477 52.1267 66.7509 52.0637C66.7051 52.0315 66.6509 52.1143 66.6964 52.1463C66.8036 52.2154 66.9264 52.2563 67.0536 52.2654C67.1807 52.2744 67.3081 52.2513 67.424 52.1981C67.4361 52.1941 67.4465 52.1862 67.4535 52.1756C67.4605 52.165 67.4637 52.1523 67.4626 52.1397C67.4615 52.1339 67.4592 52.1284 67.4558 52.1236C67.4524 52.1188 67.448 52.1148 67.4429 52.1119C67.4378 52.1089 67.4321 52.1072 67.4262 52.1067C67.4204 52.1062 67.4145 52.107 67.4089 52.109Z" fill="white"/>
<path d="M59.9326 54.1328C59.9605 54.1538 59.9885 54.1748 60.0163 54.1966C60.3895 54.4806 60.7353 54.7989 61.0493 55.1473C61.074 55.1738 61.0987 55.2011 61.1225 55.2283C61.8745 56.0877 62.4377 57.0954 62.7757 58.1861C62.9142 58.6309 63.0163 59.0863 63.0809 59.5476C63.1714 60.191 63.2168 60.9031 63.5124 61.4331C63.5425 61.4887 63.5764 61.542 63.6139 61.5928L67.0262 61.6507C67.0346 61.6469 67.0429 61.6439 67.0513 61.6401L67.1865 61.6487C67.1849 61.6242 67.1826 61.5989 67.181 61.5744C67.1801 61.5602 67.1784 61.5459 67.1775 61.5317C67.1767 61.5222 67.1758 61.5127 67.1756 61.504C67.1753 61.5009 67.175 61.4977 67.1746 61.4953C67.1744 61.4866 67.1733 61.4787 67.173 61.4708C67.1608 61.3293 67.1478 61.1878 67.1333 61.0462C67.1334 61.0454 67.1334 61.0454 67.1328 61.0446C67.0213 59.9667 66.8165 58.9013 66.4504 57.9241C66.4394 57.8947 66.4285 57.8645 66.4159 57.8351C66.2498 57.3989 66.0441 56.979 65.8013 56.5804C65.6687 56.3648 65.5237 56.1569 65.3671 55.958C64.9617 55.4458 64.467 55.011 63.9069 54.6748C62.7853 54.0005 61.4076 53.726 60.0372 54.103C60.0021 54.1127 59.9678 54.1224 59.9326 54.1328Z" fill="#F2F2F2"/>
<path d="M59.9334 54.1767C61.562 54.5425 63.0096 55.4521 63.9712 56.7502C64.1893 57.0295 64.3561 57.3454 64.4637 57.683C64.5594 58.0346 64.5583 58.4056 64.4603 58.7566C64.3756 59.0975 64.2504 59.4419 64.2481 59.7859C64.2461 59.9543 64.284 60.1208 64.3586 60.2717C64.4333 60.4226 64.5426 60.5537 64.6777 60.6543C65.0032 60.9066 65.4174 61.013 65.8282 61.1024C66.2843 61.2017 66.7606 61.2972 67.1066 61.601C67.1485 61.6378 67.213 61.562 67.1712 61.5252C66.5691 60.9967 65.6369 61.0896 64.9469 60.7119C64.6249 60.5357 64.3683 60.253 64.3437 59.857C64.3222 59.5107 64.451 59.1555 64.5397 58.8107C64.6399 58.4677 64.6546 58.1055 64.5825 57.7556C64.4939 57.4119 64.3405 57.0882 64.1307 56.802C63.6749 56.1587 63.1065 55.6033 62.4529 55.1625C61.6962 54.6478 60.8485 54.2817 59.955 54.0838C59.8988 54.0712 59.8775 54.1642 59.9334 54.1767Z" fill="white"/>
<path d="M63.6834 56.3084C64.1417 55.8448 64.2369 55.1514 63.9086 54.6887C63.8762 54.6432 63.796 54.7017 63.8284 54.7474C64.136 55.1808 64.0443 55.8207 63.6159 56.254C63.5708 56.2996 63.6386 56.3538 63.6834 56.3084Z" fill="white"/>
<path d="M64.5254 58.5862C64.2389 58.6177 63.9489 58.5906 63.6731 58.5065C63.3974 58.4225 63.1415 58.2833 62.9212 58.0974C62.8791 58.0608 62.8147 58.1366 62.8567 58.1732C63.0864 58.3662 63.353 58.5105 63.6402 58.5973C63.9275 58.6841 64.2293 58.7117 64.5275 58.6783C64.5877 58.6727 64.5852 58.5806 64.5254 58.5862Z" fill="white"/>
<path d="M61.6738 54.7756C61.6055 54.8778 61.5156 54.9637 61.4103 55.0272C61.3051 55.0907 61.1871 55.1302 61.0649 55.143C61.0048 55.1478 61.0073 55.2399 61.067 55.235C61.202 55.2204 61.3323 55.1766 61.4487 55.1067C61.5651 55.0368 61.665 54.9423 61.7413 54.83C61.7495 54.821 61.7539 54.8093 61.7537 54.7971C61.7534 54.785 61.7484 54.7734 61.7398 54.7649C61.7295 54.7579 61.7169 54.7551 61.7046 54.7571C61.6924 54.7591 61.6813 54.7657 61.6738 54.7756Z" fill="white"/>
<path d="M58.9176 53.0068C58.9248 52.9987 58.8704 52.9919 58.7696 52.9861V49.6021H53.8845V49.8744H51.6855C51.4276 49.8747 51.1804 49.9773 50.9981 50.1596C50.8158 50.342 50.7132 50.5892 50.7129 50.847V52.2467C50.7131 52.5046 50.8156 52.7518 50.9979 52.9342C51.1803 53.1165 51.4276 53.2191 51.6855 53.2192L53.9393 53.2222L54.9289 53.2237H54.997L55.9873 53.2252L58.7533 53.2289H58.9917C59.0264 53.1896 58.8843 53.046 58.9176 53.0068Z" fill="#3F3D56"/>
<path d="M58.9702 53.0696C58.8086 53.3052 58.6777 53.2966 58.5632 53.1441C58.5029 53.0565 58.4544 52.9613 58.4188 52.8611C58.0707 51.9685 57.843 49.9206 57.1865 50.6367C57.0569 50.7781 56.9252 50.9184 56.7931 51.0571C56.5475 51.3154 56.291 51.5957 56.0369 51.8434C56.0368 51.8441 56.0427 51.8166 56.0418 51.8172C55.9164 51.9398 56.0109 50.8792 55.9613 50.5808C55.9507 50.5163 55.9335 50.4875 55.9061 50.5132C55.904 50.4842 55.9026 50.4554 55.9029 50.426C55.9026 50.3799 55.9049 50.3339 55.9098 50.288C55.914 50.2459 55.9197 50.2033 55.9277 50.1604L58.074 38.6832C58.1305 38.3826 58.2815 38.1078 58.5049 37.8988C58.7282 37.6898 59.0124 37.5574 59.3162 37.5209C59.46 37.5049 59.6054 37.5101 59.7478 37.5361L60.1385 37.6092C60.2927 37.638 60.4411 37.6922 60.5776 37.7696L60.5783 37.7698C60.8393 37.917 61.0477 38.142 61.1745 38.4135C61.3012 38.6849 61.34 38.9892 61.2854 39.2837L58.9702 53.0696Z" fill="#3F3D56"/>
<path d="M40.6419 59.6073L39.6343 59.1254L41.0185 54.9135L42.5057 55.6248L40.6419 59.6073Z" fill="#A0616A"/>
<path d="M47.3976 58.9283C47.3243 58.9742 47.2511 59.0194 47.177 59.0645C47.0297 59.1548 46.881 59.2436 46.7322 59.331C46.6574 59.3746 46.5819 59.4183 46.5072 59.4613V59.4635L46.5027 59.4642L46.5013 59.4649L46.3873 59.4931L46.2237 59.0608L46.1482 58.8617L46.0416 58.5797L45.8462 58.0638L44.8174 55.3474L46.4169 54.9529L46.4768 55.1979H46.4776L46.5072 55.3193L47.066 57.5857L47.18 58.049L47.1837 58.0631L47.2525 58.3399L47.3118 58.5797L47.3776 58.8476L47.3976 58.9283Z" fill="#A0616A"/>
<path d="M56.9391 49.3889C56.8377 49.5517 56.7341 49.7138 56.6297 49.8744C56.4358 50.1734 56.2367 50.468 56.0324 50.7582C56.0324 50.7589 56.0317 50.7589 56.0309 50.7596C55.9117 50.8701 55.7801 50.9662 55.6386 51.0461C55.6327 51.0505 55.626 51.0535 55.6201 51.0572C55.5159 51.1148 55.4051 51.1593 55.29 51.1897C55.2486 51.2 55.2064 51.2104 55.1649 51.2208C55.0154 51.2563 54.8674 51.2866 54.7201 51.3133C54.4581 51.3599 54.199 51.3932 53.9414 51.414C53.9207 51.4162 53.9 51.4177 53.8792 51.4191C52.8201 51.4969 51.789 51.3718 50.7128 51.1667C50.1814 51.0661 49.6388 50.9454 49.077 50.8203C48.8935 50.7789 48.7092 50.7382 48.5227 50.6975C48.5086 50.6945 48.4938 50.6908 48.479 50.6878C48.2125 50.6294 47.9416 50.5716 47.6641 50.5146C47.3147 50.4429 46.9542 50.3733 46.5797 50.3074L46.6064 50.8351C46.6285 51.2411 46.7129 51.6413 46.8565 52.0216C47.0164 52.4894 47.143 52.8595 46.8758 53.63L46.747 54.0031C46.8138 54.1883 46.8367 54.3865 46.8139 54.5821C46.7912 54.7777 46.7235 54.9653 46.616 55.1303L46.5901 55.1696L47.6641 57.8867L47.7336 58.0629H47.1837L46.5072 58.0636H45.3607L43.7064 54.7447L43.6272 54.5863V54.5782L43.7982 48.2001C43.8004 48.1439 43.8048 48.0869 43.8122 48.0306C43.8424 47.7749 43.9232 47.5278 44.0499 47.3036C44.1766 47.0794 44.3467 46.8827 44.5502 46.725C44.7452 46.5726 44.9686 46.4604 45.2074 46.3951C45.4461 46.3298 45.6955 46.3126 45.941 46.3445L46.5072 46.4178L47.6641 46.5673L48.479 46.6732L48.4953 46.6754L50.8986 46.9863L51.0711 46.2831L51.1029 46.2713L52.1147 45.9004L55.6142 44.6177L55.6231 44.6148L55.8533 44.5304L55.8807 44.5748C55.8888 44.5881 55.8969 44.6015 55.9043 44.6148C56.1319 45.0227 56.3171 45.4527 56.4572 45.8982C56.6929 46.626 56.8869 47.3666 57.0383 48.1165C57.0449 48.1491 57.0509 48.1787 57.056 48.2053L57.0583 48.2135C57.0605 48.226 57.062 48.2342 57.0627 48.2364C57.1434 48.5724 57.0871 48.9825 56.9391 49.3889Z" fill="#2F2E41"/>
<path d="M57.087 47.0384C57.0759 46.991 57.0618 46.9429 57.047 46.8963C56.9295 46.5431 56.7926 46.1967 56.637 45.8586C56.4623 45.4737 56.2528 45.0614 56.0034 44.6151C55.8827 44.399 55.753 44.1742 55.6141 43.9408C55.5445 43.8239 55.4722 43.7047 55.3972 43.5833C55.3943 43.5777 55.391 43.5723 55.3876 43.567L55.3661 43.5315L51.9036 43.9948L50.6142 44.1673L50.5373 44.8098L50.5187 44.9689C50.518 44.9689 50.518 44.9689 50.5187 44.9696L50.4669 45.4034V45.4041L50.3981 45.977L50.3922 45.9763L48.4788 45.7283L46.507 45.473L45.4479 45.336C45.2024 45.304 44.953 45.3212 44.7143 45.3865C44.4755 45.4518 44.2521 45.564 44.0571 45.7165C43.8536 45.8742 43.6835 46.0709 43.5569 46.2951C43.4302 46.5193 43.3494 46.7664 43.3191 47.0221C43.3125 47.0739 43.308 47.1272 43.3058 47.1798L42.3066 49.5476C41.7087 50.9636 41.3279 52.4618 41.1771 53.9915L40.4443 56.3342L40.5487 56.3438L42.1016 56.4881L42.5116 56.5266L43.4146 55.2084C43.5175 55.0581 43.6152 54.9034 43.7063 54.745C43.8561 54.4863 43.9894 54.2183 44.1052 53.9427L46.0585 49.2944C46.2095 49.3203 46.359 49.345 46.507 49.3684C47.1917 49.4795 47.849 49.57 48.4788 49.6401C50.5269 49.8688 52.3003 49.8866 53.8791 49.6926C54.3225 49.6386 54.751 49.5676 55.1648 49.4795C55.3165 49.4476 55.4663 49.4134 55.6141 49.3766C55.6488 49.3685 55.6829 49.3603 55.7169 49.3514C56.0228 49.2725 56.3041 49.1182 56.5349 48.9025C56.7657 48.6868 56.9387 48.4167 57.0381 48.1168C57.1568 47.7693 57.1738 47.3952 57.087 47.0384Z" fill="#2F2E41"/>
<path d="M40.9638 58.9195L39.8736 58.397L39.7026 58.3148L39.4295 58.9854L37.5228 59.4051C37.4285 59.4258 37.3433 59.476 37.2796 59.5486C37.216 59.6211 37.1772 59.7121 37.1689 59.8082C37.1606 59.9044 37.1833 60.0007 37.2337 60.083C37.284 60.1654 37.3594 60.2294 37.4488 60.2659L39.3118 61.0261L39.9032 60.4939L39.7581 61.2081L40.4598 61.4946L41.2288 59.0468L40.9638 58.9195Z" fill="#2F2E41"/>
<path d="M47.6641 57.8867L47.7336 58.0629H47.6641V57.8867Z" fill="#2F2E41"/>
<path d="M34.6373 45.0766C34.6373 44.6798 34.5041 44.3579 34.3405 44.3571H22.0175C21.8532 44.3579 21.7207 44.6798 21.7199 45.0766V61.4078C21.72 61.4447 21.7062 61.4802 21.6815 61.5075C21.6567 61.5347 21.6227 61.5518 21.5861 61.5554C21.4664 61.5669 21.3467 61.5776 21.227 61.5875C21.224 61.5875 21.2211 61.5882 21.2181 61.5882C21.153 61.5941 21.0878 61.5986 21.0227 61.6038H21.022C20.9885 61.5418 20.9553 61.4793 20.9226 61.4163C20.9115 61.3951 20.9058 61.3715 20.9058 61.3475V44.1432C20.9058 44.0337 20.9102 43.9234 20.9176 43.8146C20.9282 43.6652 20.9467 43.5164 20.9731 43.369C21.0982 42.6814 21.3809 42.2158 21.7022 42.2144H34.6551C34.702 42.2147 34.7483 42.2245 34.7913 42.2432C34.8544 42.2712 34.9115 42.3111 34.9593 42.3609C35.0242 42.4284 35.0797 42.5043 35.1244 42.5867C35.2828 42.8657 35.396 43.2817 35.436 43.7657C35.436 43.7702 35.4367 43.7746 35.4367 43.7791C35.4471 43.899 35.4523 44.0211 35.4515 44.1432L35.4619 45.7294L35.4685 46.6753L35.4885 49.6434L35.4959 50.6974L35.5285 61.5186C35.5285 61.5579 35.5129 61.5956 35.4851 61.6233C35.4574 61.6511 35.4197 61.6667 35.3805 61.6667H34.7854C34.7461 61.6667 34.7085 61.6511 34.6807 61.6233C34.6529 61.5956 34.6373 61.5579 34.6373 61.5186L34.6373 45.0766Z" fill="#3F3D56"/>
<path d="M25.8531 37.8141L24.9959 41.5856L24.4482 42.1856H24.053L25.6816 35.3282L25.7622 36.4932V36.494L25.8531 37.8141Z" fill="#3F3D56"/>
<path d="M29.9782 41.6685L24.9496 41.6367L24.5032 41.6337L24.185 41.6315L23.8141 41.6293H23.8112C23.7574 41.6294 23.7058 41.6506 23.6676 41.6885L23.0414 42.3147C23.0275 42.3283 23.0163 42.3444 23.0081 42.362C23.0042 42.367 23.001 42.3725 22.9985 42.3783C22.9849 42.4098 22.9793 42.4441 22.9822 42.4783C22.985 42.5125 22.9962 42.5454 23.0148 42.5742C23.0334 42.603 23.0587 42.6268 23.0887 42.6435C23.1186 42.6602 23.1522 42.6693 23.1865 42.6699H29.7007C29.7398 42.6698 29.778 42.6586 29.811 42.6377C29.844 42.6167 29.8704 42.5868 29.8872 42.5515L29.9383 42.4405L30.0434 42.2147L30.1625 41.9601C30.1753 41.933 30.1818 41.9035 30.1818 41.8735C30.1815 41.8195 30.16 41.7677 30.1219 41.7294C30.0839 41.691 30.0323 41.6692 29.9782 41.6685Z" fill="#3F3D56"/>
<path opacity="0.17" d="M29.9382 42.4403L29.8868 42.5517C29.8701 42.587 29.8437 42.6168 29.8108 42.6377C29.7779 42.6586 29.7398 42.6698 29.7008 42.67H23.1863C23.152 42.6694 23.1185 42.6604 23.0885 42.6437C23.0586 42.627 23.0332 42.6032 23.0147 42.5744C22.9961 42.5456 22.985 42.5127 22.9821 42.4785C22.9793 42.4444 22.985 42.41 22.9986 42.3786C23.0009 42.3727 23.0041 42.3672 23.008 42.3623L29.9382 42.4403Z" fill="black"/>
<path opacity="0.17" d="M25.7622 36.4932V36.494L24.3675 42.1856H24.053L25.6816 35.3282L25.7622 36.4932Z" fill="black"/>
<path d="M27.4735 37.5361L25.4994 22.5173C25.4922 22.4611 25.4629 22.4099 25.418 22.3752L24.0591 20.6743L23.9369 20.5803C23.8917 20.5461 23.8348 20.5309 23.7785 20.5381L23.5743 20.5655C23.5179 20.5728 23.4668 20.6021 23.4321 20.6471C23.3974 20.6921 23.3819 20.749 23.3892 20.8053L25.435 36.3666V36.3673L25.5601 37.3192L25.7089 38.4494V38.4509L25.9398 40.2095C25.9435 40.2397 25.9537 40.2687 25.9697 40.2945C25.9856 40.3203 26.007 40.3423 26.0323 40.3591C26.0572 40.3762 26.0855 40.3878 26.1152 40.3932C26.145 40.3986 26.1755 40.3975 26.2048 40.3901L26.3343 40.3576C26.3839 40.3448 26.4275 40.3149 26.4572 40.2732L26.5149 40.191L26.5416 40.1526L27.4357 37.6878C27.4671 37.6438 27.4806 37.5896 27.4735 37.5361Z" fill="#3F3D56"/>
<path opacity="0.17" d="M24.059 20.6744L26.542 40.1529L26.5151 40.191L26.4575 40.2729C26.4278 40.3147 26.3843 40.3447 26.3346 40.3574L26.2049 40.39C26.1756 40.3973 26.145 40.3983 26.1152 40.3929C26.0854 40.3876 26.0571 40.376 26.0321 40.359C26.0071 40.342 25.986 40.3198 25.9701 40.2941C25.9542 40.2683 25.944 40.2395 25.94 40.2095L23.3898 20.8056C23.3824 20.7492 23.3977 20.6923 23.4323 20.6472C23.4669 20.6021 23.518 20.5726 23.5743 20.5652L23.7791 20.5383C23.8069 20.5345 23.8352 20.5363 23.8622 20.5436C23.8893 20.5509 23.9147 20.5635 23.9368 20.5807L24.059 20.6744Z" fill="black"/>
<path d="M24.1321 21.2314L25.4498 23.1123L27.016 35.029L26.1669 36.7136L24.1321 21.2314Z" fill="#04CD91"/>
<path d="M52.4513 61.5428L51.5476 61.5597L54.0593 52.8347L54.963 53.1138L52.4513 61.5428Z" fill="#3F3D56"/>
<path d="M58.378 61.5594L57.475 61.5423L54.9969 53.2236L54.9629 53.1141L55.5424 52.9349C55.6572 52.9372 55.7763 52.9386 55.8992 52.9401L55.9873 53.2251L58.378 61.5594Z" fill="#3F3D56"/>
<path d="M47.2845 58.1005L46.1421 58.4963L45.9628 58.5582L46.2406 59.2269L45.181 60.8667C45.1286 60.9477 45.1034 61.0434 45.1092 61.1397C45.115 61.2361 45.1515 61.328 45.2132 61.4022C45.275 61.4763 45.3589 61.5288 45.4526 61.5518C45.5463 61.5749 45.645 61.5674 45.7341 61.5305L47.5928 60.7597L47.6386 59.9655L48.0381 60.5751L48.7382 60.2849L47.5624 58.0045L47.2845 58.1005Z" fill="#2F2E41"/>
<path d="M40.3507 33.6105C40.4049 33.716 40.4816 33.8084 40.5753 33.8811C40.669 33.9538 40.7775 34.005 40.8932 34.0313C41.0089 34.0575 41.1289 34.058 41.2448 34.0328C41.3608 34.0077 41.4697 33.9574 41.5641 33.8855L43.9663 35.4802L43.9709 33.9819L41.689 32.6972C41.5578 32.5467 41.3759 32.4495 41.1778 32.4241C40.9797 32.3987 40.7792 32.4469 40.6143 32.5594C40.4493 32.672 40.3314 32.8412 40.2828 33.0349C40.2342 33.2286 40.2584 33.4334 40.3507 33.6105Z" fill="#A0616A"/>
<path d="M42.1453 34.303L43.2661 33.028L47.8296 35.7372L53.8791 35.1832C54.1781 35.1558 54.4795 35.1946 54.7619 35.2968C55.0442 35.399 55.3006 35.5621 55.5128 35.7745C55.725 35.9869 55.8879 36.2435 55.9898 36.5259C56.0917 36.8084 56.1302 37.1098 56.1026 37.4088C56.052 37.9488 55.7893 38.4467 55.3721 38.7932C54.9548 39.1397 54.4172 39.3066 53.8771 39.2572L47.0639 38.6265L42.1453 34.303Z" fill="#E6E6E6"/>
<path d="M56.186 34.3227L56.1755 34.3095L53.3162 34.0273L51.3844 37.4303C49.7237 39.4605 50.9305 40.8606 51.0027 41.0688L50.4263 43.7265L50.5555 44.616L50.62 44.8802L57.1998 48.3183L55.8474 43.813L57.1679 39.7044C57.4606 38.7959 57.5242 37.8292 57.3529 36.8902C57.1816 35.9512 56.7807 35.0692 56.186 34.3227Z" fill="#E6E6E6"/>
<path d="M59.3189 31.328C59.3203 31.3643 59.3211 31.4006 59.3211 31.4361C59.3205 31.8281 59.2271 32.2144 59.0486 32.5634C58.8701 32.9125 58.6115 33.2143 58.2941 33.4443C57.9766 33.6742 57.6092 33.8258 57.222 33.8867C56.8347 33.9475 56.4385 33.9158 56.0658 33.7943L55.6091 33.6455C55.6054 33.644 55.601 33.6433 55.5973 33.6418L54.8446 33.3961C54.8421 33.3643 54.8426 33.3323 54.846 33.3006C53.7232 32.821 55.2753 31.2451 55.661 30.0616C55.7209 29.8773 53.6596 30.015 53.7573 29.8573C53.7358 29.8462 53.7143 29.8351 53.6943 29.824C54.0425 29.2745 54.5573 28.8507 55.1634 28.6145C55.7696 28.3782 56.4354 28.342 57.0636 28.511C57.0799 28.5147 57.0969 28.5198 57.1132 28.5243C58.5757 28.5606 59.344 29.5798 59.344 30.9032C59.344 31.0452 59.3356 31.187 59.3189 31.328Z" fill="#2F2E41"/>
<path d="M58.0516 31.8491C57.8553 32.4501 57.4284 32.9485 56.8648 33.2349C56.3011 33.5212 55.6468 33.572 55.0457 33.376C54.9776 33.3538 54.911 33.3287 54.8459 33.3005C54.2989 33.0661 53.8593 32.6354 53.6138 32.0933C53.3682 31.5512 53.3343 30.9368 53.5188 30.371C53.5773 30.1908 53.6573 30.0183 53.7571 29.8573C54.0635 29.361 54.5413 28.9943 55.0999 28.8266C55.6585 28.6589 56.2592 28.7018 56.7883 28.9472C57.3174 29.1926 57.7382 29.6235 57.971 30.1583C58.2038 30.693 58.2324 31.2946 58.0516 31.8491Z" fill="#A0616A"/>
<path d="M55.609 33.6455C55.6053 33.644 55.6009 33.6432 55.5972 33.6418L54.8444 33.396C54.842 33.3642 54.8424 33.3323 54.8459 33.3005C54.8683 33.0527 55.0423 32.7932 55.2758 32.513C55.4262 32.3338 55.5307 32.1207 55.5804 31.8921C55.6301 31.6635 55.6234 31.4263 55.561 31.2008C55.4986 30.9754 55.3823 30.7685 55.2221 30.598C55.0619 30.4275 54.8627 30.2986 54.6416 30.2222C54.6352 30.22 54.6288 30.2178 54.6224 30.2155C54.3259 30.1165 54.0368 29.9968 53.7571 29.8573C53.7357 29.8462 53.7142 29.8351 53.6942 29.824C53.5062 29.7204 53.37 29.6167 53.3101 29.5175C53.3997 29.2426 53.5426 28.988 53.7306 28.7683C53.9187 28.5486 54.1482 28.368 54.406 28.237C54.6638 28.106 54.9449 28.0271 55.2333 28.0048C55.5216 27.9824 55.8115 28.0171 56.0864 28.1068L56.5231 28.2489C57.0739 28.4279 57.5315 28.8174 57.7962 29.3325C58.1041 29.5531 58.3469 29.8773 58.5371 30.2599C59.4934 32.1799 57.6474 34.2998 55.609 33.6455Z" fill="#2F2E41"/>
<path d="M57.0501 45.2572C57.0501 45.3874 57.0106 45.5145 56.9369 45.6218C56.8632 45.7291 56.7586 45.8115 56.6371 45.8582C56.5795 45.8803 56.5188 45.8938 56.4573 45.8982C56.441 45.8997 56.4239 45.9004 56.4077 45.9004H55.1649V51.9298C55.1464 51.9542 55.1272 51.9787 55.1079 52.0031C55.0013 52.1393 54.8933 52.2755 54.7837 52.4094C54.76 52.439 54.7364 52.4679 54.7134 52.4968C54.6771 52.5405 54.6416 52.5841 54.6061 52.6271C54.5935 52.6419 54.5817 52.6559 54.5698 52.6707C54.5091 52.7433 54.4484 52.8158 54.3863 52.8883V52.8891C54.3855 52.8898 54.3855 52.8898 54.3855 52.8906L54.3544 52.9261C54.3048 52.9846 54.2553 53.0438 54.2042 53.1022C54.1348 53.0637 54.0735 53.0122 54.0236 52.9505C53.9926 52.9134 53.9663 52.8726 53.9451 52.8291C53.9444 52.8284 53.9444 52.8276 53.9436 52.8262C53.9428 52.8245 53.942 52.8228 53.9414 52.821C53.8999 52.7344 53.8786 52.6395 53.8793 52.5434V45.9004H51.0933C51.011 45.9009 50.9295 45.8851 50.8535 45.8538C50.7575 45.8155 50.6723 45.7546 50.605 45.6762C50.5377 45.5979 50.4904 45.5044 50.4671 45.4038V45.403C50.4324 45.2569 50.4508 45.1031 50.5189 44.9693C50.5182 44.9685 50.5182 44.9685 50.5189 44.9685C50.5476 44.9101 50.5859 44.8568 50.6321 44.8109V44.8102C50.6321 44.8094 50.6321 44.8094 50.6329 44.8087C50.6929 44.7473 50.7645 44.6986 50.8435 44.6653C50.9226 44.632 51.0075 44.6148 51.0933 44.6147H56.4077C56.578 44.6148 56.7414 44.6826 56.8618 44.803C56.9823 44.9235 57.05 45.0868 57.0501 45.2572Z" fill="#3F3D56"/>
<path d="M60.5889 32.8129C60.3289 32.7643 60.0618 32.7673 59.803 32.8219C59.5442 32.8765 59.2986 32.9815 59.0804 33.131C58.8621 33.2805 58.6755 33.4715 58.531 33.6931C58.3866 33.9147 58.2872 34.1626 58.2386 34.4226C58.1528 34.882 58.2293 35.3568 58.4551 35.766C58.6808 36.1751 59.0417 36.493 59.4761 36.6653L58.8705 39.9037L60.1343 40.1401L61.4736 32.9783L60.5889 32.8129Z" fill="#3F3D56"/>
<path d="M58.7696 30.4317C59.3419 30.4317 59.8059 29.9678 59.8059 29.3955C59.8059 28.8232 59.3419 28.3593 58.7696 28.3593C58.1973 28.3593 57.7334 28.8232 57.7334 29.3955C57.7334 29.9678 58.1973 30.4317 58.7696 30.4317Z" fill="#2F2E41"/>
<path d="M70.8493 32.3708C70.3997 32.5208 69.919 32.5463 69.4451 32.5545C68.0661 32.5783 66.6522 32.4575 65.3972 31.8857C64.1422 31.3139 63.0617 30.2273 62.7827 28.8766C62.6625 28.2945 62.6766 27.6461 62.3098 27.1784C61.8744 26.6233 60.9995 26.5476 60.39 26.9029C59.7806 27.2582 59.4247 27.9497 59.3212 28.6475L59.0757 29.0466C59.0814 29.3036 59.3595 29.4745 59.6154 29.4986C59.8713 29.5227 60.1286 29.4522 60.3849 29.4713C60.9467 29.513 61.4046 29.9935 61.5684 30.5325C61.7321 31.0715 61.6533 31.6544 61.5131 32.2C61.373 32.7456 61.1728 33.2778 61.0929 33.8354C61.0129 34.393 61.0672 34.9981 61.3952 35.456C61.6414 35.7997 62.0167 36.0275 62.3981 36.2098C63.3217 36.651 64.3333 36.877 65.3569 36.8707C66.3804 36.8644 67.3891 36.6259 68.3072 36.1734C69.2253 35.7208 70.0287 35.0658 70.657 34.2578C71.2853 33.4498 71.7221 32.5098 71.9346 31.5086C71.7198 31.9311 71.2989 32.2208 70.8493 32.3708Z" fill="#2F2E41"/>
<path d="M50.9544 54.2829H48.8438C48.7277 54.2829 48.6156 54.2409 48.5279 54.1648C48.4403 54.0886 48.3831 53.9834 48.3668 53.8685C48.2365 52.9095 48.2365 51.9373 48.3668 50.9783C48.3829 50.8648 48.439 50.7607 48.5249 50.6847C48.6108 50.6088 48.721 50.5659 48.8357 50.5639C49.4998 50.2663 50.2149 50.2663 50.9616 50.5639C51.0312 50.5648 51.0997 50.581 51.1623 50.6112C51.225 50.6414 51.2803 50.6849 51.3243 50.7388C51.3702 50.7948 51.403 50.8603 51.4204 50.9306C51.4378 51.0009 51.4394 51.0742 51.4249 51.1452C51.2554 51.9889 51.2554 52.8579 51.4249 53.7016C51.4394 53.7726 51.4378 53.8459 51.4204 53.9162C51.403 53.9865 51.3702 54.052 51.3243 54.108C51.2795 54.1628 51.223 54.207 51.159 54.2372C51.0951 54.2675 51.0251 54.2831 50.9544 54.2829Z" fill="#04CD91"/>
<path d="M50.7334 51.6658H48.957C48.9275 51.6658 48.8993 51.6541 48.8785 51.6333C48.8576 51.6124 48.8459 51.5842 48.8459 51.5548C48.8459 51.5253 48.8576 51.4971 48.8785 51.4762C48.8993 51.4554 48.9275 51.4437 48.957 51.4437H50.7334C50.7628 51.4437 50.7911 51.4554 50.8119 51.4762C50.8327 51.4971 50.8444 51.5253 50.8444 51.5548C50.8444 51.5842 50.8327 51.6124 50.8119 51.6333C50.7911 51.6541 50.7628 51.6658 50.7334 51.6658Z" fill="white"/>
<path d="M50.7334 52.554H48.957C48.9275 52.554 48.8993 52.5423 48.8785 52.5214C48.8576 52.5006 48.8459 52.4724 48.8459 52.4429C48.8459 52.4135 48.8576 52.3853 48.8785 52.3644C48.8993 52.3436 48.9275 52.3319 48.957 52.3319H50.7334C50.7628 52.3319 50.7911 52.3436 50.8119 52.3644C50.8327 52.3853 50.8444 52.4135 50.8444 52.4429C50.8444 52.4724 50.8327 52.5006 50.8119 52.5214C50.7911 52.5423 50.7628 52.554 50.7334 52.554Z" fill="white"/>
<path d="M50.7334 53.4423H48.957C48.9275 53.4423 48.8993 53.4306 48.8785 53.4097C48.8576 53.3889 48.8459 53.3607 48.8459 53.3312C48.8459 53.3018 48.8576 53.2736 48.8785 53.2527C48.8993 53.2319 48.9275 53.2202 48.957 53.2202H50.7334C50.7628 53.2202 50.7911 53.2319 50.8119 53.2527C50.8327 53.2736 50.8444 53.3018 50.8444 53.3312C50.8444 53.3607 50.8327 53.3889 50.8119 53.4097C50.7911 53.4306 50.7628 53.4423 50.7334 53.4423Z" fill="white"/>
<path d="M25.7341 30.7574V30.7571C25.7364 30.7391 25.7456 30.7227 25.7597 30.7114C25.7739 30.7001 25.792 30.6947 25.81 30.6965L37.2294 30.7269C37.2474 30.7252 37.2654 30.7307 37.2794 30.742C37.2935 30.7534 37.3026 30.7698 37.3048 30.7878V30.788C37.3025 30.806 37.2933 30.8224 37.2791 30.8337C37.265 30.8451 37.2469 30.8504 37.2289 30.8486L25.8095 30.8182C25.7915 30.8199 25.7735 30.8145 25.7594 30.8031C25.7454 30.7917 25.7363 30.7753 25.7341 30.7574Z" fill="#3F3D56"/>
<path d="M28.7538 37.7904L28.269 38.3237C28.2465 38.3426 28.219 38.3547 28.1899 38.3585C28.1608 38.3622 28.1312 38.3576 28.1046 38.345C28.0242 38.3166 27.9526 38.2675 27.8971 38.2028C27.5506 37.8095 27.1615 37.4558 26.7371 37.1482C26.6674 37.099 26.6118 37.0324 26.5758 36.9551C26.5612 36.9302 26.5538 36.9017 26.5545 36.8729C26.5551 36.844 26.5638 36.8159 26.5795 36.7917C26.5843 36.4999 26.7487 36.3192 27.0681 36.2543C27.1241 36.196 27.2506 36.2182 27.364 36.3066C27.8304 36.6705 28.2688 37.0691 28.6753 37.4989C28.7752 37.6045 28.8089 37.7298 28.7538 37.7904Z" fill="#04CD91"/>
<path d="M27.5076 36.6425L27.0995 37.0914C27.0854 37.1069 27.0515 37.0989 27.0236 37.0736C26.9958 37.0483 26.9847 37.0153 26.9988 36.9998L27.4069 36.5509C27.421 36.5354 27.4549 36.5433 27.4828 36.5686C27.5106 36.5939 27.5217 36.627 27.5076 36.6425Z" fill="white"/>
<path d="M27.9107 37.0089L27.5026 37.4578C27.4885 37.4733 27.4546 37.4654 27.4267 37.4401C27.3989 37.4148 27.3878 37.3817 27.4019 37.3662L27.81 36.9173C27.8241 36.9018 27.858 36.9098 27.8858 36.9351C27.9137 36.9604 27.9248 36.9935 27.9107 37.0089Z" fill="white"/>
<path d="M28.3138 37.3753L27.9057 37.8242C27.8916 37.8396 27.8576 37.8317 27.8298 37.8064C27.802 37.7811 27.7908 37.748 27.8049 37.7325L28.213 37.2837C28.2271 37.2682 28.2611 37.2761 28.2889 37.3014C28.3168 37.3267 28.3279 37.3598 28.3138 37.3753Z" fill="white"/>
<path d="M72 61.6021C72 61.6137 71.9978 61.6252 71.9934 61.6359C71.989 61.6466 71.9825 61.6563 71.9743 61.6645C71.9661 61.6727 71.9564 61.6792 71.9457 61.6836C71.935 61.688 71.9235 61.6902 71.9119 61.6902H8.08808C8.06472 61.6902 8.04232 61.6809 8.0258 61.6644C8.00928 61.6479 8 61.6255 8 61.6021C8 61.5788 8.00928 61.5564 8.0258 61.5398C8.04232 61.5233 8.06472 61.514 8.08808 61.514H71.9119C71.9235 61.514 71.935 61.5163 71.9457 61.5207C71.9564 61.5251 71.9661 61.5316 71.9743 61.5398C71.9825 61.5479 71.989 61.5577 71.9934 61.5684C71.9978 61.5791 72 61.5905 72 61.6021Z" fill="#CCCCCC"/>
<path d="M51.5726 51.585C51.6748 51.5247 51.7624 51.4427 51.8294 51.3448C51.8965 51.247 51.9412 51.1356 51.9605 51.0185C51.9798 50.9015 51.9732 50.7817 51.9412 50.6674C51.9092 50.5532 51.8525 50.4474 51.7752 50.3575L53.2246 47.8649L51.7286 47.9492L50.5816 50.3033C50.4391 50.4432 50.3529 50.6305 50.3393 50.8298C50.3257 51.029 50.3856 51.2263 50.5078 51.3843C50.63 51.5423 50.8058 51.65 51.0021 51.687C51.1983 51.724 51.4014 51.6877 51.5726 51.585Z" fill="#A0616A"/>
<path d="M52.1577 49.7525L50.8184 48.7093L53.2521 43.9931L52.3401 37.9871C52.2951 37.6902 52.3159 37.3871 52.4012 37.0992C52.4864 36.8112 52.6341 36.5456 52.8335 36.3212C53.033 36.0967 53.2794 35.9189 53.5553 35.8004C53.8312 35.6819 54.1298 35.6256 54.4299 35.6355C54.972 35.654 55.4846 35.8867 55.8552 36.2826C56.2259 36.6785 56.4244 37.2053 56.4071 37.7474L56.1818 44.586L52.1577 49.7525Z" fill="#E6E6E6"/>
<path d="M40.5426 34.8917H36.0201C35.8989 34.8915 35.7827 34.8433 35.697 34.7576C35.6113 34.6719 35.5631 34.5557 35.563 34.4345V28.4463C35.5631 28.3251 35.6113 28.2089 35.697 28.1232C35.7827 28.0375 35.8989 27.9893 36.0201 27.9891H40.5426C40.6638 27.9893 40.78 28.0375 40.8657 28.1232C40.9514 28.2089 40.9996 28.3251 40.9997 28.4463V34.4345C40.9996 34.5557 40.9514 34.6719 40.8657 34.7576C40.78 34.8433 40.6638 34.8915 40.5426 34.8917Z" fill="#E6E6E6"/>
<path d="M40.2247 34.5106H36.338C36.2304 34.5105 36.1272 34.4677 36.0512 34.3916C35.9751 34.3155 35.9323 34.2124 35.9321 34.1047V28.776C35.9323 28.6684 35.9751 28.5652 36.0512 28.4891C36.1272 28.413 36.2304 28.3702 36.338 28.3701H40.2247C40.3323 28.3702 40.4355 28.413 40.5116 28.4891C40.5877 28.5652 40.6305 28.6684 40.6306 28.776V34.1047C40.6305 34.2124 40.5877 34.3155 40.5116 34.3916C40.4355 34.4677 40.3323 34.5105 40.2247 34.5106Z" fill="white"/>
<path d="M39.837 29.3829H36.7258C36.7124 29.3829 36.6992 29.3803 36.6869 29.3752C36.6745 29.3701 36.6633 29.3627 36.6538 29.3532C36.6444 29.3438 36.6369 29.3326 36.6318 29.3203C36.6267 29.308 36.624 29.2947 36.624 29.2814C36.624 29.2681 36.6267 29.2548 36.6318 29.2425C36.6369 29.2302 36.6444 29.219 36.6538 29.2096C36.6633 29.2001 36.6745 29.1927 36.6869 29.1876C36.6992 29.1825 36.7124 29.1799 36.7258 29.1799H39.837C39.8503 29.1799 39.8636 29.1825 39.8759 29.1876C39.8883 29.1927 39.8995 29.2001 39.9089 29.2096C39.9184 29.219 39.9259 29.2302 39.931 29.2425C39.9361 29.2548 39.9387 29.2681 39.9387 29.2814C39.9387 29.2947 39.9361 29.308 39.931 29.3203C39.9259 29.3326 39.9184 29.3438 39.9089 29.3532C39.8995 29.3627 39.8883 29.3701 39.8759 29.3752C39.8636 29.3803 39.8503 29.3829 39.837 29.3829Z" fill="#04CD91"/>
<path d="M39.837 29.7838H36.7257C36.6988 29.7838 36.673 29.7731 36.654 29.754C36.635 29.735 36.6243 29.7092 36.6243 29.6823C36.6243 29.6554 36.635 29.6296 36.654 29.6105C36.673 29.5915 36.6988 29.5808 36.7257 29.5808H39.837C39.8503 29.5808 39.8635 29.5834 39.8758 29.5885C39.8881 29.5936 39.8993 29.6011 39.9087 29.6105C39.9181 29.62 39.9256 29.6311 39.9307 29.6435C39.9358 29.6558 39.9384 29.669 39.9384 29.6823C39.9384 29.6956 39.9358 29.7088 39.9307 29.7211C39.9256 29.7334 39.9181 29.7446 39.9087 29.754C39.8993 29.7635 39.8881 29.7709 39.8758 29.776C39.8635 29.7811 39.8503 29.7838 39.837 29.7838Z" fill="#04CD91"/>
<path d="M38.0744 30.1848H36.7257C36.6988 30.1848 36.673 30.1741 36.654 30.155C36.635 30.136 36.6243 30.1102 36.6243 30.0833C36.6243 30.0564 36.635 30.0306 36.654 30.0115C36.673 29.9925 36.6988 29.9818 36.7257 29.9818H38.0744C38.1013 29.9818 38.1271 29.9925 38.1461 30.0115C38.1652 30.0306 38.1759 30.0564 38.1759 30.0833C38.1759 30.1102 38.1652 30.136 38.1461 30.155C38.1271 30.1741 38.1013 30.1848 38.0744 30.1848Z" fill="#04CD91"/>
<path d="M39.837 31.0245H36.7258C36.7124 31.0245 36.6992 31.0219 36.6869 31.0168C36.6745 31.0117 36.6633 31.0043 36.6538 30.9948C36.6444 30.9854 36.6369 30.9742 36.6318 30.9619C36.6267 30.9496 36.624 30.9363 36.624 30.923C36.624 30.9097 36.6267 30.8964 36.6318 30.8841C36.6369 30.8718 36.6444 30.8606 36.6538 30.8512C36.6633 30.8417 36.6745 30.8343 36.6869 30.8292C36.6992 30.8241 36.7124 30.8215 36.7258 30.8215H39.837C39.8503 30.8215 39.8636 30.8241 39.8759 30.8292C39.8883 30.8343 39.8995 30.8417 39.9089 30.8512C39.9184 30.8606 39.9259 30.8718 39.931 30.8841C39.9361 30.8964 39.9387 30.9097 39.9387 30.923C39.9387 30.9363 39.9361 30.9496 39.931 30.9619C39.9259 30.9742 39.9184 30.9854 39.9089 30.9948C39.8995 31.0043 39.8883 31.0117 39.8759 31.0168C39.8636 31.0219 39.8503 31.0245 39.837 31.0245Z" fill="#E4E4E4"/>
<path d="M39.837 31.4254H36.7258C36.7124 31.4254 36.6992 31.4228 36.6869 31.4177C36.6745 31.4126 36.6633 31.4052 36.6538 31.3957C36.6444 31.3863 36.6369 31.3751 36.6318 31.3628C36.6267 31.3505 36.624 31.3372 36.624 31.3239C36.624 31.3105 36.6267 31.2973 36.6318 31.285C36.6369 31.2727 36.6444 31.2615 36.6538 31.252C36.6633 31.2426 36.6745 31.2351 36.6869 31.2301C36.6992 31.225 36.7124 31.2224 36.7258 31.2224H39.837C39.8503 31.2224 39.8636 31.225 39.8759 31.2301C39.8883 31.2351 39.8995 31.2426 39.9089 31.252C39.9184 31.2615 39.9259 31.2727 39.931 31.285C39.9361 31.2973 39.9387 31.3105 39.9387 31.3239C39.9387 31.3372 39.9361 31.3505 39.931 31.3628C39.9259 31.3751 39.9184 31.3863 39.9089 31.3957C39.8995 31.4052 39.8883 31.4126 39.8759 31.4177C39.8636 31.4228 39.8503 31.4254 39.837 31.4254Z" fill="#E4E4E4"/>
<path d="M38.0744 31.8264H36.7257C36.6988 31.8264 36.673 31.8157 36.654 31.7966C36.635 31.7776 36.6243 31.7518 36.6243 31.7249C36.6243 31.698 36.635 31.6722 36.654 31.6531C36.673 31.6341 36.6988 31.6234 36.7257 31.6234H38.0744C38.1013 31.6234 38.1271 31.6341 38.1461 31.6531C38.1652 31.6722 38.1759 31.698 38.1759 31.7249C38.1759 31.7518 38.1652 31.7776 38.1461 31.7966C38.1271 31.8157 38.1013 31.8264 38.0744 31.8264Z" fill="#E4E4E4"/>
<path d="M39.837 32.6661H36.7257C36.6988 32.6661 36.673 32.6554 36.654 32.6364C36.635 32.6173 36.6243 32.5915 36.6243 32.5646C36.6243 32.5377 36.635 32.5119 36.654 32.4929C36.673 32.4738 36.6988 32.4631 36.7257 32.4631H39.837C39.8639 32.4631 39.8897 32.4738 39.9087 32.4929C39.9277 32.5119 39.9384 32.5377 39.9384 32.5646C39.9384 32.5915 39.9277 32.6173 39.9087 32.6364C39.8897 32.6554 39.8639 32.6661 39.837 32.6661Z" fill="#E4E4E4"/>
<path d="M39.837 33.0671H36.7257C36.6988 33.0671 36.673 33.0564 36.654 33.0374C36.635 33.0183 36.6243 32.9925 36.6243 32.9656C36.6243 32.9387 36.635 32.9129 36.654 32.8939C36.673 32.8748 36.6988 32.8641 36.7257 32.8641H39.837C39.8639 32.8641 39.8897 32.8748 39.9087 32.8939C39.9277 32.9129 39.9384 32.9387 39.9384 32.9656C39.9384 32.9925 39.9277 33.0183 39.9087 33.0374C39.8897 33.0564 39.8639 33.0671 39.837 33.0671Z" fill="#E4E4E4"/>
<path d="M38.0744 33.468H36.7257C36.6988 33.468 36.673 33.4573 36.654 33.4382C36.635 33.4192 36.6243 33.3934 36.6243 33.3665C36.6243 33.3396 36.635 33.3138 36.654 33.2947C36.673 33.2757 36.6988 33.265 36.7257 33.265H38.0744C38.1013 33.265 38.1271 33.2757 38.1461 33.2947C38.1652 33.3138 38.1759 33.3396 38.1759 33.3665C38.1759 33.3934 38.1652 33.4192 38.1461 33.4382C38.1271 33.4573 38.1013 33.468 38.0744 33.468Z" fill="#E4E4E4"/>
<path d="M25.1531 26.9129L37.2855 16.5355H37.3048V16.6878H37.3418L25.2522 27.0286L25.1531 26.9129Z" fill="#2F2E41"/>
<path d="M33.5295 38.8304H27.951C27.8639 38.8305 27.7803 38.8652 27.7187 38.9268C27.6571 38.9885 27.6224 39.072 27.6223 39.1592V42.6323C27.6224 42.7195 27.6571 42.803 27.7187 42.8647C27.7803 42.9263 27.8639 42.961 27.951 42.9611H33.5295C33.6167 42.961 33.7003 42.9263 33.7619 42.8647C33.8235 42.803 33.8582 42.7195 33.8583 42.6323V39.1592C33.8582 39.072 33.8235 38.9885 33.7619 38.9268C33.7003 38.8652 33.6167 38.8305 33.5295 38.8304Z" fill="white"/>
<path d="M33.5295 38.8304H27.951C27.8639 38.8305 27.7803 38.8652 27.7187 38.9268C27.6571 38.9885 27.6224 39.072 27.6223 39.1592V42.6323C27.6224 42.7195 27.6571 42.803 27.7187 42.8647C27.7803 42.9263 27.8639 42.961 27.951 42.9611H33.5295C33.6167 42.961 33.7003 42.9263 33.7619 42.8647C33.8235 42.803 33.8582 42.7195 33.8583 42.6323V39.1592C33.8582 39.072 33.8235 38.9885 33.7619 38.9268C33.7003 38.8652 33.6167 38.8305 33.5295 38.8304ZM33.6374 41.3252C33.6361 41.6788 33.4962 42.0178 33.2478 42.2695C32.9995 42.5211 32.6623 42.6654 32.3088 42.6713C31.7427 42.6787 32.622 42.6816 31.9393 42.6816C30.3782 42.6816 28.7504 42.6667 28.1431 42.657C28.0632 42.6554 27.9871 42.6225 27.9311 42.5655C27.875 42.5086 27.8435 42.4319 27.8432 42.352V39.1594C27.8432 39.1308 27.8546 39.1034 27.8748 39.0831C27.895 39.0628 27.9224 39.0514 27.951 39.0513H33.5293C33.5579 39.0513 33.5854 39.0627 33.6056 39.0829C33.6259 39.1031 33.6373 39.1305 33.6374 39.1592V41.3252Z" fill="#CACACA"/>
<path d="M32.7938 41.0471H28.5435C28.5059 41.0471 28.4693 41.0354 28.4385 41.0138C28.4078 40.9921 28.3845 40.9615 28.3718 40.9261L27.7154 39.0844C27.7056 39.0569 27.7026 39.0275 27.7065 38.9986C27.7105 38.9697 27.7213 38.9421 27.7381 38.9183C27.7549 38.8944 27.7772 38.8749 27.8031 38.8615C27.8289 38.848 27.8577 38.841 27.8869 38.8409L33.5871 38.8308H33.5874C33.6175 38.8308 33.6472 38.8383 33.6738 38.8526C33.7004 38.8669 33.723 38.8876 33.7396 38.9128C33.7562 38.9379 33.7663 38.9669 33.7689 38.9969C33.7716 39.0269 33.7668 39.0572 33.7549 39.0849L32.9613 40.9367C32.9473 40.9695 32.9239 40.9974 32.8941 41.0171C32.8644 41.0367 32.8295 41.0472 32.7938 41.0471Z" fill="#CACACA"/>
<path d="M30.7371 41.5013C30.9879 41.5013 31.1913 41.298 31.1913 41.0472C31.1913 40.7963 30.9879 40.593 30.7371 40.593C30.4863 40.593 30.283 40.7963 30.283 41.0472C30.283 41.298 30.4863 41.5013 30.7371 41.5013Z" fill="#3F3D56"/>
<path d="M18.5202 59.3286C18.4314 59.9829 17.9865 60.5735 17.4144 60.9592C17.2781 61.0513 17.1342 61.1318 16.9844 61.1997C16.8196 61.2741 16.6496 61.3364 16.4759 61.3863C15.7135 61.609 14.8897 61.6187 14.0881 61.6231C13.2776 61.6283 12.4674 61.6335 11.6574 61.6387C11.0186 61.6424 10.3591 61.6424 9.76922 61.3974C9.76039 61.3941 9.75175 61.3904 9.74331 61.3863C9.16376 61.1361 8.67007 60.5861 8.68413 59.957C8.68978 59.7354 8.7525 59.5189 8.86621 59.3286C8.94148 59.2007 9.03195 59.0824 9.13563 58.9763C9.45686 58.6432 9.90244 58.3819 10.3199 58.1717C11.0083 57.826 11.7862 57.3775 11.9875 56.6669C12.0087 56.5922 12.0231 56.5156 12.0304 56.4382C12.0778 55.9497 11.8402 55.5004 11.5375 55.0985C11.5079 55.0586 11.4768 55.0186 11.445 54.9786C11.3769 54.8935 11.3065 54.8099 11.237 54.7299C11.2074 54.6959 11.1778 54.6611 11.1474 54.6263C10.8676 54.3021 10.5856 53.9557 10.4383 53.5686C10.3749 53.4065 10.3396 53.2348 10.334 53.0609C10.3177 52.4325 11.0201 51.7996 11.5515 52.0964C11.8121 52.0713 12.0726 52.0453 12.3332 52.0187C12.6529 51.9869 12.9712 51.955 13.2902 51.9225H13.2909C13.3627 51.9166 13.433 51.9092 13.5034 51.9018C14.1673 51.8359 14.8307 51.7695 15.4937 51.7026C15.7883 51.6738 16.1346 51.6627 16.3264 51.8892C16.5351 52.1364 16.427 52.5272 16.2205 52.7766C16.014 53.0253 15.7276 53.2015 15.5336 53.4591C15.2827 53.7921 15.2242 54.2133 15.296 54.6263C15.3168 54.7462 15.348 54.8641 15.3893 54.9786C15.4618 55.1832 15.5621 55.3767 15.6876 55.5537C16.1228 56.1636 16.7675 56.5841 17.3396 57.0674C17.9125 57.5514 18.4484 58.1658 18.5269 58.9104C18.5291 58.9319 18.5313 58.9541 18.532 58.9763C18.5404 59.0938 18.5364 59.2119 18.5202 59.3286Z" fill="#E6E6E6"/>
<path d="M13.8653 52.5512C13.2878 51.9806 12.7958 51.3295 12.4048 50.618C12.0149 49.9102 11.7269 49.1509 11.5494 48.3625C11.3694 47.5625 11.3098 46.74 11.3725 45.9224C11.5026 44.2571 12.118 42.6665 13.1425 41.3472C13.205 41.267 13.2691 41.1879 13.3346 41.1101C13.4077 41.0231 13.5319 41.1484 13.4593 41.2348C12.4139 42.4884 11.7589 44.021 11.5754 45.643C11.4428 46.8824 11.5909 48.1358 12.0089 49.3102C12.4269 50.4845 13.104 51.5497 13.99 52.4265C14.0709 52.5063 13.9462 52.631 13.8653 52.5512Z" fill="#E6E6E6"/>
<path d="M13.0713 41.4969C13.1427 41.4702 13.2126 41.4397 13.2807 41.4055C13.2842 41.4108 13.2875 41.4162 13.291 41.4215L13.0713 41.4969Z" fill="#E6E6E6"/>
<path d="M14.4329 39.9414C14.404 40.103 14.3519 40.2595 14.2782 40.4062C14.0746 40.815 13.7503 41.1514 13.3493 41.3699C13.3271 41.3817 13.3041 41.3943 13.2812 41.4054C13.2538 41.3625 13.2257 41.3196 13.199 41.2766C13.0101 40.9954 12.8704 40.684 12.786 40.3559C12.7001 39.9702 12.7468 39.5372 12.994 39.2286C13.2405 38.92 13.7112 38.7815 14.0524 38.9814C14.1509 39.0402 14.2345 39.121 14.2967 39.2175C14.2626 39.2597 14.2286 39.3011 14.1945 39.3433C14.1915 39.3472 14.1883 39.3509 14.1849 39.3544C14.1553 39.3914 14.125 39.4277 14.0954 39.4647C13.9717 39.6164 13.8489 39.7689 13.7253 39.9199C13.8995 39.952 14.0768 39.9641 14.2538 39.9562C14.2678 39.9554 14.2826 39.9547 14.2967 39.954C14.3418 39.951 14.3877 39.9473 14.4329 39.9414Z" fill="#E6E6E6"/>
<path d="M11.9363 42.9768L11.8889 43.5941L11.8763 43.7614C11.863 43.7547 11.849 43.748 11.8356 43.7414C11.3752 43.5129 10.9689 43.1887 10.6438 42.7906C10.3187 42.3925 10.0823 41.9296 9.95043 41.4328C9.90633 41.2605 9.87541 41.085 9.85791 40.908C10.0977 40.871 10.3383 40.8333 10.5781 40.7963C10.3839 40.5437 10.1407 40.333 9.86309 40.1767C9.9264 39.559 10.1496 38.9684 10.5107 38.4633C10.5729 39.498 11.6565 40.156 12.0532 41.1131C12.175 41.4125 12.2276 41.7356 12.2074 42.0583C12.1872 42.3809 12.0945 42.6949 11.9363 42.9768Z" fill="#E6E6E6"/>
<path d="M11.7305 48.3985C11.6728 48.4015 11.6151 48.4029 11.5581 48.4022C11.0655 48.3991 10.5788 48.2954 10.1277 48.0975C9.67663 47.8996 9.27074 47.6116 8.93491 47.2512C8.66306 46.9536 8.44448 46.6113 8.28875 46.2394C8.29393 46.2387 8.29837 46.238 8.30355 46.2372C8.54336 46.2002 8.78392 46.1625 9.02373 46.1254C8.76903 45.7936 8.43052 45.5355 8.04301 45.3779C7.9906 45.0434 7.98662 44.7032 8.03117 44.3676C8.57297 45.2506 9.8394 45.3216 10.6395 45.9789C11.0211 46.297 11.2812 46.737 11.376 47.2246C11.3996 47.3451 11.4122 47.4675 11.4137 47.5902C11.4145 47.6198 11.4145 47.6487 11.4137 47.6776L11.4315 47.7175L11.7305 48.3985Z" fill="#E6E6E6"/>
<path d="M14.1108 49.4207C13.9576 49.6087 13.8044 49.7982 13.6512 49.9862C13.8396 50.0208 14.0315 50.0323 14.2226 50.0203C14.0529 50.6282 13.727 51.1812 13.2774 51.6242C13.2352 51.6657 13.1916 51.7064 13.1471 51.7449C13.1383 51.753 13.1286 51.7611 13.1198 51.7693L13.0798 51.656L13.0791 51.6553L12.8526 51.0284C12.5652 50.7395 12.3662 50.3746 12.2789 49.9766V49.9751C12.2258 49.7421 12.2136 49.5017 12.2427 49.2646C12.3692 48.2365 13.2382 47.312 13.0221 46.2987C13.4983 46.6844 13.8678 47.1856 14.0953 47.7546C13.9717 47.9063 13.8488 48.0588 13.7252 48.2098C13.8994 48.2419 14.0767 48.254 14.2537 48.2461C14.3157 48.4966 14.3494 48.7533 14.3544 49.0114C14.3551 49.0484 14.3551 49.0847 14.3544 49.1217C14.2766 49.2179 14.1982 49.3134 14.1205 49.4096C14.1175 49.4135 14.1143 49.4172 14.1108 49.4207Z" fill="#E6E6E6"/>
<path d="M41.2089 19.0521H36.6864C36.5652 19.052 36.449 19.0038 36.3633 18.9181C36.2776 18.8324 36.2294 18.7162 36.2292 18.595V14.4572C36.2294 14.3359 36.2776 14.2198 36.3633 14.134C36.449 14.0483 36.5652 14.0001 36.6864 14H41.2089C41.3301 14.0001 41.4463 14.0483 41.532 14.134C41.6177 14.2198 41.6659 14.3359 41.666 14.4572V18.595C41.6659 18.7162 41.6177 18.8324 41.532 18.9181C41.4463 19.0038 41.3301 19.052 41.2089 19.0521Z" fill="#E6E6E6"/>
<path d="M40.891 18.6711H37.0043C36.8967 18.671 36.7935 18.6282 36.7174 18.5521C36.6413 18.476 36.5985 18.3728 36.5984 18.2652V14.7869C36.5985 14.6793 36.6413 14.5761 36.7174 14.5C36.7935 14.4239 36.8967 14.3811 37.0043 14.381H40.891C40.9986 14.3811 41.1017 14.4239 41.1778 14.5C41.2539 14.5761 41.2967 14.6793 41.2969 14.7869V18.2652C41.2967 18.3728 41.2539 18.476 41.1778 18.5521C41.1017 18.6282 40.9986 18.671 40.891 18.6711Z" fill="white"/>
<path d="M40.5033 15.3937H37.392C37.3787 15.3938 37.3655 15.3912 37.3531 15.3861C37.3408 15.381 37.3296 15.3735 37.3201 15.3641C37.3106 15.3547 37.3032 15.3435 37.298 15.3312C37.2929 15.3188 37.2903 15.3056 37.2903 15.2923C37.2903 15.2789 37.2929 15.2657 37.298 15.2534C37.3032 15.241 37.3106 15.2298 37.3201 15.2204C37.3296 15.211 37.3408 15.2035 37.3531 15.1984C37.3655 15.1934 37.3787 15.1908 37.392 15.1908H40.5033C40.5166 15.1908 40.5298 15.1934 40.5422 15.1984C40.5545 15.2035 40.5657 15.211 40.5752 15.2204C40.5846 15.2298 40.5921 15.241 40.5972 15.2534C40.6024 15.2657 40.605 15.2789 40.605 15.2923C40.605 15.3056 40.6024 15.3188 40.5972 15.3312C40.5921 15.3435 40.5846 15.3547 40.5752 15.3641C40.5657 15.3735 40.5545 15.381 40.5422 15.3861C40.5298 15.3912 40.5166 15.3938 40.5033 15.3937Z" fill="#04CD91"/>
<path d="M40.5032 15.7946H37.392C37.3651 15.7946 37.3393 15.7839 37.3202 15.7649C37.3012 15.7459 37.2905 15.7201 37.2905 15.6931C37.2905 15.6662 37.3012 15.6404 37.3202 15.6214C37.3393 15.6024 37.3651 15.5917 37.392 15.5917H40.5032C40.5301 15.5917 40.5559 15.6024 40.575 15.6214C40.594 15.6404 40.6047 15.6662 40.6047 15.6931C40.6047 15.7201 40.594 15.7459 40.575 15.7649C40.5559 15.7839 40.5301 15.7946 40.5032 15.7946Z" fill="#04CD91"/>
<path d="M38.7406 16.1956H37.392C37.3651 16.1956 37.3393 16.1849 37.3202 16.1659C37.3012 16.1469 37.2905 16.1211 37.2905 16.0941C37.2905 16.0672 37.3012 16.0414 37.3202 16.0224C37.3393 16.0034 37.3651 15.9927 37.392 15.9927H38.7406C38.7676 15.9927 38.7934 16.0034 38.8124 16.0224C38.8314 16.0414 38.8421 16.0672 38.8421 16.0941C38.8421 16.1211 38.8314 16.1469 38.8124 16.1659C38.7934 16.1849 38.7676 16.1956 38.7406 16.1956Z" fill="#04CD91"/>
<path d="M40.5033 17.0353H37.392C37.3787 17.0354 37.3655 17.0328 37.3531 17.0277C37.3408 17.0226 37.3296 17.0151 37.3201 17.0057C37.3106 16.9963 37.3032 16.9851 37.298 16.9728C37.2929 16.9604 37.2903 16.9472 37.2903 16.9339C37.2903 16.9205 37.2929 16.9073 37.298 16.895C37.3032 16.8826 37.3106 16.8714 37.3201 16.862C37.3296 16.8526 37.3408 16.8451 37.3531 16.84C37.3655 16.835 37.3787 16.8324 37.392 16.8324H40.5033C40.5166 16.8324 40.5298 16.835 40.5422 16.84C40.5545 16.8451 40.5657 16.8526 40.5752 16.862C40.5846 16.8714 40.5921 16.8826 40.5972 16.895C40.6024 16.9073 40.605 16.9205 40.605 16.9339C40.605 16.9472 40.6024 16.9604 40.5972 16.9728C40.5921 16.9851 40.5846 16.9963 40.5752 17.0057C40.5657 17.0151 40.5545 17.0226 40.5422 17.0277C40.5298 17.0328 40.5166 17.0354 40.5033 17.0353Z" fill="#E4E4E4"/>
<path d="M40.5033 17.4362H37.392C37.3787 17.4363 37.3655 17.4337 37.3531 17.4286C37.3408 17.4235 37.3296 17.416 37.3201 17.4066C37.3107 17.3972 37.3032 17.386 37.298 17.3736C37.2929 17.3613 37.2903 17.3481 37.2903 17.3347C37.2903 17.3214 37.2929 17.3082 37.298 17.2959C37.3032 17.2835 37.3107 17.2723 37.3201 17.2629C37.3296 17.2535 37.3408 17.246 37.3531 17.2409C37.3655 17.2358 37.3787 17.2332 37.392 17.2333H40.5033C40.5166 17.2332 40.5298 17.2358 40.5422 17.2409C40.5545 17.246 40.5657 17.2535 40.5752 17.2629C40.5846 17.2723 40.5921 17.2835 40.5973 17.2959C40.6024 17.3082 40.605 17.3214 40.605 17.3347C40.605 17.3481 40.6024 17.3613 40.5973 17.3736C40.5921 17.386 40.5846 17.3972 40.5752 17.4066C40.5657 17.416 40.5545 17.4235 40.5422 17.4286C40.5298 17.4337 40.5166 17.4363 40.5033 17.4362Z" fill="#E4E4E4"/>
<path d="M38.7406 17.8372H37.392C37.3651 17.8372 37.3393 17.8265 37.3202 17.8075C37.3012 17.7885 37.2905 17.7627 37.2905 17.7357C37.2905 17.7088 37.3012 17.683 37.3202 17.664C37.3393 17.645 37.3651 17.6343 37.392 17.6343H38.7406C38.7676 17.6343 38.7934 17.645 38.8124 17.664C38.8314 17.683 38.8421 17.7088 38.8421 17.7357C38.8421 17.7627 38.8314 17.7885 38.8124 17.8075C38.7934 17.8265 38.7676 17.8372 38.7406 17.8372Z" fill="#E4E4E4"/>
</g>
<defs>
<clipPath id="clip0_158_307">
<rect width="64" height="47.6902" fill="white" transform="translate(8 14)"/>
</clipPath>
</defs>
</svg>
